<svg id="Layer_1" data-name="Layer 1" xmlns="http://www.w3.org/2000/svg" viewBox="0 0 180.04 67.78"><defs><style>.cls-1{fill:#14a94c;}.cls-2{fill:#bf223a;}.cls-3{fill:#fff;}</style></defs><title>AcousticChristmas-4C</title><path class="cls-1" d="M63,137.9l-.69,2.85-.26,0c0-.71-1.31.09-2.7.19-2.81.2-4.41-1.59-4-4.11a5.78,5.78,0,0,1,5.41-4.75c1.39-.1,2.4.53,2.71-.2l.26,0-.29,2.77-.34,0c-.06-1.48-.7-2.34-2.42-2.1-1.47.19-2.65,1.58-3.09,4.13s.36,3.84,1.81,3.8a3.4,3.4,0,0,0,3.23-2.57Z" transform="translate(-17.96 -73.2)"/><path class="cls-1" d="M76.58,132.7q-.43,2.58-.89,5.14c-.14.78,0,1.41.9,1.33l-.06.33-4.36.37.06-.33c.93-.08,1.26-.74,1.4-1.52l.4-2.33-3.44.28-.4,2.33c-.14.78,0,1.41.9,1.33L71,140l-4.36.34.06-.33c.93-.07,1.26-.73,1.39-1.51l.9-5.14c.13-.78,0-1.41-.9-1.33l.06-.35,4.35-.35-.06.35c-.92.07-1.26.73-1.39,1.51l-.4,2.32,3.44-.29.4-2.31c.14-.78,0-1.41-.9-1.33l.06-.35,4.36-.37-.06.35C77.05,131.26,76.72,131.92,76.58,132.7Z" transform="translate(-17.96 -73.2)"/><path class="cls-1" d="M90.13,137.94l-.06.34-2.37.22c-.62.06-1-.11-1.18-.65l-1-2.72c-.23,0-.49.06-.76.09l-.26,0-.32,1.85c-.14.78,0,1.41.89,1.32l0,.33-4.37.4.06-.34c.94-.08,1.25-.74,1.39-1.52.3-1.72.6-3.43.89-5.15.14-.78,0-1.41-.9-1.32l.06-.35,3.49-.32c2.75-.25,4.13.4,3.82,2.15a3,3,0,0,1-1.92,2.28l1,2.12C88.85,137.37,89.2,138,90.13,137.94Zm-2.84-5.44c.24-1.34-.3-2-1.74-1.86l-.22,0c-.24,1.36-.47,2.72-.71,4.09l.22,0A2.47,2.47,0,0,0,87.29,132.5Z" transform="translate(-17.96 -73.2)"/><path class="cls-1" d="M98.53,130.67l-.9,5.15c-.13.78,0,1.41.9,1.32l0,.33-4.37.43,0-.34c.94-.09,1.26-.76,1.4-1.54.3-1.71.59-3.43.89-5.15.14-.78,0-1.41-.9-1.31l.06-.35,4.37-.43-.06.35C99,129.22,98.66,129.89,98.53,130.67Z" transform="translate(-17.96 -73.2)"/><path class="cls-1" d="M109.82,134.25c-.54,1.69-2.55,2.56-4.12,2.62s-2.92-.47-3-1.62a1.82,1.82,0,0,1,1.72-1.89,1,1,0,0,1,1.08,1.09,1.13,1.13,0,0,0-1.13,1.19c0,.56.56.81,1.41.78a2.28,2.28,0,0,0,2.1-1.33c.36-1.08-.42-1.38-1.62-1.93s-2.52-1.09-2.14-2.75c.44-2,2.38-2.45,3.61-2.48s1.66.5,2-.22l.25,0-.29,2.78-.38,0c-.07-1.49-.47-2.13-1.61-2.13a1.73,1.73,0,0,0-1.72,1.2c-.23,1,1.25,1.44,2.09,1.88C109.13,132,110.4,132.49,109.82,134.25Z" transform="translate(-17.96 -73.2)"/><path class="cls-1" d="M122,129.27l-.39,0c-.18-1.2-.6-2.09-1.65-2l-.64.06-1.11,6.43c-.14.79,0,1.41.89,1.32l-.06.34-4.36.42.06-.34c.93-.09,1.26-.75,1.39-1.54q.57-3.21,1.12-6.43l-.64.07c-1.05.1-1.81,1.1-2.4,2.38l-.39,0,.66-2.7,7.79-.76Z" transform="translate(-17.96 -73.2)"/><path class="cls-1" d="M136.5,127.05l-.9,5.14c-.13.78,0,1.41.9,1.32l-.06.34-4.36.39,0-.34c.94-.08,1.26-.74,1.4-1.53.33-1.92.67-3.85,1-5.77-1.38,2.11-2.75,4.23-4.13,6.35l-.49.05-2-5.47c-.31,1.82-.63,3.63-.94,5.45-.19,1.05,0,1.4,1,1.31l-.06.33-2.78.27.06-.34c.93-.09,1.14-.47,1.32-1.53.3-1.71.59-3.43.89-5.15.14-.78.1-1.41-.82-1.32l.06-.35,3.14-.29c.54,1.57,1.08,3.15,1.61,4.72l3.35-5.17,3.22-.29-.06.35C137,125.6,136.63,126.26,136.5,127.05Z" transform="translate(-17.96 -73.2)"/><path class="cls-1" d="M145.45,133.08l.06-.34c.92-.08,1.09-.53.88-1.48l-.19-.67-3,.25-.39.71c-.53,1-.24,1.42.69,1.35l-.06.34-3,.26.06-.35c.93-.08,1.36-.77,1.78-1.55l3.88-7.12.57,0c.58,2.22,1.17,4.44,1.75,6.66.23.77.27,1.39,1.2,1.31l-.06.35Zm.63-3-.81-3c-.58,1.07-1.17,2.14-1.75,3.22C144.37,130.25,145.23,130.18,146.08,130.12Z" transform="translate(-17.96 -73.2)"/><path class="cls-1" d="M160.52,129.87c-.55,1.67-2.56,2.47-4.13,2.48s-2.91-.54-2.94-1.69a1.75,1.75,0,0,1,1.72-1.84,1,1,0,0,1,1.08,1.11,1.09,1.09,0,0,0-1.13,1.16c0,.56.55.83,1.4.82a2.18,2.18,0,0,0,2.1-1.27c.37-1.06-.42-1.39-1.62-2s-2.51-1.15-2.14-2.8c.45-2,2.38-2.39,3.61-2.39s1.67.56,2-.15l.24,0-.29,2.77-.37,0c-.07-1.48-.48-2.14-1.62-2.17a1.64,1.64,0,0,0-1.71,1.14c-.24,1,1.25,1.48,2.08,2C159.82,127.57,161.1,128.12,160.52,129.87Z" transform="translate(-17.96 -73.2)"/><path class="cls-2" d="M169.29,108.85c-.95,1-1.82,2.11-2.81,3.07-1.9,1.84-3.82,3.68-5.82,5.44a2.79,2.79,0,0,1-4-.44c-1.74-1.87-1.81-4-.92-6.42.58-1.52,1.31-3,2-4.47a1,1,0,0,0,.08-.64c-.93,1-1.85,2.09-2.79,3.11-2.61,2.85-5.17,5.76-7.87,8.54a8.71,8.71,0,0,1-4.3,2.56c-1.31.29-1.93-.63-2.67-1.3-1.42-1.28-1.41-3.06-1-4.86A38.11,38.11,0,0,1,144,102.15c2.9-4.85,5.95-9.61,8.94-14.39.12-.19.23-.38.39-.67l-4,.65c-3,.49-6,1-8.94,1.48-2.28.41-4.55.92-6.84,1.33s-4.34.75-6.51,1.09l-13.6,2.13c-2.42.38-4.84.73-7.26,1.12-1.65.27-3.3.64-5,.89-1.36.2-2.74.34-4.1.42-4,.23-7.92.54-11.86.55a17.2,17.2,0,0,1-10-2.86c-1.43-1-1.72-2.39-1.61-4,0-.71.5-.8,1-.58,3.66,1.68,7.67,1.87,11.72,1.82,2.81,0,5.62-.06,8.43-.28,3-.23,6-.6,8.94-1.06,6.36-1,12.71-2.07,19.07-3.09,4.74-.76,9.48-1.46,14.22-2.24,3.87-.63,7.73-1.36,11.6-2,2.56-.43,5.13-.78,7.69-1.22a2,2,0,0,0,1.14-.76c.49-.67.79-1.47,1.26-2.15s.2-1.2-.31-1.68a4.08,4.08,0,0,1-.6-.87,5.5,5.5,0,0,1,.77-.38q2.53-.83,5.09-1.62a12.23,12.23,0,0,1,1.42-.44c.4-.08,1.07-.2,1.17,0a1.94,1.94,0,0,1,.22,1.46c-.52,1.31-1.19,2.56-1.8,3.84-.22.46-.43.93-.64,1.4l1.42-.11c5.59-.45,11.18-1,16.76-1.09A35.16,35.16,0,0,1,194.6,80.5a9,9,0,0,1,2.21,1.1,3,3,0,0,1,.3,4.5c-.31.31-.46.78-.76,1.12a.83.83,0,0,1-.69.14c-.16-.06-.22-.37-.35-.55s-.29-.49-.49-.56a35.31,35.31,0,0,0-4.9-1.57c-4.7-.91-9.49-.55-14.25-.3-4.53.23-9.07.58-13.6,1a2,2,0,0,0-1.24.9c-2,3.21-3.83,6.48-5.79,9.7-2.54,4.17-5.21,8.28-7.7,12.49-1.5,2.56-2.76,5.25-4.12,7.89a2.79,2.79,0,0,0-.18.58,2.61,2.61,0,0,0,0,.35,19,19,0,0,0,4.86-4q5.87-6.66,11.79-13.17c1.2-1.33,2.54-2.53,3.77-3.82a11.26,11.26,0,0,0,1.27-1.78c.27-.45.62-1-.21-1.26-.47-.17-.39-1,.09-1.22s1.21-.42,1.82-.63c1.5-.49,3-1,4.5-1.45.46-.14,1.27-.25,1.4,0a1.81,1.81,0,0,1,.05,2.11c-.79,1.12-1.66,2.19-2.41,3.33-1.64,2.54-3.3,5.08-4.82,7.7-2.32,4-4.53,8.08-6.78,12.14a2.22,2.22,0,0,0-.13.58,1.71,1.71,0,0,0,.61-.14c1.1-.79,2.22-1.57,3.26-2.43a69.34,69.34,0,0,0,8-8.27,13.11,13.11,0,0,0,1.31-2.25c2.51-4.54,5.65-8.49,10.39-10.8a11.1,11.1,0,0,1,3.29-.95c1.56-.23,2.83.85,3.16,2.7a15.85,15.85,0,0,1,.38,4.49,9.76,9.76,0,0,1-4.85,7.55,1.26,1.26,0,0,1-1.91-.69c0-.06,0-.17,0-.21-1.27-1-.58-2.08.08-3.15.86-1.42,1.69-2.86,2.52-4.3a6.07,6.07,0,0,0,.26-.65,26.16,26.16,0,0,0-7,6.42,20.83,20.83,0,0,0-4,7.41c-.24,1-.35,1.94-.51,2.91s.32,1.2,1.14,1.23a14.38,14.38,0,0,0,8.29-2.25,40.27,40.27,0,0,0,10-9.48c.36-.46.56-1,.9-1.51a2.47,2.47,0,0,1,.68-.49c.14.24.41.49.38.72a5.65,5.65,0,0,1-.41,2,34.55,34.55,0,0,1-10.83,12,11.34,11.34,0,0,1-5.17,2.27,6.67,6.67,0,0,1-7-3.2,10,10,0,0,1-1.7-5.6C169.39,109,169.34,109,169.29,108.85Z" transform="translate(-17.96 -73.2)"/><path class="cls-2" d="M117.16,118.1a22.29,22.29,0,0,0,1.84-1.65c2-2.32,4-4.71,6-7a42.63,42.63,0,0,0,6.46-10.76,10,10,0,0,1,4-4.6c1.66-.95,3.28-.48,4.77.34a3.45,3.45,0,0,1,1.68,2.87,1.14,1.14,0,0,1-1.51,1.29c-1.88-.59-2.52-.42-3.85,1.27a9,9,0,0,0-2.18,4.68,16.24,16.24,0,0,0,.33,4.41,18.78,18.78,0,0,1,.34,7.25,6.12,6.12,0,0,1-3.18,4.79,3.9,3.9,0,0,1-3.05.07,9.06,9.06,0,0,1-5.61-5c-.28-.58-.48-.64-1-.06a19.46,19.46,0,0,1-4.38,4.26c-1.37.85-2.49.67-3.28-.58-.91-1.44-2-2.78-2-4.72l-.28-.12c-.24.33-.45.68-.72,1a22.77,22.77,0,0,1-6,5.58c-.9.52-2,1.41-2.87.45a8.86,8.86,0,0,1-1.94-3.27,9.81,9.81,0,0,1,.7-6.65c0-.09,0-.18.12-.5-.36.29-.56.47-.78.63-1.1.81-2.22,1.6-3.3,2.45a3.15,3.15,0,0,0-1,1.1,18.72,18.72,0,0,1-9.21,9.29,7.21,7.21,0,0,1-3.74.41c-.67-.08-1.26-.91-1.75-1.52a27.25,27.25,0,0,1-1.51-2.37,6.36,6.36,0,0,1-.88-3.94,2.51,2.51,0,0,0-.07-.55,2.3,2.3,0,0,0-.48.3c-2.52,2.88-5.67,4.94-8.69,7.14a6.51,6.51,0,0,1-5.54,1.24c-1.17-.3-1.52-1.33-2.13-2.14-1.83-2.45-1.87-5.37-1.21-8.3a14.8,14.8,0,0,1,2.11-4.37A25.74,25.74,0,0,1,71,103.32a15.59,15.59,0,0,1,3.37-1.79,3.76,3.76,0,0,1,4.81,3,8.55,8.55,0,0,1-.43,5.34,11.7,11.7,0,0,1-3,4.09c-1.12.91-1.89.7-2.47-.5a2.81,2.81,0,0,1,.51-3.22c.57-.7,1.08-1.46,1.61-2.19l-.15-.16c-.26.22-.53.44-.77.67-1.73,1.68-3.56,3.27-5.16,5.06a21.83,21.83,0,0,0-4.67,7.68c-.19.6-.1.77.54.76,2.43,0,4.49-1.2,6.56-2.47a50.56,50.56,0,0,0,6.75-5.57c2.55-2.25,4.36-5,6.43-7.64a24.11,24.11,0,0,1,7.51-6.64,2.72,2.72,0,0,1,2.79-.08c.7.42,1.6.56,2.25,1,1.56,1.15,1.88,3,1.93,4.87,0,1.5-.19,3-.3,4.59l2.79-2.29a15.47,15.47,0,0,0,5.14-7c.26-.78.31-1.61.54-2.4a1.23,1.23,0,0,1,.62-.73c1.49-.43,3-.76,4.47-1.17.67-.18,1.34-.42,1.8.19a1.69,1.69,0,0,1,.16,2.06c-2.29,4-4.59,7.94-6.79,12-1.47,2.67-2.77,5.42-4.14,8.14a1.1,1.1,0,0,0,0,.41,1.09,1.09,0,0,0,.26,0c3.89-1.9,7.21-4.64,8.9-8.62a62.27,62.27,0,0,1,7.72-13.12,3.47,3.47,0,0,1,1.3-1q1.94-.86,3.93-1.53c1.44-.49,2,.18,1.73,1.52a20.61,20.61,0,0,1-1.71,4.23c-1,2-2,3.94-3.09,5.91-1.69,3.2-3.39,6.4-5.07,9.61-.27.51-.49,1-.73,1.57Zm-26.71-8.73c-.59.71-1,1.2-1.42,1.71A30.89,30.89,0,0,0,84,120a10.13,10.13,0,0,0-.31,1.66,7.73,7.73,0,0,0,1.74-.19,15.84,15.84,0,0,0,7.41-5.64.6.6,0,0,0-.08-.59,5.82,5.82,0,0,1-2.29-4.88Zm40.23-4.06c-2.09,2.69-4.12,5.32-6.14,8a.72.72,0,0,0-.19.32c-.07.63,1.33,1.91,2,1.81a3.93,3.93,0,0,0,2.39-1.33,8.91,8.91,0,0,0,1.92-5.58C130.74,107.44,130.68,106.4,130.68,105.31Zm-32.56-.54a3.26,3.26,0,0,0-.06-.72,7.19,7.19,0,0,0-.32-.76,3.94,3.94,0,0,0-.68.52c-.62.78-1.25,1.55-1.81,2.37a16.17,16.17,0,0,0-2.77,5c-.13.55-.26,1.15.5,1.35,1.27.32,1.89.17,2.33-.63.31-.58.62-1.16.9-1.76A17.52,17.52,0,0,0,98.12,104.77Z" transform="translate(-17.96 -73.2)"/><path class="cls-2" d="M70.2,84.57c.07.63.22,1.36.25,2.11a17.43,17.43,0,0,1-2,8c-1.44,3-3.19,6-4.77,8.94-2.19,4.13-4.34,8.29-6.53,12.41-1.33,2.5-2.76,4.95-4,7.48-1.4,2.8-2.67,5.66-4,8.5a5.46,5.46,0,0,0-.17,1c0,.23-.13.6-.25.62a1,1,0,0,1-.72-.16,7,7,0,0,1-2.86-5.78,13.83,13.83,0,0,1,2-6.25c1.19-2.2,2.39-4.4,3.62-6.59.33-.59.16-.82-.4-1A18.53,18.53,0,0,0,41,114c-.61.13-1.16.86-1.65,1.39-2.93,3.18-5.77,6.43-8.77,9.49a21.21,21.21,0,0,1-4.23,3.26,5,5,0,0,1-6.47-.74A12,12,0,0,1,18.09,125c-.31-.49,0-1,.53-.87,3.33.61,5.38-1.61,7.55-3.51,1.67-1.47,3.24-3.08,4.85-4.65a4.15,4.15,0,0,0,.43-.58l-.66-.11c-1.75-.23-3.74-.22-4.67-2a9.79,9.79,0,0,1-.6-3.6c0-.37.27-.62.82-.36a4.31,4.31,0,0,0,1.7.26,43.23,43.23,0,0,0,10-1.26,1.78,1.78,0,0,0,.75-.55c4.35-4.72,8.59-9.58,13.06-14.26,3.31-3.47,6.88-6.72,10.42-10A6.13,6.13,0,0,1,66,81.62a1.49,1.49,0,0,1,.64,0c.51.22.9.55,1.61.15s1.79.91,1.91,1.83A8.89,8.89,0,0,1,70.2,84.57ZM66,87.49l-.17-.1c-.32.27-.66.52-1,.81-2.46,2.48-5,4.92-7.38,7.41-3.45,3.54-6.85,7.1-10.27,10.63-.32.33-.6.72-.9,1.09.49.09,1,.21,1.46.26,1.92.19,3.66.75,4.67,2.47.42.73.57.57.93,0,3.54-6.2,7.11-12.42,10.65-18.67C64.77,90.09,65.38,88.78,66,87.49Z" transform="translate(-17.96 -73.2)"/><path class="cls-3" d="M76.07,102.58a5.23,5.23,0,0,0-1.7.37,7,7,0,0,0-1.55.83c-.47.34-.94.73-1.41,1.11s-.94.76-1.4,1.15c-.93.76-1.83,1.56-2.7,2.39-.44.41-.86.84-1.26,1.28s-.8.9-1.19,1.37a15.84,15.84,0,0,1,2.19-2.91,27.42,27.42,0,0,1,2.66-2.51,31.84,31.84,0,0,1,2.92-2.2,7.16,7.16,0,0,1,1.68-.74A4.42,4.42,0,0,1,76.07,102.58Z" transform="translate(-17.96 -73.2)"/><path class="cls-3" d="M68.92,112.61c-.57.62-1.09,1.26-1.61,1.9s-1,1.31-1.43,2a18.64,18.64,0,0,0-1.21,2.12,19.54,19.54,0,0,0-.91,2.27,8.88,8.88,0,0,1,.55-2.4,12.81,12.81,0,0,1,1.15-2.24A13.63,13.63,0,0,1,68.92,112.61Z" transform="translate(-17.96 -73.2)"/><path class="cls-3" d="M96.05,101.11a3.94,3.94,0,0,0-1.47-.37,3.51,3.51,0,0,0-1.5.19,4.86,4.86,0,0,0-1.34.8c-.44.33-.87.67-1.29,1-.86.69-1.69,1.41-2.51,2.14s-1.6,1.5-2.36,2.31a16,16,0,0,1,1-1.34c.36-.43.74-.83,1.12-1.24a27.57,27.57,0,0,1,2.47-2.24c.43-.35.87-.69,1.32-1a4.6,4.6,0,0,1,1.52-.79A3.52,3.52,0,0,1,96.05,101.11Z" transform="translate(-17.96 -73.2)"/><path class="cls-3" d="M88.53,110.16c-.57.7-1.08,1.42-1.59,2.14s-1,1.47-1.41,2.24-.85,1.53-1.23,2.32-.73,1.6-1.08,2.41a14.61,14.61,0,0,1,.72-2.54,16.32,16.32,0,0,1,1.17-2.42,17.52,17.52,0,0,1,1.53-2.22A12.77,12.77,0,0,1,88.53,110.16Z" transform="translate(-17.96 -73.2)"/><path class="cls-3" d="M85.36,122.17a9.08,9.08,0,0,0,2.21-.84,16.18,16.18,0,0,0,2-1.27l.48-.36.46-.39c.32-.24.6-.54.91-.8s.58-.56.88-.84.56-.59.86-.87c-.21.35-.45.68-.68,1s-.51.65-.8,1a13.19,13.19,0,0,1-1.83,1.67,10.47,10.47,0,0,1-2.15,1.23A5.76,5.76,0,0,1,85.36,122.17Z" transform="translate(-17.96 -73.2)"/><path class="cls-3" d="M111.31,98.22c-.38.13-.76.24-1.13.38a5,5,0,0,0-1,.46c-.16.1-.2.58-.27,1s-.18.79-.3,1.18a11.6,11.6,0,0,1-2.5,4.18c.4-.71.78-1.41,1.14-2.12a16.91,16.91,0,0,0,.89-2.18c.12-.36.21-.74.3-1.12l.15-.58a1.28,1.28,0,0,1,.12-.32.67.67,0,0,1,.12-.19.83.83,0,0,1,.16-.12,3.82,3.82,0,0,1,1.19-.38A11.66,11.66,0,0,1,111.31,98.22Z" transform="translate(-17.96 -73.2)"/><path class="cls-3" d="M108.29,108.18c-.83,1.7-1.77,3.33-2.65,5-.45.82-.85,1.66-1.26,2.5s-.82,1.69-1.25,2.53a25,25,0,0,1,.89-2.65A27.26,27.26,0,0,1,105.2,113,36.44,36.44,0,0,1,108.29,108.18Z" transform="translate(-17.96 -73.2)"/><path class="cls-3" d="M124.43,96.66A19,19,0,0,0,122.24,98a.92.92,0,0,0-.2.19c-.06.06-.13.17-.2.25l-.39.51-.8,1c-1.05,1.37-2.08,2.75-3.08,4.19a20.31,20.31,0,0,1,2.7-4.48l.82-1,.42-.5a2.61,2.61,0,0,1,.23-.25,1.28,1.28,0,0,1,.29-.24A9.13,9.13,0,0,1,124.43,96.66Z" transform="translate(-17.96 -73.2)"/><path class="cls-3" d="M123,103.88l-.79,1.53c-.27.51-.54,1-.8,1.52l-1.62,3-1.61,3c-.26.5-.52,1-.77,1.53s-.5,1-.75,1.54a22.52,22.52,0,0,1,1.18-3.21c.45-1.06,1-2.08,1.51-3.1s1.12-2,1.73-3S122.27,104.81,123,103.88Z" transform="translate(-17.96 -73.2)"/><path class="cls-3" d="M138.73,94.69a3.06,3.06,0,0,0-2.72.52,12.9,12.9,0,0,0-2.08,2.16,22.51,22.51,0,0,0-1.63,2.55c-.48.9-1,1.8-1.46,2.7A25.51,25.51,0,0,1,132,99.77a14.84,14.84,0,0,1,1.58-2.68,10.77,10.77,0,0,1,2.27-2.2,3.16,3.16,0,0,1,1.49-.51A2.74,2.74,0,0,1,138.73,94.69Z" transform="translate(-17.96 -73.2)"/><path class="cls-3" d="M126.49,116.15a2,2,0,0,0,1.37-.05,3.62,3.62,0,0,0,1.18-.76,8.78,8.78,0,0,0,1.7-2.32,10.45,10.45,0,0,0,.92-2.71,14.35,14.35,0,0,0,.29-2.85,8.66,8.66,0,0,1,.1,2.88,8.81,8.81,0,0,1-.87,2.87,7.81,7.81,0,0,1-1.9,2.42,3.9,3.9,0,0,1-1.37.71A1.91,1.91,0,0,1,126.49,116.15Z" transform="translate(-17.96 -73.2)"/><path class="cls-3" d="M164.9,74.69a24.91,24.91,0,0,1-2.45,1c-.82.3-1.66.58-2.5.83l.07-.42a1.82,1.82,0,0,1,.52.59,1.71,1.71,0,0,1,.19.76,1.91,1.91,0,0,1-.16.76,3.59,3.59,0,0,1-.17.34,3.46,3.46,0,0,1-.22.31,3.68,3.68,0,0,0,.22-.69,2.16,2.16,0,0,0,0-.67,1.34,1.34,0,0,0-.23-.58,1.4,1.4,0,0,0-.42-.42l-.41-.25.48-.17c.83-.3,1.67-.57,2.51-.81A22.67,22.67,0,0,1,164.9,74.69Z" transform="translate(-17.96 -73.2)"/><path class="cls-3" d="M151.63,91.88l-1.43,2.56L148.76,97c-1,1.7-1.94,3.4-2.87,5.12s-1.89,3.42-2.79,5.16c-.45.87-.88,1.74-1.27,2.63a11.9,11.9,0,0,0-1,2.74,10.47,10.47,0,0,1,.73-2.82c.35-.91.75-1.81,1.16-2.7.83-1.77,1.76-3.5,2.7-5.23s1.94-3.41,3-5.08S150.51,93.49,151.63,91.88Z" transform="translate(-17.96 -73.2)"/><path class="cls-3" d="M170.43,91.27c-.31.17-.64.31-1,.47l-1,.41q-1,.41-2,.75l0-.46a1.05,1.05,0,0,1,.44,1,2.39,2.39,0,0,1-.29,1A5.85,5.85,0,0,1,165.57,96c.14-.29.31-.55.44-.83s.26-.56.37-.84a2.79,2.79,0,0,0,.17-.83,1,1,0,0,0-.06-.35.45.45,0,0,0-.16-.22l-.49-.26.54-.2c.66-.24,1.33-.46,2-.66.34-.09.68-.19,1-.27S170.08,91.33,170.43,91.27Z" transform="translate(-17.96 -73.2)"/><path class="cls-3" d="M166,99.55,163.9,103c-.69,1.15-1.39,2.29-2.06,3.45s-1.33,2.32-2,3.49c-.33.59-.65,1.17-1,1.77s-.61,1.19-.94,1.79a33.54,33.54,0,0,1,1.55-3.72c.58-1.21,1.22-2.4,1.9-3.56s1.39-2.31,2.16-3.41S165.14,100.58,166,99.55Z" transform="translate(-17.96 -73.2)"/><path class="cls-3" d="M186.65,92.58a2.7,2.7,0,0,0-2.56-.42,9.56,9.56,0,0,0-1.22.64c-.4.24-.8.48-1.19.73a23.27,23.27,0,0,0-4.31,3.55,27.92,27.92,0,0,0-3.41,4.45c-.47.81-1,1.62-1.36,2.47s-.79,1.7-1.21,2.56c.31-.89.6-1.79,1-2.66s.81-1.71,1.25-2.55A24.23,24.23,0,0,1,177,96.74a20.1,20.1,0,0,1,4.47-3.54c.4-.23.82-.46,1.24-.67l.62-.32a4,4,0,0,1,.67-.29A2.75,2.75,0,0,1,186.65,92.58Z" transform="translate(-17.96 -73.2)"/><path class="cls-3" d="M184.65,99a19.62,19.62,0,0,1-1.52,2.91l-.43.68a1.34,1.34,0,0,0-.19.66,2.11,2.11,0,0,0,.51,1.4,1.75,1.75,0,0,1-.9-1.37,1.55,1.55,0,0,1,.17-.91c.13-.25.28-.47.42-.71A17.91,17.91,0,0,1,184.65,99Z" transform="translate(-17.96 -73.2)"/><path class="cls-3" d="M186.65,110.57a12.48,12.48,0,0,1-2.51,2.41,13.89,13.89,0,0,1-3.06,1.7,14.23,14.23,0,0,1-1.67.56,12.58,12.58,0,0,1-1.72.28c-.29,0-.58.06-.87.06H176a6,6,0,0,1-.85-.09l-.84-.14c.57,0,1.13,0,1.7,0l.84,0c.29,0,.56-.09.84-.13a15.84,15.84,0,0,0,1.66-.36c.53-.18,1.08-.33,1.59-.56a17.72,17.72,0,0,0,3-1.56,16.87,16.87,0,0,0,1.4-1A17.09,17.09,0,0,0,186.65,110.57Z" transform="translate(-17.96 -73.2)"/><path class="cls-3" d="M137,85.33c4-.81,8.06-1.53,12.09-2.2s8.08-1.26,12.12-1.81,8.08-1,12.13-1.34c2-.16,4.05-.28,6.08-.33s4.05-.06,6.07,0c-4.05.12-8.09.31-12.13.72s-8.08.91-12.12,1.46-8.08,1.1-12.12,1.69S141,84.71,137,85.33Z" transform="translate(-17.96 -73.2)"/><path class="cls-3" d="M74.77,90.5a3.5,3.5,0,0,1,.53.31,5.36,5.36,0,0,0,.53.28,7.91,7.91,0,0,0,1.15.42,16.14,16.14,0,0,0,2.41.52,45.6,45.6,0,0,0,5,.43c1.67.07,3.35.07,5,.06l5.07-.08c-.85.12-1.7.2-2.55.29s-1.7.13-2.55.18C87.69,93,86,93,84.3,93a31.1,31.1,0,0,1-5-.55,15.37,15.37,0,0,1-2.41-.67,8.16,8.16,0,0,1-1.12-.53,4.52,4.52,0,0,1-.51-.34A4.1,4.1,0,0,0,74.77,90.5Z" transform="translate(-17.96 -73.2)"/><path class="cls-3" d="M193.37,81.19a4.4,4.4,0,0,1,1.38.32,4.35,4.35,0,0,1,1.24.73,2.42,2.42,0,0,1,.81,1.25,1.93,1.93,0,0,1-.28,1.42,2.53,2.53,0,0,0-.1-1.3,2.61,2.61,0,0,0-.76-1A13.06,13.06,0,0,0,193.37,81.19Z" transform="translate(-17.96 -73.2)"/><path class="cls-3" d="M27.11,110.69c1,0,1.94,0,2.9-.09s1.94-.14,2.9-.25a41.32,41.32,0,0,0,5.72-1,26.78,26.78,0,0,1,5.83-.82,16.56,16.56,0,0,1,2.91.23,10.79,10.79,0,0,1,2.74.86,12.66,12.66,0,0,0-2.79-.62,16.18,16.18,0,0,0-2.87-.08,28.77,28.77,0,0,0-5.72.92,36.85,36.85,0,0,1-5.8.92A33.27,33.27,0,0,1,27.11,110.69Z" transform="translate(-17.96 -73.2)"/><path class="cls-3" d="M69.08,84.78A4.13,4.13,0,0,0,67,83.26a3.63,3.63,0,0,0-2.59.42A12.58,12.58,0,0,0,62,85.28a28.5,28.5,0,0,0-2.16,2A13.62,13.62,0,0,1,61.75,85a10.24,10.24,0,0,1,2.42-1.75,4.79,4.79,0,0,1,1.44-.48,3,3,0,0,1,1.48.13A3.59,3.59,0,0,1,69.08,84.78Z" transform="translate(-17.96 -73.2)"/><path class="cls-3" d="M65.44,90.57c-.73,1.59-1.5,3.15-2.3,4.7s-1.61,3.1-2.44,4.63S59,103,58.12,104.46s-1.79,3-2.8,4.42c.41-.77.84-1.53,1.24-2.3l1.23-2.3c.81-1.53,1.65-3.06,2.48-4.59s1.68-3.06,2.54-4.58S64.53,92.07,65.44,90.57Z" transform="translate(-17.96 -73.2)"/><path class="cls-3" d="M19.44,125.22a7.67,7.67,0,0,0,2.67-.37,5,5,0,0,0,1.18-.57c.37-.24.73-.52,1.09-.8,1.44-1.14,2.83-2.35,4.3-3.48a30.41,30.41,0,0,1-4,3.87c-.38.28-.74.56-1.15.81a5,5,0,0,1-1.33.55A5.64,5.64,0,0,1,19.44,125.22Z" transform="translate(-17.96 -73.2)"/><path class="cls-3" d="M48.24,121.59c-.3.81-.59,1.61-.86,2.41a19.81,19.81,0,0,0-.64,2.43,7.68,7.68,0,0,0-.06,2.44,5.55,5.55,0,0,0,.77,2.3A4.22,4.22,0,0,1,46.3,129a6.89,6.89,0,0,1-.16-1.28,5.75,5.75,0,0,1,.11-1.31,11.15,11.15,0,0,1,.77-2.48A14.47,14.47,0,0,1,48.24,121.59Z" transform="translate(-17.96 -73.2)"/></svg>