<?xml version="1.0" encoding="UTF-8"?>
<svg id="Layer_1" data-name="Layer 1" xmlns="http://www.w3.org/2000/svg" viewBox="0 0 500 400">
  <defs>
    <style>
      .cls-1 {
        fill: #ef5297;
      }

      .cls-2 {
        fill: #ffc92b;
      }

      .cls-3 {
        fill: #708ec8;
      }

      .cls-4 {
        fill: #f58428;
      }

      .cls-5 {
        fill: #ef434e;
      }

      .cls-6 {
        fill: #f69ba2;
      }

      .cls-7 {
        fill: #6cbf5e;
      }

      .cls-8 {
        fill: #42c4dc;
      }

      .cls-9 {
        fill: #f9a12c;
      }

      .cls-10 {
        fill: #fff;
      }

      .cls-11 {
        fill: #52a346;
      }

      .cls-12 {
        fill: #0b131f;
      }

      .cls-13 {
        fill: #6bc6ae;
      }

      .cls-14 {
        fill: #a279b5;
      }
    </style>
  </defs>
  <g>
    <path class="cls-3" d="M127.65,384.95c-2.17,0-4.12-.39-5.85-1.16-1.74-.77-3.11-1.9-4.13-3.38-1.01-1.48-1.52-3.2-1.52-5.16,0-1.41.23-2.64.7-3.69.46-1.05,1.05-1.96,1.75-2.73.7-.77,1.44-1.42,2.19-1.93.48-.31.84-.6,1.08-.88.24-.27.36-.55.36-.83s-.09-.56-.28-.85c-.19-.29-.42-.64-.7-1.06-.31-.48-.59-1.07-.85-1.78-.26-.7-.39-1.57-.39-2.6,0-2.41.89-4.34,2.68-5.8,1.79-1.46,4.35-2.19,7.69-2.19,3.06,0,5.45.67,7.17,2.01,1.72,1.34,2.58,3.15,2.58,5.42,0,1.2-.2,2.21-.59,3.02-.4.81-.9,1.56-1.52,2.24-.28.38-.55.72-.83,1.03-.28.31-.41.59-.41.83,0,.17.12.41.36.72.24.31.53.65.88,1.03.24.31.47.58.7.8.22.22.42.34.59.34.24,0,.53-.27.88-.8.34-.53.75-1.21,1.21-2.04.46-.83.97-1.72,1.52-2.68.34-.62.75-1.07,1.21-1.37.46-.29,1.04-.44,1.73-.44,1.13,0,1.97.34,2.5,1.01.53.67.8,1.56.8,2.66,0,.93-.24,1.94-.72,3.04-.48,1.1-1.2,2.34-2.17,3.71-.41.55-.77,1.01-1.08,1.37-.31.36-.46.71-.46,1.06,0,.28.09.54.26.8.17.26.38.51.62.75.52.45,1.01.89,1.47,1.32.46.43.86.91,1.19,1.44.33.53.49,1.21.49,2.04,0,1.2-.37,2.29-1.11,3.25-.74.96-1.8,1.44-3.17,1.44-.93,0-1.75-.28-2.48-.85-.72-.57-1.38-1.18-1.96-1.83-.38-.45-.72-.82-1.03-1.11-.31-.29-.6-.44-.88-.44-.24,0-.47.12-.7.36-.22.24-.56.55-1.01.93-.83.76-1.91,1.44-3.25,2.06s-3.18.93-5.52.93ZM129.76,377.27c.72,0,1.37-.14,1.93-.41.57-.27,1.01-.59,1.32-.95s.46-.7.46-1.01-.15-.64-.46-.98c-.31-.34-.76-.83-1.34-1.44-.41-.48-.77-.88-1.06-1.21-.29-.33-.56-.58-.8-.75-.24-.17-.5-.26-.77-.26s-.59.11-.93.34c-.34.22-.67.51-.98.85-.31.34-.56.76-.75,1.24-.19.48-.28.98-.28,1.5,0,.93.36,1.68,1.08,2.24.72.57,1.58.85,2.58.85ZM130.02,363.19c.48,0,.93-.14,1.34-.41.41-.27.75-.64,1.01-1.11.26-.46.39-.97.39-1.52,0-.72-.21-1.3-.62-1.73-.41-.43-1.05-.64-1.91-.64s-1.52.23-1.99.7c-.46.46-.7,1.06-.7,1.78,0,.48.12.95.36,1.39.24.45.54.82.9,1.11.36.29.77.44,1.21.44Z"/>
    <path class="cls-3" d="M170.99,388.92c-1.77,0-3.17-.18-4.2-.55-1.03-.37-1.85-.97-2.47-1.81-.61-.83-1.09-1.94-1.44-3.32-.49-1.92-.85-4.52-1.07-7.81-.22-3.29-.33-6.88-.33-10.76s.11-7.26.33-10.43.58-5.71,1.07-7.63c.29-1.08.71-2.01,1.25-2.8.54-.79,1.34-1.4,2.39-1.84,1.06-.44,2.48-.77,4.27-.99,1.79-.22,4.04-.33,6.74-.33,3.34,0,6.04.26,8.11.77,2.06.52,3.57,1.3,4.53,2.36.96,1.06,1.44,2.47,1.44,4.24,0,1.47-.5,2.83-1.51,4.05-1.01,1.23-2.59,1.84-4.75,1.84-.49,0-1.14-.01-1.95-.04-.81-.02-1.66-.06-2.54-.11-.88-.05-1.67-.07-2.36-.07-.44,0-.81.09-1.11.26-.29.17-.53.49-.7.96-.17.47-.26,1.22-.26,2.25s.06,1.72.18,2.21c.12.49.33.8.63.92.29.12.66.18,1.11.18.74,0,1.41-.01,2.03-.04.61-.02,1.2-.05,1.77-.07.56-.02,1.24-.04,2.03-.04,2.16,0,3.72.52,4.68,1.55.96,1.03,1.44,2.63,1.44,4.79,0,1.97-.59,3.56-1.77,4.79-1.18,1.23-2.87,1.84-5.08,1.84-.59,0-1.25-.01-1.99-.04-.74-.02-1.43-.04-2.06-.04s-1.08.15-1.33.44c-.25.29-.37.71-.37,1.25v.85c0,.52.01,1.12.04,1.81.02.69.04,1.4.04,2.14v3.17c0,.84-.18,1.73-.55,2.69s-1.03,1.76-1.99,2.39c-.96.64-2.37.96-4.24.96Z"/>
    <path class="cls-3" d="M202.06,388.85c-1.92,0-3.48-.44-4.68-1.33-1.2-.88-2.1-2.38-2.69-4.49-.39-1.18-.68-2.7-.85-4.57-.17-1.87-.26-4.35-.26-7.44s.12-5.87.37-8.33c.25-2.46.66-4.57,1.25-6.34.54-1.92,1.2-3.27,1.99-4.05.79-.79,1.77-1.18,2.95-1.18.98,0,1.68.18,2.1.55.42.37.72.77.92,1.22.15.49.27.86.37,1.11.1.25.22.41.37.48.15.07.32.11.52.11.59,0,1.11-.17,1.55-.52.88-.83,1.78-1.57,2.69-2.21.91-.64,2.05-.96,3.43-.96s2.52.36,3.28,1.07c.76.71,1.31,1.63,1.66,2.76.34,1.13.52,2.36.52,3.68,0,2.11-.38,3.83-1.14,5.16-.76,1.33-1.76,1.99-2.98,1.99-.34,0-.74-.05-1.18-.15-.44-.1-.88-.15-1.33-.15s-.9.1-1.36.29c-.47.2-.91.55-1.33,1.07-.42.52-.75,1.15-.99,1.92-.25.76-.37,1.68-.37,2.76,0,1.57.21,3.17.63,4.79.42,1.62.63,3.49.63,5.6,0,2.51-.54,4.32-1.62,5.45-1.08,1.13-2.55,1.69-4.42,1.69Z"/>
    <path class="cls-3" d="M228.22,388.85c-1.47,0-2.68-.26-3.61-.77-.93-.52-1.67-1.29-2.21-2.32-.39-.88-.7-2.09-.92-3.61-.22-1.52-.37-3.32-.44-5.38-.07-2.06-.11-4.3-.11-6.71s.04-4.51.11-6.6c.07-2.09.21-3.94.41-5.56.2-1.62.52-2.87.96-3.76.54-1.03,1.28-1.81,2.21-2.32.93-.52,2.14-.77,3.61-.77,2.8,0,4.72,1.06,5.75,3.17.49.88.83,2.13,1.03,3.72.2,1.6.32,3.43.37,5.49.05,2.06.07,4.27.07,6.63s-.04,4.64-.11,6.71c-.07,2.06-.21,3.86-.41,5.38-.2,1.52-.54,2.78-1.03,3.76-.93,1.97-2.83,2.95-5.67,2.95ZM228.15,348.17c-1.87,0-3.32-.45-4.35-1.36-1.03-.91-1.55-2.12-1.55-3.65,0-1.62.52-2.9,1.55-3.83,1.03-.93,2.48-1.4,4.35-1.4,1.96,0,3.46.47,4.5,1.4,1.03.93,1.55,2.21,1.55,3.83,0,1.52-.52,2.74-1.55,3.65-1.03.91-2.53,1.36-4.5,1.36Z"/>
    <path class="cls-3" d="M259.46,389.14c-3.78,0-6.95-.6-9.51-1.81-2.56-1.2-4.62-2.77-6.19-4.72-1.57-1.94-2.7-4.03-3.39-6.26-.69-2.23-1.03-4.36-1.03-6.37s.31-4.05.92-6.26c.61-2.21,1.63-4.3,3.06-6.26,1.42-1.96,3.29-3.56,5.6-4.79,2.31-1.23,5.18-1.84,8.62-1.84s6.3.61,8.58,1.84c2.28,1.23,3.99,2.95,5.12,5.16,1.13,2.21,1.69,4.79,1.69,7.74,0,2.46-.54,4.26-1.62,5.42-1.08,1.15-2.73,1.73-4.94,1.73s-4.4-.01-6.71-.04c-2.31-.02-4.23-.04-5.75-.04-.54,0-.91.1-1.11.29-.2.2-.29.49-.29.88,0,.44.11.88.33,1.33s.59.86,1.11,1.25c.52.39,1.18.73,1.99.99.81.27,1.81.41,2.98.41.98,0,1.94-.06,2.87-.18.93-.12,1.9-.23,2.91-.33,1.01-.1,2.12-.15,3.35-.15,1.62,0,2.84.42,3.65,1.25.81.84,1.22,1.99,1.22,3.46,0,2.11-1.06,3.86-3.17,5.23-2.11,1.37-5.55,2.06-10.32,2.06ZM257.77,365.93c1.33,0,2.3-.05,2.91-.15.61-.1,1.03-.29,1.25-.59.22-.29.33-.66.33-1.11,0-1.03-.39-1.94-1.18-2.73-.79-.79-1.94-1.18-3.46-1.18-1.03,0-1.93.21-2.69.63-.76.42-1.35.95-1.77,1.58-.42.64-.63,1.3-.63,1.99,0,.39.12.7.37.92.25.22.74.38,1.47.48.74.1,1.87.15,3.39.15Z"/>
    <path class="cls-3" d="M285.4,388.85c-1.92,0-3.38-.37-4.38-1.11-1.01-.74-1.76-1.72-2.25-2.95-.64-1.87-1.09-4.09-1.36-6.67-.27-2.58-.41-5.29-.41-8.14,0-3.59.12-6.55.37-8.88.25-2.33.61-4.29,1.11-5.86.59-1.47,1.36-2.53,2.32-3.17.96-.64,2.07-.96,3.35-.96s2.26.25,3.09.74c.83.49,1.47,1.23,1.92,2.21.49,1.03,1.01,1.55,1.55,1.55.44,0,.96-.37,1.55-1.11,1.08-1.28,2.28-2.21,3.61-2.8s2.97-.88,4.94-.88c2.75,0,4.97.73,6.67,2.17,1.69,1.45,2.94,3.41,3.72,5.9.79,2.48,1.18,5.27,1.18,8.36,0,3.29-.09,6.42-.26,9.4-.17,2.97-.55,5.56-1.14,7.77-.39,1.43-1.06,2.52-1.99,3.28-.93.76-2.36,1.14-4.27,1.14-2.21,0-3.78-.6-4.72-1.81-.93-1.2-1.4-2.57-1.4-4.09-.05-1.92-.04-4.21.04-6.89.07-2.68.11-5.17.11-7.48,0-1.47-.29-2.63-.88-3.46-.59-.83-1.43-1.25-2.51-1.25-.44,0-.9.1-1.36.29-.47.2-.91.53-1.33.99-.42.47-.76,1.06-1.03,1.77-.27.71-.41,1.58-.41,2.62,0,2.26.07,4.45.22,6.56.15,2.11.22,4.3.22,6.56s-.63,3.8-1.88,4.75c-1.25.96-2.71,1.44-4.38,1.44Z"/>
    <path class="cls-3" d="M330.13,388.92c-2.55-.05-4.9-.83-7.04-2.36-2.14-1.52-3.84-3.75-5.12-6.67-1.28-2.92-1.92-6.47-1.92-10.65,0-3.54.53-6.66,1.58-9.36,1.06-2.7,2.59-4.85,4.61-6.45,2.01-1.6,4.45-2.4,7.3-2.4,1.67,0,3.08.23,4.24.7,1.15.47,2.22,1.14,3.21,2.03.29.25.53.42.7.52.17.1.41.15.7.15.54,0,.81-.47.81-1.4,0-.54-.01-1.15-.04-1.84-.03-.69-.05-1.42-.07-2.21-.03-.79-.04-1.52-.04-2.21,0-2.36.47-4.03,1.4-5.01.93-.98,2.41-1.47,4.42-1.47s3.5.54,4.61,1.62c1.11,1.08,1.88,2.7,2.32,4.86.44,2.11.75,4.36.92,6.74.17,2.38.29,4.82.37,7.3.07,2.48.11,4.95.11,7.41,0,3.78-.11,6.94-.33,9.47-.22,2.53-.53,4.56-.92,6.08-.54,1.82-1.31,3.12-2.32,3.91-1.01.79-2.2,1.18-3.57,1.18s-2.38-.28-3.17-.85c-.79-.56-1.43-1.34-1.92-2.32-.49-1.03-.98-1.55-1.47-1.55-.39,0-.91.39-1.55,1.18-1.08,1.18-2.25,2.08-3.5,2.69-1.25.61-2.69.92-4.31.92ZM334.33,376.1c.64,0,1.28-.12,1.92-.37.64-.25,1.25-.65,1.84-1.22.59-.56,1.06-1.25,1.4-2.06.34-.81.52-1.78.52-2.91s-.17-2.1-.52-2.91c-.34-.81-.81-1.5-1.4-2.06-.59-.56-1.2-.97-1.84-1.22-.64-.25-1.28-.37-1.92-.37-1.72,0-3.06.58-4.02,1.73-.96,1.15-1.44,2.76-1.44,4.83s.48,3.61,1.44,4.79c.96,1.18,2.3,1.77,4.02,1.77Z"/>
    <path class="cls-3" d="M364.69,389.14c-2.85,0-4.86-.49-6.04-1.47-1.18-.98-1.77-2.31-1.77-3.98,0-1.13.27-2.01.81-2.65.54-.64,1.22-1.12,2.03-1.44.81-.32,1.61-.53,2.39-.63,2.11-.29,3.77-.61,4.97-.96,1.2-.34,1.81-1.01,1.81-1.99,0-.74-.38-1.36-1.14-1.88-.76-.52-1.69-1.03-2.8-1.55-1.11-.52-2.22-1.15-3.35-1.92-1.13-.76-2.08-1.78-2.84-3.06-.76-1.28-1.14-2.95-1.14-5.01,0-2.6.81-4.78,2.43-6.52,1.62-1.74,3.75-3.06,6.37-3.94,2.63-.88,5.37-1.33,8.22-1.33s4.94.5,6.12,1.51c1.18,1.01,1.77,2.32,1.77,3.94,0,1.03-.22,1.87-.66,2.51-.44.64-1.01,1.12-1.69,1.44-.69.32-1.43.53-2.21.63-1.92.15-3.34.42-4.27.81-.93.39-1.4,1.01-1.4,1.84,0,.74.39,1.34,1.18,1.81.79.47,1.74.95,2.87,1.44,1.13.49,2.27,1.12,3.43,1.88,1.15.76,2.12,1.77,2.91,3.02.79,1.25,1.18,2.89,1.18,4.9,0,2.11-.55,3.97-1.66,5.56-1.11,1.6-2.59,2.91-4.46,3.94-1.87,1.03-3.94,1.81-6.23,2.32-2.28.52-4.56.77-6.82.77Z"/>
  </g>
  <g>
    <path class="cls-10" d="M495.76,265.66c0-6.81-5.52-12.33-12.33-12.33-3.48,0-6.62,1.45-8.87,3.77-4.76-2.32-10.1-3.63-15.74-3.63-10.42,0-19.82,4.45-26.41,11.55-6.81-7.85-16.85-12.83-28.04-12.83-6.7,0-12.99,1.79-18.42,4.91v-4.64c0-10.01-7.55-18.29-17.25-19.44,13.65-30.21,14.52-70.71,6.39-101.22-9.19-36.95-37.08-58.26-72.44-69.19,9.38-5.35,13.49-17.84,9.11-27.71-8.91-21.1-39.81-14.2-53.14-2.81-8.3-12.3-24.82-26.04-40.64-19.59-8.06,3.31-13.62,11.66-13.54,20.39-11.93-6.39-33.79-.94-33.72,16.25-29.58,5.09-49.82,42.48-27.97,66.36-15.78,37.02-15.09,86.3,3.07,122.73-15.98.17-29.92,9.02-37.33,22.04-6.34-5.05-14.36-8.07-23.07-8.07-5.08,0-9.92,1.03-14.33,2.88-.46-2.93-1.58-5.75-3.35-8.24-3.03-4.27-7.53-7.11-12.68-7.99-2.42-.41-4.9-.62-7.35-.62-23.97,0-43.48,19.5-43.48,43.48s19.5,43.48,43.48,43.48c2.47,0,4.94-.21,7.35-.62,3.66-.62,6.91-2.23,9.53-4.51,5.95,4.05,13.12,6.41,20.84,6.41,12.04,0,22.75-5.76,29.54-14.67,7.92,8.24,19.04,13.39,31.34,13.39,2.47,0,4.94-.21,7.35-.62,3.66-.63,6.91-2.23,9.52-4.51,5.94,4.05,13.12,6.41,20.83,6.41,8.75,0,16.8-3.05,23.15-8.14,3.6,4.19,8.91,6.85,14.85,6.85,6.89,0,12.95-3.57,16.44-8.96,3.49,5.39,9.56,8.96,16.44,8.96s12.96-3.58,16.45-8.97c3.49,5.4,9.56,8.97,16.45,8.97,5.65,0,10.73-2.42,14.31-6.26,7.09,5.77,16.24,8.82,26.62,8.82,6.83,0,13.45-1.38,19.1-3.97.74-.34,3.07-1.49,5.49-3.59,3.46,3.1,8.02,5,13.02,5,5.94,0,11.26-2.67,14.85-6.85,6.35,5.08,14.4,8.14,23.15,8.14s16.8-3.05,23.15-8.13c3.59,4.19,8.91,6.85,14.85,6.85,6.89,0,12.96-3.57,16.45-8.96,3.49,5.39,9.56,8.96,16.45,8.96,10.8,0,19.58-8.79,19.58-19.59v-16.08c0-5.24-1.12-10.22-3.14-14.72,2.49-2.26,4.05-5.51,4.05-9.13Z"/>
    <path class="cls-13" d="M327.38,263.09c-18.31,0-26.65,13.82-26.65,26.66,0,15.71,11.29,26.26,28.1,26.26,5.13,0,10.02-1,14.14-2.89,1.08-.49,4.06-2.33,4.96-4.88.44-1.27.32-2.55-.37-3.94-.95-1.91-2.66-2.84-5.22-2.84-1.81,0-3.43.49-4.24.78-2.79,1.01-5.8,1.36-7.54,1.36-7.76,0-12.91-2.14-14.57-6.04-.77-1.79-.2-2.43,2.68-2.43h25.44c6.54,0,9.61-5.59,8.41-13.17-1.2-7.6-9-18.88-25.15-18.88M336.79,283.96h-18.62c-3.23,0-3.23-.93-3.01-1.79,1.35-5.33,7.16-7.71,12.31-7.71,6.32,0,11.15,3.03,12.32,7.72.22.86-.33,1.78-3.01,1.78"/>
    <path class="cls-8" d="M366.44,245.05c-4.21,0-7.63,3.42-7.63,7.63v53.13c0,4.21,3.42,7.63,7.63,7.63s7.63-3.42,7.63-7.63v-53.13c0-4.21-3.42-7.63-7.63-7.63"/>
    <path class="cls-14" d="M458.9,265.65c-13.28,0-24.08,10.8-24.08,24.08v16.08c0,4.21,3.43,7.64,7.63,7.64s7.64-3.42,7.64-7.64v-16.08c0-4.86,3.95-8.81,8.81-8.81s8.81,3.95,8.81,8.81v16.08c0,4.21,3.42,7.64,7.64,7.64s7.63-3.42,7.63-7.64v-16.08c0-13.28-10.8-24.08-24.08-24.08"/>
    <path class="cls-7" d="M271.46,265.65c-5.6,0-11.06,1.97-15.36,5.55l-1.1.92-1.1-.92c-4.28-3.58-9.73-5.55-15.34-5.55-13.28,0-24.08,10.8-24.08,24.08v16.08c0,4.21,3.42,7.64,7.64,7.64s7.63-3.42,7.63-7.64v-16.08c0-4.86,3.95-8.81,8.81-8.81s8.81,3.95,8.81,8.81v16.08c0,4.21,3.42,7.64,7.63,7.64s7.64-3.42,7.64-7.64v-16.08c0-4.86,3.96-8.81,8.83-8.81s8.81,3.95,8.81,8.81v16.08c0,4.21,3.42,7.64,7.63,7.64s7.64-3.42,7.64-7.64v-16.08c0-13.28-10.8-24.08-24.08-24.08"/>
    <path class="cls-9" d="M149.15,265.89c.43.08.88.11,1.31.11,3.72,0,6.87-2.67,7.5-6.35.71-4.15-2.09-8.1-6.24-8.81-1.75-.3-3.55-.45-5.34-.45-17.39,0-31.53,14.14-31.53,31.53s14.14,31.53,31.53,31.53c1.79,0,3.58-.15,5.34-.45,4.15-.71,6.95-4.66,6.24-8.81-.63-3.68-3.79-6.35-7.52-6.35-.43,0-.87.04-1.3.11-.91.15-1.84.23-2.76.23-8.97,0-16.26-7.29-16.26-16.26s7.3-16.26,16.26-16.26c.94,0,1.86.08,2.77.23"/>
    <path class="cls-5" d="M47.79,265.66c.93,0,1.87.08,2.77.23.44.07.88.11,1.31.11,3.72,0,6.87-2.67,7.5-6.35.71-4.15-2.09-8.1-6.24-8.81-1.75-.3-3.55-.45-5.34-.45-17.39,0-31.53,14.15-31.53,31.53s14.14,31.53,31.53,31.53c1.79,0,3.59-.15,5.34-.45,4.15-.71,6.95-4.66,6.24-8.81-.63-3.68-3.79-6.35-7.52-6.35-.43,0-.86.04-1.29.11-.91.16-1.84.23-2.77.23-8.96,0-16.26-7.29-16.26-16.26s7.3-16.26,16.26-16.26"/>
    <path class="cls-3" d="M404.45,264.37c-13.89,0-25.18,11.29-25.18,25.18s11.29,25.18,25.18,25.18,25.18-11.3,25.18-25.18-11.3-25.18-25.18-25.18M404.45,300.96c-6.29,0-11.42-5.12-11.42-11.42s5.12-11.41,11.42-11.41,11.42,5.12,11.42,11.41-5.12,11.42-11.42,11.42"/>
    <path class="cls-2" d="M184.1,264.37c-13.88,0-25.18,11.29-25.18,25.18s11.3,25.18,25.18,25.18,25.18-11.3,25.18-25.18-11.29-25.18-25.18-25.18M184.1,300.96c-6.3,0-11.42-5.12-11.42-11.42s5.12-11.41,11.42-11.41,11.42,5.12,11.42,11.41-5.12,11.42-11.42,11.42"/>
    <path class="cls-4" d="M85.51,264.37c-13.88,0-25.18,11.29-25.18,25.18s11.3,25.18,25.18,25.18,25.18-11.3,25.18-25.18-11.29-25.18-25.18-25.18M85.51,300.96c-6.3,0-11.42-5.12-11.42-11.42s5.12-11.41,11.42-11.41,11.42,5.12,11.42,11.41-5.12,11.42-11.42,11.42"/>
    <path class="cls-14" d="M482.37,263.04h-3.51c-.35,0-.54.17-.54.49v.04c0,.33.19.51.54.51h1.17v3.65c0,.35.17.54.49.54h.17c.34,0,.53-.18.53-.54v-3.65h1.15c.36,0,.55-.18.55-.51v-.04c0-.32-.18-.49-.55-.49Z"/>
    <path class="cls-14" d="M483.5,267.73c0,.35.14.54.46.54h.19c.34,0,.47-.18.47-.54v-3.06l.86,2.07c.09.2.13.37.59.37s.51-.17.6-.37l.87-2.11v3.1c0,.35.14.54.47.54h.18c.34,0,.47-.18.47-.54v-4.13c0-.38-.22-.59-.6-.59h-.31c-.34,0-.47.1-.6.43l-1.06,2.45-1.05-2.45c-.14-.31-.25-.43-.62-.43h-.32c-.37,0-.59.21-.59.59v4.13Z"/>
    <g id="The_Melon" data-name="The Melon">
      <g id="The_Melon-2" data-name="The Melon">
        <g id="Melon">
          <path class="cls-7" d="M320.92,172.5c0,43.9-14.71,71.4-29.34,87.37,2.09,1.42,4.03,3.05,5.78,4.86.26-.32.51-.63.78-.94,4.64-5.37,12.87-11.7,26.18-12.55,15.07-15.81,26.95-40.48,26.95-78.74,0-46.28-15.16-73.75-32.94-90.22,0,0,0,0,0,0-8.28-4.05-18.15-7.79-29.37-10.42,0,0,0,0,0,0,15.52,15,31.96,44.45,31.96,100.63Z"/>
          <g>
            <path class="cls-11" d="M271.03,253.7c.14,0,.28,0,.42,0,7.45,0,14.38,2.28,20.13,6.17,14.62-15.97,29.34-43.47,29.34-87.37,0-56.19-16.43-85.63-31.96-100.63-7.67-1.8-15.96-3.07-24.8-3.56,8.23,18.8,17.69,59.57,17.69,104.19,0,33.36-4.84,62.09-10.83,81.2Z"/>
            <path class="cls-11" d="M351.28,172.5c0,38.26-11.88,62.93-26.95,78.74.99-.06,2.01-.1,3.05-.1,3.89,0,7.52.49,10.87,1.38,1.87-1.27,3.61-2.62,5.2-4.07,18.72-17.03,24.55-50.75,24.55-73.59,0-24.91-4.33-55.3-24.8-75.85-4.63-4.65-13.16-10.99-24.86-16.71,17.78,16.46,32.94,43.94,32.94,90.22Z"/>
            <path class="cls-11" d="M168.69,248.44c2,1.82,4.21,3.49,6.64,5.02,2.81-.68,5.74-1.05,8.76-1.05,1.78,0,3.52.13,5.23.37-15.78-15.73-28.46-40.75-28.46-80.28,0-46.28,15.16-73.75,32.94-90.22-11.7,5.72-20.23,12.06-24.86,16.71-20.47,20.55-24.8,50.94-24.8,75.85,0,22.84,5.83,56.56,24.55,73.59Z"/>
            <path class="cls-11" d="M219.77,259c5.47-3.36,11.91-5.3,18.78-5.3.87,0,1.73.04,2.59.1-6-19.11-10.86-47.89-10.86-81.29,0-44.62,9.47-85.4,17.69-104.19-8.84.49-17.14,1.77-24.8,3.56-15.52,15-31.96,44.45-31.96,100.63,0,43.11,14.19,70.41,28.55,86.5Z"/>
          </g>
          <path class="cls-7" d="M189.33,252.78c9.06,1.29,17.08,5.86,22.81,12.47,2.24-2.41,4.81-4.52,7.63-6.25-14.36-16.09-28.55-43.39-28.55-86.5,0-56.19,16.43-85.63,31.96-100.63h0c-1.61.38-3.19.78-4.75,1.2-.01,0-.02,0-.03,0-9.26,2.51-17.51,5.75-24.59,9.21,0,0,0,0,0,0-17.78,16.46-32.94,43.94-32.94,90.22,0,39.53,12.68,64.55,28.46,80.28Z"/>
          <path class="cls-7" d="M255,257.68c4.93-2.54,10.43-3.91,16.03-3.98,5.98-19.11,10.83-47.85,10.83-81.2,0-44.62-9.47-85.4-17.69-104.19,0,0,0,0,0,0-2.65-.15-5.35-.22-8.09-.22s-5.44.08-8.09.22c0,0,0,0,0,0-8.23,18.8-17.69,59.57-17.69,104.19,0,33.41,4.86,62.18,10.86,81.29,4.85.35,9.57,1.68,13.86,3.89Z"/>
          <g>
            <path class="cls-11" d="M290.43,33.97c-16.5.19-27.91,7.56-32.51,20.93,2.21.09,4.37.34,6.47.71,3.07-7.71,8.94-12.52,17.53-14.42,1.05-3.89,4.41-6.82,8.52-7.23Z"/>
            <path class="cls-11" d="M231.93,24.82c2.77,1.74,4.61,4.82,4.61,8.33,0,.65-.06,1.28-.18,1.89,5.84,4.85,9.78,11.66,11.67,20.44,2.06-.34,4.2-.54,6.38-.61-2.77-14.51-10.55-24.45-22.48-30.06Z"/>
            <path class="cls-8" d="M301.25,43.76c0,5.43-4.4,9.84-9.84,9.84s-9.84-4.4-9.84-9.84,4.4-9.84,9.84-9.84,9.84,4.4,9.84,9.84"/>
            <path class="cls-8" d="M236.54,33.16c0,5.43-4.4,9.84-9.84,9.84s-9.84-4.4-9.84-9.84,4.4-9.84,9.84-9.84,9.84,4.4,9.84,9.84"/>
            <path class="cls-1" d="M288.97,71.86c-4.16-9.83-17.78-17-33.17-17s-28.46,7.17-32.62,17h65.79Z"/>
          </g>
        </g>
        <g id="Face">
          <path class="cls-10" d="M259.62,98.21c-1.41,0-2.62,0-3.55,0-.93,0-2.14,0-3.55,0-5.49,0-13.93.04-20.02.21-6.17.16-27.78.38-39.79,3.13-4.23.97-6.24,3.33-8.04,6.2-1.15,1.83-5.17,8.69-8.8,20.31-3.9,12.47-5.91,25.72-5.97,39.39-.14,29.37,2.37,41.67,5.11,50.58,1.67,5.45,5.92,7.97,10.13,9.9,7.61,3.49,14.84,5.61,34.58,8.13,10.43,1.33,22.11,1.39,33.18,1.39,1.07,0,2.13,0,3.19,0s2.12,0,3.19,0c11.07,0,22.75-.06,33.18-1.39,19.74-2.52,26.97-4.64,34.58-8.13,4.21-1.93,8.46-4.45,10.13-9.9,2.74-8.91,5.25-21.21,5.11-50.58-.06-13.67-2.07-26.92-5.97-39.39-3.64-11.61-7.66-18.48-8.81-20.31-1.8-2.88-3.81-5.23-8.04-6.2-12.02-2.75-33.63-2.97-39.79-3.13-6.09-.16-14.53-.21-20.02-.21"/>
          <path class="cls-6" d="M259.55,104.29c2.85,0,12.7.01,19.86.2.59.02,1.32.03,2.17.05,7.83.17,26.15.58,36.43,2.93,1.9.44,2.78,1.16,4.25,3.51,1.05,1.67,4.74,7.97,8.15,18.89,3.72,11.89,5.64,24.54,5.7,37.6.14,28.56-2.25,40.31-4.84,48.77-.79,2.59-2.59,4.2-6.86,6.16-7.03,3.23-13.74,5.19-32.81,7.63-9.72,1.24-20.42,1.34-32.41,1.34h-1.6s-1.58,0-1.58,0h-3.19c-11.98,0-22.69-.1-32.41-1.34-19.08-2.44-25.78-4.4-32.81-7.63-4.27-1.96-6.06-3.57-6.86-6.16-2.59-8.45-4.98-20.21-4.84-48.77.06-13.06,1.98-25.71,5.7-37.6,3.42-10.92,7.1-17.22,8.15-18.89,1.47-2.35,2.35-3.07,4.25-3.51,10.28-2.35,28.6-2.76,36.43-2.93.85-.02,1.58-.04,2.17-.05,7.16-.19,17.01-.2,19.86-.2,1.39,0,2.6,0,3.58,0,.92,0,2.13,0,3.52,0"/>
          <g>
            <g>
              <path class="cls-12" d="M300.99,146.31c-3.8.21-7.36,1.94-9.76,4.8-3.11,3.69-4.55,9.04-4.72,13.08-.3,7.16-.94,12.95,4.44,18.41,5.4,5.46,16.62,6.02,23.13-.1,6.49-6.12,3.59-18.9,1.37-25.14-2.21-6.24-7.44-11.45-14.46-11.06Z"/>
              <path class="cls-10" d="M310.64,165.22c-1.8-.24-3.43-3.25-3.73-5-.29-1.75-.67-4.67.97-5.42,2.26-1.03,3.85,3.43,4.38,6.34.54,2.91.19,4.33-1.63,4.08Z"/>
              <path class="cls-12" d="M220.54,151.06c-2.44-2.84-6-4.53-9.8-4.71-7.02-.34-12.19,4.92-14.34,11.17-2.15,6.24-4.92,19.03,1.63,25.09,6.57,6.06,17.77,5.4,23.1-.1,5.32-5.5,4.63-11.28,4.25-18.43-.21-4.03-1.7-9.37-4.84-13.03Z"/>
              <path class="cls-10" d="M219.06,165.22c-1.8-.24-3.43-3.25-3.73-5-.29-1.75-.67-4.67.97-5.42,2.26-1.03,3.85,3.43,4.38,6.34.54,2.91.19,4.33-1.63,4.08Z"/>
            </g>
            <path class="cls-12" d="M247.1,181.05c1.92-1.24,4.12-3.94,7-3.11,5.81,1.71,7.21-2.65,2.27-5.45-3.27-1.67-6.92-1.07-9.87,1.8-1.39,1.47-3.24,3.64-2.34,5.64.48,1.04,1.64,1.66,2.61,1.26l.33-.14Z"/>
            <path class="cls-12" d="M286.09,196.53c-.45-3.64-2.99-6.33-7.03-7.17-1.99-.33-4.83-.64-5.98,1.22-.59.99-.45,2.29.42,2.87h0c.22.14.45.26.7.36.53.2,1.11.37,1.71.56.12.04.2.17.17.29-.75,3.62-3.55,6.65-6.67,8.68-5.56,3.1-11.86,3.06-17.32.58-2.11-.95-3.08-2.01-4.98-2.96-.49-.25-1.04-.39-1.58-.36-2.09.09-2.27,2.27-1.24,4.27,1.78,3.09,6.22,5.12,9.28,6,10.02,3.08,22.61-1.69,27.19-11.18.09-.18.33-.19.44-.02,2.07,3.35,5.28,1.74,4.89-3.14Z"/>
          </g>
        </g>
      </g>
      <g id="The_Ladybug" data-name="The Ladybug">
        <path class="cls-5" d="M158.27,68.48c12.59-10.43,31.06-9.15,36.18-2.97,6.83,8.25,4.85,22.65-9.93,34.89-17.51,14.52-28.92,11.49-33.36,6.14-6.74-8.13-9.13-24.6,7.1-38.06"/>
        <path class="cls-12" d="M187.4,84.84c1.5,2.35,1.17,6.4-1.68,8.86-3.6,3.12-8.65,1.49-9.93-.5-1.38-2.15-.84-5.66,2.65-8.27,2.73-2.04,7.53-2.33,8.96-.09"/>
        <path class="cls-12" d="M159.85,93.92c3.16-1.6,6.25-6.1,4.53-9.78-1.6-3.43-6.49-4.86-9.73-3.61-4.34,1.67-6.23,8.37-4.76,11.45,1.59,3.31,6.14,3.88,9.96,1.94"/>
        <path class="cls-12" d="M168.07,69.95c-5.31-1.31-.03-9.17,10.2-4.88.5.21.8.74.72,1.28-2.32,16.21-18.82,14.81-10.92,3.6"/>
        <path class="cls-12" d="M162.24,100.88c4.34-.14,6.18,1.31,6.98,3.09.95,2.12-3.13,4.36-5.17,4.66-3.05.45-6.69-.74-7.27-2.81-.58-2.06,1.67-4.82,5.45-4.94"/>
        <path class="cls-12" d="M211.37,61.9c-3.71-6.23-12.63-9.71-19.7-6.74-.07-1.1.1-2.25.41-3.1.66-2.09,2.7-4.37,5.02-3.31.79.38,1.76.33,2.52-.21,2.64-1.94-.18-5.9-2.88-4.05-4.02,2.6-6.66,6.43-6.59,11.18,0,.08,0,.15,0,.23-.25.15-.51.3-.75.47-.61.41-1.16.85-1.65,1.32-2.19-1.93-3.53-5.06-2.95-7.83.33-1.22,1.23-2.23,2.46-2.47.77-.16,1.46-.68,1.78-1.46.53-1.25-.06-2.69-1.31-3.22-1.49-.64-3.02.34-3.44,1.83-2.36,5.42-.97,10.44,2.45,14.23-3.56,4.32-3.11,10.26-.48,14.93,3.16,5.62,9.25,11.35,17.77,6.33,7.13-4.2,10.55-12.72,7.33-18.14Z"/>
        <path class="cls-10" d="M195.61,71.2c.81-2.64,4.63-3.96,7.06-2.26.95.67,1.58,1.72,1.84,2.85.26-1.52.02-3.16-.69-4.46-1.66-3.06-5.19-5.31-8.62-3.76-3.93,1.77-4.73,5.43-3.02,8.75,1.05,2.05,3.22,3.52,5.47,3.98-1.61-1.12-2.6-3.26-2.04-5.1Z"/>
        <path class="cls-10" d="M199.46,69.23c-.19.13-.32.33-.37.56-.08.42.2.78.56.96.36.18,1.12.45,1.54.1.42-.35.47-1.03.18-1.4-.29-.37-.65-.37-1.08-.41-.25-.02-.58.03-.83.19Z"/>
      </g>
    </g>
  </g>
</svg>