<svg xmlns="http://www.w3.org/2000/svg" viewBox="0 0 500 400"><defs><style>.cls-1{fill:#8c0603;}.cls-2{fill:#1f4373;}.cls-3{fill:#5b98a6;}.cls-4{fill:#356b8c;}.cls-5{fill:#d92929;}.cls-6{fill:#fff;}.cls-7{fill:#f2e6d8;}</style></defs><g id="LOGO"><path class="cls-1" d="M44.58,213.57v76.15c30.47-13,50.08-32.73,56.76-32.43l.42-55.66C95.08,201.33,44.58,201.55,44.58,213.57Z"/><path class="cls-2" d="M15.82,187.16h7.36c4.44,0,5.48-1,5.79-5.37.31-5.58.31-65,0-69.69-.31-4-1.66-5.78-5.37-5.78H20.08c.11-2.28.11-9.09,0-11.26,0,0,12.6.21,19.63.21s19-.21,19.52-.21c-.11,2.17-.11,9,0,11.26H56.54c-3.72,0-5.57,1.75-5.88,5.78-.21,2.07-.21,22.28-.21,29.2,6.09.11,23.23.11,30,0,0-6.81,0-15.78-.11-17.74-.31-4-2.27-5.78-6-5.78H71.62c.1-2.28.1-9.09,0-11.26,0,0,12.5.21,19.52.21s19-.21,19.52-.21c0,0-.21,5.68,0,11.26h-3.31c-3.72,0-5.06,1.75-5.37,5.78-.31,4.55-.31,111.59,0,117,.21,3.93,1.24,5.47,5.68,5.47h3s-.21,5.79,0,11.57c0,0-12.4-.31-19.52-.31s-19.52.31-19.52.31c.1-2.27.1-9.29,0-11.57h2.89c4.54,0,5.78-2,5.78-5.47,0-2.27.11-79.65.11-86.37-6.72-.1-23.86-.1-29.95,0,0,6.61.1,25.26.21,27.54.2,3.51.93,5.47,5.68,5.47h2.89c-.11,2.27-.11,9.3,0,11.57,0,0-12.5-.31-19.52-.31s-23.89.31-23.89.31C15.93,196.46,15.93,189.43,15.82,187.16Z"/><path class="cls-3" d="M107.05,163c0-25.82,14.77-37.5,37.39-37.5,24.79,0,37.29,11.16,37.29,37.4,0,26.85-16.12,37.38-37.29,37.38C120.17,200.24,107.05,189.5,107.05,163Zm49.89-.1c0-19.32-2.69-25.83-12.5-25.83-9.4,0-12.6,7-12.6,25.93,0,19.21,2.58,25.72,12.6,25.72C154.15,188.68,156.94,181.65,156.94,162.86Z"/><path class="cls-2" d="M222.21,125.19h-3.1c-4.23,0-6.3,1.76-6.61,6.51-.31,5.37-.31,48,0,54.28.31,5,2.58,5.88,6.41,5.88h3.92c8.06,0,12.08-2.48,12.5-20,2.06.1,8.57.1,10.74,0-.31,7.64-.41,24.06-.31,31.7-7.13-.41-16.94-.41-22.1-.41H199.9c-4.34,0-12.81,0-18.17.11.1-2.18.1-9.09,0-11.37h3.4c4.75,0,5.37-2.27,5.58-6.81.31-5.89.31-48.7,0-53.35-.31-4-1.65-6.51-5.37-6.51h-8c.11-2.27.11-9.08,0-11.25,0,0,17.56.2,24.89.2s19.31-.2,20-.2C222.11,116.21,222.11,122.92,222.21,125.19Z"/><path class="cls-3" d="M227.51,152.1h3.31c4.33,0,5.06-2,5.37-5.47.31-4.85.31-32,0-36.64-.31-4-1.66-5.78-5.37-5.78h-3.31c.1-2.28.1-9.09,0-11.26,0,0,12.71.21,19.73.21S266.35,93,266.86,93c-.1,2.17-.1,9,0,11.26h-3.3c-3.72,0-5.06,1.75-5.37,5.78-.42,4.65-.31,31.79,0,36.64.2,3.51,1.34,5.47,5.37,5.47h3.2c-.1,2.28-.1,9.3,0,11.57,0,0-12.5-.31-19.62-.31s-19.63.31-19.63.31C227.61,161.4,227.61,154.38,227.51,152.1Z"/><path class="cls-4" d="M348.28,153.58c.31,26.86-14.25,36.26-34.39,36.26,0,0-13.94-.11-21.27-.11s-34.63.21-34.63.21c.1-2.17.1-9.19,0-11.47h16.14c4.75,0,6.09-1.34,6.4-6.19.31-6,.31-31.3,0-36.36-.31-4.33-2.06-6.19-5.78-6.19h-3.1c.1-2.28.1-9.09,0-11.26,1.65,0,13.63.21,21,.21h20.65C338.06,118.68,348,129.52,348.28,153.58Zm-41.52,24.48h2.48c10.95,0,16.43-4.54,16.43-24.58,0-18.69-5.27-23.55-16.32-23.55h-2.59c-3.2,0-4.13,1.86-4.23,3.72-.41,7.33-.31,32.64,0,40.28A3.93,3.93,0,0,0,306.76,178.06Z"/><path class="cls-2" d="M387.89,173.49c-6.71-.1-16-.2-22.93-.1-.24.73-7.4,19.69-7.57,20.34-1.48,5.69-.08,8.27,4.65,8.27h3.61c-.1,2.28-.1,9.3,0,11.47,0,0-10.74-.21-16.83-.21s-16.73.21-16.73.21c.1-2.17.1-9.19,0-11.47h2.16c6.1,0,8.58-2.58,11.26-9.29.72-1.86,25-65.79,26.37-69.51,0,0,7.13.21,11.05.21S394,123.2,394,123.2c4.14,11.88,15.6,41.31,19.83,51.33,3.21,7.54,5.69,9.19,9.61,9.19h2.48c-.11,2.27-.11,9.3,0,11.47,0,0-14.56-.21-22.72-.21s-22.83.21-22.83.21c.1-2.17.1-9.2,0-11.47h3.92C388.51,183.72,390.78,181.24,387.89,173.49Zm-11.46-32.12c-2.9,7.86-6.61,18.18-9.09,25.41,5.78.11,12.8.11,18.38,0C383.24,159.55,379.42,149.23,376.43,141.37Z"/><path class="cls-4" d="M459.06,163.34v30.12c0,3.71,1.13,5.89,6.09,5.89h12.27s-.2,5.78,0,11.36c0,0-22.7-.21-30.86-.21s-22.93.21-22.93.21c.1-2.17.1-9.2,0-11.36H428c5.06,0,5.47-2.28,5.47-5.89V163.24c-3.51-7.23-20-39.18-22.93-44.24-2.59-4.54-6-6.4-12-6.4h-1.66c.21-5.37,0-11.26,0-11.26s15.19.21,23.76.21,23.65-.21,23.65-.21-.1,5.68,0,11.26H441.7c-4.34,0-5.79,2.89-3,9.6,2.69,6.41,14.16,27.41,15.81,30.3,2.17-4,5.27-10.43,7.34-15.19,2.37-5.47,2.47-9.6-2.59-9.6h-2.17c.21-5.58,0-11.26,0-11.26s10.54.21,16.43.21,21.43-.21,21.43-.21-.2,6.09,0,11.26h-6.87c-9.5,0-12,2.89-14.87,7.85C470.31,140.72,462.15,156.73,459.06,163.34Z"/><path class="cls-5" d="M451.7,293.53C316,235.66,180.28,347.79,44.58,289.91V213.76C180.28,271.64,316,159.5,451.7,217.38Z"/><path class="cls-6" d="M53.12,279.31V228.67Q59,231,64.83,233v50.65C60.93,282.32,57,280.89,53.12,279.31Z"/><path class="cls-6" d="M90.08,290.28q-3.58-10-7.15-20.17c-1-2.6-1.93-5.22-2.89-7.84v25.78q-5.17-1.29-10.34-2.87V234.53q5.16,1.59,10.34,2.87,3.34,10.26,6.69,20.41,1.36,3.9,2.74,7.79V239.52q5.13,1,10.26,1.79V292Q94.9,291.24,90.08,290.28Z"/><path class="cls-6" d="M117,295c-8.9-.66-14.3-6.38-14.3-14.65v-3.64q5.1.69,10.19,1.15v3.65a3.81,3.81,0,0,0,3.58,4.1c2.28.17,3.34-1.14,3.34-3.57,0-3.58-3-6.41-6.84-10.26-4.57-4.19-10-9.93-10-16.86,0-7.41,4.79-13.46,14.37-12.74,7.76.55,13.08,6.21,13.08,13.68v3.27c-3.4-.07-6.79-.2-10.19-.41v-3.65a3.15,3.15,0,0,0-2.89-3.46,2.85,2.85,0,0,0-3.12,3.1c0,4,3,6.36,6.92,10.22,4.72,4.47,9.89,9.35,9.89,16.49C131.09,289.41,125.7,295.65,117,295Z"/><path class="cls-6" d="M150.25,253.62v40.61q-5.85.27-11.71.33V254c-2.74,0-5.48,0-8.21,0v-10c9.4.2,18.8-.1,28.21-.78v10C155.78,253.32,153,253.49,150.25,253.62Z"/><path class="cls-6" d="M181.19,291.42c-1.82.24-2.73-4.06-2.73-7.48v-9.28a2.36,2.36,0,0,0-2.51-2.59l-2.66.3v20q-5.86.66-11.71,1.13V242.85q8.21-.66,16.42-1.67c5.7-.69,11.25,2.3,11.25,9.14v8.82c0,2.51-1.67,5.5-4.71,7.36,3,1,4.94,3.41,4.94,6.07v9.28a24.46,24.46,0,0,0,1.45,8v.23C187.68,290.56,184.44,291,181.19,291.42Zm-3-38.62c0-1.75-.68-2.35-2-2.2l-2.88.33V264l2.88-.33c1.3-.15,2-.92,2-2.67Z"/><path class="cls-6" d="M208.33,288.39c-8.13,1.43-14.37-3.18-14.37-10.18V239q5.89-.9,11.79-1.92v39.24a2,2,0,0,0,2.58,2.06,3.1,3.1,0,0,0,2.74-3V236.12q5.63-1,11.25-2.08v39.23C222.32,280.26,216.62,286.93,208.33,288.39Z"/><path class="cls-6" d="M256,278V243.92q-1,6.44-2.06,12.88-1.89,11.19-3.8,22.37l-7.3,1.47q-1.74-10.44-3.5-20.89-.9-6.06-1.82-12.11v34.07q-5.21,1-10.42,2.05V233.12q7.68-1.5,15.36-3.05,1.83,9.56,3.65,19.11c.41,2.89.81,5.77,1.22,8.65.4-3,.81-6.09,1.21-9.14q1.75-10.27,3.5-20.55,7.6-1.53,15.21-3v50.64Z"/><path class="cls-6" d="M272.12,274.79V224.15c8.26-1.6,16.53-3.13,24.79-4.51v9.81q-6.54,1.1-13.08,2.3v10.49q4.26-.78,8.52-1.52v8.75q-4.26.74-8.52,1.51v11.26q6.54-1.2,13.08-2.29v10.34C288.65,271.66,280.38,273.19,272.12,274.79Z"/><path class="cls-6" d="M321.24,266.75q-3.57-8.88-7.15-17.71c-1-2.25-1.93-4.5-2.89-6.74v25.78c-3.45.48-6.89,1-10.34,1.56V219c3.45-.56,6.89-1.08,10.34-1.57q3.35,9,6.69,17.95c.92,2.3,1.83,4.59,2.74,6.89V216.18c3.42-.42,6.84-.79,10.27-1.13V265.7Q326.07,266.16,321.24,266.75Z"/><path class="cls-6" d="M353.78,223.59V264.2q-5.86.18-11.71.57v-40.6c-2.74.18-5.48.4-8.22.64v-10c9.41-.84,18.81-1.34,28.22-1.36v10C359.3,223.46,356.54,223.5,353.78,223.59Z"/><path class="cls-6" d="M379,264.55q-.37-3.84-.76-7.65c-2.3-.14-4.61-.24-6.92-.32-.35,2.53-.71,5.05-1.06,7.58-3.52-.1-7.05-.13-10.57-.09q4.41-25.37,8.82-50.6,6.76.14,13.54.64,4.33,25.63,8.66,51.45Q384.86,264.9,379,264.55Zm-3.8-34.89L372.62,248q2.28.07,4.56.21Z"/><path class="cls-6" d="M393.29,265.86V215.22q5.85.72,11.71,1.76v40.53q6.21,1.11,12.4,2.6v10.11A214.22,214.22,0,0,0,393.29,265.86Z"/><path class="cls-6" d="M431.69,275.37c-8.89-2.83-14.29-8.84-14.29-17.17v-3.64q5.09,1.23,10.19,2.73v3.65a5,5,0,0,0,3.57,4.9c2.28.73,3.35-.27,3.35-2.71,0-3.57-3.05-7.27-6.85-11.9-4.56-5.18-10-11.51-10-18.43,0-7.33,4.79-13.2,14.37-10.16a19.43,19.43,0,0,1,13.08,17.8v3.27q-5.08-2-10.19-3.77v-3.65a4.31,4.31,0,0,0-2.89-4.22c-1.59-.52-3.11.16-3.11,2.37,0,4,3,7,6.92,12,4.71,5.79,9.88,12.67,9.88,19.82C445.76,274.24,440.36,278.16,431.69,275.37Z"/><circle class="cls-7" cx="39.29" cy="145.29" r="5.49"/><circle class="cls-7" cx="39.29" cy="127.7" r="3.55"/><circle class="cls-7" cx="39.29" cy="113.62" r="2.59"/><circle class="cls-7" cx="91.13" cy="134.56" r="2.59"/><circle class="cls-7" cx="128.88" cy="136.55" r="2.59"/><circle class="cls-7" cx="160.17" cy="136.55" r="2.59"/><circle class="cls-7" cx="201.38" cy="125.46" r="2.59"/><circle class="cls-7" cx="247.19" cy="102.09" r="2.59"/><circle class="cls-7" cx="247.19" cy="154.48" r="2.59"/><circle class="cls-7" cx="201.38" cy="191.27" r="2.59"/><circle class="cls-7" cx="128.88" cy="191.27" r="2.59"/><circle class="cls-7" cx="160.17" cy="191.27" r="2.59"/><circle class="cls-7" cx="91.13" cy="199.92" r="2.59"/><circle class="cls-7" cx="39.29" cy="179.1" r="2.59"/><circle class="cls-7" cx="39.29" cy="162.88" r="3.55"/><circle class="cls-7" cx="91.13" cy="149.27" r="3.55"/><circle class="cls-7" cx="121.65" cy="148.57" r="3.55"/><circle class="cls-7" cx="167.91" cy="148.57" r="3.55"/><circle class="cls-7" cx="201.38" cy="140.1" r="3.55"/><circle class="cls-7" cx="201.38" cy="176.04" r="3.55"/><circle class="cls-5" cx="27.55" cy="225.1" r="3.55"/><circle class="cls-5" cx="5.05" cy="210.71" r="3.55"/><circle class="cls-5" cx="465.25" cy="267.29" r="3.55"/><circle class="cls-5" cx="33.8" cy="276.26" r="3.55"/><circle class="cls-7" cx="247.19" cy="113.74" r="3.55"/><circle class="cls-7" cx="247.19" cy="142.83" r="3.55"/><circle class="cls-7" cx="332.09" cy="135.19" r="3.55"/><circle class="cls-7" cx="332.09" cy="170.41" r="3.55"/><circle class="cls-7" cx="121.65" cy="180.13" r="3.55"/><circle class="cls-7" cx="167.91" cy="180.13" r="3.55"/><circle class="cls-7" cx="91.13" cy="184.77" r="3.55"/><circle class="cls-7" cx="91.13" cy="166.88" r="5.49"/><circle class="cls-7" cx="119.71" cy="164.93" r="5.49"/><circle class="cls-7" cx="169.29" cy="164.93" r="5.49"/><circle class="cls-7" cx="201.38" cy="157.61" r="5.49"/><circle class="cls-5" cx="121.65" cy="213.41" r="8.92"/><circle class="cls-5" cx="13.97" cy="160.3" r="8.92"/><circle class="cls-5" cx="22.88" cy="248.17" r="8.92"/><circle class="cls-5" cx="474.17" cy="234.04" r="8.92"/><circle class="cls-5" cx="164.37" cy="102.09" r="8.92"/><circle class="cls-5" cx="357.21" cy="113.74" r="8.92"/><circle class="cls-5" cx="483.09" cy="154.12" r="8.92"/><circle class="cls-7" cx="247.19" cy="128.28" r="5.49"/><circle class="cls-7" cx="291.74" cy="127.09" r="2.59"/><circle class="cls-7" cx="291.74" cy="179.48" r="2.59"/><circle class="cls-7" cx="291.74" cy="138.74" r="3.55"/><circle class="cls-7" cx="291.74" cy="167.84" r="3.55"/><circle class="cls-5" cx="128.75" cy="113.94" r="3.55"/><circle class="cls-5" cx="165.12" cy="210.71" r="3.55"/><circle class="cls-5" cx="282.7" cy="106.64" r="3.55"/><circle class="cls-5" cx="263.31" cy="200.24" r="3.55"/><circle class="cls-5" cx="20.46" cy="130.32" r="3.55"/><circle class="cls-5" cx="419.57" cy="162.85" r="3.55"/><circle class="cls-5" cx="477.72" cy="184.37" r="3.55"/><circle class="cls-5" cx="494.95" cy="210.71" r="3.55"/><circle class="cls-7" cx="291.74" cy="153.29" r="5.49"/><circle class="cls-7" cx="336.39" cy="153.29" r="5.49"/><circle class="cls-7" cx="386.4" cy="134.14" r="2.59"/><circle class="cls-7" cx="404.21" cy="183.41" r="2.59"/><circle class="cls-7" cx="390.36" cy="145.1" r="3.55"/><circle class="cls-7" cx="400.25" cy="172.46" r="3.55"/><circle class="cls-7" cx="395.31" cy="158.78" r="5.49"/><circle class="cls-7" cx="446.96" cy="192.15" r="4.74"/><circle class="cls-7" cx="422.16" cy="114.17" r="2.59"/><circle class="cls-7" cx="445.71" cy="160.98" r="2.59"/><circle class="cls-7" cx="427.4" cy="124.58" r="3.55"/><circle class="cls-7" cx="440.47" cy="150.58" r="3.55"/><circle class="cls-7" cx="433.93" cy="137.58" r="5.49"/></g></svg>