<?xml version="1.0" encoding="utf-8"?>
<!-- Generator: Adobe Illustrator 22.1.0, SVG Export Plug-In . SVG Version: 6.00 Build 0)  -->
<svg version="1.1" id="Layer_1" xmlns="http://www.w3.org/2000/svg" xmlns:xlink="http://www.w3.org/1999/xlink" x="0px" y="0px"
	 viewBox="0 0 244.2 109.6" style="enable-background:new 0 0 244.2 109.6;" xml:space="preserve">
<style type="text/css">
	.st0{fill:#BCBEC0;}
	.st1{fill:#FFFFFF;}
</style>
<g>
	<g>
		<path class="st0" d="M181.6,12.9c0-1,0.1-1.9-0.2-2.9c1.2-0.3,2.1,0,3.2,0c0.1,1.8,0.4,3.7,0.3,5.5c1,0.8,2,1.5,3,2.2
			c0.7-1.9,0.6-4.1,1.3-6c1.4,1.3,3.1,2.2,4.5,3.5c0.6-1,0.5-2.4,0.8-3.6c-1.2-1.5-2.4-2.9-3.6-4.3c0.8-0.7,1.3-1.5,2.3-2.1
			c0.6,0.7,1.3,1.5,1.9,2.1c0.5-1.2,0.4-2.6,0.8-3.9c1.2,0.2,2.3,0.5,3.5,0.5c0,1.5-0.5,2.7-0.5,4.2c0.6-0.1,2.2-1.2,3.1-1.2
			c0.1,0.6,0.6,1.8,1.1,2.8c-1.5,0.9-3.4,1.7-4.9,2.6c-0.2,1-0.4,2.1-0.5,3.2c2.2-0.6,4.2-2.1,6.5-2.9c-0.4,2.3-0.9,4.6-1.2,6.9
			c0.6-0.3,1.9-0.5,2.6-1c1.1-0.8,1.2-4.2,1.8-5.3c1.1,0,2,0.5,3,0.5c0,1.1-0.6,1.9-0.6,3c1.1-0.2,2.4-1,3.6-1.5
			c0.5,1.2,1.3,2.8,1.4,3.5c-1.3,0.7-2.5,0.9-3.8,1.6c0.9,0.8,1.9,1.2,2.8,1.8c-0.4,0.9-1.3,1.6-1.7,2.6c-1.7-0.8-3.3-2-4.9-2.9
			c-0.9,0.4-1.8,0.8-2.7,1.2c1.6,1.5,3.5,2.4,5.1,3.9c-2.1,0.8-4.4,1.8-6.5,2.5c1,1.1,2.1,1.7,3.2,2.5c1.8-0.5,3.5-1,5.3-1.5
			c0.5,1,0.6,1.8,1.1,2.9c-0.8,0.5-1.8,0.6-2.9,1c0.6,0.9,2.1,1.4,2.9,2.5c-0.9,0.9-1.4,1.9-2.2,2.8c-0.9-0.9-1.9-1.6-3-2.2
			c-0.1,1,0,2.1,0,3.1c-1.1,0.1-2-0.2-3.1,0c-0.2-1.9-0.1-3.7-0.2-5.5c-1-1.1-2.3-1.6-3.3-2.6c-0.8,1.8-0.3,4.2-1.1,6
			c-1.5-1.4-3.1-2.2-4.6-3.6c-0.6,1.2-0.5,2.7-0.9,4.1c1.2,1.6,2.6,2.7,3.8,4.4c-0.9,0.6-1.3,1.5-2.2,2.1c-0.8-0.7-1.5-1.5-2.1-2.3
			c-0.5,1.2-0.5,2.5-0.7,3.7c-1.2-0.1-2.4-0.4-3.6-0.5c0.2-1.3,0.5-2.5,0.6-3.8c-0.7,0.2-1.9,1-2.9,1.4c-0.4-0.9-0.8-1.9-1.3-2.8
			c1.4-1,3.4-1.8,4.9-2.7c0.3-1.3,0.4-2.6,0.6-4c-1.9,0.6-4.7,2-6.4,2.7c0-1.9,0.7-4.3,1-6.4c-0.9,0.5-2.1,0.5-2.7,0.9
			c-1.1,0.8-0.9,4.3-1.5,5.5c-1.1-0.1-2.1-0.3-3.1-0.6c0.1-1.1,0.4-2,0.6-3.1c-1.1,0-2.7,1-3.9,1.3c-0.5-1.1-1.1-2.3-1.4-3.3
			c1.1-0.3,2.4-0.9,3.6-1.5c-0.4-0.6-1.7-1.1-2.5-1.5c0.6-0.9,1-1.8,1.8-2.6c1.6,0.9,3.3,1.6,4.9,2.6c1-0.5,2-0.9,2.9-1.2
			c-1.8-1.5-3.7-2.8-5.6-4.1c1.9-0.9,4.5-1.5,6.7-2.4c-1.1-0.5-1.6-2.1-2.8-2.1c-1.2-0.1-3.4,1.6-5.1,1.7c-0.4-1-1-2.1-1.2-3
			c1-0.2,2.1-0.8,3.1-1c-1-1.2-2.3-1.6-3.3-2.7c0.9-0.9,1.2-2,2.3-2.9C179.5,11.4,180.5,12.3,181.6,12.9z M192.9,23.9
			c-0.5,0-1.7,0.5-2,0.9c0.6,0.3,1.2,0.9,1.8,1.2c-0.1,0.8-0.4,1.6-0.3,2.5c0.7-0.4,1.3-0.8,2.2-1.1c0.6,0.4,1.1,1.2,1.9,1.3
			c0-0.7,0-1.5,0.3-2.1c0.8-0.4,1.5-0.6,2.2-0.8c-0.5-0.8-1.3-0.8-1.8-1.6c0-0.8,0.5-1.5,0.2-2.4c-0.5,0.5-1.4,0.8-2.2,1.1
			c-0.6-0.5-1.1-1-1.8-1.2C193.2,22.4,193.2,23.2,192.9,23.9z"/>
	</g>
	<g>
		<path class="st0" d="M236.3,46.6c-1.1,1-2.2,1.5-3.4,2.5c1.3,0.6,2.6,1.1,4,1.5c-0.1,0.5-1.1,0.9-1.7,1.7
			c-1.6-0.4-3.1-0.9-4.7-1.6c-0.6,0.3-1.2,0.8-1.9,1.2c1,0.5,2.6,1.1,3.7,1.4c-0.3,0.6-1.2,1.2-1.8,1.7c-1.5-0.6-3-1-4.5-1.5
			c-1.8,1.1-3.5,2.3-5.2,3.5c2.5-0.2,7.6-0.8,9.9,2c0.9,1.1,0.5,2.7-0.9,3.7c-1.9,1.4-4.6,1.4-6.5,1.5c1.3,0.9,2.6,1.1,3.9,1.9
			c1.5-0.6,3-1.6,4.5-2.2c0.6,0.6,1.3,0.8,1.9,1.4c-1.1,0.7-2.3,1.3-3.5,2c0.3,0.5,1.2,0.6,1.7,0.9c1.5-0.5,3-1.6,4.6-2.2
			c0.7,0.6,1.3,0.8,2,1.3c-1.2,0.8-2.5,1.4-3.7,2.2c1,0.7,2.6,1.2,3.8,1.9c2.3-1.6,5.8,0.5,5.5,3.2c-0.4,4.1-6.6,4-7,0
			c-1.3-0.6-2.5-1.1-3.8-1.8c-0.1,1.5,0.4,2.9,0.6,4.3c-0.8,0-1.5-0.5-2.3-0.6c-0.5-1.6-0.7-3.3-1.2-4.9c-0.6-0.4-1.2-0.6-1.8-0.9
			c-0.1,1.1,0.4,2.7,0.6,4c-0.7,0.1-1.5-0.5-2.2-0.6c-0.6-1.6-0.7-3.2-1.2-4.8c-1.8-0.8-3.6-1.8-5.4-2.5c1.1,1.3,2.2,2.8,2.9,4.6
			c0.5,1.4,1.2,3.6,0,5c-2.4,2.9-7.6-2.5-8.6-5.2c-0.3,1.6,0.3,3.7,0.2,5.4c1.4,1.2,2.5,1.7,4,2.7c-0.1,0.7,0,1.8-0.2,2.3
			c-1.1-0.6-2.2-1.3-3.4-2.1c-0.4,0.5,0,1.5,0,2.2c1.4,0.9,2.8,1.9,4.1,2.7c-0.1,0.8,0,1.6-0.2,2.5c-1.2-0.9-2.4-1.4-3.7-2.3
			c-0.1,1.5,0.1,2.9,0.3,4.4c1.9,1,2.2,3.5,1.4,4.8c-2.7,4.4-9.5-0.8-5.1-4.4c-0.1-1.5-0.1-2.9-0.3-4.4c-1.1,0.5-2.2,1.9-3.4,2.5
			c-0.4-0.2-0.5-1.7-0.6-2.3c0.5-0.8,2.9-1.9,3.6-3.1c0.4-0.7-0.1-1.5,0-2.2c-1.1,0.6-2.2,1.7-3.3,2.6c-0.2-0.8-0.4-1.6-0.5-2.4
			c1.2-1,2.3-2.2,3.5-3c-0.1-2.2-0.2-4.4-0.4-6.6c-0.9,2.4-3.1,6.8-6.1,7.6c-1,0.3-2.2-0.1-2.9-1.2c-1.2-2.4,0.4-6,2.2-8.7
			c-1.5,0.4-2.8,1.9-4.3,2.5c-0.2,1.6-0.2,3.2-0.4,4.9c-0.7,0.4-1.4,0.7-2.2,1.1c-0.1-1.4,0.2-2.9,0-4.3c-0.6,0.5-1.1,0.8-1.7,1.2
			c-0.3,1.7-0.2,3.3-0.5,5c-0.7,0.4-1.4,0.7-2.1,1c0-1.4,0-2.8,0.2-4.3c-1.2,0.3-2.4,1.6-3.7,2.2c0.1,3.7-5.3,5.3-6.9,1.3
			c-1-2.5,2.1-5.8,4.8-4.2c1.2-0.9,2.5-1.6,3.7-2.5c-1.4-0.6-2.7-1.2-4-1.6c0.3-0.7,1.1-1,1.7-1.7c1.6,0.6,3.1,1,4.7,1.7
			c0.6-0.5,1.2-0.8,1.8-1.2c-1-0.7-2.6-1.1-3.8-1.6c0.4-0.9,1.1-0.9,1.7-1.7c1.5,0.7,3,1,4.5,1.7c1.3-0.9,2.7-1.7,4-2.6
			c-2.4,0-5.8,0.3-8.1-1.5c-1.3-1-1.5-2.7-0.2-3.9c1.9-1.8,4.9-1.8,7.1-2c-0.8-0.7-2.3-1.1-3.3-1.6c-1.4,0.6-2.9,1.5-4.3,2.2
			c-0.7-0.5-1.3-0.8-2-1.3c1.1-0.9,2.3-1.3,3.4-2.2c-0.3-0.4-1.2-0.6-1.8-0.9c-1.5,0.6-3,1.6-4.5,2.3c-0.7-0.6-1.3-0.8-2-1.3
			c1.2-0.8,2.5-1.5,3.7-2.2c-1-0.7-2.7-1.3-3.9-1.9c-2.1,1.4-5.5-0.1-5.5-2.8c-0.1-4.4,6.5-4.6,7-0.5c1.3,0.6,2.6,1.1,3.8,1.8
			c0.1-1.5-0.6-2.9-0.6-4.4c0.7,0.3,1.4,0.5,2.1,0.6c0.6,1.6,0.8,3.3,1.3,5c0.6,0.4,1.2,0.5,1.8,0.9c0-1.4-0.4-2.7-0.7-4.1
			c0.8,0,1.5,0.5,2.3,0.6c0.5,1.5,0.8,3.1,1.2,4.6c1.7,0.9,3.5,1.7,5.2,2.4c-1.9-2.1-3.8-5.2-3.9-7.6c-0.1-1.6,0.9-3.5,2.9-3.2
			c3.1,0.5,5.4,4.1,6.7,6.6c0.2-1.6-0.3-3.7-0.1-5.5c-1-1-3.1-1.5-3.8-2.6c-0.5-0.8,0.2-1.6-0.1-2.5c1.2,0.5,2.4,1.5,3.6,2.1
			c0.2-0.7-0.1-1.4,0-2.2c-1.5-0.9-2.6-1.8-4.1-2.7c0.1-0.8,0-1.6,0.2-2.5c1.4,0.9,2.3,1.4,3.6,2.2c0.3-1.2-0.2-2.9-0.1-4.3
			c-3.6-2.3-1.4-6.5,1.5-6.6c2.8-0.1,4.6,3.3,2.8,5.6c-0.2,0.2-0.6,0.4-0.7,0.6c-0.5,1.1,0.3,3.2,0.2,4.5c1.1-0.9,2.3-1.7,3.4-2.7
			c0.3,0.8,0.3,1.6,0.5,2.4c-1.8,1.8-4.7,3.1-3.6,5.4c1.1-0.7,2.1-1.6,3.2-2.5c0.4,0.8,0.4,1.6,0.5,2.4c-0.6,0.5-1.1,1-1.7,1.5
			c-0.5,0.5-1.4,0.8-1.7,1.4c-0.3,0.5-0.1,1.8-0.1,2.5c0.1,0.9,0.2,1.7,0.3,2.4c0.9-2.9,5-8.6,7.8-6.3c0.5,0.4,0.8,1.2,0.9,1.7
			c0.5,2.2-0.6,5.1-1.9,7.5c1.3-0.6,2.6-1.8,3.9-2.5c0.4-1.7,0.1-3.3,0.5-5c0.7-0.3,1.3-0.5,1.9-1c0.4,1.4-0.1,2.9,0.1,4.3
			c0.5-0.5,1.1-0.8,1.6-1.2c0.3-1.7,0.3-3.4,0.4-5c0.7-0.4,1.4-0.7,2.2-1.1c0.1,1.5-0.1,3,0,4.4c0.8-1,2.7-1.3,3.5-2.4
			c0.4-0.6,0.2-1.2,0.4-1.8c1.3-2.6,5.1-2.7,6.5,0.3C242.4,44.8,238.8,48,236.3,46.6z M219.1,47.3c-0.7-0.2-1.5,0.8-2.1,1.6
			c-1.5,2.1-3.1,5.8-2.2,7.1C217.7,54.3,219.6,49.2,219.1,47.3z M227.1,59.9c-2.1-1.3-8-1.1-9.4,0.5c1.3,1.3,3.4,1.2,4.9,1.2
			c1.6,0,3.5,0,4.8-1.1C227.3,60.3,227.3,60,227.1,59.9z M204.5,51.9c0.9,1.6,1.7,2.5,2.5,3.3c0.7,0.7,1.6,1.4,2,1.1
			c0.8-0.6-1.1-3.9-1.8-4.9c-0.7-1-1.8-2.3-2.8-2.8C202.5,47.8,203.9,50.8,204.5,51.9z M219.2,69c-0.9-1.4-2.1-3.2-3.8-3.5
			c-0.4,2,1.4,4.9,3.3,6.8c0.6,0.6,1.3,1.3,2.1,1.3C221.4,72.1,220.2,70.4,219.2,69z M201.5,60.5c-1.6,0.1-3.6,0.3-4.5,1.5
			c1.3,1.1,3.4,1.1,5,1.1c1.6-0.1,3.7-0.2,4.7-1.5C205.5,60.4,203.1,60.4,201.5,60.5z M207.5,72.7c1.4-2,3.1-5.7,2.1-6.8
			c-2.4,0.9-5.2,6.6-4.5,8.6C206,74.6,206.8,73.7,207.5,72.7z"/>
	</g>
	<g>
		<path class="st0" d="M41.6,26.7c0.4,1.2,0.6,2.6,0.9,3.8c0.7-0.4,1.1-1.2,1.7-1.7c1,0.6,1.5,1.4,2.4,2c-0.4,0.8-1,1.2-1.4,1.8
			c1,0.5,2.6,0.3,3.8,0.6c-0.3,0.7-0.8,1.2-1.2,1.8c-2,0.2-4.8-1.2-5.7,1.2c0.9,0.4,2.5,0.2,3.7,0.5c-0.4,0.7-0.8,1.1-1.2,1.8
			c-1.4-0.2-2.8-0.1-4.3-0.4c-1.1,1.2-2.2,2.4-3.3,3.7c3.8,0.8,8.1,1.1,12.1,1.7c-3,2.5-6.1,4.8-9.1,7.3c1.7,0.5,3.2,0.6,4.8,1
			c1.2-0.8,2.2-2,3.4-2.9c0.7,0.2,1.4,0.5,2.1,0.7c-0.9,0.9-1.8,1.6-2.6,2.6c2.4,1.4,3.6-1.6,5.2-2.5c0.8,0.3,1.4,0.4,2.1,0.6
			c-0.9,1.1-1.9,1.9-2.8,2.9c0.7,0.2,1.5,0.4,2.4,0.5c-0.2,1.1-0.3,2.1-0.7,3.3c-0.8-0.3-1.4-0.2-2.3-0.6c0.2,1.4,1,2.4,1.5,3.7
			c-0.6,0.2-1.5-0.2-2.1,0c-0.9-1.3-1.4-2.8-2.3-4.2c-0.6-0.2-1.1-0.1-1.8-0.4c0.2,1.3,1.1,2.3,1.4,3.6c-3,0.4-3-2.5-4.1-4.1
			c-1.8-0.4-3-0.5-4.9-1c1.4,3.8,3.6,7.2,5,11c-3.7-1.3-8.4-2.3-12.2-3.6c0,1.6,0.8,3.6,1.2,5.3c1.7,0.6,3,1.3,4,1.7
			c0,0.7,0,1.4,0.3,2.1c-1.7-0.3-1.9-0.8-3.5-1.3c-0.5,2.5,2.8,2.8,4.5,3.7c0.2,0.7,0.3,1.4,0.3,2.2c-1.2-0.4-2.4-0.9-3.7-1.3
			c0,0.9,0.3,1.6,0.6,2.4c-1,0.3-2,0.6-3,0.7c-0.5-0.6-0.5-1.5-0.7-2.3c-1,0.7-1.7,2-2.6,2.9c-0.6-0.5-0.5-1.4-1-1.9
			c1-1.1,1.9-2.4,2.8-3.5c0-0.7-0.2-1.4-0.5-2C30,71,29.3,72.1,28.4,73c-1.9-1.7,0.5-3.8,1.8-5.3c-0.3-1.5-0.8-3-1.1-4.5
			C27,65.8,25,69,23.1,72.1c-1.3-3.5-1.7-7.5-2.7-11.2c-1.1,1-2.1,2.4-3.2,3.5c0.2,1.5,0.6,2.8,0.8,4.3c-0.5,0.6-1.1,0.9-1.6,1.5
			c-0.4-1.2-0.7-2.4-0.9-3.7c-0.6,0.2-0.9,1-1.4,1.3c0.2,1.6,0.6,3,0.8,4.6c-0.5,0.6-1.1,0.9-1.6,1.5c-0.4-1.2-0.7-2.6-1-3.8
			c-0.7,0.3-1.1,1.1-1.7,1.7c-1-0.6-1.5-1.4-2.5-2.1c0.5-0.7,1-1.2,1.5-1.8c-1.1-0.7-2.9-0.3-3.9-0.7c0.4-0.5,0.8-1,1.1-1.7
			c1.5,0.1,3,0.1,4.5,0.3c0.4-0.5,0.9-1,1.3-1.6c-1.3-0.2-2.5-0.3-3.7-0.4c0.3-0.7,0.8-1.2,1.2-1.8c1.4,0,2.9,0.2,4.3,0.2
			c1.1-1.2,2.2-2.4,3.3-3.7c-3.8-0.8-8-0.9-12-1.3c2.4-2.6,5.7-5.1,8.5-7.7c-1.1-0.6-2.8-0.5-4.2-1C9,49.2,8,50.5,6.8,51.5
			c-0.9-0.3-1.1-0.2-2.1-0.6c0.8-1,1.8-1.7,2.6-2.7c-2.5-1.4-3.7,1.7-5.3,2.6c-0.7-0.2-1.7-0.7-2-0.6c0.5-1,1.9-1.8,2.7-2.9
			c-0.6-0.4-1.3-0.1-2.4-0.6c0.2-1,0.4-2.1,0.6-3.1c0.8,0.2,1.6,0.3,2.4,0.5c-0.2-1.3-1.5-2.6-1.4-3.7c0.8,0.2,1.4,0,2.1,0.2
			c1,1.6,0.9,4.2,3.7,4.4c0-1-0.9-2.4-1.5-3.5c0.7-0.1,1.5,0,2.3,0c0.6,1.3,1.3,2.6,2,3.9c1.5,0.2,3,0.5,4.6,0.9
			c-1.4-3.9-3.5-7.3-4.9-11.2c3.7,1,8.5,2.5,12.4,3.6c-0.3-1.7-0.8-3.3-1.2-5c-1.5-0.5-2.6-1.2-4-1.7c-0.1-0.7,0-1.4-0.3-2
			c1.5,0.1,2.7,1.1,3.6,1.2c0.1-0.8-0.4-1.3-0.5-2c-1.7-0.6-2.6-1-4.2-1.8c-0.1-0.7-0.2-1.4-0.3-2c1,0.2,2.2,0.8,3.7,1.3
			c0.2-0.6-0.4-1.6-0.4-2.5c1.1-0.1,2-0.6,3.1-0.7c0.1,0.8,0.4,1.5,0.6,2.3c1-0.8,1.7-2,2.6-3c0.4,0.6,0.5,1.3,0.8,2
			c-1,1.7-3.6,3.4-2.3,5.4c1-0.5,1.6-1.9,2.5-2.7c0.2,0.7,0.6,1.3,0.8,2c-0.9,1.1-1.7,2.2-2.6,3.3c0.2,1.6,0.6,3.1,1.2,4.6
			c2.1-3.2,4.4-6,6.5-9.3c1,3.7,1.4,7.6,2.2,11.4c0.8-1.2,2.6-2,3-3.3c0.5-1.4-0.8-2.9-0.8-4.3c0.5-0.6,1.1-0.9,1.6-1.5
			c0.6,1.1,0.6,2.5,1,3.6c0.6-0.2,0.8-1.1,1.4-1.3c-0.4-1.5-0.5-3-1-4.5C40.5,27.7,41,27.1,41.6,26.7z M28.8,38.1
			c-0.7,1-1.9,2-2.1,2.9c-0.2,0.8,0.6,2.2,0.7,3c0.3,1.1,0.4,2.1,0.9,2.9c1.3-1.6,2.7-3,4-4.7c-0.4-2.5-0.8-4.9-1.4-7.3
			C30.3,35.7,29.7,36.9,28.8,38.1z M34.7,44.5c-1.2,1.6-3.1,3-3.9,4.8c2.1,0.2,3.7,0.7,5.9,1.1c1.4-1.2,3.2-2.5,4.5-3.6
			c0.5-0.4,1.1-0.8,1.1-1.3C39.7,45.2,37.2,45,34.7,44.5z M23.5,42.1c-2.3-0.8-5.5-1.6-7.8-2.3c1,2.5,2,4.9,3.3,7.3
			c2.4,0.4,3.7,0.7,6.2,1.2C24.7,46.1,24.4,44,23.5,42.1z M29.6,52.4c0.7,1.8,0.8,4,1.7,5.8c2.3,0.8,5,1.4,8,2.3
			c-0.9-2.4-2.1-4.7-3.3-7C33.9,53.2,31.6,52.6,29.6,52.4z M18.2,50.1c-1.9,1.6-3.8,3.2-5.5,5c2.6,0.4,5.1,0.4,7.7,0.8
			c1.2-1.6,3-3.1,3.9-4.7C22.3,51,20.2,50.5,18.2,50.1z M22.8,58.2c0.6,2.4,1,4.9,1.7,7.2c0.6-0.9,1.3-1.8,1.9-2.8
			c0.6-0.9,1.7-2,1.8-3c0.1-0.7-0.5-2-0.8-2.9c-0.3-1.3-0.4-2.5-0.8-3.1C25.4,55.3,23.9,56.5,22.8,58.2z"/>
	</g>
	<rect x="52" y="36" class="st0" width="134.2" height="47.5"/>
	<path class="st0" d="M194,90.1c0,8-6.1,14.6-13.7,14.6c-7.6,0-13.7-6.5-13.7-14.6s6.1-14.6,13.7-14.6C187.9,75.6,194,82.1,194,90.1
		z"/>
	<path class="st0" d="M116.8,79.7c0,8-6.1,14.6-13.7,14.6s-13.7-6.5-13.7-14.6s6.1-14.6,13.7-14.6C110.7,65.2,116.8,71.7,116.8,79.7
		z"/>
	<rect x="47.2" y="67.3" class="st0" width="30.7" height="8.2"/>
	<rect x="132.7" y="66.1" class="st0" width="31.5" height="13.2"/>
	<rect x="128.7" y="36.9" class="st0" width="35.4" height="10.8"/>
	<rect x="127.9" y="35.9" class="st0" width="32.4" height="23.3"/>
	<g>
		<path class="st0" d="M32.7,19.9c0,7.8,4.5,13.3,11.1,14.4c-0.1,0.3-0.1,0.7-0.1,1c0,1.8,1.2,3.6,3.4,4.2
			c-1.6,4.6-3.9,11.4-3.9,11.4l0.1-0.4l-0.5,2.3c0,2.9,2.2,5,5.2,5c3.2,0,7.4-2.4,8.8-6.3c0,0,2.9-8.5,4.1-11.8c1.6,0,3.3,0,3.3,0
			c0.4,0,0.8,0,1.2-0.1c-0.2,1.7-0.3,3.5-0.3,5.2c0,10.1,3.8,16.8,10.3,18.4h0l-0.8-0.3l2,0.5c2.6,0,4.6-1.9,4.6-4.3
			c0-2.1-1.5-3.3-2-3.8l-0.1-0.1l-0.1-0.1c-1-0.8-1.6-2.9-1.6-6c0-3.5,0.8-8.2,2.3-13.5c11.8-6.1,19.7-18.5,19.7-26.8
			c0-5.2-3.1-8.7-7.6-8.7c-2.1,0-5.3,0.8-9.2,4.6c-6.8,6.6-12,15.2-15,24.5c-0.4,0-0.8,0-1.3,0c0,0-1.2,0-2,0
			c2.1-6,6.3-18.4,6.3-18.4c0,0,0.3-2.2,0.3-2.2c0-2.7-1.8-3.9-2.7-4.4C64.5,1.6,57.2,0,52.8,0C39.7,0,32.7,11.6,32.7,19.9z
			 M49.8,23.7c-2.3,0-4.9-2.5-4.9-6.2c0-4.4,2.9-7.7,7-7.7c1.5,0,3.2,0.5,5,1.4c-0.9,2.7-2.6,7.4-4.5,13
			C51.5,24,50.7,23.7,49.8,23.7z"/>
		<path class="st0" d="M88.4,29.5c-0.4-0.1-0.9-0.3-1.3-0.3c-2.4,0-5.2,2.6-7,4.8c-3,3.6-4.7,8-4.7,12.2c0,6.7,4.6,11.5,10.9,11.5
			c3.5,0,7.2-1.4,10.3-3.9c0.5,0.1,1.1,0.1,1.7,0.1c4,0,7.7-1.8,10.6-5.1c1.3-1.6,1.9-3,1.9-4.5c0-1.3-0.6-2.6-1.6-3.4l-2.9-1
			c-0.7,0-1.4,0.2-2,0.4c0.1-0.5,0.1-1,0.1-1.5c0-3.5-1.2-6.6-3.5-8.8c-1.8-1.8-4.1-2.8-6.6-2.8C92,27.3,90,28.2,88.4,29.5z"/>
		<path class="st0" d="M98.9,44.4c0,8.1,3.6,13.4,9.1,13.4c4.1,0,8.3-2.8,13.4-8.9c0.9-1.1,2-2.6,2-4.4c0-1.4-0.6-2.6-1.6-3.4
			c-0.6-0.5-1.5-1-2.9-1s-2.8,0.6-3.9,1.7l-0.1,0.1l-0.1,0.1c-1.4,1.6-2.4,2.7-3.2,3.4c0-0.1,0-0.3,0-0.4
			c6.3-9.2,13.6-27.2,13.6-37.5c0-1.8-0.3-3.3-0.9-4.4c-0.9-1.8-2.6-2.9-4.5-2.9C111.2,0,98.9,26.1,98.9,44.4z"/>
		<path class="st0" d="M118,23.6c0,1.9,0.8,3.5,2.1,4.7c-3.6,1.4-6.7,4-6.7,7c0,1,0.4,2,1.1,2.8c-1,2.1-2.2,4.8-3.1,7.9
			c-0.4,1.3-0.6,2.6-0.6,3.9c0,4.8,3.1,7.9,7.8,7.9c4.1,0,9.1-3.2,13.9-8.8c1.4-1.5,2.1-3.1,2.1-4.6c0-2.5-1.9-4.3-4.5-4.3
			c-1.4,0-2.5,0.5-3.2,1.1c0.5-1,0.9-2.1,1.4-3.1c0,0,0.4-0.9,0.4-0.9c0.9-1.9,1.6-3.5,1.6-5.1c0-1.2-0.5-2.3-1.3-3.2
			c2.5-1.4,4.3-4,4.3-6.8c0-3.7-2.9-6.5-6.7-6.5C122,15.6,118,19.4,118,23.6z"/>
		<path class="st0" d="M138.3,27.5C129.6,28,121,37.2,121,46.3c0,6.5,4.5,11.4,10.6,11.4c2.5,0,5.1-0.9,7.6-2.5
			c1.5,1.6,3.4,2.5,5.6,2.5c4.1,0,8.5-2.9,13.5-8.9c1.3-1.6,1.9-3,1.9-4.5c0-1.3-0.6-2.6-1.6-3.4l-2.9-1c-1.6,0-3.1,0.8-4.1,2
			l0.1-0.1c-1.5,1.7-2.5,2.7-3.3,3.4c0-0.1,0-0.3,0-0.4c6.3-9.2,13.6-27.2,13.6-37.5c0-1.8-0.3-3.3-0.9-4.4
			c-0.9-1.8-2.6-2.8-4.4-2.8C149.8,0.1,141.9,15.4,138.3,27.5z M133.7,45.4c0-1.4,0.3-2.9,0.8-4.1c0.3,0.5,0.7,0.9,1.2,1.3
			c0,0.9-0.1,1.8-0.1,1.8s0,0.7,0.1,1.5c-0.8,0.7-1.4,1.1-1.8,1.2C133.9,46.8,133.7,46.3,133.7,45.4z"/>
		<path class="st0" d="M146.7,47.1c0,5.9,4.6,10.6,10.2,10.6c1.8,0,3.6-0.5,5.2-1.5c1.2,0.9,2.8,1.5,4.6,1.5c4.1,0,9.2-3.2,14-8.9
			c1.3-1.6,1.9-3,1.9-4.5c0-1.3-0.6-2.6-1.6-3.4l-2.9-1c-1.1,0-2.3,0.4-3.2,1.1c1.3-1.4,2.1-3.2,2.1-5.6c0-4.9-4.2-8.2-10.5-8.2
			C155.6,27.3,146.7,38.1,146.7,47.1z M162.6,39c0,0.5,0.2,1,0.4,1.6c-0.9,0.9-1.6,2-2,3.2c-0.4,1.1-1,1.9-1.5,2.5
			C159.5,44,160.8,40.9,162.6,39z M174.1,42C174.1,42,174.1,42,174.1,42C174.1,42,174.1,42,174.1,42C174.1,42,174.1,42,174.1,42z
			 M174.2,41.9C174.2,41.9,174.1,42,174.2,41.9C174.1,42,174.1,42,174.2,41.9C174.2,41.9,174.2,41.9,174.2,41.9z"/>
		<path class="st0" d="M175.6,30.2c-2,1.4-3,3.2-3,5c0,1,0.4,2,1,2.7c-1.6,3.5-3.3,7.6-3.3,11.2c0,5.4,3.1,8.1,6.5,8.5
			c-6.7,5.8-10.1,11.7-10.1,17.8c0,6.7,3.9,11.4,9.5,11.4c6.5,0,12.2-6.2,13.9-15c0.9-5,1.9-9.5,3-13.7c5.7-4.1,9.2-7.1,11-9.3
			c0.9-1.1,1.9-2.5,1.9-4.4c0-1.3-0.6-2.6-1.6-3.4l-2.9-1c-1,0-2,0.3-2.8,0.8c0.8-2,1.6-4,2.5-5.9l-0.2,0.3c0.5-0.9,0.8-1.9,0.8-2.9
			c0-2.8-2.2-4.9-5.2-4.9c-2.9,0-5.5,1.6-7.6,4.6c0,0,0,0.1-0.1,0.1c-0.1-2.8-2.3-4.8-5.4-4.8C180.1,27.3,177.5,28.9,175.6,30.2z"/>
		<path class="st0" d="M184.6,80.4L184.6,80.4c-0.7,18.1-5.4,20.2-8.9,20.2c-1.6,0-5.4-0.3-5.4-3.5c0-0.1,0-0.2,0-0.4
			c2.4-1.3,3.9-3.8,3.9-6.7c0-4-3-7-7.1-7c-5,0-8.7,4.5-8.7,10.5c0,10.6,8.5,16.1,16.9,16.1c14.4,0,20.7-11.2,21.8-21.7l0.6-6.6
			c0.1-1.9,0.3-3.9,0.5-5.9c0.5,0,6.5,0,6.5,0c6.3,0,10.4-3.7,10.4-9.5c0-6.4-4.9-10.7-12.2-10.7C192.1,55.2,185.2,64.6,184.6,80.4z
			 M202.1,64.3c0.1,0.2,0.1,0.5,0.1,0.9c0,1.5-0.4,2.6-1.1,4.1c0,0-2.1,4.1-2.7,5.2C199,69.3,200,64.6,202.1,64.3z"/>
		<path class="st0" d="M38.7,55.6v50.6h15.2c0,0,0-13.2,0-17.7c4.5,0,13.5,0,13.5,0c4.5,0,8.5-1.7,11.7-4.8
			c3.2-3.1,4.9-7.2,4.9-11.6c0-4.5-1.7-8.5-4.9-11.7c-3.2-3.2-7.2-4.8-11.7-4.8L38.7,55.6L38.7,55.6z M67.4,70.8
			c0.5,0,0.8,0.1,1,0.4c0.2,0.2,0.3,0.4,0.3,0.8c0,0.3,0,0.5-0.4,0.8c-0.2,0.2-0.4,0.4-0.9,0.4c0,0-9,0-13.5,0c0-1.1,0-1.3,0-2.4
			C58.4,70.8,67.4,70.8,67.4,70.8z"/>
		<path class="st0" d="M84.8,62.9L84.8,62.9c-5,4.9-7.5,11-7.5,18c0,7,2.5,13.1,7.5,17.9c4.9,4.8,11,7.3,18.1,7.3
			c7.1,0,13.1-2.5,18.1-7.3c5-4.9,7.5-10.9,7.5-17.9c0-7.1-2.5-13.2-7.5-18c-5-4.8-11.1-7.3-18.1-7.3C95.9,55.6,89.8,58.1,84.8,62.9
			z M92.6,80.9c0-2.9,0.9-5.2,3-7.1c2.1-2,4.4-2.9,7.4-2.9c3,0,5.3,0.9,7.4,2.9c2,2,3,4.2,3,7.1c0,2.8-0.9,5.1-3,7.1
			c-2.1,2-4.4,3-7.4,3c-3,0-5.3-0.9-7.4-3C93.5,86,92.6,83.8,92.6,80.9z"/>
		<path class="st0" d="M124.7,55.6v50.6H140c0,0,0-13.2,0-17.7c4.5,0,13.5,0,13.5,0c4.5,0,8.5-1.6,11.7-4.8
			c3.2-3.1,4.9-7.2,4.9-11.7c0-4.5-1.6-8.4-4.9-11.7c-3.2-3.2-7.2-4.8-11.7-4.8L124.7,55.6L124.7,55.6z M153.5,70.8
			c0.5,0,0.8,0.1,1,0.4c0.2,0.2,0.3,0.3,0.3,0.8c0,0.4,0,0.5-0.4,0.8c-0.3,0.3-0.5,0.4-1,0.4c0,0-9,0-13.5,0c0-1.1,0-1.3,0-2.4
			C144.4,70.8,153.5,70.8,153.5,70.8z"/>
	</g>
	<path class="st1" d="M77.7,59c0,0.4-0.5,0.7-1,0.7c-0.1,0-0.2,0-0.4-0.1c-5.1-1.2-7.6-7.1-7.6-14.9c0-2.9,0.3-6,1-9.2
		C67.9,35.8,66,36,64.2,36h-5.9l-4.9,14.2c-0.9,2.4-3.7,3.9-5.4,3.9c-0.9,0-1.6-0.4-1.6-1.4c0-0.3,0.1-0.6,0.2-1L52,36h-3.6
		c-0.8,0-1.2-0.3-1.2-0.8c0-0.9,1.6-2.4,3.3-2.4h2.6l8-23.1c-3.3-2.3-6.5-3.4-9.3-3.4c-6.1,0-10.5,4.9-10.5,11.2
		c0,5.4,4,9.8,8.5,9.8c1.1,0,1.7,0.5,1.7,1.2c0,1-1.6,2.3-5.5,2.3c-5.8,0-9.7-4.3-9.7-11c0-5.7,4.7-16.3,16.5-16.3
		c3.7,0,10.4,1.5,13.7,3.6c0.8,0.5,1,0.8,1,1.4c0,0.3,0,0.6-0.2,1.1l-8,23.2h7.1c1.4,0,2.7-0.1,4-0.4c2.4-8.8,7.3-18,14.7-25.2
		c2.7-2.6,5-3.6,6.8-3.6c2.8,0,4,2.2,4,5.1c0,7.1-7.4,19.1-19.2,24.4C75.1,38.8,74,44.5,74,49.1c0,4,0.9,7.2,3,8.8
		C77.4,58.3,77.7,58.6,77.7,59z M78.1,29.3C87.2,23.1,91,12.4,91,8.9c0-0.9-0.2-1.5-0.8-1.5c-1.2,0-4,3.3-7.8,11.2
		C81,21.7,79.5,25.4,78.1,29.3z"/>
	<path class="st1" d="M100.9,38.9c0,2.6-0.8,5.4-2.6,8c0.4,0.1,0.8,0.1,1.2,0.1c1.9,0,3.8-0.8,5.5-2.7c0.3-0.4,0.7-0.6,1.3-0.6
		c0.5,0,0.9,0.2,0.9,0.8c0,0.5-0.3,1.2-1.1,2.2c-2.3,2.7-5.1,3.9-7.8,3.9c-0.9,0-1.8-0.2-2.6-0.4c-2.9,2.7-6.4,4.1-9.4,4.1
		c-4.7,0-7.4-3.6-7.4-7.9c0-3.2,1.3-6.9,3.9-9.9c1.8-2.1,3.6-3.5,4.3-3.5s1.1,0.6,1.1,1.3c0,0.2-0.1,0.5-0.3,0.8
		c-1.8,1.9-3.4,5.3-3.4,8.9c0,3.9,1.9,6.9,4.6,6.9c1.3,0,2.8-0.7,4-1.9c-3.1-1.9-5.3-5.3-5.3-9.3c0-3.6,2.1-8.6,6.7-8.6
		c1.4,0,2.9,0.5,4.1,1.8C100.2,34.2,100.9,36.5,100.9,38.9z M90.4,38.3c0,2.9,2,5.7,4.7,7.4c0.6-1.5,0.9-3.3,0.9-5c0-3-0.9-6-3-6
		C91.2,34.7,90.4,36.6,90.4,38.3z"/>
	<path class="st1" d="M108,43.8c0.2,4.6,1.2,6.2,2.3,6.2c1.8,0,4.4-2.5,7.3-5.8c0.4-0.4,0.9-0.6,1.3-0.6c0.5,0,0.9,0.2,0.9,0.8
		c0,0.5-0.4,1.2-1.2,2.1c-4.6,5.5-8.1,7.6-10.7,7.6c-3.8,0-5.5-4.6-5.5-9.8c0-18.9,12.7-40.8,17.4-40.8c1.1,0,1.8,1.2,1.8,3.7
		C121.6,16.8,114.5,35.1,108,43.8z M108,39.6c5.4-9.8,8-24.5,8-25.7s-0.1-1.8-0.5-1.8c-1.5,0-5.4,11.9-7,21.6
		C108.2,35.8,108,37.9,108,39.6z"/>
	<path class="st1" d="M120.2,48c-0.2,0.5-0.3,1.2-0.3,1.6c0,0.6,0.2,1,0.8,1c1.2,0,4.2-2,7.9-6.4c0.5-0.5,0.9-0.6,1.3-0.6
		c0.5,0,0.9,0.2,0.9,0.8c0,0.5-0.3,1.2-1.2,2.2c-4.3,5-8.5,7.6-11.2,7.6c-2.9,0-4.2-1.7-4.2-4.3c0-0.8,0.1-1.9,0.5-2.9
		c1.2-4,3.1-7.8,3.9-9.5c0.2-0.5,0.4-0.8,0.4-1.1c0-0.2-0.1-0.3-0.4-0.3c-0.2,0-0.5,0.1-0.7,0.1c-0.6,0-1.1-0.2-1.1-0.8
		c0-1.5,4.1-4.4,8.1-4.4c1.1,0,1.6,0.5,1.6,1.2c0,1-0.9,2.6-1.7,4.5C123.3,39.7,121.5,43.8,120.2,48z M129.5,22.1
		c0,2.1-2.2,4.4-4.7,4.4c-1.8,0-3.2-1.2-3.2-2.9c0-2.2,2.4-4.4,4.8-4.4C128.1,19.2,129.5,20.2,129.5,22.1z"/>
	<path class="st1" d="M141,31.1c3.6-14.6,12-27.4,15.7-27.4c1,0,1.7,1.1,1.7,3.6c0,9.5-7.1,27.8-13.6,36.5c0.2,4.6,1.2,6.2,2.3,6.2
		c1.8,0,4.4-2.5,7.4-5.8c0.3-0.4,0.9-0.6,1.3-0.6c0.5,0,0.9,0.2,0.9,0.8c0,0.5-0.3,1.2-1.1,2.2c-4.6,5.5-8.2,7.6-10.8,7.6
		c-2.3,0-3.9-1.7-4.7-4.3c-2.6,2.7-5.7,4.3-8.4,4.3c-4,0-7-3.3-7-7.8c0-7.7,7.6-15.3,14.4-15.3C139.2,31,140.1,31,141,31.1z
		 M133.6,50.8c1.6,0,3.7-1.2,5.8-3.6c-0.1-0.9-0.1-1.9-0.1-2.9c0-1.3,0.1-2.8,0.1-4.1c-0.9-0.2-1.9-0.5-1.9-1.3
		c0-0.9,2.5-0.4,2.5-2.9c0-1.2-1.1-1.7-1.9-1.7c-4.6,0-7.8,5.6-7.8,11C130.2,48.7,131.5,50.8,133.6,50.8z M144.7,39.6
		c5.5-9.8,8-24.5,8-25.7s-0.1-1.8-0.5-1.8c-1.5,0-5.5,11.9-7,21.6C145,35.6,144.7,38.6,144.7,39.6z"/>
	<path class="st1" d="M166.8,54.2c-2.3,0-3.5-1.2-3.7-3.1c-1.8,2-3.9,3.1-6.1,3.1c-3.6,0-6.6-3-6.6-7.1c0-7.1,7.2-16.2,16.4-16.2
		c3.9,0,6.9,1.5,6.9,4.7c0,3.9-3.4,4.7-4.6,4.7c-1.1,0-2.8-0.3-2.8-1.3c0-1.1,2.4-0.5,2.4-3c0-1.5-1.6-2.1-3.1-2.1
		c-5.6,0-9.6,7.8-9.6,12.6c0,2.2,0.9,4.3,2.9,4.3c1.6,0,4.3-2.3,5.6-5.7c0.9-2.3,3.3-3.9,4.9-3.9c0.9,0,1.4,0.4,1.4,1.2
		c0,0.3-0.1,0.7-0.2,1.2c-0.3,1-1.9,5.7-1.9,6.4c0,0.4,0.1,0.7,0.6,0.7c1.2,0,4.2-2,7.9-6.4c0.3-0.4,0.9-0.6,1.3-0.6
		s0.9,0.2,0.9,0.8c0,0.5-0.3,1.2-1.1,2.2C173.7,51.6,169.5,54.2,166.8,54.2z"/>
	<path class="st1" d="M185.6,32.4c0,0.3-0.1,0.7-0.2,1.1c-2.3,4.8-6.1,10.5-6.1,14.9c0,1.5,0.4,2.1,1.1,2.1c2,0,6.5-6,10-13.1
		c0.6-1.2,1.1-2.4,1.7-3.3c1.5-2.2,3-3.1,4.6-3.1c0.9,0,1.6,0.5,1.6,1.3c0,0.3-0.1,0.7-0.3,1.1c-3,6.4-5.3,12.5-7,18.4
		c3.3-2.3,7.3-5.3,9.1-7.6c0.2-0.3,0.7-0.6,1.3-0.6c0.5,0,0.9,0.2,0.9,0.8c0,0.6-0.4,1.3-1.1,2.2c-2.2,2.7-7.4,6.6-11.4,9.5
		c-1.3,5.2-2.4,10.3-3.3,15.2c-1.5,7.8-6.2,12.1-10.4,12.1c-4.1,0-5.9-3.9-5.9-7.8c0-6.2,4.6-12.2,12-17.7l2.3-1.7
		c0.7-2.9,1.5-5.9,2.2-8.7c-3.3,4.6-6.7,6.7-9.2,6.7c-2.2,0-3.8-1.7-3.8-5c0-3.6,2.3-8.4,3.9-11.9c0.2-0.5,0.4-0.8,0.4-1
		c0-0.2-0.1-0.3-0.3-0.3c-0.2,0-0.4,0.2-0.8,0.2c-0.5,0-1-0.3-1-0.8c0-0.5,0.5-1.3,1.6-2.1c1.4-1,3.3-2.2,6.1-2.2
		C184.8,30.9,185.6,31.4,185.6,32.4z M175.5,75.6c0,3.4,1.6,4.5,2.5,4.5c1.5,0,2.1-2.2,2.8-5.7c0.7-3.4,1.6-8.1,2.8-13.4
		c-1.1,0.8-2,1.7-2.9,2.6C177.6,66.7,175.5,71.6,175.5,75.6z"/>
	<path class="st1" d="M76.6,63c-2.5-2.5-5.6-3.8-9.2-3.8H42.2v43.5h8.1c0,0,0-13.3,0-17.7c4.7,0,17.1,0,17.1,0
		c3.5,0,6.6-1.2,9.2-3.7c2.6-2.5,3.8-5.6,3.8-9.1C80.4,68.6,79.1,65.5,76.6,63z M72.3,72.1c0,1.3-0.4,2.4-1.4,3.4
		c-1,1-2.1,1.4-3.5,1.4c0,0-12.4,0-17.1,0v-9.6c4.7,0,17.1,0,17.1,0c1.4,0,2.5,0.4,3.5,1.4C71.9,69.6,72.3,70.7,72.3,72.1z"/>
	<path class="st1" d="M118.5,65.5c-4.3-4.2-9.5-6.3-15.6-6.3c-6.1,0-11.3,2.1-15.6,6.3c-4.2,4.2-6.4,9.4-6.4,15.5
		c0,6.1,2.2,11.2,6.4,15.4c4.2,4.2,9.5,6.3,15.6,6.3c6.1,0,11.3-2.1,15.6-6.3c4.2-4.2,6.4-9.3,6.4-15.4
		C124.9,74.9,122.8,69.7,118.5,65.5z M102.9,94.5c-3.9,0-7.2-1.3-9.9-4c-2.7-2.7-4-5.8-4-9.6c0-3.9,1.3-7,4-9.7c2.7-2.7,6-4,9.9-4
		s7.2,1.3,9.9,4c2.7,2.7,4,5.8,4,9.7c0,3.8-1.3,7-4,9.6C110.1,93.2,106.8,94.5,102.9,94.5z"/>
	<path class="st1" d="M162.7,63c-2.5-2.5-5.6-3.8-9.2-3.8h-25.2v43.5h8.1c0,0,0-13.3,0-17.7c4.7,0,17.1,0,17.1,0
		c3.6,0,6.6-1.2,9.2-3.7s3.8-5.6,3.8-9.1C166.5,68.6,165.2,65.5,162.7,63z M136.4,67.3c4.7,0,17.1,0,17.1,0c1.4,0,2.5,0.4,3.5,1.4
		c1,1,1.4,2,1.4,3.4c0,1.4-0.4,2.4-1.4,3.4c-1,1-2.1,1.4-3.5,1.4c0,0-12.4,0-17.1,0L136.4,67.3L136.4,67.3z"/>
	<path class="st1" d="M203,58.7c-8.9,0-14.3,7.9-14.8,21.8c-0.4,10.1-2.1,23.6-12.5,23.6c-4.1,0-9-1.8-9-7.1c0-1.1,0.1-2.1,0.3-3
		c1.9-0.3,3.6-1.6,3.6-4.1c0-2.2-1.8-3.4-3.5-3.4c-3.4,0-5.1,3.5-5.1,6.9c0,8.6,6.9,12.5,13.3,12.5c15.1,0,17.8-14.2,18.3-18.5
		l0.6-6.6c0.8-10.5,1.6-20.4,8.1-20.4c2.1,0,3.5,1.8,3.5,4.6c0,2.3-0.6,3.8-1.5,5.7l-0.4,0.8h0.9c4.3,0,6.8-2.1,6.8-5.9
		C211.6,60.6,207.1,58.7,203,58.7z"/>
</g>
</svg>
