<svg id="Layer_1" data-name="Layer 1" xmlns="http://www.w3.org/2000/svg" xmlns:xlink="http://www.w3.org/1999/xlink" viewBox="0 0 500 400"><defs><style>.cls-1{fill:none;}.cls-2{fill:#237156;}.cls-3{clip-path:url(#clip-path);}.cls-4{fill:#da2e39;}.cls-5{fill:#fff;}</style><clipPath id="clip-path"><rect class="cls-1" x="0.5" y="108.81" width="499" height="182.38"/></clipPath></defs><title>JollyChristmas-126-500x400-P</title><path class="cls-2" d="M424.39,236.24a52.57,52.57,0,0,0-9.61,3.78c-2.43,1.24-5.39,2.69-6.51,5.35-.94,2.27.26,5.3,2.82,5.81,3.16.65,4.32-3.43,4.89-5.73.36-1.42.7-3-.52-4.13-1-.9-2.6-1.16-3.86-1.44a29.21,29.21,0,0,0-8.94-.57,29.64,29.64,0,0,0-12.53,4,14.23,14.23,0,0,0-3.65,2.73c-1.85,2.23-.1,5.29,2.44,6,2.81.75,5.31-1.54,6.68-3.75,3.07-4.93,3.56-12.18.37-17.19-1.44-2.25-3.83-3.88-6.58-3.28a4.38,4.38,0,0,0-3.62,5.08c.53,2.33,3,3.5,5.16,3.81a8,8,0,0,0,4.76-.76,57.54,57.54,0,0,0,9.66-6.32,84.55,84.55,0,0,0,8.82-7.32,13.92,13.92,0,0,0,1-1.13c.87-1.11-.69-2.69-1.57-1.57a34.74,34.74,0,0,1-5.35,4.93q-4,3.24-8.18,6.14c-1.29.88-2.6,1.74-4,2.52a12.21,12.21,0,0,1-2.68,1.26,5.94,5.94,0,0,1-4.38-.67c-1.42-.85-1.65-2.58-.11-3.46,1.82-1.05,3.73,0,4.85,1.55a12.55,12.55,0,0,1,2.05,6.89,15.23,15.23,0,0,1-1.48,7.09c-.8,1.65-2.44,4.38-4.66,4.09a2.22,2.22,0,0,1-1.84-1.64c-.12-1,1.4-1.8,2.1-2.27a26.87,26.87,0,0,1,6.61-3.24,27.5,27.5,0,0,1,14-.89c.67.14,1.34.31,2,.5.42.11,1.3.24,1.51.69s-.14,1.32-.25,1.75a18.65,18.65,0,0,1-.68,2.2c-.3.81-.86,2.45-2,1.81a2.1,2.1,0,0,1-1-2.28c.61-2.4,3.88-3.73,5.86-4.74a50.39,50.39,0,0,1,8.92-3.47,1.11,1.11,0,0,0-.58-2.14Z"/><g class="cls-3"><path class="cls-2" d="M400.41,150.42a50.57,50.57,0,0,0,7.2-4.09,25.45,25.45,0,0,0,5.89-4.94c1.35-1.74,2-4.09.61-6-1.15-1.59-3.47-2.51-5.11-1.07a5.24,5.24,0,0,0-1.44,3,16.07,16.07,0,0,0-.48,4.42c.17,2.81,3,3,5.2,3.13a29.53,29.53,0,0,0,13.78-2.53,29,29,0,0,0,6.17-3.69,26.83,26.83,0,0,0,2.59-2.29,5.08,5.08,0,0,0,1.84-3.11c.12-2.16-2-3.85-4-4-2.27-.18-4.16,1.57-5.22,3.41a17,17,0,0,0-.64,14.43c1.56,3.83,5.67,8.51,10.17,5.75a4.2,4.2,0,0,0,1.76-5.62c-1-1.84-3.33-2.51-5.3-2.52-5,0-9.81,4-12.14,8.17-.7,1.25,1.22,2.37,1.91,1.12a14.33,14.33,0,0,1,8.11-6.75c1.59-.5,6.49-.53,5.64,2.38a3,3,0,0,1-3.17,1.78c-1.7-.23-3-1.68-3.88-3.05A15.14,15.14,0,0,1,428.16,137a9.46,9.46,0,0,1,2.25-4.62c1-1,2.75-1.41,3.76-.08s-1.51,3.07-2.39,3.84A27.59,27.59,0,0,1,417,142.51a27,27,0,0,1-5.47.05c-.56-.05-1.78,0-2.16-.51-.22-.29-.11-.92-.09-1.26,0-.62.09-1.24.18-1.85.14-.82.24-2.5,1-3,.53-.34,1.17.06,1.54.44,1.42,1.44.07,3.37-1.06,4.5a34.07,34.07,0,0,1-5.47,4.17,52.06,52.06,0,0,1-6.24,3.46c-1.29.6-.17,2.52,1.12,1.91Z"/><path class="cls-2" d="M20.48,182.94a53.38,53.38,0,0,0-3.73-7.35,26.46,26.46,0,0,0-4.67-6.18c-1.65-1.44-4-2.34-6-1.11-1.65,1-2.76,3.21-1.56,5A4.71,4.71,0,0,0,7.26,175a19.16,19.16,0,0,0,4.18.72,3.06,3.06,0,0,0,2.92-1.15,7.66,7.66,0,0,0,.87-3.37A29.19,29.19,0,0,0,13.43,157,29.15,29.15,0,0,0,10,150.62a29.12,29.12,0,0,0-2.15-2.69,5.68,5.68,0,0,0-2.95-2.11c-2.14-.4-4,1.52-4.38,3.52-.4,2.29,1.18,4.27,3,5.48,4.13,2.79,10.05,3,14.63,1.35,3.91-1.44,8.66-5.34,6.09-10a4.21,4.21,0,0,0-5.57-1.92c-1.87,1-2.6,3.24-2.69,5.22a12.55,12.55,0,0,0,2.11,6.88,16.88,16.88,0,0,0,5.59,5.56c1.22.75,2.34-1.17,1.12-1.91a14.36,14.36,0,0,1-6.38-8.4c-.43-1.61-.22-6.47,2.64-5.49a3,3,0,0,1,1.62,3.29c-.32,1.68-1.82,2.92-3.23,3.72a15.19,15.19,0,0,1-11.38,1.27A9.39,9.39,0,0,1,3.56,152c-1-1.1-1.25-2.84.15-3.75s3,1.69,3.73,2.61a26.49,26.49,0,0,1,2.91,4.63,27.44,27.44,0,0,1,2.82,10.37,26.34,26.34,0,0,1-.18,5.47c-.08.56-.09,1.78-.63,2.11-.3.19-.91.06-1.24,0-.56-.05-1.12-.14-1.67-.24-1.2-.24-4.39-.8-2.74-2.57,1.39-1.5,3.3-.22,4.42.94a31.61,31.61,0,0,1,4,5.57,49.3,49.3,0,0,1,3.25,6.4,1.15,1.15,0,0,0,1.37.77,1.11,1.11,0,0,0,.77-1.36Z"/></g><path class="cls-2" d="M226.37,211a54.26,54.26,0,0,0-6.18-5.45c-2.14-1.62-4.55-3.49-7.19-4.2-2.15-.59-4.51-.09-5.64,2-.89,1.61-.76,3.81,1,4.78a6.26,6.26,0,0,0,3.9.27,14.25,14.25,0,0,0,3.85-1c2.52-1.16,1.57-4.13,1-6.21a29.73,29.73,0,0,0-6.82-11.91,29.38,29.38,0,0,0-5.21-4.42,28.06,28.06,0,0,0-3-1.71,6.25,6.25,0,0,0-3.35-.95c-2,.21-3.15,2.22-3.12,4.08,0,2.22,1.73,3.78,3.7,4.51,4.42,1.64,10,.05,13.75-2.56,3.54-2.49,7.85-7.9,4.19-12.07a4.45,4.45,0,0,0-5.61-1.14,4.79,4.79,0,0,0-1.92,4.8c.54,4.5,4.63,7.91,8.59,9.57a16.61,16.61,0,0,0,3.4,1c1.39.24,2-1.89.59-2.14a14.45,14.45,0,0,1-9.12-5.51,6.43,6.43,0,0,1-1.3-3.91c0-1.22.83-2.41,2.2-2.14a3.19,3.19,0,0,1,2.29,3.52,8.41,8.41,0,0,1-3,4.91,15.39,15.39,0,0,1-10,4c-1.61,0-3.5-.15-4.75-1.28a2.23,2.23,0,0,1-.17-3.24c.57-.48,1.3-.14,1.89.13a24.29,24.29,0,0,1,2.42,1.28,27.32,27.32,0,0,1,4.17,3.07,28.14,28.14,0,0,1,6.33,8.35,25.88,25.88,0,0,1,1.82,4.84,8.77,8.77,0,0,1,.5,2.42c0,1-1.7,1.08-2.45,1.24-1.06.24-4.48,1.14-4.07-.93s2.93-1.84,4.47-1.14a29.92,29.92,0,0,1,5.82,3.78,49.73,49.73,0,0,1,5.46,4.9c1,1,2.57-.54,1.57-1.57Z"/><path class="cls-2" d="M162.89,225.5a51.94,51.94,0,0,0-7,4.46,25.49,25.49,0,0,0-5.72,5.34c-1.3,1.87-1.69,4.32-.1,6.14,1.31,1.5,3.69,2.06,5.16.46a5.86,5.86,0,0,0,1.18-3.18,14.64,14.64,0,0,0,.17-4.38c-.42-2.58-3.18-2.59-5.27-2.62a29.82,29.82,0,0,0-19.83,7.41,26.87,26.87,0,0,0-2.44,2.45,4.66,4.66,0,0,0-1.52,3.16c.06,2,2,3.48,3.92,3.64,2.25.2,4.12-1.52,5.13-3.37,2.37-4.33,2.13-10,.19-14.42-1.66-3.79-6-8.49-10.45-5.63a4.25,4.25,0,0,0-1.65,5.77c1.11,1.79,3.42,2.38,5.4,2.28,5-.23,9.6-4.41,11.73-8.74.62-1.28-1.29-2.4-1.92-1.12a14.4,14.4,0,0,1-7.71,7.2c-1.58.59-6.28,1-5.85-1.94.22-1.43,2-2.25,3.33-2,1.78.28,3.16,1.76,4.08,3.21a15.21,15.21,0,0,1,2.09,10.79,9.27,9.27,0,0,1-2.06,4.8c-1,1.05-2.73,1.5-3.75.16s1.38-3.06,2.2-3.85a26.73,26.73,0,0,1,4.21-3.28,28.11,28.11,0,0,1,10-3.87,25.55,25.55,0,0,1,5.45-.37c.57,0,1.85-.11,2.31.3s.22,2.26.17,2.91c-.1,1.23-.38,4.66-2.35,3.08-1.65-1.32-.38-3.43.73-4.64a42.3,42.3,0,0,1,11.24-8.2c1.26-.67.14-2.59-1.12-1.91Z"/><path class="cls-2" d="M241.75,218.43a48.8,48.8,0,0,1,7.59,10.08c.77,1.37,2,3.89.62,5.26-.84.82-2.36,1-2.44-.48a10.52,10.52,0,0,1,.46-3c.16-.65.37-2.31,1.2-2.37a7.62,7.62,0,0,1,2.55.58c.83.25,1.65.54,2.45.87a27.5,27.5,0,0,1,8.69,5.79,26.5,26.5,0,0,1,5.86,8.5c.23.56.6,1.31.22,1.88a2,2,0,0,1-1.58.69c-1.61,0-2.41-1.6-2.72-2.95-.78-3.48.46-7.45,2.37-10.35a13.22,13.22,0,0,1,4-4c1.47-.91,3.54-1.6,5.09-.47,1.14.84,1.88,2.76.36,3.64-1.24.72-3,.18-4.21-.45-3.54-1.89-5.68-6.15-6.25-10-.2-1.41-2.34-.81-2.13.58.64,4.41,3.35,9.36,7.46,11.41a7.2,7.2,0,0,0,5.64.63,4,4,0,0,0,2.46-4.69,5.37,5.37,0,0,0-4.48-3.9c-2.58-.32-5,1-6.89,2.69a17.5,17.5,0,0,0-5.78,13c0,2.17.58,4.59,2.34,6a4.46,4.46,0,0,0,5.29.22c2.12-1.49,1.42-3.77.5-5.76a28.77,28.77,0,0,0-3.64-5.79A29.48,29.48,0,0,0,256,227.74a18.71,18.71,0,0,0-6.72-2.08c-2.88-.1-3.45,3.42-3.82,5.62s-.27,4.79,2.29,5.28a4.36,4.36,0,0,0,4.55-2.35c1.18-2.53-.2-5.35-1.5-7.53a52,52,0,0,0-4.75-6.73c-.88-1.07-1.81-2.1-2.77-3.09s-2.57.54-1.57,1.57Z"/><path class="cls-2" d="M187.49,157a47.13,47.13,0,0,1-2.31-12.77c0-1.43,0-3.6,1.35-4.48.65-.42,2.29-.55,2.58.42.22.76-.63,1.74-1,2.3a16.06,16.06,0,0,1-2.07,2.37c-.35.33-.56.51-1,.3a4.63,4.63,0,0,1-1-.79,27.32,27.32,0,0,1-9.38-21.63c0-.64,0-1.62.53-2.06a1.72,1.72,0,0,1,1.56-.12c1.63.56,1.78,2.41,1.42,3.88-.82,3.4-3.57,6.38-6.5,8.14-2.53,1.52-7.17,3.31-9.73.93-1-.89-1.48-2.85-.36-3.82,1.34-1.16,3.21.26,4.14,1.27a10.54,10.54,0,0,1,2.24,5.51,14.71,14.71,0,0,1-.62,6.72c-.44,1.36,1.7,1.94,2.14.59,1.5-4.56,1.18-10.68-2.19-14.39-1.36-1.49-3.48-2.75-5.57-2.21a4.1,4.1,0,0,0-3,4.28,5.45,5.45,0,0,0,3.39,4.75,10.13,10.13,0,0,0,7,0,17.55,17.55,0,0,0,10.23-8.59c1.1-2.16,1.84-4.94.54-7.19a4.47,4.47,0,0,0-4.83-2c-2.31.58-2.57,3-2.61,5a28.78,28.78,0,0,0,.77,7.16,30,30,0,0,0,6.33,12.49,26.86,26.86,0,0,0,2.4,2.49,6.71,6.71,0,0,0,3.07,2,3.43,3.43,0,0,0,3-1.36,19.84,19.84,0,0,0,2.64-3.29c1.24-2,1-4.48-1.42-5.33a4.37,4.37,0,0,0-5.36,2.24c-1.28,2.52-.81,5.68-.48,8.37a54.43,54.43,0,0,0,2.07,9.52c.43,1.35,2.58.77,2.14-.59Z"/><path class="cls-2" d="M70.7,194.13a54.53,54.53,0,0,0,6.6,4.94c2.26,1.43,4.84,3.12,7.51,3.61,2.2.4,4.5-.18,5.51-2.33.8-1.72.5-4-1.4-4.78a6.22,6.22,0,0,0-3.77.05,15,15,0,0,0-3.76,1.27c-2.52,1.36-1.31,4.3-.5,6.36a29.57,29.57,0,0,0,7.8,11.28,29.2,29.2,0,0,0,5.57,4,31.24,31.24,0,0,0,3.1,1.45,6,6,0,0,0,3.42.65c1.86-.39,2.85-2.41,2.72-4.18a5,5,0,0,0-3.85-4.27c-4.47-1.36-9.82.61-13.35,3.36s-7.49,8.38-3.76,12.42a4.59,4.59,0,0,0,5.58,1.13C89.91,228,90.33,225.91,90,224c-.78-4.53-5.4-7.69-9.48-9a17.43,17.43,0,0,0-3.58-.69c-1.42-.13-1.41,2.09,0,2.22a14.16,14.16,0,0,1,9.54,4.94,6,6,0,0,1,1.42,4,1.84,1.84,0,0,1-2.49,1.74,3.34,3.34,0,0,1-2-3.86,9.52,9.52,0,0,1,2.89-4.9A15.32,15.32,0,0,1,96,214c1.57-.1,3.49,0,4.66,1.2a2.18,2.18,0,0,1,0,3c-.54.43-1.28.1-1.85-.1a20.43,20.43,0,0,1-2.5-1.07,27.47,27.47,0,0,1-4.42-2.72,27.81,27.81,0,0,1-6.9-7.68A26.27,26.27,0,0,1,82.79,202a10.12,10.12,0,0,1-.72-2.39c-.1-1,1.46-1.25,2.24-1.49,1-.32,4.54-1.58,4.21.62s-2.65,2-4.22,1.5A28.91,28.91,0,0,1,78.14,197a50.62,50.62,0,0,1-5.87-4.42c-1.07-.93-2.65.63-1.57,1.57Z"/><path class="cls-2" d="M70.7,194.13a54.53,54.53,0,0,0,6.6,4.94c2.26,1.43,4.84,3.12,7.51,3.61,2.2.4,4.5-.18,5.51-2.33.8-1.72.5-4-1.4-4.78a6.22,6.22,0,0,0-3.77.05,15,15,0,0,0-3.76,1.27c-2.52,1.36-1.31,4.3-.5,6.36a29.57,29.57,0,0,0,7.8,11.28,29.2,29.2,0,0,0,5.57,4,31.24,31.24,0,0,0,3.1,1.45,6,6,0,0,0,3.42.65c1.86-.39,2.85-2.41,2.72-4.18a5,5,0,0,0-3.85-4.27c-4.47-1.36-9.82.61-13.35,3.36s-7.49,8.38-3.76,12.42a4.59,4.59,0,0,0,5.58,1.13C89.91,228,90.33,225.91,90,224c-.78-4.53-5.4-7.69-9.48-9a17.43,17.43,0,0,0-3.58-.69c-1.42-.13-1.41,2.09,0,2.22a14.16,14.16,0,0,1,9.54,4.94,6,6,0,0,1,1.42,4,1.84,1.84,0,0,1-2.49,1.74,3.34,3.34,0,0,1-2-3.86,9.52,9.52,0,0,1,2.89-4.9A15.32,15.32,0,0,1,96,214c1.57-.1,3.49,0,4.66,1.2a2.18,2.18,0,0,1,0,3c-.54.43-1.28.1-1.85-.1a20.43,20.43,0,0,1-2.5-1.07,27.47,27.47,0,0,1-4.42-2.72,27.81,27.81,0,0,1-6.9-7.68A26.27,26.27,0,0,1,82.79,202a10.12,10.12,0,0,1-.72-2.39c-.1-1,1.46-1.25,2.24-1.49,1-.32,4.54-1.58,4.21.62s-2.65,2-4.22,1.5A28.91,28.91,0,0,1,78.14,197a50.62,50.62,0,0,1-5.87-4.42c-1.07-.93-2.65.63-1.57,1.57Z"/><path class="cls-2" d="M248.37,138.88a54.53,54.53,0,0,0,6.6,4.94c2.26,1.43,4.84,3.12,7.51,3.61,2.2.4,4.5-.18,5.51-2.33.8-1.72.5-4-1.4-4.78a6.22,6.22,0,0,0-3.77.05,15,15,0,0,0-3.76,1.27c-2.52,1.36-1.31,4.3-.5,6.36a29.57,29.57,0,0,0,7.8,11.28,29.2,29.2,0,0,0,5.57,4,31.24,31.24,0,0,0,3.1,1.45,6,6,0,0,0,3.42.65,3.87,3.87,0,0,0,2.72-4.18,5,5,0,0,0-3.85-4.27c-4.46-1.36-9.82.61-13.35,3.36s-7.49,8.38-3.76,12.42a4.59,4.59,0,0,0,5.58,1.13c1.79-1.06,2.21-3.15,1.89-5.05-.78-4.53-5.41-7.69-9.49-9a17.56,17.56,0,0,0-3.58-.69c-1.42-.13-1.41,2.09,0,2.22a14.16,14.16,0,0,1,9.54,4.94,6,6,0,0,1,1.42,4,1.84,1.84,0,0,1-2.49,1.74,3.34,3.34,0,0,1-2-3.86,9.56,9.56,0,0,1,2.89-4.9,15.32,15.32,0,0,1,9.75-4.48c1.57-.1,3.49,0,4.66,1.2a2.18,2.18,0,0,1,0,3c-.54.43-1.28.1-1.85-.1a21.11,21.11,0,0,1-2.5-1.07,27.47,27.47,0,0,1-4.42-2.72,27.81,27.81,0,0,1-6.9-7.68,26.27,26.27,0,0,1-2.24-4.66,10.12,10.12,0,0,1-.72-2.39c-.1-1,1.46-1.25,2.24-1.49,1-.33,4.54-1.58,4.21.63s-2.65,2-4.22,1.49a29.16,29.16,0,0,1-6.16-3.28,51.49,51.49,0,0,1-5.87-4.42c-1.07-.93-2.65.63-1.57,1.57Z"/><g class="cls-3"><path class="cls-2" d="M315.66,205a55.62,55.62,0,0,0-4.82-6.69,25.54,25.54,0,0,0-5.68-5.45c-1.91-1.17-4.34-1.49-6.09.13-1.39,1.28-2,3.59-.51,5.05a4.84,4.84,0,0,0,3,1.17,17.1,17.1,0,0,0,4.52,0c2.81-.41,2.75-3.14,2.65-5.4a29.67,29.67,0,0,0-4.1-13.69,29,29,0,0,0-4.39-5.7,26.82,26.82,0,0,0-2.58-2.3,4.79,4.79,0,0,0-3.21-1.38c-2,.12-3.32,2-3.48,3.87-.2,2.24,1.48,4.08,3.35,5,4.38,2.25,10.05,1.75,14.38-.33,3.83-1.84,8.55-6.53,5.31-11a4.2,4.2,0,0,0-5.91-1.2c-1.7,1.28-2.1,3.61-1.85,5.6.61,5.07,5.1,9.24,9.58,11.13a1.11,1.11,0,1,0,.59-2.14,14.21,14.21,0,0,1-7.51-7.41c-.63-1.52-1.07-6.35,1.89-5.71,1.55.34,2.28,2.25,1.95,3.65a7.32,7.32,0,0,1-3.32,4.08,15.41,15.41,0,0,1-10.76,2.34,8.27,8.27,0,0,1-4.7-2,2.31,2.31,0,0,1,.08-3.53c.64-.43,1.24,0,1.8.36a21.85,21.85,0,0,1,2.21,1.87,26.79,26.79,0,0,1,3.48,4,28.21,28.21,0,0,1,4.36,9.83,26.85,26.85,0,0,1,.64,5.43c0,.54.19,1.77-.26,2.19-.25.24-.81.19-1.13.21-.66,0-1.32,0-2,0-1.24,0-4.34-.22-2.89-2.18,1.22-1.66,3.34-.58,4.61.44a34.92,34.92,0,0,1,4.69,4.88,50,50,0,0,1,4.15,5.86c.74,1.21,2.66.1,1.92-1.12Z"/><path class="cls-2" d="M459.12,198.12a47.94,47.94,0,0,1,12.5,2.84c1.32.51,3.21,1.37,3.58,2.9.19.82-.45,2.7-1.58,2.27-.75-.29-1.24-1.35-1.6-2a11.72,11.72,0,0,1-1.3-2.72c-.17-.61-.16-.78.34-1.12a7.11,7.11,0,0,1,1-.53,26,26,0,0,1,2.83-1.19,27.78,27.78,0,0,1,11-1.47,27,27,0,0,1,5.56,1,18.37,18.37,0,0,1,5.21,2.12c1.24.82.48,2.35-.69,2.84-1.58.66-3.36-.74-4.37-1.79a15.09,15.09,0,0,1-4-10c-.06-2.68.66-7.59,4.17-7.77,1.26-.06,2.84.68,2.65,2.16s-2.06,2.36-3.34,2.7c-3.84,1-8.44-.84-11.31-3.35-1.07-.94-2.65.62-1.57,1.57,3.48,3,8.83,5.15,13.47,3.92a6.93,6.93,0,0,0,4.57-3.32,4,4,0,0,0-1.44-5.08,5.38,5.38,0,0,0-5.28-.25,8,8,0,0,0-3.72,5.38A17.26,17.26,0,0,0,488.5,201c1.36,1.91,3.22,3.87,5.64,4.31a4.51,4.51,0,0,0,5-2.43,3.62,3.62,0,0,0,.24-2.7,4.39,4.39,0,0,0-2.53-2.38,28.12,28.12,0,0,0-6.9-2.35,29.94,29.94,0,0,0-14.77.73,29.59,29.59,0,0,0-3.39,1.3,6.56,6.56,0,0,0-2.95,2c-.73,1.13-.35,2.34.13,3.47a19.26,19.26,0,0,0,1.84,3.44,4.05,4.05,0,0,0,2.94,2,3.27,3.27,0,0,0,2.69-1.24,4.43,4.43,0,0,0-.29-6c-1.84-2-4.9-2.77-7.41-3.49a52.85,52.85,0,0,0-9.58-1.78c-1.42-.14-1.41,2.08,0,2.22Z"/></g><path class="cls-2" d="M47.33,245.32a53,53,0,0,0-7.19,6.19c-2,2.12-4.63,4.65-4.92,7.74a4.34,4.34,0,0,0,4,4.74c3.25.1,3.43-3.65,3.31-6-.08-1.43-.1-3.34-1.27-4.35s-2.66-.7-3.95-.56a28.62,28.62,0,0,0-8.2,2.05,29.65,29.65,0,0,0-12.9,10.21c-.77,1.09-1.65,2.32-1.5,3.73a3.6,3.6,0,0,0,1.79,2.62,4.7,4.7,0,0,0,6.31-1.61c1.62-2.26,1.94-5.46,1.73-8.15a17.74,17.74,0,0,0-2.74-8.23c-1.48-2.29-3.65-4.55-6.45-5a5.32,5.32,0,0,0-6.12,3.71,4.13,4.13,0,0,0,3.37,4.9,8.23,8.23,0,0,0,6.1-1.12A14.47,14.47,0,0,0,21.83,253c1.28-1.63,2.45-3.33,3.58-5.06a78.61,78.61,0,0,0,5.76-10.19,16.21,16.21,0,0,0,.7-1.74c.45-1.36-1.69-1.95-2.14-.59a37.66,37.66,0,0,1-3.36,6.68,87.37,87.37,0,0,1-5.53,8.56c-1.56,2.1-3,4-5.58,4.48-1.27.22-3.28.16-3.79-1.3a2.22,2.22,0,0,1,.93-2.37,3.26,3.26,0,0,1,2.94-.54c2.13.57,3.72,2.47,4.82,4.27a15.39,15.39,0,0,1,2.2,6.74,11.56,11.56,0,0,1-1,6.36c-.76,1.39-2.9,2.82-4.18,1.06-.54-.74.1-1.55.52-2.19a25.45,25.45,0,0,1,2-2.69,27.59,27.59,0,0,1,17.19-9.13c.6-.07,1.21-.13,1.83-.15.8,0,1.2,0,1.37.85a13.7,13.7,0,0,1,.19,4.47c-.13.91-.58,1.54-1.54,1.16a2.1,2.1,0,0,1-1.37-2,6.26,6.26,0,0,1,1.64-3.6A37.31,37.31,0,0,1,41.83,253a50.29,50.29,0,0,1,6.62-5.74c1.14-.83,0-2.75-1.12-1.91Z"/><path class="cls-2" d="M383,212.4q-2.72-4.29-5.49-8.55-7.2,1.76-14.3,3.64,2.46,5.83,4.83,11.67,7.39-3.47,15-6.76Z"/><path class="cls-2" d="M292.79,200.81q-3.19-3.92-6.46-7.81-6.1,5.92-12,11.95,6.66,5.24,13.15,10.59,2.61-7.36,5.32-14.73Z"/><path class="cls-2" d="M432.06,159q-2.79-4.47-5.66-8.93-3.88,30.93-8.25,61.77-5.38,11.26-10.62,22.6,2.48,4.36,4.87,8.75,5.55-8.51,11.27-16.92,7.89-12.36,16.1-24.59,25.41-13.53,52.66-25.32-2.46-4.68-5-9.35-29.08,13.18-56.05,28.4.51-18.18.66-36.41Z"/><path class="cls-2" d="M354.09,144.65q-3.19-4.17-6.47-8.33-20.21,41.07-37.35,83,3,4,6,8,17.38-41.78,37.85-82.71Z"/><path class="cls-2" d="M256.12,137q-3.68-3.76-7.43-7.48-15.13,43.33-27.12,87.17,3.48,3.6,6.89,7.23Q240.7,180.2,256.12,137Z"/><path class="cls-2" d="M184.06,149.69q-4-3.42-8-6.79-9.93,2.22-19.78,4.69,11.44,9.1,22.39,18.51,2.63-8.21,5.37-16.41Z"/><path class="cls-2" d="M113.35,210.26q4.05,3,8,6.12,10-3.52,20.2-6.75-11.78-10.24-24.16-20.11-2.15,10.36-4.08,20.74Z"/><path class="cls-2" d="M86.63,151.72q-4.41-2.9-8.87-5.74Q45.33,165.26,15.54,187.1q4.61,2.47,9.15,5Q40.26,186.5,56,181.55q-1,26.88-1,53.65-20.37.81-41,2.8,4.46,2.44,8.85,4.94,17.51-.37,34.74.11,7-10,14.44-19.8Q68.45,200.65,65,178q10.44-13.28,21.64-26.27Z"/><path class="cls-2" d="M172.34,183.66l.06-.26q-1.85-4.56-3.74-9.13-3.21-3.75-6.49-7.46c-3.25-.26-6.5-.5-9.77-.72q-4.54,1.53-9.06,3.11-2.81,4.06-5.53,8.15-.36,5-.7,9.92l.87.13q1.59,4.59,3.15,9.18,3.39,3.51,6.71,7.06,4.68.59,9.33,1.23,4.32-1.67,8.69-3.29,2.46-4.12,5-8.25c.48-3.22,1-6.45,1.49-9.67ZM110.22,192c0-.08,0-.17,0-.26-.48-3-1-6-1.45-9,.71-3,1.43-5.89,2.16-8.84s1.42-5.89,2.14-8.83q2.67-3.69,5.39-7.34c2.1-2.14,4.23-4.28,6.36-6.4q3.7-2.61,7.46-5.18c2.7-1.48,5.42-2.93,8.15-4.38q4.58-.86,9.15-1.68,4.59.23,9.18.51,4.53.52,9,1.11,4.18,1.75,8.32,3.56,4,2.17,7.9,4.39,3.06,3.3,6.08,6.64c1.71,2.47,3.39,4.93,5.06,7.41q1.73,4.19,3.4,8.37,1,4.47,2,8.95a1.94,1.94,0,0,1,0,.24l-.93,9.15q-1,4.44-1.95,8.89-1.74,4.18-3.43,8.38-2.89,3.32-5.74,6.65-3,3.13-5.89,6.3c-2.44,1.35-4.87,2.72-7.28,4.09-2.53,1-5.06,2.08-7.57,3.14-2.64.7-5.27,1.43-7.9,2.16q-4.09.45-8.19.94c-2.7-.64-5.42-1.26-8.14-1.88q-4-1.29-8-2.53-3.47-2.59-7-5.14t-7.14-5.07q-2.65-3.65-5.35-7.27c-1.16-2.79-2.32-5.58-3.5-8.37q-1.16-4.35-2.32-8.7Z"/><path class="cls-2" d="M227.12,137.11q4.78-.24,9.57-.42c3.26.21,6.52.45,9.77.7q4.83-.24,9.66-.42l-.48,8.71q.21,4.44.4,8.86c-.24,3-.48,5.89-.71,8.84-.06,3-.11,5.9-.17,8.85.23,3,.45,5.91.67,8.86,0,2.95,0,5.91,0,8.86s-.18,5.68-.26,8.51c2.42-.07,4.85-.12,7.27-.17q3.79.47,7.59,1,3.81-.06,7.62-.07,3.8.28,7.59.6c2.38.33,4.76.68,7.13,1-.07,2.6-.13,5.2-.2,7.8q0,4.14,0,8.28c-.38,2.66-.77,5.31-1.15,8q-3.81-.43-7.63-.83c-2.63,0-5.26,0-7.89.06s-5.24-.18-7.86-.25c-2.63.09-5.25.18-7.87.3q-3.93-.15-7.87-.24-3.93.13-7.86.32c-2.62-.41-5.24-.79-7.87-1.17q-4.05.41-8.09.85l.12-8.93-.21-8.67.09-8.68-1-8.66c-.07-2.88-.13-5.77-.2-8.66q.42-4.35.86-8.7c-.32-2.88-.65-5.77-1-8.65l-.48-8.67c.23-2.9.47-5.79.71-8.69l-.27-8.47Z"/><path class="cls-2" d="M324.84,140.4q5,.85,10.08,1.78,4.9.12,9.82.32,4.68,1,9.35,2.15c-.41,2.84-.82,5.67-1.24,8.51q-.3,4.41-.62,8.84l-1,8.8q-.62,4.38-1.24,8.76c-.73,2.88-1.47,5.76-2.19,8.63-.28,2.95-.55,5.89-.83,8.83s-.83,5.9-1.24,8.85c2.54.34,5.09.69,7.63,1.06s5,.85,7.52,1.29c2.53.29,5.06.6,7.58.91s5.07.6,7.6.92q3.46,1.15,6.9,2.35l-1.29,7.69q-.51,4.11-1,8.22c-.66,2.6-1.31,5.21-2,7.83q-3.76-.84-7.56-1.63-4-.24-7.94-.42c-2.57-.52-5.15-1-7.74-1.53s-5.16-1-7.75-1.42-5.18-1-7.77-1.44-5.22-.64-7.83-.94-5.21-.69-7.82-1c-2.68-.14-5.35-.27-8-.38q.7-4.38,1.42-8.74.49-4.31,1-8.61l.78-8.64c-.06-2.91-.12-5.83-.19-8.74.38-2.87.76-5.73,1.15-8.6s.77-5.73,1.15-8.6q.24-4.34.46-8.67,1-4.26,2-8.52c.14-2.9.29-5.79.43-8.68.15-3.06.29-6.11.44-9.16Z"/><path class="cls-2" d="M419,213.63c-.61-3-1.23-6-1.86-9q-1.64-4.29-3.33-8.56c-1-2.88-2.09-5.76-3.16-8.64-.47-3.08-.95-6.15-1.45-9.23q-1.85-4.26-3.73-8.51c-.91-3-1.82-5.9-2.76-8.85q-1.68-4.5-3.4-9c2.82.54,5.63,1.1,8.45,1.68q3.94,1.26,7.88,2.57c2.79.13,5.57.28,8.36.44,2.68.8,5.36,1.62,8,2.44q1,4,2,7.93c.81,2.57,1.6,5.13,2.37,7.7.28,2.69.54,5.38.8,8.07.73,2.63,1.44,5.26,2.15,7.89q2.85-2.93,5.75-5.82c1.64-2.14,3.29-4.26,4.95-6.39q2.74-2.94,5.54-5.86t5.71-5.8q4,1,8,2.09c2.53,1,5.07,2.1,7.6,3.17q4,.87,8,1.78c2.5.86,5,1.72,7.49,2.6q-3.29,3.1-6.53,6.23-3.47,3.06-6.89,6.14-3.69,2.79-7.34,5.62-3.21,3.31-6.39,6.63-3.4,3.08-6.78,6.17-3.18,3.3-6.32,6.63T446,220.37l-1.77,7.48q-1.14,3.72-2.27,7.44c-1,2.4-2,4.81-3.06,7.22l-1.74,7.13q-4.11-1-8.23-2-4.2-1.32-8.42-2.59-4-1-8.11-1.87l2.31-9.48q.85-5.07,1.68-10.14l2.64-9.9Z"/><path class="cls-2" d="M88.48,159.31c-.62-2.53-1.23-5.06-1.85-7.59q-3.9.48-7.78,1-4.08.73-8.16,1.53-4,1.06-8,2.18-4.12.59-8.25,1.21c-2.54.72-5.09,1.46-7.63,2.21q-5.2,1.22-10.42,2.52-4.65.91-9.32,1.88c-3,.81-6.09,1.63-9.13,2.47.71,2.81,1.42,5.61,2.14,8.42l2.46,8.31c.72,2.89,1.45,5.78,2.17,8.67q4.17-1.59,8.36-3.14,4.32-.58,8.64-1.12l3.08-1c.19.78.39,1.56.58,2.34l2.82,8.55q.91,4.41,1.84,8.8t1.93,8.78c.25,2.35.5,4.71.76,7.06q-2.46,2.47-4.89,5c-2.22-.39-4.44-.76-6.67-1.13-1.91-1.26-3.82-2.51-5.75-3.75q-1.91,3.56-3.76,7.12-2.4,3.19-4.76,6.4-2,3.45-3.94,6.91c2.55,1.67,5.1,3.36,7.62,5.06,2.8,1,5.59,2,8.37,3.06,2.88,0,5.75-.08,8.63-.09q4.22-.71,8.43-1.35c2.67-.77,5.34-1.51,8-2.25q3.45-2.48,6.93-4.92c1.47-2.5,3-5,4.48-7.5q2-4,4-8c.07-3.1.15-6.19.24-9.29-.28-3.1-.56-6.21-.82-9.31q-1.26-4.29-2.53-8.56l-1.17-8.87q-1.47-4.23-3-8.46c-.11-1-.21-1.9-.32-2.85l3.1-.71c2.76-.77,5.54-1.52,8.31-2.26,2.76-.45,5.52-.88,8.28-1.31l-.9-8q-1.06-4-2.15-8Z"/><path class="cls-4" d="M164.54,177l.06-.25q-1.9-4.56-3.85-9.1-3.28-3.7-6.62-7.39c-3.28-.23-6.57-.43-9.87-.62q-4.57,1.58-9.13,3.2-2.77,4.09-5.51,8.22-.33,5-.63,9.93l.88.12q1.65,4.56,3.26,9.14,3.44,3.48,6.83,7,4.72.54,9.43,1.13,4.37-1.71,8.75-3.38,2.46-4.15,5-8.3c.47-3.23.94-6.46,1.43-9.69Zm-62.66,9c0-.08,0-.17,0-.26l-1.53-9c.69-2.95,1.39-5.91,2.11-8.86s1.38-5.91,2.09-8.86q2.67-3.72,5.38-7.4,3.16-3.25,6.38-6.47,3.7-2.66,7.48-5.26c2.71-1.51,5.45-3,8.19-4.47q4.6-.92,9.22-1.77c3.1.12,6.18.25,9.27.41q4.58.48,9.13,1,4.25,1.71,8.44,3.47,4,2.13,8,4.31,3.12,3.28,6.2,6.58,2.61,3.68,5.17,7.36,1.77,4.17,3.51,8.34c.68,3,1.37,5.95,2,8.93,0,.08,0,.16,0,.24-.29,3.05-.57,6.11-.85,9.16-.64,3-1.28,5.93-1.9,8.9-1.15,2.81-2.27,5.61-3.39,8.42q-2.9,3.34-5.75,6.71-3,3.17-5.89,6.36-3.68,2.07-7.32,4.17-3.82,1.59-7.62,3.21-4,1.09-8,2.25c-2.75.33-5.51.67-8.26,1-2.74-.62-5.49-1.21-8.24-1.79-2.7-.84-5.41-1.65-8.13-2.46q-3.53-2.53-7.11-5.06t-7.24-5q-2.71-3.62-5.47-7.21-1.78-4.17-3.59-8.33L101.88,186Z"/><path class="cls-4" d="M219.43,129.9q4.83-.28,9.66-.51c3.29.18,6.58.39,9.86.61q4.88-.28,9.74-.51-.19,4.35-.4,8.72.26,4.42.48,8.85l-.63,8.84c0,2.95,0,5.91-.08,8.86q.39,4.43.76,8.85c0,2.95.07,5.91.1,8.86l-.18,8.51c2.44-.09,4.89-.16,7.34-.23,2.56.28,5.12.58,7.67.88,2.56,0,5.13-.1,7.69-.13,2.56.17,5.12.34,7.68.53,2.4.31,4.81.63,7.21,1,0,2.6-.09,5.2-.13,7.8q0,4.14,0,8.28l-1.08,8q-3.86-.41-7.71-.76-4,0-8,.13c-2.65-.08-5.29-.14-7.94-.18s-5.31.23-8,.36q-4-.1-7.94-.16c-2.65.11-5.29.24-7.94.39q-4-.57-8-1.09-4.1.44-8.17.92c0-3,0-5.95,0-8.93s-.2-5.78-.29-8.67,0-5.78,0-8.67q-.53-4.33-1.07-8.65-.15-4.34-.28-8.67.38-4.35.78-8.7-.52-4.32-1.06-8.65-.27-4.32-.56-8.66.31-4.34.64-8.69c-.12-2.83-.23-5.65-.35-8.47Z"/><path class="cls-4" d="M318.06,132.31c3.4.54,6.8,1.11,10.19,1.69,3.3.06,6.61.14,9.91.24q4.74,1,9.46,2.08c-.39,2.84-.77,5.68-1.16,8.52l-.54,8.85c-.3,2.93-.6,5.87-.91,8.8s-.77,5.86-1.15,8.78l-2.13,8.65c-.24,2.94-.49,5.89-.74,8.83s-.77,5.91-1.16,8.86c2.57.32,5.15.66,7.72,1s5.07.81,7.6,1.24c2.56.27,5.11.55,7.67.85s5.12.55,7.68.85c2.33.76,4.66,1.52,7,2.3-.41,2.57-.81,5.14-1.22,7.7-.31,2.75-.63,5.49-.94,8.23-.64,2.62-1.27,5.23-1.9,7.85q-3.82-.81-7.65-1.57c-2.68-.14-5.35-.25-8-.36q-3.92-.76-7.83-1.47t-7.85-1.36q-3.92-.7-7.85-1.38-4-.45-7.92-.87t-7.91-1c-2.71-.12-5.41-.23-8.12-.32l1.35-8.74.93-8.63c.23-2.88.47-5.76.7-8.64-.09-2.91-.19-5.83-.28-8.74.36-2.87.71-5.74,1.07-8.61l1.08-8.61.36-8.68c.63-2.84,1.25-5.69,1.88-8.53l.36-8.69c.11-3.05.23-6.11.34-9.16Z"/><path class="cls-4" d="M413.88,204.82c-.65-3-1.3-6-2-9-1.13-2.84-2.28-5.69-3.45-8.53s-2.18-5.75-3.29-8.62c-.51-3.08-1-6.15-1.56-9.23q-1.91-4.25-3.86-8.48c-.95-2.94-1.91-5.89-2.89-8.83q-1.73-4.5-3.52-9c2.85.52,5.69,1.06,8.54,1.61,2.66.83,5.32,1.66,8,2.51,2.81.12,5.62.24,8.43.39q4.08,1.17,8.13,2.38,1.07,4,2.1,7.91c.83,2.57,1.66,5.13,2.47,7.69q.46,4,.9,8.07c.76,2.62,1.52,5.25,2.26,7.87q2.85-2.94,5.73-5.86,2.44-3.22,4.91-6.42,2.75-3,5.52-5.91c1.89-1.95,3.78-3.9,5.69-5.85q4,1,8.07,2c2.58,1,5.14,2.06,7.7,3.12,2.71.56,5.41,1.13,8.12,1.72,2.53.84,5.05,1.69,7.58,2.56-2.19,2.08-4.35,4.17-6.51,6.27s-4.6,4.12-6.87,6.19q-3.69,2.83-7.34,5.68-3.19,3.33-6.36,6.68-3.4,3.09-6.76,6.22-3.17,3.33-6.3,6.67c-2.06,2.23-4.11,4.45-6.15,6.69-.56,2.5-1.13,5-1.7,7.49-.73,2.49-1.47,5-2.2,7.46l-3,7.25c-.56,2.38-1.11,4.76-1.67,7.15q-4.15-1-8.33-2-4.25-1.29-8.52-2.53c-2.73-.62-5.47-1.23-8.21-1.81l2.22-9.51q.79-5.07,1.58-10.15l2.55-9.92Z"/><path class="cls-4" d="M79.68,153.54,77.76,146c-2.62.34-5.23.7-7.85,1.07s-5.48,1.07-8.22,1.62c-2.69.75-5.39,1.51-8.07,2.28-2.77.42-5.55.85-8.32,1.3-2.56.75-5.13,1.52-7.68,2.3-3.51.86-7,1.74-10.5,2.64q-4.7,1-9.39,2c-3.07.84-6.14,1.71-9.2,2.58q1.11,4.2,2.21,8.4,1.28,4.14,2.54,8.29,1.13,4.32,2.26,8.64c2.79-1.09,5.6-2.17,8.4-3.23,2.91-.43,5.81-.84,8.72-1.23l3.1-1,.6,2.34,2.91,8.52,1.92,8.79c.66,2.92,1.34,5.84,2,8.76q.39,3.52.81,7-2.48,2.51-4.9,5-3.36-.55-6.75-1.06-2.89-1.85-5.82-3.68-1.91,3.58-3.76,7.17Q20.38,227.8,18,231q-2,3.48-3.94,7,3.89,2.48,7.73,5,4.26,1.46,8.47,3,4.36-.13,8.72-.21c2.83-.5,5.67-1,8.5-1.45,2.7-.8,5.39-1.58,8.09-2.35q3.46-2.51,7-5,2.2-3.8,4.47-7.57,2-4,4-8.08c0-3.1.11-6.19.17-9.29-.3-3.1-.6-6.21-.89-9.31l-2.61-8.54q-.63-4.42-1.24-8.85l-3.05-8.43c-.12-1-.23-1.9-.34-2.85l3.12-.75c2.79-.79,5.58-1.58,8.38-2.35q4.17-.72,8.34-1.4l-1-8q-1.11-4-2.24-8Z"/><path class="cls-5" d="M20.72,173.5q11.6-3.23,23.27-6.09c1.84,7.42,8.18,32.87,10.33,41.21,2.59,10.16,0,17.06-7.92,21.91-8.37,5.12-19-.28-19.13-.33l-1.46,3.3c.46.22,9.21,4.65,17.89,2.2a17.9,17.9,0,0,0,4.51-2c9.18-5.62,12.47-14.27,9.54-26-2.11-8.34-8.32-33.79-10.13-41.23q12.23-2.94,24.49-5.49l-.75-3.62q-25.95,5.4-51.63,12.53l1,3.56Z"/><path class="cls-5" d="M149.88,210.25c-16.11,2-31.64-9.82-34.7-27.21a31,31,0,1,1,61.43-7.82c1.4,17.59-10.63,33-26.73,35Zm-8.55-67.14a34.57,34.57,0,0,0-29.69,40.54c3.53,19.37,20.84,32.52,38.7,30.26s31.28-19.35,29.83-39a34.51,34.51,0,0,0-38.84-31.81Z"/><path class="cls-5" d="M235.46,140.15c-1.24,0-2.48.06-3.72.09q.9,33,1.73,65.93,20.79-.27,41.59.63c.06-1.24.11-2.47.16-3.7q-19.2-.82-38.41-.66-.65-31.16-1.35-62.29Z"/><path class="cls-5" d="M327.25,206.62q3-31,6-62l-3.72-.35q-3,32.85-6,65.69,20.61,2.1,41.13,5.38c.2-1.22.4-2.43.59-3.65q-18.93-3-37.95-5.06Z"/><path class="cls-5" d="M462.17,169.54q-17,15.35-32.94,31.35-6.9-22-15.08-43.94l-3.51,1.27q8.66,23,15.91,46.14L421.09,226l3.35.86q2.78-10.82,5.56-21.6,16.75-16.84,34.71-32.95l-2.54-2.74Z"/><path class="cls-4" d="M62.49,277.88v-.08A13.15,13.15,0,0,1,76,264.41a13.33,13.33,0,0,1,10.2,4l-3.62,4.18A9.52,9.52,0,0,0,76,269.67c-4.37,0-7.51,3.62-7.51,8.06v.07c0,4.44,3.07,8.14,7.51,8.14,3,0,4.77-1.18,6.8-3l3.63,3.67a13.25,13.25,0,0,1-10.62,4.62,13.06,13.06,0,0,1-13.27-13.31Z"/><polygon class="cls-4" points="108.31 264.86 114 264.86 114 275.1 124.5 275.1 124.5 264.86 130.2 264.86 130.2 290.75 124.5 290.75 124.5 280.35 114 280.35 114 290.75 108.31 290.75 108.31 264.86 108.31 264.86"/><path class="cls-4" d="M165.26,277.43c2.77,0,4.36-1.48,4.36-3.66v-.07c0-2.44-1.7-3.7-4.47-3.7h-5.66v7.43Zm-11.47-12.57h11.84c3.29,0,5.84.92,7.54,2.62a8.12,8.12,0,0,1,2.22,5.92v.07a8,8,0,0,1-5.54,8l6.32,9.25h-6.66L164,282.46h-4.48v8.29h-5.7V264.86Z"/><polygon class="cls-4" points="198.17 264.86 203.87 264.86 203.87 290.75 198.17 290.75 198.17 264.86 198.17 264.86"/><path class="cls-4" d="M226,287l3.36-4a11.85,11.85,0,0,0,7.73,3.15c2.33,0,3.74-.93,3.74-2.45v-.07c0-1.44-.89-2.18-5.22-3.29-5.21-1.33-8.58-2.78-8.58-7.92v-.07c0-4.7,3.77-7.8,9.06-7.8a15,15,0,0,1,9.62,3.29l-3,4.29a12.14,12.14,0,0,0-6.73-2.55c-2.18,0-3.33,1-3.33,2.25v.08c0,1.7,1.11,2.25,5.58,3.4,5.26,1.37,8.22,3.25,8.22,7.77v.07c0,5.14-3.92,8-9.51,8A16.47,16.47,0,0,1,226,287Z"/><polygon class="cls-4" points="274.25 270.11 266.37 270.11 266.37 264.86 287.82 264.86 287.82 270.11 279.94 270.11 279.94 290.75 274.25 290.75 274.25 270.11 274.25 270.11"/><polygon class="cls-4" points="309.56 264.86 315.7 264.86 322.51 275.8 329.31 264.86 335.45 264.86 335.45 290.75 329.79 290.75 329.79 273.84 322.51 284.9 322.36 284.9 315.15 273.95 315.15 290.75 309.56 290.75 309.56 264.86 309.56 264.86"/><path class="cls-4" d="M373.91,279.91l-3.44-8.4-3.44,8.4Zm-6-15.24h5.25l11.1,26.08h-6l-2.37-5.81H365l-2.37,5.81h-5.81l11.1-26.08Z"/><g class="cls-3"><path class="cls-4" d="M403.5,287l3.36-4a11.85,11.85,0,0,0,7.73,3.15c2.33,0,3.74-.93,3.74-2.45v-.07c0-1.44-.89-2.18-5.22-3.29-5.21-1.33-8.58-2.78-8.58-7.92v-.07c0-4.7,3.77-7.8,9.06-7.8a15,15,0,0,1,9.62,3.29l-3,4.29a12.14,12.14,0,0,0-6.73-2.55c-2.18,0-3.33,1-3.33,2.25v.08c0,1.7,1.11,2.25,5.58,3.4C421,276.62,424,278.5,424,283v.07c0,5.14-3.92,8-9.51,8a16.47,16.47,0,0,1-11-4.14Z"/><path class="cls-2" d="M353.06,147.6a47.39,47.39,0,0,1-2.32-12.77c0-1.42,0-3.59,1.35-4.47.66-.43,2.3-.55,2.58.42.23.75-.62,1.73-1,2.29a18,18,0,0,1-2.07,2.38c-.36.32-.57.5-1,.3a5.31,5.31,0,0,1-1-.79,27.35,27.35,0,0,1-9.37-21.63c0-.64,0-1.62.52-2.07a1.77,1.77,0,0,1,1.57-.11c1.63.55,1.77,2.41,1.42,3.87-.83,3.4-3.57,6.38-6.51,8.15-2.52,1.52-7.17,3.31-9.72.92-1-.89-1.48-2.84-.36-3.81,1.34-1.16,3.21.25,4.13,1.27a10.51,10.51,0,0,1,2.24,5.51,14.6,14.6,0,0,1-.61,6.72c-.44,1.36,1.7,1.94,2.14.59,1.49-4.56,1.17-10.69-2.2-14.39-1.36-1.5-3.48-2.76-5.57-2.21a4.09,4.09,0,0,0-3,4.28,5.47,5.47,0,0,0,3.39,4.75,10.18,10.18,0,0,0,6.95,0,17.55,17.55,0,0,0,10.23-8.6c1.1-2.15,1.85-4.94.55-7.19a4.51,4.51,0,0,0-4.84-2c-2.31.59-2.57,2.95-2.61,5a28.68,28.68,0,0,0,.77,7.16,30,30,0,0,0,6.33,12.5,27,27,0,0,0,2.41,2.49,6.66,6.66,0,0,0,3.06,2,3.42,3.42,0,0,0,3-1.36,19.81,19.81,0,0,0,2.63-3.28c1.24-2,1-4.48-1.41-5.33a4.38,4.38,0,0,0-5.37,2.24c-1.27,2.51-.81,5.68-.47,8.36a53.15,53.15,0,0,0,2.07,9.52c.43,1.36,2.57.78,2.14-.59Z"/></g></svg>