<?xml version="1.0" encoding="UTF-8"?>
<svg id="Channel_Logos" data-name="Channel Logos" xmlns="http://www.w3.org/2000/svg" viewBox="0 0 500 400">
  <defs>
    <style>
      .cls-1 {
        fill: #bfaf93;
      }

      .cls-2 {
        fill: #5b6442;
      }

      .cls-3 {
        fill: #1e1d1b;
      }

      .cls-4 {
        fill: #3c3a17;
      }

      .cls-5 {
        fill: #3f3c17;
      }
    </style>
  </defs>
  <g>
    <polygon class="cls-3" points="32.96 257.71 56.51 257.71 68.26 230.22 31.91 230.22 32.96 257.71"/>
    <polygon class="cls-3" points="252.66 257.71 300 257.71 305.25 230.22 257.86 230.22 252.66 257.71"/>
    <polygon class="cls-3" points="80.71 257.71 104.26 257.71 115.28 230.22 78.92 230.22 80.71 257.71"/>
    <polygon class="cls-3" points="116.21 257.71 142.71 257.71 150.22 240.4 172.92 240.4 174.04 257.71 198.77 257.71 198.86 257.21 199.95 251.37 198.02 230.22 128.89 230.22 116.21 257.71"/>
    <polygon class="cls-3" points="413.71 257.71 436.85 257.71 442.26 230.22 403.36 230.22 413.71 257.71"/>
    <polygon class="cls-3" points="358.57 257.71 383.32 257.71 388.67 230.22 363.88 230.22 358.57 257.71"/>
    <polygon class="cls-3" points="303.79 257.71 350.94 257.71 356.24 230.22 309.04 230.22 303.79 257.71"/>
    <polygon class="cls-3" points="202.7 251.5 203.24 257.46 203.27 257.71 248.88 257.71 254.07 230.22 206.67 230.22 202.7 251.5"/>
  </g>
  <g>
    <polygon class="cls-5" points="287.66 203.81 262.85 203.81 258.29 227.95 283.09 227.95 287.66 203.81"/>
    <polygon class="cls-5" points="236.42 203.81 211.6 203.81 207.1 227.95 231.9 227.95 236.42 203.81"/>
    <polygon class="cls-5" points="170.39 203.81 171.01 212.57 162.43 212.57 166.29 203.81 141.07 203.81 129.94 227.95 197.81 227.95 195.6 203.81 170.39 203.81"/>
    <polygon class="cls-5" points="364.32 227.95 389.11 227.95 393.67 204.5 402.5 227.95 442.7 227.95 447.45 203.81 368.99 203.81 364.32 227.95"/>
    <polygon class="cls-5" points="77.51 208.58 78.77 227.95 116.19 227.95 125.86 203.81 101.06 203.81 100.96 204.09 100.94 203.81 55.81 203.81 55.7 204.09 55.69 203.81 30.9 203.81 31.82 227.95 69.24 227.95 77.51 208.58"/>
    <polygon class="cls-5" points="336.06 218.6 357.24 218.6 360.09 203.81 314.09 203.81 309.48 227.95 334.26 227.95 336.06 218.6"/>
  </g>
  <polygon class="cls-4" points="5.15 201.54 5.15 203.81 30.9 203.81 30.81 201.54 5.15 201.54"/>
  <polygon class="cls-4" points="5.15 227.95 5.15 230.22 31.91 230.22 31.82 227.95 5.15 227.95"/>
  <polygon class="cls-4" points="5.15 175.13 5.15 177.41 29.88 177.41 29.8 175.13 5.15 175.13"/>
  <polygon class="cls-4" points="494.85 177.41 494.85 175.13 453.09 175.13 452.64 177.41 494.85 177.41"/>
  <polygon class="cls-4" points="494.85 230.22 494.85 227.95 442.7 227.95 442.26 230.22 494.85 230.22"/>
  <polygon class="cls-4" points="494.85 203.81 494.85 201.54 447.9 201.54 447.45 203.81 494.85 203.81"/>
  <g>
    <path class="cls-4" d="M235.07,303.79c-.19-.19-.29-.42-.29-.68v-36.82c0-.26.1-.48.29-.68.19-.19.42-.29.68-.29h16.81c2.33,0,4.31.64,5.96,1.91,1.65,1.28,2.87,2.92,3.68,4.94.81,2.02,1.21,4.17,1.21,6.47,0,2.45-.56,4.73-1.67,6.83-1.11,2.1-2.53,3.78-4.24,5.04l5.23,11.72.1.19c.03.07.06.14.07.22.02.08.02.17.02.27,0,.32-.11.6-.34.82-.23.23-.53.34-.92.34h-7.66c-.16,0-.31-.04-.46-.12-.15-.08-.23-.19-.27-.32l-5.04-11.34h-4.6v10.8c0,.26-.1.48-.29.68-.19.19-.42.29-.68.29h-6.93c-.26,0-.48-.1-.68-.29ZM240.01,300.45v-10.51c0-.26.1-.48.29-.68.19-.19.42-.29.68-.29h9.45c.16,0,.32.04.46.12.15.08.23.19.27.32l4.94,11.05h1.7l-4.46-9.93-.15-.34c-.13-.45-.19-.71-.19-.78,0-.23.07-.42.22-.58.14-.16.41-.32.8-.48,1.94-.81,3.46-2.12,4.58-3.92,1.11-1.81,1.67-3.73,1.67-5.77,0-1.84-.41-3.52-1.24-5.04-.82-1.52-1.91-2.71-3.25-3.59-1.34-.87-2.74-1.31-4.19-1.31h-13.18v31.73h1.6ZM240.3,287.17c-.19-.19-.29-.42-.29-.68v-15.5c0-.26.1-.48.29-.68.19-.19.42-.29.68-.29h9.45c1.71,0,3.19.42,4.43,1.26,1.24.84,2.19,1.93,2.83,3.27.65,1.34.97,2.72.97,4.14,0,1.55-.33,3-.99,4.34-.66,1.34-1.69,2.41-3.08,3.22-1.39.81-3.1,1.21-5.14,1.21h-8.48c-.26,0-.48-.1-.68-.29ZM253.85,282.55c.79-1.05,1.19-2.33,1.19-3.85,0-1.39-.42-2.58-1.26-3.56-.84-.99-1.95-1.48-3.34-1.48h-6.78v10.46h6.78c1.49,0,2.62-.52,3.42-1.57Z"/>
    <path class="cls-4" d="M267.29,303.79c-.19-.19-.29-.42-.29-.68v-22.04c0-5.07,1.12-9.07,3.37-11.99,2.24-2.92,5.82-4.38,10.73-4.38s8.27,1.41,10.56,4.24c2.29,2.83,3.44,6.87,3.44,12.14v22.04c0,.26-.1.48-.29.68-.19.19-.42.29-.68.29h-7.07c-.26,0-.48-.1-.68-.29s-.29-.42-.29-.68v-10.46h-10.13v10.46c0,.26-.1.48-.29.68s-.42.29-.68.29h-7.02c-.26,0-.48-.1-.68-.29ZM272.33,300.45v-10.22c0-.26.1-.48.29-.68.19-.19.42-.29.68-.29h15.46c.26,0,.48.1.68.29s.29.42.29.68v10.22h1.74v-19.38c0-3.88-.82-7.01-2.47-9.4-1.65-2.39-4.28-3.58-7.9-3.58s-6.27,1.16-7.95,3.46c-1.68,2.31-2.52,5.48-2.52,9.52v19.38h1.7ZM272.62,287.51c-.19-.19-.29-.42-.29-.68v-7.17c0-1.52.28-3.07.85-4.65.56-1.58,1.5-2.93,2.81-4.05,1.31-1.11,3.01-1.67,5.11-1.67,1.97,0,3.61.54,4.92,1.62,1.31,1.08,2.25,2.41,2.83,3.97.58,1.57.87,3.09.87,4.58v7.36c0,.26-.1.48-.29.68-.19.19-.42.29-.68.29h-15.46c-.26,0-.48-.1-.68-.29ZM286.09,284.17v-4.7c0-1.74-.44-3.23-1.33-4.46-.89-1.23-2.11-1.84-3.66-1.84-1.71,0-3,.62-3.85,1.87-.86,1.24-1.28,2.79-1.28,4.63v4.51h10.13Z"/>
    <path class="cls-4" d="M300.24,303.74c-.19-.19-.29-.42-.29-.68v-36.77c0-.26.1-.48.29-.68.19-.19.42-.29.68-.29h11.19c3.1,0,5.91.79,8.43,2.37,2.52,1.58,4.49,3.71,5.91,6.37,1.42,2.66,2.13,5.53,2.13,8.6,0,6.69-1.57,11.92-4.7,15.7-3.13,3.78-8.03,5.67-14.68,5.67h-8.28c-.26,0-.48-.1-.68-.29ZM320.12,297.11c3.21-2.39,4.82-7.04,4.82-13.95,0-2.65-.6-5.07-1.79-7.27-1.2-2.2-2.82-3.94-4.87-5.23-2.05-1.29-4.27-1.94-6.66-1.94h-8.04v31.98h5.62c4.07,0,7.71-1.19,10.93-3.58ZM305.61,299.14c-.19-.19-.29-.44-.29-.73v-27.47c0-.26.1-.48.29-.68.19-.19.42-.29.68-.29h4.51c2.45,0,4.65.61,6.59,1.84,1.94,1.23,3.45,2.88,4.53,4.94,1.08,2.07,1.62,4.3,1.62,6.69,0,5.72-1.37,9.81-4.12,12.28-2.75,2.47-6.69,3.71-11.82,3.71h-1.26c-.29,0-.53-.1-.73-.29ZM317.31,292.48c1.73-2.21,2.59-5.22,2.59-9.04,0-1.97-.41-3.7-1.24-5.18-.82-1.49-2.03-2.63-3.61-3.44-1.58-.81-3.49-1.21-5.72-1.21h-.39v22.19h.63c3.42,0,6-1.11,7.73-3.32Z"/>
    <path class="cls-4" d="M332.74,303.79c-.19-.19-.29-.42-.29-.68v-36.82c0-.26.1-.48.29-.68.19-.19.42-.29.68-.29h7.27c.26,0,.48.1.68.29s.29.42.29.68v36.82c0,.26-.1.48-.29.68-.19.19-.42.29-.68.29h-7.27c-.26,0-.48-.1-.68-.29ZM337.88,300.4v-31.44h-1.55v31.44h1.55Z"/>
    <path class="cls-4" d="M355.05,301.81c-2.96-1.78-5.28-4.17-6.98-7.19-1.7-3.02-2.54-6.32-2.54-9.91s.85-6.89,2.54-9.91c1.7-3.02,4.02-5.42,6.98-7.19,2.96-1.78,6.21-2.66,9.76-2.66s6.81.89,9.76,2.66c2.96,1.78,5.28,4.18,6.98,7.19,1.7,3.02,2.54,6.32,2.54,9.91s-.85,6.89-2.54,9.91c-1.7,3.02-4.02,5.42-6.98,7.19-2.96,1.78-6.21,2.66-9.76,2.66s-6.81-.89-9.76-2.66ZM372.69,298.54c2.37-1.44,4.25-3.37,5.62-5.81,1.37-2.44,2.06-5.11,2.06-8.02s-.69-5.59-2.06-8.04c-1.37-2.45-3.25-4.4-5.62-5.84-2.37-1.44-5-2.16-7.87-2.16s-5.5.72-7.87,2.16c-2.37,1.44-4.24,3.38-5.6,5.84-1.36,2.45-2.04,5.14-2.04,8.04s.68,5.58,2.04,8.02c1.36,2.44,3.22,4.38,5.6,5.81,2.37,1.44,5,2.16,7.87,2.16s5.5-.72,7.87-2.16ZM357.77,297.13c-2.12-1.28-3.78-3.01-4.99-5.21-1.21-2.2-1.82-4.6-1.82-7.22s.61-5.03,1.82-7.24c1.21-2.21,2.87-3.96,4.99-5.26,2.11-1.29,4.46-1.94,7.05-1.94s4.94.65,7.07,1.94c2.13,1.29,3.81,3.04,5.04,5.26,1.23,2.21,1.84,4.63,1.84,7.24s-.61,5.02-1.84,7.22c-1.23,2.2-2.91,3.93-5.04,5.21-2.13,1.28-4.49,1.91-7.07,1.91s-4.93-.64-7.05-1.91ZM370,293.88c1.55-.95,2.77-2.24,3.66-3.85.89-1.61,1.33-3.39,1.33-5.33s-.44-3.72-1.33-5.35c-.89-1.63-2.11-2.92-3.66-3.88-1.55-.95-3.28-1.43-5.18-1.43s-3.63.48-5.18,1.43c-1.55.95-2.76,2.25-3.63,3.88-.87,1.63-1.31,3.42-1.31,5.35s.44,3.72,1.31,5.33c.87,1.62,2.08,2.9,3.63,3.85,1.55.95,3.28,1.43,5.18,1.43s3.63-.48,5.18-1.43Z"/>
  </g>
  <path class="cls-1" d="M188.11,151.37c-.04.45-.07.87,0,1.16v.06c.38,1.5.8,3.2-.57,4.78-.2.24-2.05,2.3-4.16,2.3-.48,0-.93-.11-1.34-.31l-.4-.2c-1.67-.84-2.36-1.19-2.53-2.99-.03-.27-.06-.61-.15-1.08l-.21-1.11c-.2-1.05.17-1.82.52-2.31-.01-.08-.02-.16-.03-.25-.04-.51-.05-1-.05-1.47h-.11c-.26.67-.48,1.06-.67,1.41-.22.39-.41.73-.72,1.66-.25.76-.71,1.32-1.08,1.77-.14.17-.27.33-.37.48-.99,1.48-2.24,2.44-3.33,3.19l-1.03.71c-.41.28-.83.43-1.16.54-.1.03-.2.07-.29.11l-.14.06c-.88.37-1.46.62-2.29.62-.51,0-1.02-.1-1.74-.27-1.2-.28-2.12-.66-2.97-1.21-.17-.11-.32-.2-.46-.29-.27-.17-.5-.32-.73-.48l-7.79,16.9h38.68l-2.3-25.19h-2.5l-.03.73c0,.23-.03.46-.04.69Z"/>
  <polygon class="cls-1" points="324.38 149.94 319.57 175.13 366.88 175.13 371.74 149.94 324.38 149.94"/>
  <polygon class="cls-1" points="402.75 149.94 379.41 149.94 374.53 175.13 412.27 175.13 402.75 149.94"/>
  <polygon class="cls-1" points="268.26 175.13 293.11 175.13 297.89 149.94 273.02 149.94 268.26 175.13"/>
  <path class="cls-1" d="M143.42,159.71c0-.61-.06-.8-.08-.85-.12-.25-.17-.53-.15-.8.11-1.48.57-2.18.95-2.74.26-.38.46-.69.65-1.47.03-.13.06-.26.09-.39.16-.69.33-1.46.81-2.23l.02-.46c.01-.22.07-.44.16-.64.03-.07.06-.13.09-.2h-18.31c-.22.71-.52,1.28-.85,1.83,0,.05,0,.1,0,.14,0,.16.01.33,0,.51-.16,2.54-2.51,4.06-4.7,4.06-.48,0-.94-.07-1.38-.21-.56-.17-1.03-.48-1.41-.87l-7.44,19.73h25.47l6.1-15.21c0-.07-.03-.14-.03-.21Z"/>
  <polygon class="cls-1" points="97.82 149.94 78.45 149.94 67.87 175.13 99.28 175.13 97.82 149.94"/>
  <path class="cls-1" d="M244.45,156.99c.09-.49.07-.57.04-.72-.1-.44-.19-.92-.08-1.88l.25-2.18.23-1.85c.02-.14.04-.28.07-.42h-5.5c-.07.26-.16.53-.28.8-.3.67-.32.89-.33,1.11-.06.79-.24,1.34-1.15,2.53-.17.23-.4.41-.67.52l-1.53.64c-.45.19-.95.28-1.53.28-.27,0-.53-.02-.76-.04h-.19c-.68-.06-1.2-.27-1.6-.53-.39.47-.87.97-1.52,1.32-1.42.76-2.69,1.1-4.11,1.1-.3,0-.6-.01-.92-.04-.25-.02-.49-.1-.7-.23l-1.01-.61c-1.2-.72-1.76-1.55-2.1-2.25-.1.09-.21.17-.31.25l-3.8,20.33h24.84l3.12-16.62-.19-.26c-.26-.36-.36-.82-.28-1.26Z"/>
  <polygon class="cls-1" points="54.89 149.94 28.83 149.94 29.8 175.13 55.27 175.13 54.89 149.94"/>
  <polygon class="cls-1" points="433.28 149.94 428.35 175.13 453.09 175.13 458.05 149.94 433.28 149.94"/>
  <polygon class="cls-2" points="212.03 201.54 236.84 201.54 241.38 177.41 216.54 177.41 212.03 201.54"/>
  <polygon class="cls-2" points="66.91 177.41 56.77 201.54 100.81 201.54 99.41 177.41 66.91 177.41"/>
  <polygon class="cls-2" points="101.92 201.54 126.77 201.54 136.44 177.41 111.02 177.41 101.92 201.54"/>
  <path class="cls-2" d="M191.14,189.75c-.16.01-.33.02-.49.02-2.18,0-4.24-.99-5.58-1.82-1.59-.98-2.13-2.62-2.52-3.83-.05-.16-.11-.32-.16-.48-.49-1.41-.59-2.69.55-4.33.02-.04.08-.15.13-.23.23-.45.66-1.26,1.52-1.68h-31.33l-11.13,24.13h25.16l2.54-5.76.41,5.76h25.16l-1.1-12.02c-.31.03-.66.06-1.07.09l-2.09.14Z"/>
  <path class="cls-2" d="M188.29,179.08l.28,1.37c.25,1.22.97,1.47,1.56,1.54.31.04.64.06.97.06.84,0,1.68-.12,2.41-.35l.07-.02-.39-4.27h-6.38c.68.3,1.31.87,1.48,1.67Z"/>
  <polygon class="cls-2" points="263.28 201.54 288.09 201.54 292.67 177.41 267.83 177.41 263.28 201.54"/>
  <polygon class="cls-2" points="314.52 201.54 360.53 201.54 363.04 188.52 341.84 188.52 343.47 180.02 365.94 180.02 366.44 177.41 319.13 177.41 314.52 201.54"/>
  <polygon class="cls-2" points="29.88 177.41 30.81 201.54 55.66 201.54 55.3 177.41 29.88 177.41"/>
  <polygon class="cls-2" points="423.18 201.54 447.9 201.54 452.64 177.41 427.9 177.41 423.18 201.54"/>
  <polygon class="cls-2" points="374.1 177.41 369.43 201.54 422.25 201.54 413.13 177.41 374.1 177.41"/>
  <path class="cls-4" d="M252.32,136.27c-.1-1.06-.3-2.03-.83-2.97-.81-1.42-.8-1.64-2.01-2.88-.31-.32-.95-.52-1.35-.76-.83-.49-1.66-.72-2.6-.89-.18-.03-.35-.05-.51-.05-.33,0-.64.07-1.02.18-.76.22-1.45.42-2,1.05-.55.62-1.18,1.25-1.66,1.92l-.87,1.25c-.13.19-.33.59-.56.68-.01,0-.03,0-.05,0-.19,0-.52-.31-.63-.44l-.76-.84-1.72-.52c-.29-.09-.56-.14-.82-.14-.39,0-.75.11-1.13.36-.89.59-.91,1.69-.77,2.76l.17,1.39c.07.59-.3,1.28-.28,1.86.01.65.08,1.24.03,1.87-.05.68-.26,1.32-.36,1.98l-.56,3.71-.47,3.38c-.11.81-1.08,1.09-1.62,1.43-.48.31-.75.4-.94.4-.33,0-.43-.27-.91-.27-.22,0-.51.06-.93.22-.14-.16-.3-.61-.33-.88l-.28-2.69c-.12-1.17.12-2.4.25-3.56l.16-1.43.15-1.44.48-.72.37-1.28.61-2.38c.09-.37.26-.8.25-1.15l-.04-1.01-.63-1.01c.4-.14.69-.26.81-.58.09-.23.08-.63-.03-.89l-.66-1.52c-.1-.24-.5-.63-.69-.78-.78-.63-1.72-.68-2.66-.73-.37-.02-.7-.04-.98-.04-1.49,0-1.98.36-3.44,1.81l-1.88,1.86c-.37.37-.64.95-.99,1.38-2.8,3.45-.87,1.36-2.47,4.08l-.93,1.57c-.39.67-.82,1.32-1.19,2.01-.43.79-.43,1.66-1.05,2.46-.3-.25-.11-3.53-.08-3.71.14-.99.32-1.86.32-2.88,0-.36.41-.93.39-1.29-.17-2.49-.54-2.07-1.06-2.61-.4-.43-.46-1.03-.7-1.59-.54-1.29-2.1-2.15-3.35-2.54-.69-.22-1.36-.24-2.03-.24-.16,0-.31,0-.47,0h-.02c-1.07,0-2.01.11-2.88.8-.2.16-.56.27-.88.27-.18,0-.35-.04-.46-.12l-.87-.67c-.55-.42-1.2-.55-1.86-.76-1.28-.42-2.5-.74-3.85-.83-.49-.03-1.01-.18-1.5-.18-.23,0-.46.03-.68.13-.61.26-.97.31-1.24.31-.18,0-.31-.02-.46-.02-.19,0-.38.04-.69.22l-1.83,1.09c-.48.28-.91.84-1.34,1.24-.34.32-.53.89-.85,1.27-.16.19-.4.26-.66.26s-.5-.07-.71-.16c-.16-.07-.32-.1-.48-.1-1.2,0-2.38,1.75-2.29,2.14l.56,2.49c-.02.48-.11,1-.06,1.54.07.7-.1,1.47-.12,2.2-.03.83-.15,1.58-.3,2.38l-.33,1.8c-.1.52-.31,1.22-.32,1.7l-.07,2.59c-.02.83-.03,1.64.03,2.47.02.27.2.83,0,1.03-.38.38-.63.78-.52,1.36l.21,1.11c.45,2.35-.33,1.83,2.21,3.12.19.09.39.14.6.14,1.03,0,2.28-.99,2.92-1.73.83-.96.56-2,.22-3.38-.18-.74-.03-1.54,0-2.3l.09-2.4c.17-4.66-.31-1.84.76-6.66.48-2.15,1.62-5.77,2.96-7.46.48-.6,1.16-.87,1.85-1.13.37-.14.7-.22,1.04-.22.32,0,.64.07,1,.24l1.58-.19c.86.32,1.55.75,2.34,1.25-.9,1.2-.84,1.8-1.44,2.48-.26.29-.45.64-.62,1l-1.01,2.12c-.16.33-.76.78-.77,1.13-.04.96-.27,1.57-.6,2.42-.27.69-.17,1.64-.3,2.41-.62,3.64.63,8.35,3.95,10.33.88.52,2.03.71,3.07.71.13,0,.26,0,.39,0,1.25-.05,2.55-1.03,3.51-1.71.92-.65,1.19-1.89,2.04-2.9.49.83.21,1.55.21,2.35l-.04,4.43-.25,3.4c-.18,2.5-.89,7.36-1.72,9.57l-.44,1.17c-.62,1.66-1.25,3.37-2.37,4.82l-1.03,1.33c-.39.51-.86.88-1.34,1.27-.67.56-1.27,1.07-2.09,1.44-.47.21-.95.72-1.42.87l-1.85.58c-.92.29-1.93.43-2.9.43-.4,0-.79-.02-1.17-.07-1.66-.2-2.65-1.27-2.97-2.84l-.28-1.37c-.06-.31-.65-.63-1-.63-.02,0-.03,0-.05,0-.79.08-1.03,1-1.35,1.47-.72,1.04-.74,1.74-.35,2.87.42,1.21.74,2.68,1.99,3.45,1.39.86,3.07,1.57,4.72,1.57.13,0,.25,0,.38-.01l2.09-.14c2.72-.19,2.73-.48,5.42-1.4.22-.07.57-.46.79-.56,1.79-.83,3.22-2.01,4.57-3.42.38-.39.76-.75,1.07-1.18l.95-1.3c.59-.81,1.09-1.65,1.51-2.58l.61-1.36c.47-1.03,1.04-1.95,1.22-3.1.13-.82.41-1.59.57-2.41l.59-3.15c.33-1.8.48-2.56.57-4.38l.11-2.35c.04-.95.15-1.85.27-2.79.12-.89-.04-1.76-.05-2.69,0-.12.13-2.17.5-2.17.03,0,.06.01.1.05l.3.27,1.39,1.22c.37.32,1.09.49,1.91.49,1.1,0,2.39-.3,3.24-.9,1-.71,1.8-1.43,2.68-2.36,1.14.94.6,2.29,2.58,3.49l1.01.61c.27.02.52.04.77.04,1.2,0,2.19-.29,3.34-.91.76-.41,1.24-1.25,1.82-1.88.22-.24.36-.34.47-.34.38,0,.37,1.13,1.71,1.22.28.02.56.05.83.05.31,0,.61-.03.89-.15l1.53-.64c1.38-1.8.35-1.21,1.29-3.31.33-.73.37-1.64.66-2.42.13-.34.51-.75.6-1.09.67-2.44,1.08-3.15,2.11-5.32.46-.96,1.07-1.78,1.52-2.75l.62-1.36c.24-.53.62-.93.96-1.42.06-.09.48-1.64,1.41-1.64,0,0,0,0,0,0,.22,0,.58.26.73.48.73,1.02.98,2.23.96,3.47-.02,1.15.38,2.29.11,3.46-.1.42,0,.77-.05,1.22l-.19,1.58c-.07.6.23,1.29.08,1.85-.26.98-.43,1.85-.49,2.85-.03.53-.16,1.05-.23,1.57l-.23,1.85-.25,2.16c-.18,1.58.32,1.13.02,2.71l.5.69c.35.48.78.48,1.36.57.16.02.32.04.48.04,1.26,0,2.62-.74,2.66-2.14.02-.72.07-1.41.19-2.16l.48-3.02.27-2c.05-.38.48-3.31.48-3.41l.03-5.2c0-1.03.05-2-.06-3.03l-.14-1.38ZM206.06,138.51c-.42,1.11-.45,2.37-.93,3.45-.25.57-.61,1.07-.78,1.68-.45,1.58-1.12,2.99-1.77,4.49-.24.54-.39,1.02-.76,1.52-.47.63-1.17,1.94-2.13,1.94-.09,0-.17-.01-.27-.03-.35-.54-.87-1.21-1.02-1.86-.38-1.67-.49-3.43-.09-5.1.19-.76.36-1.59.7-2.28l1.53-3.15c.76-.67,1.14-1.49,1.66-2.34.39-.65,1-1.23,1.49-1.84.37-.46,1.21-1.04,1.86-1.04.22,0,.42.07.57.23.42.47-.13,1.14-.02,1.7.31.89.28,1.76-.06,2.64ZM221.65,140.55c-.34,2-.64,2.87-1.64,4.56l-.7,1.18c-.48.8-.93,1.46-1.63,2.19-.45.46-.93,1.22-1.56,1.25-.55-.19-.25-.91-.18-1.3.23-1.37.71-2.56,1.25-3.8.38-.87.68-1.62,1.25-2.4.34-.46.55-1.1.86-1.59l1.02-1.63c.99-1.57.94-2.26,1.94-2.87.2,2.22-.29,2.61-.6,4.42Z"/>
  <path class="cls-4" d="M179.04,132.82l-.64-2.51c-.27-1.05-.7-2.03-1.02-3.07-.35-1.12-.96-1.82-1.92-2.41-.23-.14-.47-.19-.7-.19-.47,0-.93.2-1.38.27-.75.11-1.13.39-1.76.8l-1.48.97c-.14.09-2.32,2.32-2.96,2.9-.71.64-1.29,1.37-1.9,2.11-.34.42-.6.85-.93,1.29l-.97,1.28c-1.72,2.27-1.18,2.64-2.02,3.68-.41.51-.52,1.07-.7,1.69l-.51,1.84c-.06.23-.62,2.98-.62,3.11,0,.66.02,1.17-.12,1.82-.16.78.12,1.62.17,2.42.04.66.13,1.18.35,1.81.66,1.93.07,2.63,1.85,4.2.47,1.79.9,1.86,2.4,2.83.77.49,1.53.77,2.46.99.62.15,1.02.22,1.36.22.53,0,.92-.18,1.79-.55.39-.16.82-.26,1.16-.49l1.03-.71c1.16-.8,2.13-1.6,2.9-2.75.41-.61,1.02-1.13,1.26-1.85.67-2.01.94-1.79,1.53-3.47.56-1.59.85-2.26,1.15-4.01l.36-2.08c.5-2.94.16-5.36.35-6.59.06-.4,0-.83-.13-1.21-.24-.73-.16-1.59-.35-2.32ZM174.03,143.91l-.34,1.32c-.51,1.96-1.99,5.38-3.37,6.76l-1.26,1.26c-.25.25-.8.62-1.17.62-.04,0-.08,0-.12-.02l-1.29-.36c-.46-.13-.61-.73-.87-1.06-.74-.94-1.08-1.9-1.22-3.08-.07-.64-.16-1.22.1-1.85-.21-1.05-.25-2.1.01-3.13l.42-1.68c.22-.89.47-1.69.84-2.53.26-.6.45-1.29.8-1.83l1.33-2.02c.53-.81,1.07-1.52,1.73-2.24l1.25-1.37c.47-.52,1.76-1.55,2.18-1.57,0,0,.01,0,.02,0,.75,0,1.13,2.53,1.11,3.2.24.64.37,1.3.4,1.99l.06,1.5.03,2.62c0,.46-.46,2.87-.62,3.48Z"/>
  <path class="cls-4" d="M122.11,154.84c1.45,0,2.96-.97,3.06-2.53.02-.32-.07-.92.08-1.16.37-.6.68-1.12.86-1.79l.35-1.23,1.1-2.87c.21-.55.57-1.13.72-1.69.56-2.07,1.18-2.63,1.74-4.32.27-.83.57-1.56.85-2.37l.4-1.13.58-1.68.62-1.48.56-1.56c.47-1.33.95-2.63,1.33-3.96.3-.43.5-.85.65-1.36.18-.56.56-1.05.84-1.56.09-.16-.18-.63.28-.77.62,1.34.46,2.8.89,4.07l.42,1.21c.27.77,1.3.92,2,.97.1,0,.19,0,.28,0,.9,0,1.59-.33,2.34-.82,1-.67,1.93-1.36,2.87-2.1.78-.61,1.36-1.27,1.97-2.07.34-.45.77-.88,1.15-1.32.36-.42.62-.86.96-1.3l1.65-2.16c.46-.6.66-1.39,1.17-1.93.87-.92,1.45-1.98,2.08-3.06.39-.66.87-1.29,1.22-1.98.27-.54.57-1,1.2-1.18-.06,1.69-.57,3.14-1.14,4.67-.13.35-.16.95-.26,1.34l-.63,2.47-.74,2.82c-.17.64-.17,1.34-.39,2-.18.53-.32,1.09-.44,1.63l-.47,2.12-.85,3.88-.43,2.05-.54,2.4c-.16.69-.32,1.41-.37,2.1-.04.53-.12.87-.28,1.33-.12.36-.2.81-.37,1.15-.27.56-.18,1.06-.25,1.64-.09.68-.27,1.39-.4,2.06l-.32,1.68-.63,2.41c-.13.51-.24.92-.47,1.4l-.05.92c-.59.76-.7,1.54-.92,2.46-.55,2.25-1.42,1.95-1.56,3.93.2.43.23.99.23,1.53.67.42,1.56.82,2.43.82.03,0,.05,0,.08,0,.63-.02,1.63-.32,2.03-.83.57-.73,1.01-1.72,1.21-2.61l.39-1.72.41-1.69c.24-.98.38-1.93.72-2.89.1-.28.23-.66.26-.92.13-.92.31-1.72.53-2.61.21-.85.32-1.74.5-2.63l.58-2.88c.18-.92.46-1.79.63-2.71l.47-2.51.68-3.41c.1-.49.22-1.01.34-1.5l.47-2,.61-3.1.69-3.29.3-1.3.52-2.21.47-1.74c.2-.76.43-1.53.7-2.27.38-1.06.51-2.07.82-3.17l.83-2.96,1.12-6.04.44-3.03c.05-.34.98-1.85.81-2.52-.36-1.35-1.52-2.25-2.95-2.46-.05,0-.11-.01-.17-.01-.52,0-1.33.26-1.7.6-.45.41-.86,1.1-1.07,1.64-.27.7-.55,1.19-.95,1.81-.52.81-.93,1.74-1.4,2.6l-.8,1.45c-.31.56-.55,1.1-.82,1.67-.32.69-.86,1.33-1.13,2.05-.34.89-.87,1.58-1.37,2.38l-.95,1.53-.91,1.31c-.52.75-.92,1.53-1.48,2.27-.51.69-.85,1.54-1.4,2.18l-1.56,1.81c-1.2,1.39-.88,1.56-2.4,3.33-.42.49-.99.93-1.5,1.35-.3-.16-.52-.54-.52-.86-.02-1.14-.11-2.18-.05-3.28l.26-5.34.46-4.34c.1-.92,1.19-2.48.63-3.27-.23-.33-.52-.75-.8-1.06-.53-.59-1.37-.92-2.18-.92-.25,0-.49.03-.72.09-.4.21-.95.67-1.23.96-.07.94-.75,2.53-1.24,3.28-.2.3-.3.71-.45,1.06-.39.92-.88,1.82-1.11,2.8-.16.68-.31,1.31-.54,1.95l-.83,2.37c-.27.76-.51,1.42-.86,2.15l-.51,1.07c-.08.16-.06.62-.13.79-.4,1.14-.86,2.32-1.18,3.49-.33,1.2-.69,2.27-1.47,3.28-.12.98-.3,1.41-.73,2.36-.52,1.12-1.36,3.26-1.66,4.39-.36,1.34-.95,2.55-1.48,3.82l-.62,1.49-.87,2.5c-.62,1.77-1.58,3.34-2.17,5.12l-.69,2.05c-.15.45-.28.91-.42,1.37l-.39,1.32c-.3,1.04.1,2.24,1.17,2.57.28.09.59.13.89.13Z"/>
</svg>