<?xml version="1.0" encoding="utf-8"?>
<!-- Generator: Adobe Illustrator 22.1.0, SVG Export Plug-In . SVG Version: 6.00 Build 0)  -->
<svg version="1.1" id="Layer_1" xmlns="http://www.w3.org/2000/svg" xmlns:xlink="http://www.w3.org/1999/xlink" x="0px" y="0px"
	 width="207.7px" height="103.9px" viewBox="0 0 207.7 103.9" enable-background="new 0 0 207.7 103.9" xml:space="preserve">
<title>RockinChristmas-OnK</title>
<path fill="#FFFFFF" d="M21.4,76.8l-1.7,2.3c-0.7,0.7-1.3,1.4-1.9,2.2l-0.3,0.4l-0.1,0.2c-0.3,0.4-0.5,0.8-0.6,1.2
	c-0.1,0.1-0.3,0.2-0.4,0.3L16,83.9l-1,1.4l-0.5,1.3l0,0l-1.7,2.3l0,0l-1.2,1.4l0,0c-0.5,0.2-1,0.6-1.4,1L10,91.4
	c-0.3,0.4-0.5,0.8-0.7,1.2c-0.3,0.2-0.6,0.5-0.8,0.8l-0.5,1.3l-0.8,1.1l-0.8,0.4l-0.3,0.4l-0.5,1.1c-0.6,0.2-1.1,0.6-1.4,1.1L4,99.2
	c-0.7,0.9-4,4.6-4,4.6h24.8l2-1.9c1.8-1.7,3.7-3.2,5.7-4.7l0.8,1.8l-0.4,0.7c0.3,0.7,0.6,1.3,0.8,2c0.5,1.2,0.9,2,0.9,2h21.3
	l1.4-0.2l-0.4,0.2c0.2,0,1-0.2,1.2-0.2h14.5l1.3-2.6l2-3.5l0.3,0.1l1.2,6.1h17.3l1.5,0.2c0.8-1.6,1.5-3.3,2-5.1
	c0.8,0.9,1.6,1.8,2.3,2.7c0.1,0.5,0.4,0.9,0.8,1.3c0.4,0.4,0.8,0.9,0.8,0.9h14c0.2,0.1,0.5,0.1,0.7,0.1l0.4-0.1h0.8l0.6,0.1l0.2-0.2
	h0.2h9.1l0.3-0.3c0.4,0.2,0.9,0.3,1.4,0.3h9.2v-2.8l0.1-0.8c0-0.8,0-1.4,0.1-2l5.8,4l2.5,1.6h1.6l1.3,0.2l1.5-0.2
	c-0.1,0-0.1,0.1-0.2,0.1c0.1,0,0.2,0,0.3,0h1.3l1,0.2l2.9-2.7v0.9c-0.4,0.9-1.2,1.5-2.2,1.6c-0.1,0-0.2,0-0.4,0l0.2,0.1l1.3,0.1
	l1.5-0.2l0,0h1.8c-0.1,0-0.1,0-0.2,0.1h5.8l1-0.2l2.9,0.2l-0.9-3.6c-0.1-0.2-0.1-0.4-0.2-0.6c0.6,0.4,1.1,0.8,1.7,1.1l4.4,3.2h23.9
	l1.6-1c1.1-0.9,2.2-1.4,2.9-2.4h0.1c0.9-0.5,1.7-1.3,2.3-2.2c1-0.6,0.9-1.5,1.5-2.3l1.7-1.4c-1.2-6.2-3-14.7-4.5-20.9l0.1,0.4
	c0,0-0.8-0.8-12.3-5.8l-2.9-1.2c1.5,0,2.8,0.1,3.6,0.1c1.3,0.1,2.4,0.2,3.2-0.5h0.4l0.6,0.4h0.4c1.1,0,5-0.2,5-0.2
	c-0.3-1-0.5-2.1-0.7-3.2l-0.1-0.5l-0.2-0.7l0,0l-0.3-2.3c-0.1-0.2-0.3-0.4-0.4-0.7l-0.1-0.1l-0.2-0.8c-0.3-1.3-0.6-3.7-0.9-5h-0.9
	l0.2-0.4c-2-2.1-4.1-4.2-6.1-6.3l2.2-1.6h0.1l0,0l0.2-0.2l0,0l0.4-0.5v-0.1l0,0l0,0l0.1-0.9l0.8,0.7c0,0-0.4-1.5-0.6-1.9
	c-1.1-4.1-2.3-8.6-3.7-13.6v-0.1c-0.9-3.3-1.9-6.6-2.9-10.1l2.6-1.2l1.8-0.8l0.3-2l-0.1-0.1v-0.2l0.1-0.4v-0.4l-0.1-0.1
	c0.1-0.2,0.1-0.5,0.2-0.7v-0.1l0,0c0,0,0-0.1,0-0.2v-0.1l-0.1-0.3l0.1-0.1V12l-0.1-0.4l0.1-0.1c0-0.3,0.1-0.7,0.1-1l-0.1-0.2
	l0.2-0.2V9.7V9.6c0-0.2,0.1-0.4,0.1-0.5c0-0.3,0-0.5-0.1-0.8l0.1-0.3c0-0.1,0-0.3,0-0.4l0.1-0.4l-0.1-0.2V6.7
	c0.1-0.1,0.1-0.2,0.1-0.3l0.1-0.7c0-0.3,0-0.5-0.1-0.8c0-0.1,0-0.1,0-0.2l-0.1-0.2c0.1-0.3,0.2-0.7,0.2-1V3.2l0.3-3
	c0,0-2.1,0.1-3.2,0.1h-7c-0.3,0-0.5,0-0.8,0.1l0.1,0.2l-1,0.2l-0.2,0.1c-0.4-0.3-0.9-0.5-1.5-0.6h-0.6l-0.2,0.3l-0.9-0.3h-7.3
	c-0.4,0.2-0.8,0.5-1.2,0.8L167.5,3l-0.3-0.5c-0.5-0.8-1.1-1.5-1.6-2.2H143l0,0c-0.8-0.4-1.8-0.4-2.6,0.1h-0.1
	c-0.4-0.1-0.9,0-1.3,0.2h-0.1c-0.4-0.1-0.8-0.2-1.1-0.2h-9.2c-0.2,0-1.6,0.2-1.8,0.2l-4.5-0.3h-0.6h-0.5H121
	c-0.3-0.1-0.6-0.1-0.9-0.1h-1.7c-0.4,0.1-0.8,0.1-1.1,0h-1.4l-0.1,0.1l-0.1-0.1h-0.1c-0.1,0-0.3,0-0.4,0l0,0h-3.7
	c0.2,0.5,0.1,1.1-0.2,1.6c-0.4,0.7-0.7,1.5-0.9,2.4l-0.7-0.6c-0.8-1.2-1.8-2.2-2.8-3.2l-1.3-0.1H91.4l-0.8,0.7L88,3.3
	c-1.5,1.3-2.3,2.2-2.9,2.7c-1-1.3-2-2.6-2.9-3.9l-0.5-0.2l-1.4-1.5h-6.8c-0.3,0-0.6,0-0.8,0.1l-0.8-0.2l-0.6,0.1c0.1,0,0.2,0,0.3,0
	c0.3,0,0.6,0.1,0.8,0.2l-0.1,0.1l-2.1-0.3l-0.3,0.1c-0.4-0.1-0.9-0.1-1.3-0.1h-3.4l-0.5,0.6l-2.6,2.1l-2,1.7L55.2,1l-1.6-0.6
	L33.2,0.3l-0.6,1.6c-0.6,1.4-1.1,2.8-1.7,4.2l0,0l-0.1,0.2c-0.5,1.2-1,2.4-1.4,3.6L29,10.7L29,11l-0.2,0.6h0.1l0,0h-0.1l-0.2,0.6
	l-0.2,0.3c-1.1,2.8-2.1,5.6-3.2,8.3v0.1c-0.1,0.1-0.1,0.2-0.2,0.4c-0.9,2.3-1.7,4.6-2.5,6.9l0,0c0,0.1,0,0.1-0.1,0.2l-0.3,0.7l0,0.2
	c-1.5,4.3-3,8.6-4.4,12.9l0,0v0.1l0,0l0,0c-0.3,0.9-1.1,2.6-1.1,2.6c0.3,0.4,2.2,0.8,2.7,1l-0.1,0.4L15.6,46l1.5,4.2
	c0.1,0.5,0.4,1,0.7,1.4v0.8l0.1,0.4l0.6,0.4c1.1,3.7,2.2,7.3,3.3,11l1.1,3.9c0.3,1.1,1.3,3.8,1.6,4.9L21.4,76.8z M20.3,51.4
	L20.3,51.4L20.3,51.4L20.3,51.4L20.3,51.4z M189.7,2l0.3-0.1L189.7,2L189.7,2z M88.2,72.6v0.2l0,0V72.6L88.2,72.6
	C88.2,72.5,88.2,72.6,88.2,72.6z M25.6,75.6v-0.2l0.1,0.1L25.6,75.6z M191.1,2c0.1,0.1,0.1,0.1,0.2,0.2l-0.2,0V2z M189.5,1.3h0.3
	l-0.2-0.2c0.3-0.2,0.6-0.4,0.9-0.5l-0.6,0.7c0.2,0,0.4,0.1,0.6,0.2l-0.2,0.2l-0.4-0.4l-0.3,0.4V1.3z M186.1,2.7L186,2.9h-0.1
	L186.1,2.7z M177.7,1.8c0.4-0.6,1-0.9,1.7-1v0.1l-1.3,1.9c-0.2-0.2-0.4-0.4-0.6-0.5C177.5,2.1,177.6,1.9,177.7,1.8z M177.8,2.9h-0.5
	c0-0.1,0-0.2,0.1-0.3C177.5,2.7,177.7,2.8,177.8,2.9z M148.8,1.6l-0.2,0.5L148.4,2C148.5,1.9,148.6,1.7,148.8,1.6L148.8,1.6z
	 M146.7,1.6l-0.2,0.2L145.8,2C146.1,1.8,146.4,1.7,146.7,1.6L146.7,1.6z M112.8,4.3c-0.1,0.3-0.1,0.5-0.2,0.8
	c-0.1-0.1-0.2-0.2-0.2-0.3l0.3-0.2c-0.2-0.3-0.4-0.6-0.4-1L112.8,4.3z M111.7,3L111.7,3L111.7,3z M111.7,3.1L111.7,3.1v0.2V3.1z
	 M30.9,12.5L30.9,12.5L29.5,12L30.9,12.5z M21,81.7c-0.2,0.2-0.4,0.5-0.6,0.8l-0.6-1.2C20.2,81.3,20.6,81.4,21,81.7L21,81.7z
	 M34.5,97.4l-0.7-0.6c0.3-0.3,0.7-0.5,1.2-0.6c0,0.1,0.1,0.2,0.1,0.3L34.5,97.4z M50.4,101.2h0.5l-0.5,0.2
	C50.4,101.4,50.4,101.3,50.4,101.2z M60.3,101L60.3,101L60.3,101L60.3,101z M75.8,97.4l0.1-0.2l0,0v0.3L75.8,97.4z M129.1,102.6
	l1.5-1.6h0.1C130.5,101.8,129.9,102.4,129.1,102.6z M157,103.6L157,103.6L157,103.6L157,103.6z M157.1,101.8l-0.1-0.7l0.1-0.1h0.1
	C157.2,101.2,157.2,101.5,157.1,101.8L157.1,101.8z"/>
<path fill="#00A76D" d="M83.2,14.8c0.2-1.2,0.3-2.3,0.5-3.4v-0.8c0.1,0,0.2-0.2,0.2-0.4l0.1-0.6c-1.2-1.5-2.3-3.1-3.4-4.6
	c-0.2,0-0.3,0.1-0.4,0.2c-0.1-0.5-0.1-0.8-0.3-0.8h-5.7c-0.2,0-0.4,0.3-0.8,0.9c-0.1,0-0.2-0.4-0.3-1c-0.5,0.1-0.8,0.2-0.9,0.2
	c-0.2,0-0.4,0-0.5-0.1l-0.9,0.3c-0.5-0.1-1-0.1-1.5-0.2h-2.2c-4.1,3.3-6.3,5.1-6.3,5.2c-2.6,9.6-5,19.3-7.3,28.9
	c1.4,1.9,2.9,3.6,4.6,5.2h9.2c0.5,0,1-0.1,1.5-0.2c0.4,0.1,0.7,0.2,1.1,0.2h3.5c4.3-3.3,6.4-5.1,6.4-5.2c1-7.5,2.1-15,3.2-22.5
	c0-0.2-0.2-0.3-0.5-0.3c0-0.2,0-0.3,0.1-0.4C83,15.2,83.2,15.1,83.2,14.8z M75.4,14.6l-0.1,0.4h-0.2l-0.3-0.2
	c0.1-0.2,0.2-0.4,0.3-0.6C75.3,14.3,75.4,14.4,75.4,14.6z M72,9.4c0.2,0,0.3,0.1,0.2,0.3s0,0.2-0.1,0.3h-0.3c-0.2,0-0.2-0.1-0.2-0.3
	C71.6,9.5,71.8,9.4,72,9.4z M70.8,11.9c0.2,0,0.3,0.1,0.2,0.3c0,0,0,0.1,0,0.2h-0.3L70.8,11.9z M70.1,5.4h0.1v0.2
	c0,0.2-0.2,0.3-0.3,0.3h-0.3C69.7,5.5,69.9,5.4,70.1,5.4z M70.6,11.8v0.2c-0.2,0.3-0.4,0.4-0.5,0.4c0-0.3,0-0.5-0.1-0.8v-0.2h0.2
	C70.2,11.7,70.4,11.8,70.6,11.8z M69.1,6.3h0.3c-0.2,0.2-0.3,0.5-0.3,0.8h-0.6C68.7,6.5,68.9,6.3,69.1,6.3z M68.5,13.3
	c0.3,0.1,0.4,0.3,0.3,0.4h-0.4C68.4,13.6,68.5,13.4,68.5,13.3L68.5,13.3z M67.8,7.2C68,7.2,68,7.3,68,7.5v0.2h-0.3
	C67.7,7.5,67.7,7.3,67.8,7.2z M60.9,41.2h-0.5l0.1-0.3H61L60.9,41.2z M64.5,8.7h-0.6L64,8.4c0-0.2,0.2-0.3,0.4-0.3h0.3L64.5,8.7z
	 M64.6,7.7l0.7,0.2c0,0.1-0.1,0.2-0.1,0.3h-0.3C64.6,7.9,64.5,7.7,64.6,7.7L64.6,7.7z M65.6,25.9c0.2,0,0.3,0.1,0.2,0.3l-0.1,0.4
	c-0.3,0.4-0.6,0.6-0.7,0.6l-0.3-0.2C65.1,26.3,65.4,25.9,65.6,25.9L65.6,25.9z M65.3,28.9h-0.5l0.1-0.3c0.1,0.1,0.3,0.1,0.4,0.2
	L65.3,28.9z M66.2,40.6c-0.2,0-0.4,0.1-0.5,0.2c0-0.2,0.1-0.3,0.1-0.4h0.5L66.2,40.6z M66.3,39l-0.2,0.3c-0.2,0-0.3-0.1-0.3-0.3
	v-0.2h0.5V39z M69.3,35h-4c0.4-2,0.8-4,1.2-6c-0.5-0.3-0.9-1-0.8-1.6c0.1-0.1,0.2-0.3,0.2-0.4h0.2l0.5,0.4h0.2c1-4.8,2-9.6,3-14.4
	h3.6C72,20.3,70.7,27.6,69.3,35L69.3,35z M73.9,19.1l-0.4,0.4c-0.2,0-0.3-0.1-0.2-0.3c0-0.2,0.2-0.3,0.3-0.3H74L73.9,19.1z
	 M73.7,16.2l0.1-0.4h0.4C74.1,16,73.9,16.2,73.7,16.2z M74.2,6.6c-0.2,0-0.2-0.1-0.2-0.3L74.1,6c0.2,0,0.3-0.1,0.4-0.2
	C74.6,5.9,74.8,6,74.9,6l-0.1,0.3c0,0.2-0.2,0.3-0.3,0.3H74.2z M74.6,16.5v-0.2h0.3c0,0.2-0.1,0.3-0.1,0.4S74.6,16.6,74.6,16.5
	L74.6,16.5z M74.8,21v-0.2h0.8c0,0.2-0.1,0.4-0.1,0.6C75,21.3,74.7,21.2,74.8,21L74.8,21z M76.3,37.3c-0.1,0.5-0.3,0.8-0.6,0.9
	c-0.4-0.2-0.6-0.4-0.6-0.6v-0.2c0-0.2,0.1-0.4,0.3-0.6l-0.1-0.3v-0.3c0.2,0.4,0.6,0.6,1,0.6C76.4,37,76.3,37.1,76.3,37.3L76.3,37.3z
	 M77,13.2h-0.3V13c0-0.2,0.2-0.3,0.3-0.3L77,13.2z M78.2,23.1h-0.2c0-0.2,0-0.3,0.1-0.4h0.3C78.3,22.7,78.3,22.9,78.2,23.1
	L78.2,23.1z M81,13.5c0.1-0.3,0.1-0.7,0.2-1c0.1,0,0.3,0.1,0.4,0.2l0.3-0.2c0.2,0,0.3,0.2,0.3,0.8c-0.3,0-0.7,0.1-0.9,0.3L81,13.5z
	 M82.1,14.5c0.1,0.2,0.2,0.3,0.2,0.4h-0.4c0-0.2,0.1-0.4,0.1-0.6c0.2-0.2,0.4-0.5,0.4-0.8h0.1v0.8C82.4,14.4,82.3,14.4,82.1,14.5
	L82.1,14.5z"/>
<path fill="#00A76D" d="M108.4,7.5c-0.1,0-0.3,0.1-0.4,0.2l-0.4-0.3c0-0.7-0.7-1.8-2.2-3.2H92.7C89,7.5,87.1,9.2,87,9.4
	c-1.3,9.6-2.6,19.3-3.8,28.9c1.6,1.9,3.3,3.6,5.1,5.2h7.9l0.8-0.2c0,0.1,0.2,0.1,0.5,0.2h5.9c2.1-1.6,4-3.4,5.9-5.2
	c0-1.8,0.1-3.7,0.1-5.5c0-0.6-0.1,1-0.2,0.2c0.1-0.3,0.2-0.6,0.2-0.9c0-1.1-0.1-0.6-0.4-1v-0.2c0.3,0,0.5-0.1,0.5-0.3v-0.2
	c0-0.2-0.2-0.3-0.6-0.3c0-0.2,0-0.3,0-0.4s0.2-0.3,0.5-0.3c0-0.1,0-0.2,0-0.3l-5.7,0.1c-3.2,0.2-4.8,0-4.8,0.4
	c-0.1,1.8-0.2,3.6-0.4,5.4h-4c0.4-4.7,0.8-9.3,1.2-13.9l-0.1-0.3c0.1,0,0.1,0,0.2-0.1c0,0,0,0,0,0l0.2-1.7c0.1-1.1,0.1-2.2,0-3.3
	l0.3-0.2c0-0.5-0.2-0.9-0.6-1.2v-0.2c0.5,0,0.8-0.4,0.8-1.2h3.6c0,0.6-0.1,1.2-0.1,1.8c0,0.2,0.1,0.3,0.3,0.3h0.2l0.3-0.2
	c0.1,0.2,0.2,0.3,0.3,0.4v0.4h-0.1c0-0.2-0.1-0.4-0.2-0.6c-0.4,0.3-0.6,0.5-0.6,0.6c-0.1,0.8-0.1,1.7-0.2,2.6c0,0.1,0.1,0.2,0.1,0.3
	c5-0.5,7.4,0.1,7.4-0.2c0-0.2,0-0.3,0-0.4h-0.3c0,0.3-0.1,0.4-0.3,0.4h-0.1l-0.3-0.2l0.2-0.5l1.2-1.3c0.4,0.6,0.7,0.9,0.9,0.9
	c0.4-0.6,0.6-0.9,0.8-0.9c0.1,0.2,0.1,0.4,0.1,0.6h0.4c0.1-0.3,0.1-0.7,0.2-1c0-0.6,0-1.2,0.1-1.8c0-0.2,0-0.4-0.1-0.6
	c0.1-0.2,0.2-0.4,0.2-0.6c0-1,0.1-2,0.1-3C110.1,9.3,109.5,8.6,108.4,7.5z M106.4,32.6h0.4c0.2,0,0.3,0.1,0.3,0.3
	c-0.2,0.3-0.3,0.4-0.5,0.4l-0.3-0.2L106.4,32.6z M104.8,32.6c0.2,0,0.3,0.1,0.3,0.3v0.2h-0.3c0-0.2-0.1-0.3-0.1-0.4L104.8,32.6z
	 M98,37h0.2c0,0.2,0,0.4,0,0.6l-0.5-0.3C97.7,37.1,97.8,37,98,37L98,37z M90.2,15.4l0.3,0.2c0,0.2-0.1,0.3-0.3,0.3c0,0,0,0,0,0h-0.4
	c-0.2,0-0.3-0.1-0.3-0.3L90.2,15.4z M88.6,15.4l0.3,0.2c-0.2,0.6-0.3,0.9-0.6,0.9H88c0-0.2,0-0.3-0.1-0.4
	C88.2,15.6,88.4,15.4,88.6,15.4z M88.5,26H88c0-0.2,0-0.3-0.1-0.4l0.3-0.2h0.2l0.3,0.2C88.6,25.7,88.5,25.9,88.5,26z M88.5,27.4v0.4
	h-0.8v-0.3L88.5,27.4z M86.1,25.3c0-0.2,0.1-0.5,0.1-0.8c0.2,0,0.4,0,0.6,0.2l0.7-0.4h0.3c0,0.2,0.1,0.4,0.2,0.6h-0.6l-0.8,1h-0.2
	C86.5,25.5,86.4,25.3,86.1,25.3z M86.9,26.6c0,0.2,0,0.3,0,0.4c-0.2,0-0.3-0.1-0.3-0.3v-0.2L86.9,26.6z M86.5,28.2v-0.3
	c0-0.2,0.1-0.3,0.3-0.3l0.3,0.2c0-0.1,0.1-0.2,0.1-0.2c0,0,0,0,0,0v0.3c-0.2,0-0.4,0.1-0.6,0.3H86.5z M87.9,30
	c-0.1,0.1-0.1,0.2-0.2,0.3c-0.1-0.1-0.3-0.1-0.4-0.2c0-0.2,0.1-0.3,0.3-0.3h0.3C87.9,29.9,87.9,29.9,87.9,30L87.9,30z M88.6,39.7
	h-0.3c0-0.1,0-0.2,0-0.3h0.6C88.9,39.6,88.8,39.7,88.6,39.7L88.6,39.7z M89.7,25.2c0-0.1-0.1-0.2-0.3-0.2c0-0.4,0.1-0.8,0.1-1.2h0.8
	l0.1,0.9C90.3,24.8,90.1,25,89.7,25.2z M90.6,18.2h-0.3c-0.2,0-0.3-0.1-0.3-0.3v-0.2h0.3c0.2,0,0.3,0.1,0.3,0.3L90.6,18.2z
	 M91.7,24.8h-0.2v-0.3H92C92,24.7,91.9,24.8,91.7,24.8z M92.6,21.1c0,0.2-0.1,0.3-0.3,0.3c0,0,0,0,0,0h-0.2v-0.2
	c0-0.2,0.2-0.3,0.3-0.3h0.2C92.6,20.9,92.5,21,92.6,21.1L92.6,21.1z M92.7,6.9c-0.2,0-0.2-0.1-0.2-0.3h0.1c0.2,0,0.3,0.1,0.2,0.3
	H92.7z M93.8,16.7c0,0.2-0.1,0.3-0.3,0.3c0,0,0,0,0,0h-0.3v-0.4h0.6L93.8,16.7z M95.6,5.1h0.1v0.3h-0.4C95.3,5.2,95.4,5.1,95.6,5.1
	L95.6,5.1z M94.9,8.6l0.8,0.3l-0.2,0.3c-0.3,0-0.6-0.1-0.8-0.3L94.9,8.6z M94.8,20.8h-0.2l0.1-0.6h0.2L94.8,20.8z M95.6,16.4
	c0,0.1-0.1,0.1-0.1,0.2c0,0,0,0,0,0c0,0.2,0,0.5,0.1,0.8v0.1c-0.3,0-0.5,0.1-0.5,0.3c-0.2,0-0.4-0.3-0.5-0.8
	c0.1-0.2,0.2-0.5,0.2-0.7C95.1,16.3,95.4,16.3,95.6,16.4L95.6,16.4z M95.5,13.6c0-0.2,0-0.3,0-0.4l-0.1-0.6c0-0.3,0.1-0.4,0.3-0.4
	h0.1c0.2,0,0.3,0.1,0.3,0.3C96.1,13.1,95.9,13.5,95.5,13.6L95.5,13.6z M96.2,11.5h-0.2c-0.2,0-0.2-0.1-0.3-0.3h0.4L96.2,11.5z
	 M97,7.6h-0.1c-0.2-0.2-0.5-0.4-0.7-0.6c0.1-0.1,0.1-0.3,0.2-0.5h0.4c0.1,0,0.3,0.2,0.5,0.8C97.3,7.5,97.2,7.6,97,7.6L97,7.6z
	 M99.3,8.6h-0.3c0-0.2,0-0.4,0.1-0.6h0.3C99.4,8.3,99.4,8.4,99.3,8.6L99.3,8.6z M103,7.4h-0.2c-0.3-0.2-0.6-0.4-1-0.5
	c0.1-0.2,0.2-0.4,0.3-0.6c0.4,0,0.8,0.1,1.1,0.3C103.1,7,103.1,7.2,103,7.4L103,7.4z M104.7,6.2c0.1,0,0.1,0,0.1,0.2l0.4-0.3l0.1,1
	c0,0.1-0.1,0.3-0.2,0.3c0,0,0,0-0.1,0c0-0.4-0.2-0.7-0.5-0.9C104.7,6.5,104.7,6.4,104.7,6.2L104.7,6.2z M105.3,17.7h-0.1
	c0-0.1,0-0.2,0-0.2h-0.3c0,0.3,0,0.5-0.1,0.7c-0.2,0-0.3-0.5-0.4-1.6l0.7,0.6l0.3-0.2C105.4,17.3,105.3,17.5,105.3,17.7L105.3,17.7z
	 M105.4,15.5c-0.2-0.2-0.4-0.3-0.6-0.3v-0.2c0.2,0,0.4,0,0.6-0.2l0.1,0.3C105.5,15.3,105.5,15.4,105.4,15.5L105.4,15.5z M106.2,7.3
	h-0.1c-0.3-0.2-0.4-0.3-0.4-0.5s0-0.2,0-0.3h0.3c0.2,0,0.3,0.1,0.3,0.3L106.2,7.3z M106.8,7.1h-0.3c0.1-0.2,0.1-0.4,0.2-0.6h0.1
	c0.2,0,0.3,0.1,0.3,0.3C107.1,7.1,107,7.2,106.8,7.1L106.8,7.1z M108.9,15.1h0.3c0,0.2,0.1,0.3,0.1,0.4l-0.2,0.3
	c-0.2,0-0.3-0.1-0.4-0.2l-0.3,0.2c0-0.1-0.1-0.2-0.3-0.2v-0.2C108.7,15.5,109,15.4,108.9,15.1L108.9,15.1z"/>
<path fill="#00A76D" d="M109.2,17.8c-0.4-0.2-0.6-0.3-0.6-0.4l-0.9,0.1c0,0.7,0,1,0.1,1c1.3,0,1.9-0.2,1.9-0.4c0-0.1,0-0.2,0-0.3
	l-0.3-0.4C109.3,17.3,109.2,17.5,109.2,17.8z"/>
<path fill="#00A76D" d="M190.4,43.3c-1.5-5.7-3.1-11.4-4.7-17.1l-1.5-1h-0.3c-0.2,0-0.3,0.2-0.2,0.8c-0.2,0-0.3-0.1-0.4-0.3
	c-0.1,0-0.1,0-0.1,0.2l-0.7-0.2c0-0.1,0-0.2-0.1-0.3s0.2-0.3,0.6-0.4c0,0.1,0.1,0.2,0.2,0.2h0.3l0.4-0.3l0.6,0.3
	c0.2-0.2,0.5-0.4,0.8-0.4c-0.5-1.7-1-3.4-1.5-5.1h-0.3l-0.1-0.3c0.1-0.2,0.1-0.3,0.2-0.4c-1.4-4.7-3-9.5-4.5-14.2
	c-0.1-0.2-0.2-0.3-0.4-0.3h-0.3c0.1,0.3,0.1,0.5-0.1,0.5h-0.3l-0.7-0.5h-6.4c-0.2,0-0.2,0.1-0.2,0.3c1.5,5.3,3,10.7,4.4,16
	c0.7,2,1.4,4,2.1,6c-7.3-11.3-14-22.3-14.1-22.3h-10.4c-0.2,0-0.2,0.1-0.2,0.3c1.3,6.7,2.5,13.5,3.7,20.2c0,0.3,0.6,0.4,1.6,0.4
	c0,0.2-0.4,0.4-1.5,0.4c1,5.9,2,11.8,2.9,17.7c0,0.2,0.2,0.3,0.4,0.3c0,0,0,0,0,0h6.9l0.4-0.3h0.2l0.5,0.3c0-0.2,0-0.3-0.1-0.4h0.5
	c0,0.1-0.1,0.2-0.1,0.3v0.2h1c0.2,0,0.3-0.1,0.3-0.3c-0.5-2.8-1.1-5.6-1.6-8.4c-0.1-0.2-0.2-0.5-0.3-0.8c0.1,0,0.1-0.2,0.1-0.4v-0.2
	c0-0.2-0.2-0.3-0.5-0.3l-0.1-0.4c0.3,0,0.4-0.1,0.4-0.3c-0.4-1.7-0.7-3.5-1.1-5.2c-0.1-0.6-0.3-1.1-0.5-1.6c-0.3,0-0.7,0.1-1,0.2
	c0-0.3,0.1-0.5,0.2-0.5c-0.1-0.2,0.1-0.4,0.5-0.4c-0.1-0.6-0.5-2-1.2-4.1c2.5,4.4,6.2,10.6,8.5,14c3.5,5.9,5.5,8.8,5.8,8.8h12
	C190.4,43.6,190.5,43.5,190.4,43.3z M184.1,22.3h0.3c0.1,0.2,0,0.3-0.2,0.3h-0.3C183.8,22.4,183.9,22.3,184.1,22.3L184.1,22.3z
	 M183.2,19.9c0.2,0,0.4,0.1,0.4,0.3H183l-0.1-0.3H183.2z M174.7,6.1c-0.2,0-0.3-0.1-0.4-0.3s0-0.1,0-0.2h0.1c0.2,0,0.3,0.1,0.4,0.3
	v0.2H174.7z M176,12.1c-0.2,0-0.3-0.1-0.4-0.3l-0.1-0.3l0.5,0.3C176.1,11.9,176.1,12,176,12.1L176,12.1z M163.3,18.5
	c0.5,1.1,0.4,1.1,0,0.6l-0.1-0.3c0-0.1,0-0.2-0.1-0.3L163.3,18.5z M163.6,23.8c0,0.2-0.1,0.3-0.5,0.4H163l-0.1-0.3
	c0-0.2,0.1-0.3,0.2-0.3h0.5L163.6,23.8z M162.9,23h0.1l0.1,0.3h-0.4C162.6,23.2,162.7,23.1,162.9,23L162.9,23z M162.5,26.6h0.2
	l0.1,0.3h-0.5C162.2,26.8,162.3,26.7,162.5,26.6L162.5,26.6z M161,12.2l0.1,0.3c-0.3,0-0.6,0.1-0.8,0.3h-0.1l-0.1-0.3
	c0-0.2,0-0.3,0.2-0.3H161z M161.2,15.7c-0.1-0.2-0.2-0.3-0.1-0.2L161.2,15.7z M160.6,15.5h-0.3l-0.1-0.3c0-0.1,0-0.3,0.1-0.3
	c0,0,0.1,0,0.1,0C160.5,15.2,160.5,15.3,160.6,15.5L160.6,15.5z M159.4,6.7c0,0.2,0.1,0.5,0.2,0.8h-0.1c-0.2,0-0.3-0.1-0.3-0.3
	C159.1,6.9,159.2,6.7,159.4,6.7L159.4,6.7z M157.8,4.7h0.4v0.2c0,0.1,0,0.2-0.1,0.3c0.1,0,0.2,0.1,0.2,0.1c0,0,0,0,0,0l-0.1,0.3
	c-0.2-0.1-0.4-0.2-0.6-0.2c0-0.2-0.1-0.3-0.1-0.5S157.6,4.8,157.8,4.7L157.8,4.7z M153.7,5.4L153.6,5l0.3,0.2
	C153.9,5.4,153.8,5.5,153.7,5.4L153.7,5.4z M154.4,11c-0.2,0-0.3-0.1-0.4-0.3h0.4c0,0.1,0,0.2,0.1,0.3H154.4z M155.9,11.6l-0.1-0.3
	h0.4v0.2C156.1,11.5,156,11.5,155.9,11.6L155.9,11.6z M157.7,10.2h-0.3l-0.1-0.4l0.6,0.2C158,10,157.9,10.2,157.7,10.2z M158.3,8.1
	c0-0.2,0.1-0.3,0.5-0.5h0.1c0,0.2,0.1,0.3,0.1,0.5H158.3z M159.4,9.1h-0.3L159,8.8c0-0.2,0-0.3,0.2-0.3h0.4v0.2
	C159.6,8.9,159.5,9.1,159.4,9.1L159.4,9.1z M159.8,8.6l-0.1-0.3c0.1,0,0.3-0.1,0.4-0.1v0.1c0.1,0.2,0,0.3-0.2,0.3H159.8z
	 M160.4,18.4h0.1c0,0.2,0,0.3-0.1,0.4c0.1,0.2,0.3,0.4,0.8,0.4v0.2h-0.1c-0.7-0.1-1.1-0.2-1.2-0.2C160.2,18.7,160.3,18.4,160.4,18.4
	L160.4,18.4z M160.3,20v-0.2l0.1-0.3c0.2,0,0.3,0.1,0.4,0.3c0,0,0,0,0,0V20H160.3z M161.5,29.5c0-0.1,0.1-0.2,0.1-0.3
	c0.2,0,0.3,0.1,0.4,0.3H161.5z M162.7,28.2c-0.2,0-0.3-0.1-0.4-0.3v-0.2h0.6v0.2C162.9,28,162.9,28.2,162.7,28.2z M162.9,28.8h0.3
	l-0.1,0.3l0.4,0.4h-0.6C162.9,29.2,162.9,29,162.9,28.8L162.9,28.8z M164.6,34.5c-0.5-0.2-1.1-0.4-1.7-0.4c0,0,0-0.1,0-0.2h0.2
	c0.5,0,1.1,0.1,1.6,0.3C164.7,34.2,164.7,34.3,164.6,34.5L164.6,34.5z M164,32.7h-0.6v-0.2c0-0.2,0.3-0.3,0.9-0.4l-0.3-0.8
	c0.2,0,0.3-0.1,0.4-0.2l0.4,0.2c0,0.1-0.1,0.2-0.1,0.3l0.1,0.4l0.2,0.3C164.6,32.6,164.3,32.6,164,32.7L164,32.7z M165.5,34l0.4,0.2
	c-0.1-0.3,0-0.4,0.2-0.4c0.2,0,0.4,0.1,0.4,0.3c0,0.2,0,0.5,0,0.8h-0.8l-0.3-0.8L165.5,34z M166.1,35.4c-0.1,0.2-0.1,0.4-0.2,0.6
	c-0.2,0-0.4-0.2-0.6-0.6H166.1z M165.3,31.2c0,0.2-0.1,0.3-0.3,0.3h-0.2l-0.1-0.4h0.5L165.3,31.2z M164.3,30.3h0.1
	c0.4,0.2,0.5,0.3,0.6,0.4c-0.6-0.1-1.2,0-1.7,0.3l0.4,0.4h-0.5l-0.3-0.8C163.5,30.8,164,30.6,164.3,30.3L164.3,30.3z M177.7,28.3
	v0.1h-0.2C177.3,27.8,177.4,27.9,177.7,28.3z M171.5,25.4h0.5l0.1,0.3h-0.5C171.6,25.6,171.5,25.5,171.5,25.4L171.5,25.4z M172,32.4
	h0.5c0,0.2,0.1,0.3,0.1,0.4C172.2,32.8,172,32.6,172,32.4L172,32.4z M173.7,31.5c-0.2,0-0.3,0.1-0.2,0.4H173c0-0.2-0.1-0.4-0.3-0.6
	l0.3-0.2h0.3l0.4,0.2c0-0.1,0-0.2,0.1-0.2h0.2c0,0.2,0.1,0.3,0.1,0.4L173.7,31.5z M174.2,34.4h0.5c0,0.2,0.1,0.3,0.1,0.4
	C174.4,34.7,174.2,34.6,174.2,34.4L174.2,34.4z M174.3,29.6l-0.2-0.3c0-0.2-0.1-0.3-0.1-0.4h0.6L175,29
	C175,29.3,174.8,29.5,174.3,29.6L174.3,29.6z M174.9,25.1v-0.2c0.2,0,0.3-0.1,0.4-0.2l0.2,0.3c0,0.1,0.1,0.2,0.1,0.3h-0.3
	C175.2,25.4,175,25.3,174.9,25.1L174.9,25.1z M175.6,34.2c0.1-0.2,0.1-0.4,0-0.6h0.2c0.1,0.2,0.1,0.4,0.1,0.6H175.6z M177.2,33.6
	H177c-0.1-0.2-0.1-0.4-0.1-0.6l0.5,0.3C177.5,33.6,177.4,33.7,177.2,33.6L177.2,33.6z M177.6,33.5c0-0.2-0.1-0.3-0.1-0.4h0.5
	c0,0.2,0.1,0.3,0.1,0.4H177.6z M180.5,16.3h0.1c0,0.2,0.1,0.3,0.1,0.4h-0.4v-0.2C180.2,16.4,180.3,16.3,180.5,16.3L180.5,16.3z
	 M178.6,32.8h-0.3v-0.2c0-0.2,0-0.3,0.2-0.3l0.4,0.2C178.8,32.7,178.7,32.8,178.6,32.8z M178.8,13c-0.2,0-0.3-0.1-0.4-0.3h0.4
	l0.1,0.3H178.8z M179,34.6c0-0.1-0.1-0.2-0.1-0.3h0.5c0.1,0.2,0.1,0.3,0.3,0.4l-0.1,0.3C179.2,34.9,179,34.7,179,34.6z M179.5,37.1
	l-0.2-0.8c0.2,0,0.4,0.1,0.4,0.3v0.2C179.7,37,179.7,37.1,179.5,37.1L179.5,37.1z M180.5,38.5h-0.2c0-0.2,0-0.3,0.2-0.3h0.2
	C180.7,38.4,180.6,38.5,180.5,38.5L180.5,38.5z M180.5,32.2l-0.1-0.3h0.2c0.2,0,0.4,0.1,0.4,0.3H180.5z M181.4,13.7h0.1
	c0.1,0.2,0.1,0.3,0.1,0.4h-0.1l-0.3-0.2C181.1,13.9,181.1,13.8,181.4,13.7L181.4,13.7z M181.4,16.7h0.3c0.1,0.2,0,0.3-0.2,0.3h-0.3
	C181.1,16.9,181.2,16.8,181.4,16.7L181.4,16.7z M181.4,25.6c0-0.1-0.1-0.2-0.1-0.3s0-0.3,0.2-0.3c0.2,0,0.4,0.1,0.4,0.3
	c0,0.1,0.1,0.2,0.1,0.3s0,0.3-0.2,0.3C181.6,25.9,181.4,25.8,181.4,25.6L181.4,25.6z M182.3,35.6c-0.1-0.2-0.1-0.5-0.2-0.8h0.5
	c0.1,0.2,0.1,0.5,0.2,0.8H182.3z M182.9,34.1h-0.5c-0.2,0-0.3-0.1-0.4-0.3c0-0.1-0.1-0.2-0.1-0.3c0.2,0,0.4-0.1,0.6-0.3
	c0.4,0.2,0.6,0.3,0.6,0.4v0.2C183.1,34,183.1,34.1,182.9,34.1L182.9,34.1z M183.1,32.4c-0.2,0-0.4,0-0.6,0.2
	c-0.5-0.2-0.8-0.4-0.8-0.6s-0.1-0.4-0.2-0.6l1.7,0.6l-0.1,0.3v0.2h0.5c0.1,0.4,0.1,0.8,0.2,1.2h-0.3l-0.4-0.2L183.1,32.4z
	 M185.4,35.9c-0.4-0.1-0.6-0.3-0.6-0.4l-0.4,0.3c-0.3-0.2-0.6-0.3-0.9-0.3c0-0.2-0.1-0.3-0.1-0.4h0.2c0.4,0,0.7,0.1,1,0.3
	c0.1,0,0.2-0.2,0.2-0.4s-0.4-0.4-1-0.8c-0.1-0.2,0-0.3,0.2-0.3l1.4,1.2C185.3,35.3,185.3,35.6,185.4,35.9L185.4,35.9z"/>
<path fill="#00A76D" d="M34.1,39.4H34l-0.4,0.2c0,0.3,0,0.6,0.2,0.9l0.4-0.2c0-0.1,0-0.2-0.1-0.2c0.1-0.2,0.2-0.3,0.3-0.4
	C34.4,39.5,34.3,39.4,34.1,39.4z"/>
<path fill="#00A76D" d="M54.1,22.7l0.9-3.3l0.2-0.2c0.3-1.2,0.6-2.3,0.9-3.4H56c0.1-0.3-0.2-0.5-0.8-0.6c0-0.1,0-0.2,0.1-0.3h0.9
	l0.5-1.2c0.1-0.1,0.2-0.2,0.2-0.3c0.3-1.2,0.7-2.5,1.1-3.8c-0.5-0.8-1-1.6-1.4-2.4h-0.1l-0.5-0.8c-0.2-0.4-0.4-0.8-0.7-1.1l-0.6-1
	h-8.7l3.6,0.8h-3.2c-0.3-0.4-0.5-0.6-0.4-0.8c-0.9,0.1-1.8,0.3-2.7,0.8h-0.1c0.2-0.5,0.2-0.8-0.1-0.8h-0.4c-0.4,0.2-0.7,0.3-1.1,0.4
	l-0.4-0.3c0-0.1-0.1-0.1-0.2-0.1l-4.4-0.2c-0.5,1.3-1.1,2.7-1.7,4H35c0,0,0,0.1,0,0.1l-0.1,0.2c-0.5,1.1-1.1,2.6-1.9,4.3
	c0,0.2,0,0.5,0,0.7h-0.3h0.4c0,0,0,0,0.1,0l0.6-0.1h0.1c0,0.2-0.1,0.3-0.1,0.4c-0.1,0-0.2,0.1-0.2,0.2l-0.3-0.3
	c-0.1,0-0.4,0.2-0.9,0.8c-1.1,2.7-2.1,5.4-3.1,8.1c0,0.1,0,0.1,0,0.2v0.2c-0.1,0-0.1,0-0.2,0.1c-0.8,2.2-1.7,4.5-2.5,6.7h0.1
	c-0.1,0.3-0.3,0.6-0.4,0.9l0,0.2c-1.5,4.2-3,8.4-4.4,12.6c-0.1,0.2,0,0.3,0.2,0.3h10.6c0.2,0,0.4-0.1,0.4-0.3l0.5-1.6
	c-0.1-0.3-0.2-0.5-0.4-0.4c-0.1,0.2-0.2,0.4-0.3,0.6c-0.2,0-0.3-0.2-0.3-0.6c-0.8,0-1.6,0.3-2.1,0.9h-0.5v-0.2l0.5-0.4l0.2-0.6
	c-0.2,0-0.4,0-0.6-0.2c0.1-0.4,0.3-0.6,0.5-0.6c0.2-0.5,0.1-0.8-0.1-0.8l0.5-1l-0.2-0.4c0.1-0.2,0.1-0.4,0.2-0.6h0.2l0.8,0.2
	c0-0.1,0.1-0.2,0.2-0.2c0,0.1,0.1,0.2,0.3,0.2l-0.5,0.4c0,0.2-0.1,0.3-0.1,0.4s0,0.2,0.1,0.3c-0.1,0-0.2,0.1-0.2,0.2
	c-0.1,0.3,0.3,0.5,1.2,0.8h0.2c0.3-0.4,0.7-0.7,1.2-0.8v-0.2c0-0.1-0.2-0.4-0.8-0.9h-0.3l-0.1,0.3H33c0.1-0.3,0-0.4-0.3-0.4l0.4-0.8
	h-0.3c-0.2,0-0.4,0.1-0.4,0.3c-0.1-0.1-0.3-0.1-0.4-0.2l0.1-0.3c0-0.2,0.4-0.4,1-0.6h0.5c-0.1,0.3,0.3,0.7,1.1,1.2h0.3
	c0.1-0.3,0.3-0.7,0.5-1c0-0.2-0.1-0.4-0.1-0.6c0.2,0,0.4-0.1,0.4-0.3c0.8-2.5,1.6-5,2.4-7.6h4.2c-1.1,3.7-2.2,7.4-3.3,11.2
	c0,0.1,0,0.2,0.1,0.3c-0.1,0-0.2,0.1-0.2,0.2c-0.4,1.3-0.7,2.5-1,3.8c-0.1,0.2,0,0.3,0.2,0.3h10.7c0.2,0,0.4-0.1,0.4-0.3
	c0.2-1,0.5-2.1,0.8-3.2h-0.3c-0.1,0.3-0.5,0.5-1.5,0.6l-0.6-0.3c0.4-0.5,0.7-0.8,0.8-0.8l0.9,0.2c0.1,0,0.5-0.4,1-1.3
	c0.8-3.3,1.6-6.6,2.5-9.9c0-0.1,0-0.2-0.1-0.3c0.1,0,0.2-0.1,0.2-0.2l0.1-0.4l-2-2.7L54.1,22.7z M25.8,42.1
	c-0.1,0.2-0.1,0.4-0.2,0.6c-0.1-0.1-0.3-0.1-0.4-0.2l0.2-0.8h0.2C25.7,41.8,25.9,41.9,25.8,42.1z M27.9,42.7h-0.2l-0.8-0.2l-0.3,0.3
	c-0.3,0-0.4-0.3-0.3-1l0.4-0.2h0.2l0.4,0.8h0.3l0.4-0.2L27.9,42.7z M29.4,41c0.1-0.2,0.2-0.4,0.3-0.6l0.3,0.2
	C29.8,40.9,29.5,41,29.4,41z M30.5,37.6c-0.1,0.2-0.1,0.4-0.2,0.6h-1.1c0.1-0.4,0-0.6-0.3-0.6c0.3-0.3,0.5-0.4,0.6-0.4
	c-0.1,0.3,0,0.4,0.2,0.4l0.6-0.3C30.5,37.3,30.5,37.4,30.5,37.6z M30.9,37.1v0.2c-0.5,0-0.8-0.2-0.8-0.6c0.1-0.1,0.2-0.3,0.3-0.5
	h0.6C31,36.5,31,36.8,30.9,37.1z M32.8,38.3c-0.1,0.3,0,0.5,0.1,0.8h-0.3c-0.2,0-0.3-0.1-0.2-0.3l0.1-0.4H32.8z M31.8,36.5
	c0.1-0.3,0.2-0.6,0.3-0.9h0.6c0,0.1,0,0.3,0,0.4C32.7,36.2,32.4,36.3,31.8,36.5L31.8,36.5z M32.7,19.2c0,0.1,0,0.3,0,0.4h-0.3
	c0.1-0.2,0.2-0.4,0.4-0.6c0-0.1,0-0.3,0.1-0.4h0.1c0,0.1,0,0.2,0.1,0.2C32.9,18.9,32.8,19.1,32.7,19.2z M34.7,35.7
	c0,0.1-0.1,0.3-0.1,0.4h-0.2C34.1,36,34,35.8,34,35.7s0.1-0.2,0.1-0.3h0.3C34.6,35.3,34.7,35.4,34.7,35.7L34.7,35.7z M56.2,8.5h0.3
	c0.5,0.4,0.7,0.6,0.6,0.8v0.2c-0.2,0-0.3,0.1-0.5,0.2c-0.6-0.1-0.9-0.3-0.9-0.4C56,8.9,56.1,8.7,56.2,8.5z M54.9,8.6l0.5,0.6
	l-0.7,0.7L54.2,10l0,0c0-0.2,0-0.3-0.2-0.3L54.9,8.6z M53.8,8.9c-0.2,0-0.3,0.1-0.5,0.2H53c0.2-0.3,0.5-0.5,0.9-0.6
	C53.9,8.6,53.8,8.8,53.8,8.9z M52.7,8.2h0.6c-0.2,0.3-0.5,0.4-0.7,0.4h-0.3L52.7,8.2z M52.2,8.9l-0.1,0.3c-0.2,0.2-0.4,0.4-0.5,0.6
	h-0.4L51,9.7c0.6-0.7,1-1,1.2-1C52.2,8.7,52.2,8.8,52.2,8.9L52.2,8.9z M50.7,8.5c0.2,0,0.3-0.1,0.5-0.2c0.1,0.1,0.2,0.1,0.4,0.2
	c0,0.1-0.1,0.2-0.1,0.3s-0.4,0.3-1,0.4L50.7,8.5z M45.9,10c0.1-0.2,0.2-0.3,0.4-0.3c0.2,0,0.2,0.1,0.2,0.3l-0.2,0.6L46,10.9
	c0.3,0,0.4,0.2,0.3,0.4l-0.9,0.1c0,0,0-0.1,0-0.1h0.2C45.7,10.9,45.8,10.4,45.9,10L45.9,10z M46.8,10.9H47l-0.1,0.3l-0.6,0.1
	C46.5,11.3,46.6,11.2,46.8,10.9L46.8,10.9z M45.2,4.7h0.1c0.2,0,0.2,0.1,0.2,0.3l0,0.2c-0.2,0.3-0.4,0.5-0.6,0.5h-0.3L45.2,4.7z
	 M45.1,9.1l-0.2,0.6c-0.2,0-0.2-0.1-0.2-0.3l0.1-0.3L45.1,9.1z M43.8,6.1v0.2l-0.2,0C43.6,6.1,43.7,6.1,43.8,6.1L43.8,6.1z
	 M41.9,9.1c0.5,0,0.9-0.3,1.1-0.8h0.4c-0.1,0.3-0.2,0.7-0.1,1l-0.2,0.3l-0.7-0.2l-0.3,0.2c0-0.1-0.1-0.2-0.4-0.2L41.9,9.1z M36.3,10
	c-0.1,0.3-0.1,0.6-0.1,0.9c-0.1,0.2-0.3,0.3-0.8,0.4c-0.4,0-0.5-0.2-0.4-0.4c0.2-0.3,0.4-0.6,0.6-0.9c0-0.1,0-0.3,0-0.4l1-0.6h0.1
	l0.3,0.3C37,9.6,36.7,9.8,36.3,10L36.3,10z M37.5,10.6l0.1-0.2c0.1-0.2,0.2-0.3,0.4-0.3h0.2L38,10.6L37.5,10.6z M38.4,13.7
	c0,0.2-0.2,0.3-0.4,0.3l0.2-0.4h0.3C38.4,13.6,38.4,13.7,38.4,13.7L38.4,13.7z M38.4,9.5c-0.2,0-0.2-0.1-0.2-0.3l0-0.2h0.3
	C38.5,9.2,38.4,9.4,38.4,9.5L38.4,9.5z M39.3,25.3c-0.2,0-0.4-0.1-0.6-0.2c0.1-0.1,0.2-0.2,0.3-0.2h0.2c0.2,0,0.2,0.1,0.2,0.2
	S39.3,25.3,39.3,25.3L39.3,25.3z M38.9,13.4l0.7-0.1c0,0,0,0,0,0.1H38.9z M40,14c0.1-0.2,0.2-0.3,0.4-0.3l-0.2,0.4L40,14z M40.4,17
	h-0.1c0-0.1,0.1-0.2,0.2-0.2L40.4,17z M40.1,9.7c-0.2,0-0.2-0.1-0.2-0.3l0.1-0.3h0.3l0.2,0.2L40.1,9.7z M46.1,14.4
	c-0.5,1.6-1.1,3.2-1.6,4.9h-3.7c0,0,0-0.1,0-0.1c0.2-0.7,0.5-1.4,0.7-2.1c0.1-0.2,0.1-0.3,0.2-0.5l0.2-0.7v-0.2l0,0
	c0.2-0.5,0.4-1.2,0.6-2.2c0.1-0.1,0.2-0.1,0.2-0.2l0.1-0.3h3.5l0.7,0.4C47,14,46.6,14.3,46.1,14.4L46.1,14.4z M47.5,38.4
	c0,0.1-0.1,0.2-0.1,0.3h-0.2c-0.2,0-0.3-0.1-0.2-0.3l0.2-0.3C47.5,38,47.6,38.1,47.5,38.4L47.5,38.4z M47.6,7.4h-0.8
	c-0.2,0-0.2-0.1-0.2-0.3c0,0,0-0.1,0-0.2c0.1-0.2,0.2-0.3,0.4-0.3h0.3C47.5,6.9,47.7,7,48,7.1C48,7.2,47.8,7.3,47.6,7.4L47.6,7.4z
	 M48.1,6.9c-0.1-0.1,0.3-0.2,0.8-0.3C48.6,6.7,48.4,6.8,48.1,6.9L48.1,6.9z M48.7,29.5h-0.3v-0.2c0.1-0.2,0.2-0.3,0.4-0.3L48.7,29.5
	z M49.6,28.5c-0.2,0.3-0.4,0.4-0.6,0.4h-0.2c0.3-0.4,0.5-0.6,0.6-0.6h0.2L49.6,28.5z M49.9,25.9L49.9,25.9L49.9,25.9z M50.7,14.8
	l-1.8,0.2c-0.2,0-0.2-0.1-0.2-0.3c0.4-0.2,0.7-0.5,1-0.8L50,14c-0.1,0.2-0.2,0.3-0.3,0.4v0.2h0l0.5-0.3h0.6
	C50.8,14.5,50.7,14.6,50.7,14.8z M51.3,13.9c0,0.2-0.1,0.3-0.1,0.4l-0.3-0.2C50.9,14,51.1,13.9,51.3,13.9L51.3,13.9z"/>
<path fill="#00A76D" d="M155,41.6c-0.1-0.7-0.2-1.4-0.3-2.1l0,0c0,0.1,0.1,0.2,0.2,0.2c0,0,0,0,0,0l0.1-0.3l-0.2-1.2h-0.4l-0.1-1.1
	l0.2-0.1l-0.2-0.2c0-0.2-0.1-0.3-0.1-0.5c0.2-0.1,0.3-0.4,0.2-0.6c0,0,0-0.1,0-0.2h-0.4c0-0.2-0.1-0.4-0.1-0.6l0,0
	c0.2,0,0.3-0.1,0.3-0.3s0-0.2-0.1-0.3s-0.1-0.3-0.4-0.3l0,0c0-0.2-0.1-0.5-0.1-0.7c-0.1-0.1-0.2-0.1-0.4-0.1c0-0.2,0-0.3-0.1-0.4
	c0.1,0,0.1,0,0.2,0l0,0h0.5v-0.2c-0.1-0.1-0.1-0.2-0.2-0.3c-0.1,0-0.1,0-0.2,0.1c0-0.2-0.1-0.5-0.1-0.8c0.1-0.1,0.2-0.2,0.3-0.4
	l-0.4-0.4l-0.1-0.3h0.4c-0.2-1.1-0.3-2.2-0.5-3.3h-0.2c-0.1,0-0.1,0.1-0.2,0.1c-0.1-0.4-0.1-0.7-0.2-1.1h0.3l-0.2-1.3l-0.2-0.3
	l-0.3,0.2h-0.1c-0.1-0.3-0.2-0.9-0.4-1.6c0.4-0.2,0.6-0.4,0.5-0.5s-0.3-0.2-0.8-0.4c-0.2-0.9-0.5-1.9-0.9-3.2h0.1
	c0-0.1-0.1-0.2-0.1-0.2v-0.2h0.2c0.4,0.9,0.7,1.8,1,2.5c-0.1-0.6-0.2-1.2-0.3-1.8c0.1,0,0.1-0.2,0.1-0.3c0-0.1-0.1-0.2-0.2-0.3
	c-0.1-0.3-0.1-0.7-0.2-1c0-0.1,0.1-0.1,0.1-0.2l-0.2-1c-0.1-0.1-0.1-0.2-0.2-0.3l-0.4-2.7l0.2-0.1c-0.1-0.1-0.1-0.2-0.2-0.3
	l-0.2-1.2l0,0c0.2,0,0.2-0.1,0.2-0.3c-0.1-0.3-0.2-0.6-0.4-0.9l0,0c-0.1-0.3-0.1-0.7-0.2-1l0.1-0.1l-0.2-0.3l0,0L150,9
	c0.1-0.1,0.1-0.2,0.1-0.3c-0.1-0.1-0.1-0.1-0.2-0.2l-0.3-1.9h0.2l-0.1-0.3c-0.1-0.1-0.1-0.2-0.2-0.3L149.3,5
	c0.2-0.1,0.3-0.2,0.2-0.3s0-0.2,0-0.3c0-0.2-0.2-0.3-0.3-0.3h-9c-0.2,0-0.3,0.1-0.2,0.3c0.1,0.5,0.1,1,0.2,1.5
	c0.1,0,0.3,0.1,0.5,0.3l0.1,2h-0.1c0-0.1-0.1-0.1-0.1-0.2c0,0,0,0,0,0c0,0.1-0.1,0.2-0.1,0.3l0.1,1.2c0.1,0,0.3,0,0.4,0l0.1,1
	l-0.3,0.2c0.1,0.1,0.2,0.3,0.3,0.4v0.3c-0.3,0.1-0.4,0.3-0.4,0.7c0,0,0,0.1,0,0.2h0.4l0.1,0.6h-0.1c-0.2,0-0.3,0.1-0.2,0.3
	s0,0.2,0,0.3c0,0.2,0.2,0.3,0.3,0.3h0.1l0.1,1.2H141V15l0.2,0.3c0.2,0,0.3-0.1,0.3-0.3c0,0.3,0.1,0.6,0.1,0.8
	c-0.1,0.2-0.2,0.3-0.4,0.5l0.5,0.6v0.2h-0.4c0.1,1.1,0.3,2.2,0.4,3.3h0.1c0.1,0,0.2-0.1,0.3-0.2c0,0.4,0.1,0.7,0.1,1.1
	c0,0,0,0.1,0,0.1l-0.4,0.1c0.1,0.4,0.1,0.9,0.2,1.3c0.1,0.1,0.1,0.2,0.2,0.3l0.3-0.2c0.1,0.6,0.1,1.1,0.2,1.7l0,0
	c-0.3,0.2-0.4,0.3-0.4,0.4s0.4,0.3,1,0.4h-0.4c0.1,0.9,0.2,1.9,0.3,2.8c-0.2,0-0.3,0.1-0.3,0.3c0,0.2,0.1,0.3,0.3,0.3c0,0,0,0,0,0
	c0,0.3,0.1,0.6,0.1,0.8c-0.1,0.1-0.2,0.2-0.3,0.4l0.1,1c0.1,0.2,0.2,0.3,0.4,0.5c0.1,0.8,0.2,1.5,0.2,2.2l-0.3,0.2
	c0.1,0.2,0.2,0.3,0.4,0.4l0.1,1.1h-0.1c-0.1,0-0.3,0.1-0.3,0.2c0,0,0,0.1,0,0.1c0,0.3,0.2,0.6,0.4,0.9h0.2c0,0.3,0.1,0.6,0.1,0.9
	l-0.3,0.2L144,38l0.2-0.1v0.5c-0.2,0.1-0.3,0.2-0.3,0.3c0.1,0.1,0.2,0.2,0.4,0.3c0.1,0.6,0.1,1.2,0.2,1.8h-0.3v0.3
	c0.1,0.2,0.2,0.3,0.4,0.4l0.1,0.9c-0.3,0.1-0.5,0.2-0.5,0.4v0.3c0,0.2,0.1,0.3,0.3,0.3c0,0,0,0,0,0h10.7c0.2,0,0.3-0.1,0.3-0.3
	l-0.2-1.5C155.1,41.6,155.1,41.6,155,41.6z M141.8,18.2l0.1-0.3c0,0.1,0,0.2,0,0.3H141.8z M150.8,23.6v0.2c0,0.2-0.2,0.3-0.6,0.4
	h-0.2c0-0.1,0-0.2,0-0.3s0.1-0.3,0.3-0.3L150.8,23.6z M150.1,23h0.2c0,0.1,0,0.2,0,0.3h-0.5C149.8,23.2,149.9,23.1,150.1,23
	L150.1,23z M149.7,24.5c-0.4-0.1-0.9-0.1-1.3-0.2c0-0.1,0-0.2,0-0.3c0.4,0,0.6-0.1,0.6-0.3C149.1,23.8,149.3,24,149.7,24.5
	L149.7,24.5z M149.5,22.1L149.5,22.1l-0.6,0h-0.4c0,0-0.1,0-0.1,0c-0.1,0-0.1,0-0.2,0c0-0.1,0-0.2,0-0.3h0.6
	C148.8,22.1,149.1,22.2,149.5,22.1L149.5,22.1z M148,19.4c0.1-0.1,0.2-0.1,0.2-0.2c0.2,0.1,0.3,0.1,0.5,0.1v0.2h-0.2L148,19.4z
	 M148,9.5v0.2l-0.1-0.2L148,9.5z M148.2,12.2h0.8v0.3c-0.3,0-0.6,0.1-0.9,0.3h-0.2v-0.3C147.8,12.4,147.9,12.3,148.2,12.2
	L148.2,12.2z M148.2,14.9L148.2,14.9c-0.1,0.1-0.2,0.2-0.3,0.3C147.8,15.1,147.9,15,148.2,14.9L148.2,14.9z M147.9,18.4h0.2
	c0,0,0,0.1,0,0.1h-0.3C147.7,18.4,147.8,18.4,147.9,18.4L147.9,18.4z M145.5,10.2h-0.3V10c0.2,0,0.3-0.1,0.5-0.1h0.1
	C145.8,10,145.7,10.2,145.5,10.2z M145.9,5.5c0.2,0,0.3-0.1,0.5-0.1h0.2l-0.1,0.2C146.3,5.5,146.1,5.5,145.9,5.5L145.9,5.5z
	 M146.3,8.1c0-0.2,0.2-0.3,0.5-0.5h0.1c0,0.2,0,0.3,0.1,0.5H146.3z M147.2,7.2c0.1-0.3,0.2-0.5,0.4-0.5l0.1,0.8h-0.1
	C147.3,7.5,147.2,7.4,147.2,7.2L147.2,7.2z M147.3,19.3L147.3,19.3l0.2,0L147.3,19.3z M147.6,19.9l0.1-0.3c0.2,0,0.3,0.1,0.4,0.3
	c0,0,0,0,0,0v0.2h-0.5L147.6,19.9z M148,26.4v-0.3h0.5c0,0.1,0,0.2,0,0.3H148z M149.2,27.9v-0.2h0.7c0,0,0,0.1,0,0.2
	s-0.1,0.3-0.3,0.3C149.3,28.2,149.2,28,149.2,27.9L149.2,27.9z M149.2,27c0-0.2,0.1-0.3,0.3-0.3h0.2c0,0.1,0,0.2,0,0.3H149.2z
	 M149.9,29.2c0,0.1,0.1,0.2,0.1,0.3h-0.2l-0.1-0.1v-0.2L149.9,29.2z M149.7,34h-0.3v-0.1h0.2c0.4,0,0.8,0.1,1.2,0.2L149.7,34z
	 M150.9,27.6c-0.2,0-0.3-0.1-0.4-0.3h0.5c0,0.1,0,0.2,0.1,0.3H150.9z M150.3,26.1l-0.7-0.1c-0.1,0.1-0.1,0.3-0.1,0.4
	c-0.2,0-0.4-0.1-0.6-0.3V26c0.4-0.1,1.1-0.3,1.9-0.5c0,0.1,0.1,0.2,0.3,0.4L150.3,26.1z M151.7,25.3c0-0.2,0.1-0.2,0.3-0.3
	c0,0.1-0.1,0.2-0.1,0.4L151.7,25.3L151.7,25.3z M152.7,35.4l-0.7,0.1c0,0-0.1-0.1-0.1-0.1L152.7,35.4L152.7,35.4z M152.8,34
	l-0.4,0.3l-0.3-0.2V34h0.2l0.4,0.2c0-0.3,0.1-0.4,0.3-0.4c0.2,0,0.4,0.1,0.4,0.3c0,0,0,0,0,0L152.8,34z M153.2,29.5L153.2,29.5
	L153.2,29.5z"/>
<path fill="#00A76D" d="M182.4,4.8l0.2,0.6h-0.1c0,0,0,0-0.1,0l-0.1,0.1l0.1,0.3h0.3l0.1,0.3h-0.2l0.2,0.1v0.1
	c-0.2,0-0.3,0.1-0.2,0.2l0,0h0.3l0.1,0.2h-0.1c-0.1,0-0.2,0-0.2,0.1v0.1c0,0.1,0.1,0.1,0.2,0.1h0.1l0.1,0.3h-0.3l0,0l0.1,0.1
	c0.1,0,0.1,0,0.1-0.1l0.1,0.2c-0.1,0.1-0.1,0.1-0.2,0.2l0.3,0.2l0,0h-0.2l0.3,1h0.1h0.1l0.1,0.3l0,0h-0.2c0,0.1,0.1,0.3,0.1,0.4
	l0.1,0.1l0.1-0.1c0,0.2,0.1,0.3,0.2,0.5l0,0c-0.1,0-0.2,0.1-0.2,0.1s0.2,0.1,0.4,0.1h-0.2c0.1,0.3,0.2,0.6,0.3,0.8
	c-0.1,0-0.1,0-0.1,0.1s0.1,0.1,0.2,0.1l0.1,0.2c0,0-0.1,0.1-0.1,0.1c0,0.1,0.1,0.2,0.1,0.3l0.2,0.1c0.1,0.2,0.1,0.4,0.2,0.7h-0.1
	c0,0,0.1,0.1,0.1,0.1l0.1,0.3H185c-0.1,0-0.1,0-0.1,0.1c0,0.1,0.1,0.2,0.2,0.3l0,0l0.1,0.3h-0.1l0.1,0.1l0,0V14c0,0-0.1,0.1,0,0.1
	c0,0,0.1,0.1,0.1,0.1c0.1,0.2,0.1,0.3,0.2,0.5h-0.1v0.1c0,0,0.1,0.1,0.1,0.1l0.1,0.3c-0.1,0-0.1,0.1-0.1,0.1v0.1
	c0,0.1,0,0.1,0.1,0.1h2.4c0.1,0,0.1,0,0.1-0.1c0-0.1,0-0.3,0-0.4c0,0-0.1,0-0.1,0l0.1-0.6l0,0l0,0l0.1-0.1c0-0.1,0-0.2,0.1-0.3h-0.1
	v-0.3h0.1v-0.1c0,0,0-0.1,0-0.2c0.1,0,0.1-0.1,0.1-0.2l0,0h-0.1c0-0.1,0-0.1,0-0.2l0,0c0.1,0,0.1,0,0.1-0.1v-0.1
	c0-0.1,0-0.1-0.1-0.1l0,0v-0.2H188c0,0,0-0.1,0-0.1h0.2l0,0v-0.1c0,0,0,0-0.1,0c0-0.1,0-0.1,0-0.2l0.1-0.1l-0.1-0.1v-0.1h0.5l0.1-1
	h-0.1c0,0-0.1,0-0.1,0c0-0.1,0-0.2,0-0.3h0.1c0-0.1,0-0.3,0-0.4l-0.1-0.1l0,0.2l0,0c0-0.2,0-0.3,0-0.5c0.2-0.1,0.3-0.1,0.3-0.2
	s-0.1-0.1-0.4-0.1c0-0.2-0.1-0.6-0.2-0.9l0,0c0,0,0,0,0-0.1V8.4h0.1c0.1,0.3,0.2,0.5,0.3,0.7V8.6c0.1,0,0.1,0,0.1-0.1s0-0.1-0.1-0.1
	s0-0.2,0-0.3s0.1,0,0.1-0.1V7.8l-0.1-0.1c0-0.2,0-0.5,0-0.7h0.1c0,0-0.1-0.1-0.1-0.1c0-0.1,0-0.2,0-0.4l0,0c0.1,0,0.2,0,0.2-0.1
	c0-0.1-0.1-0.2-0.2-0.3l0,0c0-0.1,0-0.2,0-0.3h0.1L189,5.8l0,0V5.7c0.1,0,0.1,0,0.1-0.1s-0.1,0-0.1-0.1V5h0.1V4.9
	c0,0-0.1-0.1-0.1-0.1c0-0.1,0-0.2,0-0.3s0.2-0.1,0.2-0.1V4.3c0-0.1-0.1-0.1-0.2-0.1h-7c-0.1,0-0.2,0-0.2,0.1l0.1,0.4
	C182.1,4.7,182.3,4.7,182.4,4.8z M188.6,11.5L188.6,11.5L188.6,11.5z M188.5,10.2c0,0-0.1,0.1-0.1,0.1h-0.1
	C188.4,10.3,188.4,10.2,188.5,10.2z M187.2,8.6h-0.3l0.1-0.1L187.2,8.6L187.2,8.6L187.2,8.6z M187.5,9.4L187.5,9.4h-0.3h-0.4V9.3
	h0.3C187.2,9.4,187.3,9.4,187.5,9.4L187.5,9.4z M186.9,8.3h-0.2c0,0,0.1,0,0.1,0H186.9L186.9,8.3z M186.9,8.7L186.9,8.7l-0.2,0.1
	V8.7l0.1-0.1C186.8,8.7,186.9,8.7,186.9,8.7L186.9,8.7z M186.6,8.5L186.6,8.5h0.1H186.6z M186.6,10.6L186.6,10.6l0.2-0.1v0.1H186.6z
	 M186.9,9.9c0.2,0,0.3,0,0.3-0.1c0.1,0,0.2,0.1,0.3,0.2c-0.3,0-0.5,0-0.6,0L186.9,9.9z M187.4,10.9L187.4,10.9c0,0.1,0,0.1-0.1,0.1
	c-0.1,0-0.1,0-0.1-0.1l0,0H187.4z M187.1,10.7c0,0,0-0.1,0.1-0.1h0.1v0.1H187.1z M187.4,11.5h-0.1l0,0l0,0H187.4
	C187.4,11.5,187.4,11.5,187.4,11.5L187.4,11.5z M187.1,12.8H187l0,0H187.1c0.1,0,0.2,0,0.3,0H187.1z M187.7,10.8h0.2v0.1h-0.1
	c-0.1,0.1-0.1,0.1-0.1,0L187.7,10.8z M188.1,13.1h-0.2l0,0H188.1L188.1,13.1z M188.2,12.7c0.1,0,0.1,0,0.1,0.1L188.2,12.7l-0.2,0.2
	l-0.1-0.1l0,0l0,0h0.1c0,0,0.1,0,0.1,0L188.2,12.7z M187.7,10.5l-0.3-0.1c0,0-0.1,0.1-0.1,0.1c-0.1,0-0.2,0-0.2-0.1l0,0l0.9-0.2
	c0,0,0,0.1,0.1,0.1L187.7,10.5z M188.1,9.9c0,0.1-0.1,0.1-0.3,0.1h-0.1V9.9c0-0.1,0.1-0.1,0.1-0.1L188.1,9.9L188.1,9.9z M187.6,9.8
	c0,0,0-0.1,0.2-0.1h0.1v0.1H187.6z M187.7,5.8L187.7,5.8L187.7,5.8L187.7,5.8z M187.7,4.9v0.2h-0.1c-0.1,0-0.2,0-0.2-0.1
	C187.5,5,187.5,4.9,187.7,4.9L187.7,4.9z M187.6,6.5h0.5v0.1c-0.2,0-0.4,0-0.6,0.1h-0.1c0,0,0-0.1,0-0.1S187.3,6.5,187.6,6.5
	L187.6,6.5z M187.3,7.3c-0.1,0-0.1,0-0.2,0C187.1,7.4,187.1,7.3,187.3,7.3L187.3,7.3z M187.2,5.3h-0.5c0,0,0.1-0.1,0.4-0.1h0.1
	L187.2,5.3z M187,4.5h0.1H187c-0.1,0-0.2,0-0.4,0l0,0C186.7,4.6,186.8,4.5,187,4.5L187,4.5z M186.1,5.8L186.1,5.8
	c0.1,0.1,0,0.1-0.1,0.1h-0.3V5.9L186.1,5.8z M183.6,8.2L183.6,8.2L183.6,8.2L183.6,8.2z"/>
<path fill="#00A76D" d="M136.4,29.9v0.3h-0.5c0-0.2,0-0.4-0.1-0.6h0.5v-0.2c0-0.3-0.2-0.6-0.4-0.9c-0.1,0-0.1,0-0.1,0.2h-0.5v-0.2
	h0.5v-0.2c-0.1-0.6-0.4-1.2-0.8-1.7c0-1-0.8-1.8-1.8-1.8c-0.1,0-0.1,0-0.2,0c0,0.1-0.1,0.2-0.4,0.3c-0.2-0.5-0.5-0.8-0.8-0.8v-0.3
	c0-0.3,0.5-0.5,1.6-0.6c-0.2-0.9-0.6-1.8-1-2.7c0.1-0.4,0.2-0.8,0.3-1.1c0,0,0.1,0,0.1,0c0.1-0.2,0.1-0.4,0.2-0.6l0,0
	c0.1-0.3,0.2-0.5,0.3-0.8l-0.1-0.1h0.1l0.1-0.5h-0.2c0-0.2,0.1-0.3,0.2-0.5l0,0l0,0c0.1-0.2,0.2-0.4,0.4-0.4s0,0-0.1-0.1l0.1-0.1
	v-0.1h-0.2c0,0-0.1-0.1-0.1-0.1c0,0,0-0.1,0-0.2l0,0c0.2,0,0.3,0,0.3-0.1v-0.1c0-0.1-0.1-0.1-0.2-0.1l0,0l0.1-0.3h-0.3
	c0-0.1,0-0.1,0.1-0.2h0.2l0,0h0.4v-0.1l-0.1-0.1c-0.1,0-0.1,0-0.2,0l0.1-0.3c0.1-0.1,0.2-0.1,0.4-0.2L134,15
	c0.1-0.1,0.2-0.1,0.2-0.1h0.1v-0.1h0.1l0,0l0.4-1.2c0.6-1.6,1.2-3.2,1.6-4.8c0-0.3-0.1-0.4-0.3-0.4l0,0c0-0.1,0-0.1,0-0.2h0.2
	c0,0-0.1-0.1-0.1-0.1c0.1-0.2,0.1-0.3,0.1-0.5l0,0c0.2,0,0.3,0,0.3-0.1s0-0.2-0.2-0.3l0,0c0-0.1,0.1-0.3,0.1-0.4h0.2l-0.1-0.1l0,0
	c0-0.1,0-0.1,0.1-0.2s0.2-0.1,0.2-0.1s-0.1,0-0.1-0.1c0.1-0.2,0.1-0.5,0.2-0.8h0.2V5.4c0,0-0.1-0.1-0.1-0.1c0-0.2,0.1-0.3,0.1-0.4
	c0.2,0,0.3-0.1,0.3-0.1V4.6c0-0.1-0.1-0.1-0.2-0.1h-9c-0.2,0-0.3,0-0.3,0.1l-0.2,0.6c0.1,0,0.3,0.1,0.4,0.1c0,0.1-0.1,0.2-0.1,0.4
	c0,0-0.1-0.1-0.2-0.1l-0.3,0.2c0,0,0-0.1,0-0.2c-0.5,0-0.7,0.2-0.8,0.5c0,0.1,0,0.2,0,0.3l0.6,0.1L127,6.6h0.4L127.3,7L127,7.1
	c-0.2-0.1-0.5-0.1-0.7-0.1l-0.3,0.5v0.2c0.2,0,0.4,0,0.6,0.1l0,0l0,0c0,0,0.1,0.1,0.1,0.2v0.1c-0.2,0-0.3,0-0.3,0.1v0.1l0,0
	c-0.2,0.1-0.3,0.1-0.5,0.2c-0.8,2.3-1.5,4.6-2.1,7c0,0.1,0.2,0.2,0.5,0.2c-0.1,0.2-0.1,0.4-0.2,0.6h-0.3l0,0c-0.4,0.4-0.7,1-0.7,1.6
	H123c0-1.1-0.1-1.6-0.2-1.6c0.1-0.4,0.1-0.9,0.1-1.3c-0.1-2.1-0.2-4.1-0.2-6.2l-0.2-1c0.1,0,0.1-0.1,0.1-0.3c0-0.2-0.1-0.3-0.2-0.5
	c-0.1,0-0.3,0.1-0.4,0.2c-0.2,0-0.4-0.1-0.6-0.3h-0.1c0,0.1,0,0.2,0,0.3c-0.2-0.2-0.5-0.3-0.7-0.3V6.7l0.7-0.2l1,0.2
	c0.2-0.5,0.2-1,0.2-1.5c0-0.2-0.3-0.5-0.9-0.9h-0.6l-0.8,0.2c-0.1-0.1-0.3-0.1-0.4-0.2c-0.1,0-0.3,0.1-0.4,0.2
	c0-0.1-0.1-0.2-0.2-0.2h-1.4c-0.3,0.2-0.8,0.2-1.1,0h-1.4v0.3c0.1,0.2,0.2,0.3,0.3,0.5l0.3-0.2c0.2,0,0.3,0.1,0.3,0.3v0.3
	c-0.1,0-0.3-0.1-0.4-0.2l-0.4,0.3H115c0-0.3,0.1-0.7,0.1-1V4.2H115c-0.2,0-0.2,0.1-0.3,0.3c0,0.4-0.2,0.7-0.6,0.9l-0.3-0.2l-1,0.2
	c0,0.4,0,0.8,0,1.2l0.1,0.3c0.3-0.3,0.6-0.6,1-0.8c0.2,0,0.4,0.5,0.4,1.1L114.2,7c-0.2,0-0.5,0.3-0.8,0.9L113,7.8l-0.2,0.3l-0.1,7.5
	c0,0.1,0.1,0.3,0.2,0.3c0,0,0.1,0,0.1,0c0.4-0.1,0.8-0.2,1.2-0.3v0.6l-0.7-0.2l-0.3,0.2c0-0.1,0-0.1-0.1-0.2c0,0,0,0,0,0
	c-0.2,0-0.3,0.1-0.3,0.3c-0.1,9-0.2,18-0.3,27c0,0.2,0.1,0.3,0.3,0.3h0.9c1.6,0,3.7,0,6.4,0.2l0.3-0.2v0.2c0.2,0,0.3-0.1,0.5-0.2
	c0.2,0.1,0.4,0.2,0.7,0.2h2c0.2,0,0.3-0.1,0.3-0.3c-0.1-4.6-0.3-9.1-0.4-13.6l-0.2-0.8c0.1,0,0.2-0.2,0.1-0.4c0-0.8,0-1.5-0.1-2.2
	h0.2c0.6,1.6,1.2,3.3,1.9,4.9c3.2,8.2,5.1,12.3,5.4,12.3h12.5c0-0.2-2.4-4.8-6.7-13.6L136.4,29.9z M122,4.9c0,0.2,0.1,0.4,0.2,0.6
	l-0.3,0.2c-0.3-0.2-0.4-0.3-0.4-0.5V5.1C121.7,5.1,121.8,5,122,4.9L122,4.9z M115.6,16.5h-0.2c-0.2,0-0.3-0.1-0.3-0.3v-0.4
	c0.2,0,0.3-0.1,0.4-0.2l0.4,0.3C115.9,16.2,115.7,16.4,115.6,16.5L115.6,16.5z M115.9,7.9L115.9,7.9c-0.1-0.5-0.2-1-0.3-1.6
	c0.1,0,0.3,0.1,0.4,0.2C116.1,6.9,116,7.4,115.9,7.9L115.9,7.9z M117.1,16.2l-0.3-0.2l0.2-0.3l0.3,0.2
	C117.2,15.9,117.1,16,117.1,16.2z M117.3,7.9h-0.1c0.1-0.2,0.2-0.3,0.2-0.3L117.3,7.9z M119.4,12.6l0.3,0.2
	c-0.1,0.1-0.1,0.3-0.1,0.4h-0.3v-0.3L119.4,12.6z M119.9,16.3c-0.3-0.2-0.6-0.3-0.9-0.3v-0.2c0-0.2,0.1-0.3,0.3-0.3h0.7
	c0,0.2,0,0.3,0,0.4L119.9,16.3z M121.8,16h-0.2l-0.3,0.2c0-0.2,0-0.4,0-0.6s0.2-0.3,0.6-0.4c0.1,0,0.2,0.3,0.3,0.9
	c-0.1,0-0.2,0.1-0.1,0.3h-0.3L121.8,16z M122,30.6v-0.2l0.2-0.3c0.3,0.1,0.5,0.3,0.5,0.4L122,30.6z M123.7,25.7h-0.2
	c0-0.1,0-0.2,0-0.3c0.2-0.4,0.4-0.6,0.6-0.6v0.4C124.1,25.6,123.9,25.7,123.7,25.7z M126.2,25.1c-0.2,0-0.3-0.1-0.3-0.3c0,0,0,0,0,0
	v-0.6c0-0.2,0.1-0.3,0.3-0.3c0,0.3,0.1,0.5,0.2,0.8C126.2,24.7,126.2,24.8,126.2,25.1L126.2,25.1z M127,32.8c-0.2,0-0.3-0.1-0.3-0.3
	v-0.2h0.5v0.2L127,32.8z M129.5,37h-0.2v-0.4h0.2l0.3,0.2C129.9,36.9,129.8,37,129.5,37L129.5,37z M130.4,16.1L130.4,16.1
	c0.1,0,0.2,0,0.4,0H130.4z M131.8,10.5L131.8,10.5L131.8,10.5z M131.9,16.1L131.9,16.1z M133.1,8.6H133l0,0H133.1L133.1,8.6z
	 M134.2,14.3L134.2,14.3z M134.4,13.4l0.1-0.2c0,0.1,0,0.1,0.1,0.2L134.4,13.4z M134.6,7.6c-0.3,0-0.6,0-0.9,0.1h-0.1V7.6
	c0-0.1,0.1-0.1,0.3-0.1h0.8L134.6,7.6z M134.5,6.4L134.5,6.4L134.5,6.4L134.5,6.4z M134.8,5.3c0,0.1-0.1,0.2-0.1,0.3h-0.1
	c-0.2,0-0.3,0-0.3-0.1C134.5,5.3,134.6,5.3,134.8,5.3L134.8,5.3z M133.5,4.8c0.2,0,0.4,0,0.5-0.1h0.2L134,4.8
	C133.8,4.8,133.6,4.8,133.5,4.8L133.5,4.8z M133.8,5.6h0.1l-0.1,0.2h-0.7C133.2,5.7,133.4,5.7,133.8,5.6L133.8,5.6z M132.8,6.6
	c0.5-0.1,0.9-0.2,1.4-0.2h0.1l-0.2,0l0.1,0.1l0.3-0.1l-0.2,0.3c0.1,0,0.1,0,0.1,0.1C134.2,6.9,134,7,133.9,7
	c-0.2-0.1-0.4-0.1-0.6-0.2h-0.1h-0.2l-0.2-0.1L132.8,6.6z M133,16.1h-0.4l-0.5,0.1c0,0,0-0.1-0.1-0.1h0.2c0-0.1,0.2-0.2,0.4-0.2
	S133.1,16,133,16.1L133,16.1z M132.6,10.4h-0.1h-0.5c0.1,0,0.2,0,0.3-0.1C132.3,10.3,132.5,10.3,132.6,10.4L132.6,10.4z M131.6,6.6
	h0.5h0.1c0,0.1-0.1,0.1-0.3,0.1h-0.3L131.6,6.6z M132.3,32.4c-0.2,0-0.3-0.1-0.3-0.3c0,0,0,0,0,0v-0.3c0-0.2,0.1-0.3,0.3-0.3h0.2
	l0.1,0.9L132.3,32.4z M134.1,28.9v0.2c0,0.2-0.1,0.3-0.3,0.3c-0.2,0-0.3-0.1-0.3-0.3c0,0,0,0,0,0v-0.2L134.1,28.9z M133.6,29.9
	l0.7,0.4h0.3l0.3-0.2v0.3c-1,0.1-1.6,0.2-1.9,0.3C132.9,30.4,133.2,30,133.6,29.9L133.6,29.9z M134.5,34.3h0.5v0.4
	C134.7,34.6,134.5,34.4,134.5,34.3L134.5,34.3z M135.9,43c-0.2,0-0.3-0.1-0.4-0.3c0.2,0,0.3-0.1,0.3-0.3h0.3c0,0.1,0,0.2,0,0.3
	C136,42.7,135.9,42.8,135.9,43L135.9,43z"/>
<path fill="#00A76D" d="M113.9,4.8c0.2,0,0.3-0.1,0.3-0.3c0.1,0,0.1,0,0.1,0.2l0.3-0.2c0-0.2-0.1-0.3-0.3-0.3c0,0,0,0,0,0h-1
	c-0.2,0-0.3,0.1-0.3,0.3c0.3,0,0.5,0.1,0.7,0.3H113.9z"/>
<path fill="#ED1846" d="M57.3,52.2h0.2l0.2-0.4c0-0.1,0-0.2,0-0.3c0.3-0.5,0.6-0.9,0.9-1.4c0.3-0.1,0.5-0.2,0.7-0.4l0.3-0.4
	c0.2-0.3,0.1-0.4-0.2-0.4H45.9c-0.3,0-0.5,0.1-0.7,0.4l-1.4,2c0.2,0,0.3,0.2,0.4,0.4c-0.6,0.8-1.2,1.7-1.8,2.5h-0.2
	c0.1-0.1,0.1-0.2-0.1-0.2l-0.5,0.4l-1.1,1.6c0.2,0,0.4,0,0.6,0l-0.9,1.2l-0.6,0.3l0.1,0.5l-0.2,0.3c-0.3,0.1-0.6,0.2-0.9,0.5
	c-0.4-0.9-0.6-1.9-0.9-2.9c-0.2-0.5-0.3-1-0.4-1.6c-0.1-0.1-0.2-0.2-0.3-0.4s-0.2,0.1-0.2,0.2l0,0L36,51.5c0.1-0.1,0.2-0.2,0.4-0.2
	c-0.2-0.7-0.3-1.3-0.5-2c0-0.2-0.3-0.4-0.5-0.4H21.7c-0.3,0-0.4,0.1-0.3,0.4s0,0.3,0.1,0.4s0.3,0.3,0.7,0.5c0.1,0.4,0.2,0.8,0.2,1.2
	c-0.2,0.1-0.3,0.3-0.3,0.5l0.1,0.4h0.4c2.1,6.7,4.1,13.3,6,20l0,0c-0.7,0.2-1.1,0.3-1.1,0.5s0.2,0.2,0.4,0.3v0.1L28,73.5l0.5-0.2
	v0.1L27,75.4l0,0c-0.4,0.1-0.8,0.3-1.1,0.6c-0.1,0.2,0.2,0.4,0.9,0.5h-0.7l-2.7,3.7c-0.3,0-1.7,2.1-2,2.3S21.3,83,21.6,83L20.8,84
	c-0.3,0.1-0.6,0.3-0.8,0.5l-1,1.4c0,0.2,0,0.4,0,0.6l-2.2,2.9l-0.6,0.2c0,0.2,0,0.4,0.1,0.5l-1.1,1.5H15c-0.3,0-0.6,0.2-0.8,0.4
	c-0.1,0.2-0.2,0.3-0.3,0.5h-0.1c0,0.1,0,0.3,0,0.4h0.1c0,0.1,0,0.2,0,0.2l0,0l-0.2,0.3c-0.3,0.1-0.6,0.2-0.8,0.4
	c0,0.2,0.1,0.3,0.2,0.4l-1.7,2.3h-0.5l-0.3,0.4c0,0.3,0,0.4,0.1,0.5l-0.8,1.3C9.3,98.8,9,99,8.6,99.3l-0.3,0.4
	c-0.2,0.2-0.1,0.4,0.2,0.4h15.5c0.3,0,0.6-0.1,0.8-0.4c1.8-2.7,3.5-5.3,5.2-8l0.4-0.2l-0.1-0.3l0.5-0.6c0.4-0.2,0.8-0.4,1.1-0.8
	l0.1-0.2h-0.5l0.5-0.8l0,0c0.3,0,0.6-0.1,0.7-0.4l0.1-0.2l0.1,0.2c0.1,0.3,0.3,0.4,0.6,0.4h0.2c0.1,0.2,0.2,0.5,0.3,0.7
	c-0.2,0-0.5,0-0.7,0c0,0.1,0,0.1,0.1,0.2c0.2,0.5,0.6,0.8,1,0.9c0,0.1,0.1,0.2,0.1,0.3l-0.3,0.5l0.6,0.3c0.7,1.9,1.5,3.7,2.3,5.6
	c-0.2,0.2-0.4,0.4-0.5,0.4c0.3,0.6,0.5,1.3,0.8,1.9c0.1,0.3,0.4,0.4,0.6,0.4h15.6c0.3,0,0.4-0.1,0.3-0.4L54,99.3
	c-0.1-0.1-0.3-0.3-0.7-0.4c-0.2-0.5-0.4-0.9-0.6-1.4c0.1-0.1,0.1-0.2,0.1-0.3l-0.2-0.4h-0.3c-0.4-0.8-0.7-1.7-1.1-2.5
	c0-0.1,0.2-0.1,0.2-0.2c-2.3-6-4.6-11.9-7-17.9c0-0.1-0.1-0.1-0.3-0.2c-0.3-0.9-0.5-1.7-0.8-2.6l0.2-0.3c0.1,0,0.2-0.1,0.3-0.2
	c0-0.1,0-0.1-0.1-0.2c0.9-1.4,1.7-2.8,2.6-4.1c0.2-0.1,0.4-0.2,0.5-0.3c0.1-0.2,0.1-0.3,0-0.3l0.9-1.3c0.2-0.1,0.3-0.2,0.4-0.3
	l0.9-1.4c0-0.1,0-0.2,0-0.3c0.7-1.1,1.5-2.1,2.2-3.2l0.3-0.1c0-0.1,0-0.2,0-0.3l1.1-1.6l0,0c0.3,0,0.5-0.1,0.7-0.4
	c0.2-0.4,0.3-0.8,0.3-1.2l0,0c0.3-0.4,0.6-0.8,0.8-1.3l0.3-0.1c0-0.1,0-0.3,0-0.4l0,0l0.4-0.7c0.2-0.1,0.3-0.2,0.5-0.3
	c0-0.1-0.1-0.2-0.1-0.2C56.2,53.9,56.7,53.1,57.3,52.2z M29.6,89.4l-1.2,0.1c0-0.1,0-0.1,0-0.2h1.3L29.6,89.4z M31.9,87.6h-0.6
	l-1,0.4l-0.2-0.2l0.1-0.2h0.2l0.4,0.2c0.2-0.4,0.5-0.6,0.9-0.6C32,87.2,32.1,87.3,31.9,87.6z M33.2,87.6c-0.1,0-0.1,0-0.1,0
	s-0.1,0-0.1,0l0,0l0.3-0.5c0.1,0.2,0.1,0.3,0.2,0.5H33.2z M35.3,59.4l1.1,0.1l0,0h-1.1C35.3,59.5,35.3,59.5,35.3,59.4z M36.8,61.2
	l-0.4,0.2h-0.2v-0.2l0.3-0.2L36.8,61.2C36.9,61.1,36.8,61.2,36.8,61.2z M37.1,61.6c-0.1-0.1-0.1-0.2-0.2-0.3c0,0,0,0,0.1,0h0.2
	L37.1,61.6z M38.3,59.4h0.2v0.1l-0.2,0.3c0-0.1-0.1-0.3-0.1-0.4L38.3,59.4z M37.9,58.4l-0.2-0.6v-0.1c0.1,0.3,0.2,0.6,0.4,0.8
	C38.1,58.5,38,58.5,37.9,58.4L37.9,58.4z M38.2,76.7L38.2,76.7z M38.2,72l0.1-0.1h1c-0.2,0.2,0,0.4,0.7,0.4l0,0.1l-0.5-0.1L38.2,72z
	 M39,80.5l-0.1-0.1h0.3C39.2,80.4,39,80.5,39,80.5L39,80.5z M39.2,80L39,79.8l0.2-0.3h0.3c0,0.1,0,0.1,0.1,0.2
	C39.7,79.9,39.5,80,39.2,80L39.2,80z M39.8,74.4l-0.1-0.2h0.5L40,74.4C40,74.4,40,74.5,39.8,74.4C39.9,74.5,39.8,74.4,39.8,74.4
	L39.8,74.4z M40.3,81.6c-0.1,0-0.2-0.1-0.3-0.2l0.5,0.1l0.1,0.1H40.3z M40.4,80.6c-0.2-0.1-0.3-0.2-0.5-0.3l0.8-0.2H41l0.1,0.2
	C40.8,80.4,40.6,80.5,40.4,80.6L40.4,80.6z M41.7,67.4h0.2c0,0-0.1,0.1-0.1,0.1l-0.5,0.1C41.4,67.5,41.5,67.4,41.7,67.4L41.7,67.4z
	 M41.9,68.8h-0.1c0-0.1-0.1-0.2-0.1-0.3c0.1,0.1,0.3,0.1,0.4,0.1L41.9,68.8z M45.7,95H47c0.1,0.2,0.2,0.4,0.2,0.6H47
	C46.2,95.4,45.8,95.2,45.7,95z M48.1,98.5c-0.3-0.1-0.7-0.2-1-0.2l0,0c0.3,0,0.6-0.1,0.9-0.2l0.3,0.3L48.1,98.5z M48.3,95.8h0.2
	l0.4,1c-0.4-0.1-0.7-0.3-1-0.6C47.9,95.9,48,95.8,48.3,95.8L48.3,95.8z M47.4,93.2l-0.2-0.1c0-0.1,0-0.1,0-0.2L47.4,93.2z
	 M44.8,88.8c0.5,0.3,1.1,0.4,1.7,0.4l0.2,0.4h-1.2c-0.3,0-0.6-0.1-0.7-0.4c0-0.1-0.1-0.3-0.2-0.4L44.8,88.8z M44.4,91.6
	c0.1,0,0.2,0.1,0.3,0.1h0.2c0.3-0.1,0.6-0.3,0.9-0.5c0.4,0.1,0.7,0.3,1,0.5c0.1,0.1,0,0.2-0.2,0.2l0.7,1l-0.5-0.2
	c0,0.1,0,0.3-0.1,0.4l0.5,0.2l0,0H47c-0.9-0.1-1.8-0.4-2.6-0.8c-0.1-0.2-0.2-0.4-0.2-0.6C44.2,91.8,44.3,91.7,44.4,91.6L44.4,91.6z
	 M45.9,63l-0.1,0.1c-0.2,0.1-0.4,0.1-0.6,0.2C45.4,63.1,45.7,63,45.9,63L45.9,63z M42.8,85.8c0.1,0.1,0.2,0.1,0.4,0.1v0.1
	c-0.2,0-0.3-0.1-0.5-0.2L42.8,85.8z M43.5,92.7h-0.1c-0.3-0.1-0.6-0.1-0.9-0.1c0-0.1-0.1-0.2-0.1-0.3h0.5
	C43.1,92.2,43.4,92.4,43.5,92.7L43.5,92.7z M43.5,72.5c-0.1,0-0.2-0.1-0.3-0.1c0.6-1.1,1.4-2.5,2.3-4.2h0.1c0.1-0.1,0.1-0.2,0.1-0.3
	l0.2-0.3H46C45.7,68.2,44.6,70.4,43.5,72.5L43.5,72.5z M47.5,56.7H47l0.2-0.3c0.3,0,0.6-0.1,0.9-0.2h0.1
	C48,56.6,47.8,56.7,47.5,56.7L47.5,56.7z M49.9,59.8c-0.6,0-1.1,0.1-1.6,0.4H48l0.3-0.4c0.2-0.2,0.4-0.4,0.7-0.4h1.2L49.9,59.8z
	 M51.7,56.1v-0.2l0.2-0.1C51.8,55.9,51.8,56,51.7,56.1z M53.1,50.7L53.1,50.7c0.3,0,0.6-0.1,0.9-0.2l0.3,0.1
	c-0.1,0.1-0.3,0.2-0.4,0.3C53.7,50.7,53.4,50.7,53.1,50.7L53.1,50.7z M53.7,53.2h-0.2c-0.3,0-0.3-0.1-0.2-0.4
	c0.3-0.3,0.7-0.5,1.1-0.6L53.7,53.2z"/>
<path fill="#ED1846" d="M202.7,93.1c-1.2-6-2.5-12.1-3.9-18.1c-0.2-0.3-8.2-3.6-23.2-10c-0.5-0.6-1.1-1.2-1.9-1.5
	c-0.4,0.1-0.7,0.2-1.1,0.3c-0.1-1-0.2-2-0.3-3c0,0.4,0.2,0.7,0.4,1c0.5-0.3,0.8-0.6,0.7-0.8c0.5-0.2,0.8-0.5,0.7-1h5.7
	c0.1,0.4,0.2,0.9,0.3,1.3c0.1,0.3,0.4,0.1,0.5,0.4c0.2,0.5,0.4,1,0.7,1.3H181c-0.3,0-0.4,0.1-0.4,0.4l0.1,0.6l0.3,0.4
	c6.8-0.7,10.5,0.2,10.4-0.2l-0.4-1c0.1,0,0.2-0.2,0.2-0.5l2.5,0.7c0.1,0.3,0.1,0.5,0.2,0.8h0.4c1.1,0,1.7-0.2,1.6-0.6
	c-0.7-2.7-1.4-5.4-2.1-8.1c-3-2.1-6-4.2-9-6.4h-3.4l-0.7,0.8c-0.3,0-0.5-0.2-0.6-0.7c0.2-0.1,0.2-0.2-0.1-0.3s-4.4,0.1-4.4,0.4
	c-0.3,0-0.4,1.1-0.6,1l-0.3-0.7c0.1,0,0.2,0,0.3,0c-0.1-0.2-0.3-0.4-0.5-0.4H173l0,0c-0.3,0-0.6,0-0.9,0l0,0h-0.9v0.1
	c-1.2,0.1-2.3,0.3-2.4-0.1h-0.6c-0.6,0.6-3,0-3.2,0s-0.2,0-0.2,0.1c-0.8,0.3-2.9,2.6-6.5,6.9l0.6,4c0.1,0.9,0.4,1.4,0.9,1.6h1.5
	c0,0.2,0.1,0.5,0.1,0.8c-0.6,0.1-0.9,0.3-0.8,0.6c0.1,0.1,0.2,0.2,0.3,0.4c-0.1,0-0.2,0.1-0.2,0.2l-0.5-0.2H160
	c-0.2,0-0.4,0.1-0.4,0.3c0,0,0,0.1,0,0.1c0.1,1,0.3,2.1,0.5,3.1h0.2l0.8-0.6c0.1,0.3,0.1,0.6,0.1,1c-0.7,0-1.1,0.1-1.1,0.4
	c0.2,1.4,0.4,2.8,0.6,4.2c0.9,0.7,7.1,3.5,19,8.5h0.5L180,80c0.5,0,1.1-0.1,1.6-0.4l0.3,0.4c0,0.1,0.1,0.3,0.1,0.4
	c-0.2,0-0.5,0.1-0.7,0.2l-0.5-0.2h-0.5c1.3,0.8,2.7,1.5,4.1,2.1c0.4,2.1,0.7,4.1,1.1,6.2h-5.9c-0.2-1.1-0.4-2.2-0.5-3.3l-0.3-0.6
	c0.1,0,0.2-0.1,0.2-0.4l-0.4-0.8l0.2-0.4l-0.5-0.2c-8.8,0.3-15.9,0-15.9,0c0.3,2.6,0.7,5.1,1,7.7c1,1.8,1.6,2.7,2,2.7
	c-0.1,0.1-0.1,0.2-0.2,0.4c0.5,0.5,0.8,0.8,1.1,0.8h0.2c0.4-0.2,0.7-0.4,0.6-0.6c0.4,0.4,0.8,0.7,1.3,1l0.5-0.2
	c0,0.2,0.1,0.4,0.1,0.6c-0.4,0.1-0.8,0.3-1.1,0.6c1.7,1.4,3.4,2.7,5.3,3.9h22.5c1.9-1.4,2.7-2.5,2.6-3.1l0.5,0.2
	c1.1-0.7,1.7-1.4,1.6-1.9C200.9,95,201.7,94.4,202.7,93.1z M192.4,59.5l0.5,0.2c0.1,0.2,0,0.4-0.3,0.4h-0.2c-0.2,0-0.5-0.1-0.5-0.4
	C192,59.7,192.2,59.6,192.4,59.5L192.4,59.5z M191.5,60.3h0.4c0.1,0.3-0.1,0.5-0.4,0.8C191.5,60.9,191.5,60.6,191.5,60.3L191.5,60.3
	z M185,64h-1.1c0-0.1,0.1-0.3,0.1-0.4c0.2,0,0.5,0.1,0.7,0.2l0.4-0.2h0.2C185.5,63.8,185.3,64,185,64L185,64z M189.2,62l0.2,0.8
	c-0.4,0-0.7,0-1.1,0.2l-0.3-0.4C188,62.4,188.4,62.2,189.2,62L189.2,62z M183.2,52.6c0.3,0,0.6,0.4,1,1.3c-0.1,0.5-0.2,0.8-0.5,0.8
	c-0.5-0.2-0.7-0.4-0.8-0.6s-0.1-0.6-0.2-1C182.9,52.8,183.1,52.6,183.2,52.6L183.2,52.6z M184.2,62.2l1.9-0.2
	c0.1,0.4,0.4,0.6,0.8,0.6l0.1,0.4c-0.3,0-1.2-0.1-2.5-0.2c-0.2,0-0.3,0.1-0.4,0.3c0,0,0,0.1,0,0.1l-0.5-0.2h-0.2l-0.4,0.2
	c0-0.1-0.1-0.2-0.2-0.2c0.1-0.5,0-1.1-0.2-1.6C183.7,61.7,184.2,62,184.2,62.2L184.2,62.2z M178.3,50.3l-0.3,0.2
	C178.1,50.5,178.1,50.4,178.3,50.3L178.3,50.3z M178,55.7h0.4c0,0.2,0.1,0.4,0.1,0.6c-0.4,0-0.9,0-1.3,0.2c0-0.1,0-0.3-0.1-0.4
	C177.5,56,177.7,55.9,178,55.7L178,55.7z M175.6,52.6c0,0.1-0.1,0.3-0.1,0.4c-0.2,0-0.5-0.2-0.5-0.4H175.6z M174.8,55.1h1.3
	c0.1,0.2,0.1,0.5,0.2,0.8c-0.1,0.2-0.2,0.4-0.3,0.6l-1.6-0.2C174.6,55.9,174.8,55.5,174.8,55.1L174.8,55.1z M160.3,56.3
	c0-0.2-0.3-0.3-0.9-0.4l-0.1-0.4c0.1,0,0.2,0.1,0.2,0.2l0.4-0.2h1.3c0.2,0,0.5,0.1,0.5,0.4v0.2C161.2,56.1,160.7,56.1,160.3,56.3
	L160.3,56.3z M164.2,56.1l-1.5,0.2c0-0.2-0.2-0.3-0.5-0.4c0-0.2,0.1-0.3,0.4-0.4h2c0,0.2,0.1,0.4,0.1,0.6L164.2,56.1z M167.2,67.4
	c-0.2-0.1-0.5-0.2-0.7-0.2l-0.1-0.8h0.2c0.2,0,0.5,0.3,0.8,0.8C167.2,67.3,167.2,67.3,167.2,67.4L167.2,67.4z M166.7,56.1
	c-0.2,0-0.4-0.1-0.5-0.4c0-0.1,0-0.1,0-0.2l1.1,0.2l0.1,0.4H166.7z M168.6,50.1c0-0.1,0-0.1,0-0.2c-0.1-0.2,0.1-0.3,0.3-0.4
	c0,0.1,0,0.1,0,0.2C169,50,168.9,50.1,168.6,50.1L168.6,50.1z M173.2,66.8l-0.1-0.2v-0.2c0-0.1,0-0.1,0-0.2c0.5,0.2,0.7,0.4,0.8,0.6
	L173.2,66.8z M170.1,95.4c0-0.2-0.1-0.4-0.1-0.6h0.5c0,0.2,0,0.4,0.1,0.6H170.1z M173.9,95.4h-0.5v-0.2c0-0.2,0.1-0.4,0.4-0.4
	l0.5,0.2C174.4,95.3,174.3,95.4,173.9,95.4L173.9,95.4z M175.1,95.4h-0.2v-0.2c0-0.3,0.6-0.5,1.8-0.6c0,0.2,0.1,0.4,0.1,0.6
	L175.1,95.4z M177.4,92.9c-1.6-0.1-2.4-0.3-2.5-0.6v-0.2h0.7l1.2,0.2c0-0.2,0.1-0.4,0.4-0.4h0.2l0.1,0.6L177.4,92.9z M179.1,91.7
	l0.1,0.6h-0.5l-0.1-0.6H179.1z M178.6,93.3c0-0.2-0.1-0.4-0.1-0.6c0.5,0.2,1,0.4,1.5,0.4v0.2H178.6z M183.7,93.7l-0.1-0.6h0.5v0.2
	C184.2,93.5,184.1,93.7,183.7,93.7L183.7,93.7z M198.3,84c0.1,0.3-0.1,0.4-0.4,0.4h-0.5c0.1-0.2,0.1-0.4,0.1-0.6h0.7L198.3,84z
	 M197.7,82.3l-0.1,0.4c-0.5-0.2-0.8-0.4-0.8-0.6c0.2,0,0.4-0.1,0.6-0.2L197.7,82.3z M196.7,85.6l0.5,0.2c0,0.3-0.1,0.4-0.4,0.4h-0.2
	c0-0.1,0-0.1,0-0.2C196.6,85.8,196.7,85.7,196.7,85.6L196.7,85.6z M196.4,85.2c0-0.2,0.1-0.4,0.4-0.4h0.2l0.1,0.4H196.4z
	 M195.8,76.9c0.2,0,0.6,0.3,1.1,1c0,0.1,0,0.1,0,0.2h-0.2c-0.7-0.3-1.1-0.6-1.1-0.8l-0.1-0.4L195.8,76.9z M184.5,80.2h0.7
	c0,0.1,0,0.2,0.1,0.4c-0.2-0.1-0.5-0.2-0.7-0.2L184.5,80.2z M185.3,82.1h-0.2l-0.5-0.2c0.1-0.5,0.3-0.8,0.6-0.8
	c0.3,0,0.5,0.1,0.5,0.4c0,0,0,0,0,0c0,0.1,0,0.1,0,0.2C185.7,82,185.6,82.1,185.3,82.1L185.3,82.1z M187.7,80.2l-0.1-0.6l0.5,0.2
	C188.2,80.1,188.1,80.2,187.7,80.2z M189.2,95c0-0.2-0.1-0.4-0.1-0.6h0.7l0.1,0.6H189.2z M190.8,87.5c0-0.1-0.1-0.3-0.1-0.4h0.2
	c0.3,0,0.5,0.1,0.6,0.4v0.2C191.2,87.6,191,87.5,190.8,87.5L190.8,87.5z M195.6,80.2h-0.2c0-0.1,0-0.3-0.1-0.4h-0.2l0.1,0.4h-0.7
	c0.1-1,0.3-1.6,0.6-1.6c0.7,0.3,1,0.6,1.1,0.8v0.2C196,80,195.8,80.2,195.6,80.2L195.6,80.2z M196.8,88.3l0.2-0.4
	c0-0.1-0.1-0.3-0.1-0.4c-0.2-0.2-0.4-0.4-0.6-0.6v-0.2c0.8,0.1,1.5,0.5,2.1,1c-0.2,0.2-0.3,0.5-0.3,0.8
	C197.6,88.5,197.2,88.5,196.8,88.3L196.8,88.3z M198.5,91.9H198c0,0.2,0.1,0.4,0.1,0.6h-0.2c-0.2,0-0.5-0.1-0.5-0.4v-0.2h0.7
	c0-0.1-0.1-0.2-0.3-0.2c0.1-0.3,0.1-0.7,0-1h1l-0.4,0.6v0.2h0.5c-0.1-0.4,0.1-0.6,0.6-0.6h0.3l0.1,0.8c-0.4,0.1-0.8,0.2-1.1,0.5
	C198.7,92,198.6,91.9,198.5,91.9L198.5,91.9z M199.9,94.3h-0.2l-0.5-0.2c0-0.2,0.1-0.4,0.4-0.4c-0.1-0.3-0.3-0.6-0.4-1v-0.2
	c0.7,0.3,1.1,0.6,1.1,0.8s0.1,0.4,0.1,0.6S200.2,94.3,199.9,94.3L199.9,94.3z M199.5,87.5l-1.9-1l0.2-0.4l-0.3-0.4h0.5l0.5,0.2
	l-0.1,0.4c0,0.3,0.7,0.4,2,0.4v0.2C199.7,87,199.4,87.2,199.5,87.5L199.5,87.5z"/>
<path fill="#ED1846" d="M125.5,54.5c0-0.3,0-0.5,0-0.8h-0.4c0,0.2,0,0.5,0,0.8H125.5z"/>
<path fill="#ED1846" d="M153.1,65.5c-0.1-0.5-0.3-1.1-0.6-1.5l-0.3,0.1c0-0.2-0.1-0.4-0.1-0.5h0.4c0-0.1,0-0.3,0-0.4l-0.3-0.4
	c-0.1,0-0.2,0-0.3,0.1l-1.2-4.7c-1.7-6.2-2.7-9.3-3.2-9.3h-17.9c0,0.4-0.1,0.6-0.4,0.6s-0.4-0.2-0.5-0.6h-0.6
	c-0.2,0-0.6,0.5-1.2,1.3c0.4,0.3,0.7,0.8,0.9,1.2c-0.8,2.2-1.5,4.3-2.3,6.5c0.1-0.5,0.2-1,0.2-1.6c-0.2-0.5-0.3-1-0.3-1.6h-0.4
	c-0.7,5.6-1.1,8.8-1,9.6l0.5,0.6c0,0.1,0,0.1,0,0.2l-0.5-0.2h-0.4c0,0.5,0,1,0.1,1.5l0.2,0.4c-0.4,0-1,2.8-1.7,8.3h0.5
	c0-0.3,0.3-0.6,0.9-1c1.1,0,1.8,0.3,2.1,1c-0.7-0.1-1.4-0.2-2.1-0.4c-0.5,0-0.7,0.2-0.7,0.8h-0.2l-0.5-0.2c-0.4,1.7-1.6,9.1-4,22.2
	c-0.3-16.1-0.7-32.3-1.2-48.5c0-0.2-0.2-0.3-0.4-0.4H95.5c-0.1,0-0.2,0.1-0.2,0.2c-0.4,0-2.2,8.3-5.9,24.9c0,0.6,0.1,1.3,0.1,1.9
	c-0.5,0-0.7,1-0.8,2.9c0,0.5,0.1,1,0.2,1.6c-0.3,0-0.5,0.3-0.5,0.8h-0.2c0-1,0-2.8-0.2-5.4c-0.5,0-1,0.1-1.4,0.4
	c0-0.3-0.2-0.6-0.4-0.8l0.2-0.4c0.2,0,0.2,0.1,0.2,0.2l1.2-0.2c0-0.1,0-0.3,0-0.4c0.1-2.3-0.4-6.7-1.5-13.1
	c-0.8-8.4-1.3-12.5-1.7-12.5H71.3l-0.4,0.2c0,0.3,0.1,0.6,0.1,1v0.2c-0.1,0.7-0.3,1-0.8,1.2H70c-0.3,0-0.5-0.4-0.5-1.2
	c0.1-0.4,0.2-0.9,0.4-1.3h-6.4c-0.2,0-0.4,0.2-0.5,0.4c-0.7,5-1.4,10-2.1,15c0,0.2,0.1,0.4,0.4,0.4h0.2l1.1-0.2l0.2,0.4v0.2h-1.4
	l-0.4-0.2l-0.3,0.4c-0.5,4.1-1.1,8.2-1.5,12.3c0,0.3,0.1,0.4,0.4,0.4c-0.3,0.3-0.5,0.7-0.6,1.2c0,0.1,0,0.3,0,0.4
	c0.4,0,0.7-0.1,0.9-0.1c0,0.3-0.1,0.6-0.1,1c-0.6,0.1-0.9,0.3-1,0.5c-0.3,2.5-0.6,5-0.8,7.5c0,0.3,0.1,0.6,0.1,1
	c-0.2,0-0.3,0.2-0.3,0.6c0,0.4-0.1,0.9-0.1,1.4c-0.2,0.6-0.2,1.3-0.2,1.9c0,0.2,0,0.5-0.1,0.8c0.2,0.5,0.6,0.8,1.1,0.8l-1.3,0.8
	c-0.1,1.3-0.3,2.6-0.4,3.9c0,0.2,0.1,0.4,0.4,0.4h1l0.5-0.2c0,0.1,0.1,0.2,0.2,0.2h12.3c0.3,0,0.5-0.1,0.5-0.4l0.2-2.1
	c0-0.5,0.1-1,0.1-1.6c0.1-1.5,0.2-3,0.3-4.4c0.2-2.8,0.4-5.6,0.7-8.5c0-0.2-0.1-0.4-0.4-0.4c0,0,0,0,0.1-0.1s0.3-0.3,0.4-0.5
	c0-0.3,0.1-0.6,0.1-1c0-0.1,0-0.1-0.2-0.2c0.1-0.4,0.1-0.8,0.2-1.2l0.1-0.1v-0.2c0,0,0,0-0.1-0.1c0.1-0.8,0.2-1.5,0.2-1.6l0.2-1.7
	c0-0.3-0.3-0.5-0.9-0.6l0.1-1.4c0.3,0,0.4,0.1,0.4,0.4l0.5-0.2c0-1.5,0-2.6,0.1-3.3s0.1-1.4,0.2-2.1c0-0.6,0-1.2-0.1-1.7
	c0.1,0,0.3-1.3,0.6-4h0.2c0,0.6,0.1,4,0.7,10.2c-0.1,1.4,0.4,2.1,1.7,2.1L77.1,76H76v0.2c-0.1,0.9,0.1,1.4,0.6,1.6h0.2
	c0.8,0,1.6-0.1,2.3-0.2l1.1,0.2c0.8,0,1.6-0.2,2.3-0.6h0.7l1.1,0.2c0-0.1,0.1-0.2,0.2-0.2c0.4,0.2,0.7,0.4,0.7,0.6v0.2H85l-1.1-0.2
	l-0.2,0.4l-1.2-0.2h-0.7c-0.2,0-0.5,0.2-0.5,0.4c-0.5,0-0.9-0.1-1.4-0.4c-0.5,0-1,0.2-1.4,0.4c0-0.1,0-0.1,0-0.2
	c-1.4,0.1-2.1,0.4-2.1,0.8v0.4l0.2,0.4c0.6,0,1.1,0.3,1.4,0.8c-0.7,0.1-1.2,0.1-1.3,0.1l-0.1,0.8c-0.1,0.9,0.8,1.4,2.7,1.5l0,0
	c-0.3,1-0.6,1.5-1,1.5h-0.5l-0.4-0.2c0,0.1-0.1,0.2-0.2,0.2c0,1,0.2,1.5,0.4,1.5c0,2.3,0.3,4.6,1,6.8c0.1,1.2,0.6,1.9,1.5,1.9
	c1.8-0.3,2.7-0.6,2.7-0.8c0.3,0,0.5,0.1,0.5,0.4s-0.6,0.5-1.7,1v-0.2l-1.2,0.2h-0.5l-0.5-0.2c0,0.1-0.1,0.2-0.3,0.2
	c0.4,3.1,0.8,4.6,1.2,4.6h14.5c0.3-0.2,1.2-3.3,2.6-9.4c-0.1-0.1-0.2-0.3-0.2-0.4s0.2-0.4,0.5-0.4c2.6-9.1,4.6-18.3,6-27.6h0.2v3.3
	c0,0.8-0.2,5-0.6,12.4c-0.1,7.3-0.2,14.5-0.2,21.8c0,0.2,0.2,0.4,0.5,0.4h14c0.1,0,0.3,0,0.4-0.1c0.1,0.1,0.2,0.1,0.3,0.1h9.4
	c0-0.6,0.1-1,0.4-1h0.5c0.1,0.6,0.3,1,0.8,1h5.8c0.2,0,0.5-0.3,0.7-1c0.1-4.9,0.3-7.5,0.8-7.5h7.6c1.2,5.5,2,8.4,2.3,8.4h1.7
	l1.5,0.2c0.4-0.1,0.8-0.2,1.2-0.2h1.5l1.2,0.2c0-0.1,0.1-0.2,0.2-0.2c0.3,0,0.5,0.1,0.7,0.2l1.4-0.2c0.3,0,0.7,0.1,1,0.2
	c0.3-0.1,0.6-0.2,0.9-0.2h5.6l0.5-0.2c-6.5-21.3-10.2-32.6-11-33.7C153,65.8,153,65.6,153.1,65.5z M125,62.3c0,0.4,0,0.8,0,1.2
	c-0.1,0-0.3-0.1-0.4-0.1v-0.6C124.7,62.6,124.9,62.4,125,62.3z M124.6,72.7c0.1-0.2,0.2-0.4,0.2-0.6h0.2c0,0.2,0,0.4,0,0.6H124.6z
	 M124,69.4c-0.2-0.5-0.3-1-0.5-1.5v-0.2l1.7,0.5c0,0.2,0,0.4,0,0.6C125.1,69.2,124.7,69.4,124,69.4z M125.3,58.4L125.3,58.4
	c0-0.1,0.1-0.1,0.1-0.1L125.3,58.4z M71.5,77.3h0.7l0.1,1c-0.4,0.1-0.8,0.2-1.2,0.3C71.2,78.2,71.4,77.7,71.5,77.3z M70.1,93.3
	c0,0.3-0.2,0.4-0.5,0.4c0-0.2-0.1-0.4-0.2-0.6h0.2L70.1,93.3z M69.7,83.2c0-0.2,0-0.4,0-0.6H70c0,0.3,0,0.5-0.1,0.8
	C69.9,83.3,69.8,83.2,69.7,83.2z M69.7,76.7c0.3,0.8,0.5,1.6,0.4,2.4c-0.1,0.1-0.2,0.2-0.2,0.3c0.1,0.1,0.1,0.2,0.2,0.4
	c0,0.6,0,1.1,0,1.6l-0.3,0.1C69.8,79.4,69.7,77,69.7,76.7z M69.5,84h0.2l-0.3,0.8h-0.7v-0.2C69,84.2,69.2,84,69.5,84L69.5,84z
	 M68.2,75.2l0.9-0.2h0.2c-0.1,0.2-0.2,0.4-0.3,0.6h-0.9C68.2,75.4,68.2,75.3,68.2,75.2z M63.9,81.7c0.2,0,0.2,0.1,0.2,0.2l1.2-0.2
	c0,0.1,0,0.3,0,0.4c-0.3,0.4-0.5,0.6-0.8,0.6h-0.2c0-0.4-0.2-0.6-0.6-0.6L63.9,81.7z M65.5,86.2c0,0.2-0.2,0.4-0.5,0.4h-0.2l0.1-0.6
	h0.2L65.5,86.2z M63.7,83.5c0.3,0,0.5,0.1,0.4,0.4v0.4h-0.2l-0.7-0.4C63.2,83.6,63.4,83.5,63.7,83.5z M62.6,74.8l0.6,0.4
	c0,0.3-0.2,0.4-0.5,0.4h-0.2L62.6,74.8z M62.1,79c0,0.4,0.1,0.8,0.1,1.2v0.2c-0.1,0-0.1,0-0.2,0C62,79.9,62,79.5,62.1,79L62.1,79z
	 M61,98.9c-0.2,0-0.4-0.1-0.4-0.3c0,0,0,0,0-0.1c0-0.2,0.2-0.4,0.5-0.4h0.2l1.2,0.2C62.4,98.7,61.9,98.9,61,98.9L61,98.9z
	 M63.3,89.8c-1.9-0.1-2.8-0.3-2.8-0.6l1.4-0.2l0.5,0.2l0.5-0.2c0.2,0,0.3,0.2,0.4,0.6L63.3,89.8z M64.9,96.4h-0.5
	c-0.5-0.2-0.7-0.4-0.7-0.6s0.1-0.5,0.1-0.7l0.2-0.3c1.1,0.3,1.6,0.6,1.6,1C65.4,96.2,65.1,96.4,64.9,96.4L64.9,96.4z M65.5,92.3
	c0-0.1-0.1-0.2-0.2-0.2h-0.5l-0.4,0.4c0.1-0.4,0.2-0.8,0.2-1.1c0,0.1,0.1,0.2,0.2,0.2H65c0-0.3,0-0.5,0.1-0.8
	c0.4,0.4,0.8,0.7,1.3,0.8C66.3,92,65.9,92.3,65.5,92.3L65.5,92.3z M67.6,83.6l0.3,0.1c0,0.2,0,0.4-0.1,0.5h-0.5L67.6,83.6z
	 M67.6,94.6v-0.2h1c0.3,0,0.6,0.1,0.9,0.2c0.2,0.2,0.4,0.5,0.7,0.7c-0.3,0.1-0.7,0.1-1,0.2C68.1,95.3,67.6,94.9,67.6,94.6L67.6,94.6
	z M70,98.5v-0.6h0.5c0,0.2,0.1,0.4,0.2,0.6H70z M71.3,88.2h-0.9c0-0.2,0-0.4,0.1-0.6l0.3-0.4c0.5,0.2,0.7,0.4,0.7,0.6L71.3,88.2z
	 M70.8,79.9L70.8,79.9l0.1-0.3l0.4-0.1h1.1c0,0.3,0,0.6,0.1,0.9C72.1,80.4,71.5,80.2,70.8,79.9L70.8,79.9z M73.5,70.3H73
	c0-0.3-0.1-0.7-0.1-1v-0.1c0.3-0.4,0.5-0.6,0.7-0.6c0,0.3,0,0.5,0.2,0.8C73.6,69.4,73.5,69.7,73.5,70.3L73.5,70.3z M76,70.5h-0.2
	c0-0.2,0-0.4,0.1-0.6h0.4C76.1,70.1,76,70.3,76,70.5L76,70.5z M81.7,63.4h0.7v0.4c0,0.3-0.2,0.4-0.5,0.4h-0.2L81.7,63.4z M77.9,69
	l0.7,0.4c-0.1,0.2-0.2,0.4-0.3,0.6H78c0-0.2-0.1-0.4-0.2-0.6L77.9,69z M78.3,75.7c-0.2,0-0.4-0.1-0.4-0.3c0,0,0,0,0-0.1v-0.1
	l0.9,0.2C78.7,75.6,78.6,75.7,78.3,75.7L78.3,75.7z M78.8,74.9c0-0.2,0-0.4,0-0.6h0.4c0,0.1,0,0.1,0,0.2
	C79.2,74.8,79.1,75,78.8,74.9L78.8,74.9z M80.4,75.5l-1.2,0.2c0-0.1,0-0.3,0-0.4h1.2V75.5z M79.6,70.5h-0.2c-0.2,0-0.4-0.1-0.4-0.3
	c0,0,0,0,0-0.1v-0.4c0.5,0,0.9-0.2,1.2-0.6l0.4,0.2C80,69.5,79.6,70,79.6,70.5L79.6,70.5z M82.9,75.7c-0.4-0.2-0.9-0.2-1.4-0.2v-0.2
	l1.2-0.2l0.4,0.2L82.9,75.7z M81.1,81.7h0.2c0,0.3,0,0.5,0,0.8h-0.2c-0.2,0-0.4-0.1-0.4-0.3c0,0,0,0,0,0
	C80.6,81.9,80.8,81.8,81.1,81.7L81.1,81.7z M80,82.3h0.1v0.4h-0.1C80,82.6,80,82.4,80,82.3L80,82.3z M80.9,84.6
	c-0.3,0-0.7-0.2-0.9-0.4c0.1-0.2,0.2-0.4,0.3-0.6h0.9l0.9,0.1l0.1,0.4C81.8,84.3,81.3,84.4,80.9,84.6L80.9,84.6z M83.1,93.1h-0.2
	c-0.2,0-0.4-0.1-0.5-0.3c0,0,0,0,0-0.1c0-0.2,0.2-0.4,0.5-0.4h0.2C83.1,92.6,83.1,92.8,83.1,93.1L83.1,93.1z M81.6,98.5h-1
	c0-0.2,0.2-0.4,0.5-0.4h0.5C81.6,98.2,81.6,98.4,81.6,98.5L81.6,98.5z M88.7,84c0.2,0,0.5-0.1,0.7-0.2c0,0.1,0.1,0.2,0.2,0.2
	l-0.2,0.4c-0.2-0.1-0.5-0.2-0.7-0.2V84z M84.3,82.3h-0.7v-0.2c0.1-0.1,0.2-0.2,0.3-0.4c0.3,0,0.5,0.1,0.4,0.4L84.3,82.3z M85,82.7
	h-0.3l0.3-0.8c0.3,0,0.5,0.1,0.4,0.4C85.5,82.6,85.3,82.7,85,82.7L85,82.7z M86.4,98.2c-0.4,0-0.7,0.2-1,0.4V98h1
	C86.4,98,86.4,98.1,86.4,98.2z M85.6,84.1c0.2,0,0.5-0.1,0.7-0.2c0.4,0.1,0.8,0.2,1.2,0.2c-0.1,0.2-0.2,0.4-0.3,0.6
	C86.2,84.5,85.6,84.3,85.6,84.1L85.6,84.1z M87.5,95.5c0-0.2,0.2-0.4,0.5-0.4h0.2c0,0.3-0.2,0.4-0.5,0.4H87.5z M89,98.9
	c-0.3-0.2-0.8-0.4-1.2-0.4c0-0.1,0-0.3,0-0.4h0.2c0.3,0.2,0.6,0.3,1,0.4L89,98.9z M89.7,93.3h-0.4c0-0.1,0-0.2,0-0.4
	c0.1-0.1,0.2-0.2,0.4-0.2h0.2C89.8,92.9,89.8,93.1,89.7,93.3L89.7,93.3z M90.2,80.4c-0.2,0-0.4-0.1-0.4-0.3c0,0,0,0,0,0v-0.2h0.5
	C90.2,80,90.2,80.2,90.2,80.4L90.2,80.4z M90.3,78.5c0-0.4-0.2-0.6-0.7-0.6v-0.4c0.7,0.1,1.4,0.2,2.1,0.2v0.2
	c-0.8,0-1.2,0.2-1.2,0.6H90.3z M94,95.7L92,95.3c-0.3,0.1-0.7,0.1-1,0.2c-0.3,0-0.4-0.1-0.5-0.4c0-0.1,0-0.1,0-0.2h0.7l1.2-0.2
	c1,0.4,1.4,0.6,1.4,0.8L94,95.7z M93.3,93.3l0.2-0.4c0.3,0,0.5,0.1,0.5,0.4H93.3z M96.4,84.7h-0.5c0-0.2,0-0.4,0-0.6
	c0.3,0,0.5,0.1,0.5,0.4L96.4,84.7z M97.5,77.9c-0.3,0-0.7,0.2-0.9,0.4h-0.2c-0.5-0.2-0.7-0.4-0.7-0.6v-0.2h0.7l1.2,0.2V77.9z
	 M98,76.2h-1.1c0-0.2,0.2-0.4,0.5-0.4H98C98,75.9,98,76,98,76.2L98,76.2z M130.2,67.9l0.5,0.2c0,0.2-0.1,0.3-0.3,0.4c0,0,0,0,0,0
	c-0.1-0.1-0.1-0.3-0.2-0.4L130.2,67.9z M130.1,50.3L130.1,50.3l-0.6,0.1v-0.1L130.1,50.3z M130,66.7c0,0.1-0.1,0.1-0.2,0.2
	c-0.1-0.3-0.3-0.6-0.3-0.8C129.6,66.3,129.7,66.5,130,66.7L130,66.7z M128.2,79.5h0.7v0.2l-0.2,0.4c0.2,0,0.5,0.3,0.7,0.8l-0.9,0.6
	h-0.2c0-0.8-0.3-1.1-0.7-1.1V80C128,80,128.2,79.8,128.2,79.5L128.2,79.5z M127.7,88.9c-0.2,0-0.5-0.1-0.5-0.4c0,0,0,0,0,0v-0.4h0.9
	c0,0.1,0,0.3,0,0.4S128,88.9,127.7,88.9L127.7,88.9z M129.7,90.5c-0.2,0-0.5-0.1-0.5-0.4c0-0.2,0.1-0.4,0.5-0.4s0.5,0.1,0.5,0.4
	S129.9,90.4,129.7,90.5L129.7,90.5z M130,88.3c-0.3-0.2-0.6-0.4-1-0.4c0-0.1,0-0.3,0-0.4h0.5c0-0.1,0-0.3,0-0.4l-0.5,0.2h-0.9
	l-0.7-0.4c0-0.4,0.5-0.7,1.6-1c0-0.2-0.5-0.4-1.4-0.8c0.2-0.7,0.9-1.1,1.6-1c0,0.4,0.2,0.7,0.5,1l-0.4,0.6V86l1.7,1
	C130.6,87.9,130.3,88.3,130,88.3L130,88.3z M130.4,65.6v-0.2l1.1-0.2h0.2c0,0.2,0,0.4,0,0.6C131.6,65.7,131.1,65.6,130.4,65.6
	L130.4,65.6z M131.3,62.5v-0.2c0-0.2,0.1-0.3,0.4-0.4h0.2c0,0.2,0,0.4,0,0.6L131.3,62.5z M131.6,60.6c-0.2,0-0.4-0.2-0.5-0.4
	c0-0.1,0-0.1,0-0.2l0.9,0.2v0.4H131.6z M132.9,57.3l-0.4-0.2c0.2-0.2,0.3-0.5,0.4-0.8h0.2c0,0.3,0.1,0.7,0.1,1L132.9,57.3z
	 M134.1,77.9l-0.5-0.2c0.2-0.4,0.4-0.6,0.6-0.6h0.2c0,0.3,0,0.5,0.1,0.8H134.1z M134.5,53.8c0-0.2,0-0.4-0.1-0.6
	c0.3,0,0.4,0.1,0.5,0.4c0,0.1,0,0.1,0,0.2L134.5,53.8z M139.5,63.4l1,0.8c0,0.4,0.4,0.7,1.2,1.2c0,0.1,0,0.1,0,0.2
	c-1.3,0-2-0.3-2.3-1l0.2-0.4c-0.2-0.2-0.3-0.5-0.3-0.8L139.5,63.4z M138.2,90.4h-0.2l-0.5-0.2c0.1-0.2,0.3-0.4,0.4-0.6l0.5,0.2
	C138.3,90,138.2,90.2,138.2,90.4L138.2,90.4z M138.2,87.4H138c0-0.2,0-0.4,0-0.6h0.2l0.5,0.2C138.7,87.2,138.5,87.3,138.2,87.4
	L138.2,87.4z M140.8,84.9h-0.2c0-0.2,0-0.4,0-0.6h0.2l0.5,0.2C141.3,84.7,141.2,84.8,140.8,84.9L140.8,84.9z M136,79.9
	c1.4-10.9,1.8-17.7,1.5-20.4h0.2c1.3,6.9,3,13.7,5,20.4H136z M147.1,95.7h-1.2c0.1-0.3,0.1-0.6,0.2-1h1c0,0.2,0.1,0.4,0.3,0.6
	C147.2,95.2,147.1,95.4,147.1,95.7L147.1,95.7z M147.3,94.7v-0.4c0.2,0,0.5-0.1,0.7-0.2h0.2c0,0.2,0,0.4,0,0.6H147.3z M149.2,94.9
	c0-0.1,0-0.1,0-0.2c0-0.2,0.1-0.4,0.4-0.4c0,0.2,0,0.4,0.1,0.6H149.2z M150.7,64.4h-0.2c-0.2,0-0.5-0.3-0.8-0.8c0-0.5,0-1,0-1.6
	l-0.4-1.2c0-0.1,0.7,1.1,1.4,2.3c-0.1,0.1-0.3,0.1-0.4,0.2C150.5,63.7,150.6,64,150.7,64.4z M151.9,63.2L151.9,63.2v0.2
	C151.9,63.3,151.9,63.2,151.9,63.2L151.9,63.2z M155.7,83.5v0.2c-0.1,0.1-0.1,0.2-0.2,0.4c-0.3-0.1-0.7-0.4-1-1c0-0.1,0-0.3-0.1-0.4
	C155.3,83,155.7,83.3,155.7,83.5z M154.1,76.9c0.1,0.2,0.2,0.4,0.3,0.6h-0.5c0-0.2,0-0.4-0.1-0.6H154.1z"/>
<path id="_Compound_Path_" fill="#FFFFFF" d="M81,8.4C80.5,8.6,81.5,8.3,81,8.4z M81,12c-0.2,0.7-0.3,1,0,0.1C81,12.1,81,12,81,12z
	 M69.6,12.5C69.6,12.6,69.7,12.5,69.6,12.5z M72.2,14.4C71.9,14.7,72.8,14.4,72.2,14.4L72.2,14.4z M72.4,14.9
	C72.2,15,72.5,14.9,72.4,14.9z M38,18.8C37.7,19.3,38.8,18.6,38,18.8z M38.9,19.2C38.3,19.7,39.9,19.2,38.9,19.2L38.9,19.2
	L38.9,19.2L38.9,19.2z M37.4,19.2C37.9,19.4,37.2,19.2,37.4,19.2z M37.4,19.3C37.7,19.7,37.1,19.2,37.4,19.3z M68.6,21.1
	C67.8,21.3,69.1,21.2,68.6,21.1z M66.4,21.2C65.7,22,67.4,22,66.4,21.2z M50.9,21.2C50.7,21.3,51,21.2,50.9,21.2z M51.1,21.2
	C50.9,21.4,51.5,21.1,51.1,21.2z M45,21.2C44.8,21.6,45.6,21.2,45,21.2z M65.8,21.2C65.2,21.4,66.2,21.2,65.8,21.2z M67.6,21.4
	C67.3,21.5,67.8,21.6,67.6,21.4z M38.8,22.5C38.3,22.7,39,22.7,38.8,22.5z M53.7,22.9C53.5,23.1,54.2,22.8,53.7,22.9z M48.9,23.4
	C48.3,23.6,48.9,23.5,48.9,23.4z M53,23.5C53,23.9,53.5,23.4,53,23.5z M77.9,24.9C77.6,25,78.2,24.9,77.9,24.9z M77.5,25.1
	C77,25.7,78.2,25.1,77.5,25.1z M43.7,25.5C43.2,26.3,44.8,25.6,43.7,25.5z M45.7,26.6C45.4,26.9,46.1,26.6,45.7,26.6z M51.7,27
	C51.3,27.2,52.1,27.1,51.7,27z M51.1,29.6C50.8,30.2,51.8,29.6,51.1,29.6z M39.5,30C39.3,30.2,39.7,30,39.5,30z M39.7,30.4
	C39.4,30.7,40.1,30.4,39.7,30.4z M52.9,31C52.2,31.5,53.8,31.4,52.9,31z M53.1,31.3C53,31.3,53.1,31.3,53.1,31.3z M54.2,33.3
	C53.9,33.8,54.8,33.3,54.2,33.3z M29.6,52.3C28.9,52.7,30.3,52.3,29.6,52.3z M54.2,33.8C53.6,34.1,54.4,34,54.2,33.8z M77,35
	C76.7,35.3,77.4,35,77,35z M53.6,35.2C53.1,35.3,54,35.3,53.6,35.2z M76.7,35.3C76.1,35.5,77.2,35.3,76.7,35.3z M53.6,35.4
	C53.2,35.9,54.4,35.6,53.6,35.4z M54,36.1C53.5,36.2,54.2,36.2,54,36.1z M52.5,36.4C51.6,36.5,53.3,36.5,52.5,36.4L52.5,36.4z
	 M45.5,36.7C44.8,37.2,46.4,37.2,45.5,36.7z M35.9,36.9C34.8,37,36.4,37.2,35.9,36.9z M74.4,37.1C73.9,37.6,75.3,37.4,74.4,37.1z
	 M74,37.2C73.4,37.4,74.5,37.2,74,37.2z M71.7,37.3C71.4,37.5,71.7,37.3,71.7,37.3z M30.6,56.8C29.9,57,31.3,57,30.6,56.8z
	 M28.2,56.8C27.5,56.9,28.6,56.9,28.2,56.8z M65.6,40C64.8,40.2,66.2,40.3,65.6,40z M63.2,40.5C62.4,41,63.8,40.8,63.2,40.5
	L63.2,40.5z M41.6,41.2C41.3,41.7,42.4,41.1,41.6,41.2z M41.4,41.6C40.6,42.1,41.1,41.9,41.4,41.6z M70.2,41.8
	C69.7,42.5,71.1,41.5,70.2,41.8z M42,42.9C41.5,43.2,42.5,42.9,42,42.9z M38.4,43.3C37.7,43.6,39,43.4,38.4,43.3z M53.3,44.1
	C53,44.4,53.5,44.2,53.3,44.1z M60.3,44.4C59.9,45.1,61.3,44.3,60.3,44.4z M60.8,44.7C60.6,45.1,61.3,44.7,60.8,44.7z M55.4,45.5
	C55.3,45.8,55.8,45.5,55.4,45.5z M74.5,46.3C74,46.9,75.4,46.3,74.5,46.3L74.5,46.3z M61.5,47.2C61.2,47.7,62.4,47.2,61.5,47.2
	L61.5,47.2z M30.5,47.2C30.2,47.6,31.3,47.2,30.5,47.2z M58,48.9C57.3,49.5,58.9,48.9,58,48.9z M77.3,50.1
	C76.3,50.1,77.9,50.4,77.3,50.1z M62.7,53.2C61.9,54.1,64,53.7,62.7,53.2z M40.4,56.8C39.8,57,40.6,56.8,40.4,56.8z M25.4,82.4
	C25,83,26.5,82.4,25.4,82.4z M27,82.7L27,82.7L27,82.7z M25.1,83.2C24.8,83.8,25.9,83.1,25.1,83.2z M82.8,58.2
	C82.3,58.4,82.7,58.1,82.8,58.2z M47.9,60.9C47.4,61.7,48.3,61,47.9,60.9z M47.4,61.4C46.7,61.5,47.9,61.4,47.4,61.4z M65.5,62
	C64.8,62.1,66.3,62.2,65.5,62C65.6,62,65.5,62,65.5,62z M63.8,63.1C63.2,63.4,64.3,63.2,63.8,63.1z M63.4,63.6
	C62.9,63.7,63.6,63.9,63.4,63.6z M26.1,65.1C24.9,65.8,26.9,65.2,26.1,65.1z"/>
<path id="_Compound_Path_2" fill="#FFFFFF" d="M171.6,91.6C171.3,91,171.6,92,171.6,91.6z M168,91.5c-0.7-0.2-1-0.3-0.1,0
	C167.9,91.5,168,91.5,168,91.5z M167.4,80.2C167.3,80.1,167.5,80.3,167.4,80.2z M165.6,82.8C165.3,82.4,165.6,83.4,165.6,82.8
	L165.6,82.8z M165,83C164.9,82.8,165,83.1,165,83z M161.2,48.6C160.7,48.3,161.4,49.4,161.2,48.6z M160.8,49.5
	C160.3,48.9,160.8,50.5,160.8,49.5L160.8,49.5L160.8,49.5L160.8,49.5z M160.8,48.1C160.6,48.5,160.8,47.8,160.8,48.1z M160.7,48.1
	C160.3,48.3,160.8,47.7,160.7,48.1z M159.2,49.8c-0.1-0.6-0.4-1.1-0.1-0.4C159.1,49.5,159.1,49.7,159.2,49.8z M158.9,79.2
	C158.7,78.3,158.8,79.7,158.9,79.2z M158.7,61.5C158.6,61.3,158.7,61.6,158.7,61.5z M158.7,61.7C158.5,61.5,158.8,62.1,158.7,61.7z
	 M158.7,55.6C158.3,55.4,158.7,56.2,158.7,55.6z M158.5,78.2C158.4,77.9,158.3,78.3,158.5,78.2L158.5,78.2z M158.3,78.4
	C158.1,78.2,158.3,78.7,158.3,78.4z M157.5,94.8C156.7,94,157.3,95.9,157.5,94.8z M157.4,49.4C157.2,48.9,157.1,49.5,157.4,49.4
	L157.4,49.4z M157.1,64.3C156.8,64,157.2,64.8,157.1,64.3z M156.6,83.6C155.5,83.1,156.6,84.9,156.6,83.6z M156.6,59.5
	C156.4,58.9,156.5,59.5,156.6,59.5z M156.5,63.6C156.1,63.5,156.6,64,156.5,63.6z M155.1,88.5C154.9,88.2,155.1,88.8,155.1,88.5z
	 M154.9,88.1C154.3,87.6,154.9,88.7,154.9,88.1z M153.3,56.3C153.1,56,153.4,56.7,153.3,56.3z M153,62.3
	C152.8,61.9,152.9,62.7,153,62.3z M150.4,61.7C149.8,61.4,150.4,62.4,150.4,61.7z M150,50.1C149.8,50,150,50.3,150,50.1z
	 M149.7,75.4C149.4,75,149.8,76.1,149.7,75.4z M149.6,74.6C149.3,74.4,149.7,74.9,149.6,74.6z M149.6,75C149,75,149.9,75.7,149.6,75
	z M149.6,76.4C149.5,76.6,149.6,76.8,149.6,76.4z M149.6,76.1c-0.1-0.6-0.4-1-0.1-0.1C149.5,76,149.6,76.3,149.6,76.1z M149.6,50.2
	C149.3,50,149.6,50.7,149.6,50.2z M149.2,74.5C149,74.4,149.3,74.7,149.2,74.5z M21,95.2C20.6,94.5,20.6,96.1,21,95.2z M20.7,95.3
	C20.7,95.3,20.7,95.3,20.7,95.3z M148.8,76.2C148.4,75.5,148.7,76.8,148.8,76.2z M148.4,76.5C148.1,76.3,148.4,76.5,148.4,76.5z
	 M148.3,76.1C148.3,76.1,148.3,76.3,148.3,76.1z M148.1,75.8C147.7,75.4,148.1,76.4,148.1,75.8z M18.7,96.4
	C18.3,96.2,18.8,97.1,18.7,96.4z M146.5,68.9C146.1,68.1,146.5,69.6,146.5,68.9z M18.2,96.4C18,95.9,18.1,96.6,18.2,96.4z
	 M144.9,87.6C144.7,87.2,144.9,87.9,144.9,87.6z M16.9,95.8C16.8,95.3,16.8,96.2,16.9,95.8z M144.7,87.3
	C144.5,86.7,144.7,87.8,144.7,87.3z M16.7,95.9C16.2,95.4,16.6,96.6,16.7,95.9z M16,96.2C15.9,95.7,15.9,96.4,16,96.2z M15.7,94.7
	C15.6,93.8,15.6,95.6,15.7,94.7L15.7,94.7z M143.3,56.2C142.8,55.5,142.8,57.1,143.3,56.2L143.3,56.2z M143.1,46.5
	C142.9,45.4,142.7,47,143.1,46.5z M142.9,85C142.3,84.5,142.5,86,142.9,85z M142.8,84.6C142.5,84.1,142.8,85.2,142.8,84.6
	L142.8,84.6z M142.6,94.2C141.7,93.5,142.6,95.2,142.6,94.2z M142.6,82.3C142.4,82,142.6,82.3,142.6,82.3z M142,69.9
	C141.7,69.2,141.7,70.6,142,69.9z M142,67.5C141.8,66.8,141.8,67.9,142,67.5L142,67.5z M140,76.2C139.7,75.4,139.7,76.8,140,76.2z
	 M139.5,73.8C139,73,139.2,74.4,139.5,73.8L139.5,73.8z M138.8,52.2C138.3,51.9,138.9,53,138.8,52.2z M138.4,52
	C137.9,51.2,138.1,51.7,138.4,52z M138.2,80.8C137.5,80.3,138.5,81.7,138.2,80.8z M137.1,52.6C136.8,52.1,137.1,53.1,137.1,52.6z
	 M136.7,49C136.4,48.3,136.6,49.6,136.7,49z M136.5,64.5C135.9,63.7,135.9,65.4,136.5,64.5z M135.8,63.9
	C135.6,63.6,135.7,64.1,135.8,63.9z M135.5,70.9C134.8,70.4,135.6,71.9,135.5,70.9z M135.2,71.4C134.9,71.1,135.2,71.8,135.2,71.4z
	 M134.5,66C134.1,65.9,134.5,66.4,134.5,66z M133.6,85.1C133.1,84.6,133.6,86,133.6,85.1L133.6,85.1z M132.8,72.1
	C132.2,71.8,132.8,73,132.8,72.1L132.8,72.1L132.8,72.1z M132.8,41.1C132.4,40.7,132.8,41.9,132.8,41.1z M132.4,60.1
	C131.5,59.3,131.6,61.1,132.4,60.1z M131.7,82.7C131,81.9,131.9,83.8,131.7,82.7z M131.1,68.5C130.5,67.8,131.1,69.4,131.1,68.5z
	 M129.9,87.8C129.9,86.8,129.6,88.4,129.9,87.8z M126.9,73.3C126,72.5,126.4,74.6,126.9,73.3z M123.3,51
	C123.1,50.4,123.3,51.2,123.3,51z M122.7,81.3C122.3,81.1,122.7,82.1,122.7,81.3z M122.5,82C121.8,81.4,121.9,82.9,122.5,82z
	 M122.5,82.4L122.5,82.4L122.5,82.4z M122.2,81.1C121.8,81,122.3,81.7,122.2,81.1z M121.7,93.3C121.6,92.9,121.8,93.3,121.7,93.3
	L121.7,93.3z M119,58.5C118.3,58,118.9,58.9,119,58.5z M118.6,58C118.4,57.3,118.5,58.4,118.6,58z M118,76.1
	C117.9,75.3,117.8,76.9,118,76.1L118,76.1z M116.9,74.4C116.6,73.7,116.7,74.8,116.9,74.4z M116.4,74
	C116.3,73.5,116.1,74.2,116.4,74z M114.8,36.7C114.2,35.4,114.7,37.5,114.8,36.7z"/>
<path id="_Compound_Path_3" fill="#FFFFFF" d="M116.7,99.9C117.4,99.4,115.7,99.9,116.7,99.9L116.7,99.9L116.7,99.9L116.7,99.9z
	 M118.2,100C117.8,99.7,118.5,100,118.2,100z M118.2,99.8C117.9,99.5,118.6,99.9,118.2,99.8z M116.5,98.3c0.6-0.1,1-0.4,0.4-0.1
	L116.5,98.3z M87.1,98.1C87.9,97.8,86.5,97.9,87.1,98.1z M104.7,97.9C104.9,97.8,104.6,97.9,104.7,97.9z M104.5,97.9
	C104.7,97.7,104.2,98,104.5,97.9z M110.6,97.9C110.9,97.4,110,97.9,110.6,97.9z M89.8,97.8C90.4,97.6,89.4,97.8,89.8,97.8z M88,97.7
	C88.3,97.5,87.9,97.5,88,97.7z M87.8,97.5C88,97.3,87.5,97.5,87.8,97.5z M71.4,96.6C72.2,95.8,70.3,96.5,71.4,96.6z M116.8,96.5
	C117.3,96.3,116.7,96.3,116.8,96.5z M101.9,96.3C102.2,96,101.4,96.3,101.9,96.3z M82.5,95.7C83.1,94.7,81.3,95.8,82.5,95.7z
	 M106.7,95.7C107.3,95.5,106.7,95.6,106.7,95.7z M102.6,95.6C102.7,95.3,102.2,95.7,102.6,95.6z M77.7,94.2
	C78,94,77.5,94.2,77.7,94.2z M78.2,94C78.6,93.4,77.5,94,78.2,94z M109.9,92.4C110.2,92.2,109.5,92.5,109.9,92.4z M103.9,92.1
	C104.3,91.9,103.5,92,103.9,92.1z M104.5,89.5C104.9,88.9,103.9,89.6,104.5,89.5z M116.1,89.1C116.3,88.9,115.9,89.1,116.1,89.1z
	 M116,88.7C116.2,88.4,115.5,88.7,116,88.7z M102.7,88.1C103.4,87.6,101.9,87.7,102.7,88.1z M102.6,87.7
	C102.6,87.7,102.6,87.7,102.6,87.7z M89.8,87.6C90,87.2,89.8,87.5,89.8,87.6z M90.1,87.5C90.1,87.5,90,87.5,90.1,87.5z M91.1,87.3
	C91.4,87.2,91,87.3,91.1,87.3z M90.5,87.3C90.9,86.8,89.9,87.3,90.5,87.3z M101.5,85.8C101.8,85.3,100.9,85.8,101.5,85.8z
	 M97.5,85.7C98.2,85.2,96.7,85.7,97.5,85.7z M101.6,85.3C102.1,85.1,101.3,85.2,101.6,85.3z M78.7,84.1
	C79.1,83.9,78.4,84.1,78.7,84.1z M102.2,84C102.7,83.8,101.8,83.9,102.2,84z M79,83.8C79.6,83.6,78.6,83.8,79,83.8z M102.1,83.7
	C102.5,83.2,101.4,83.6,102.1,83.7z M101.8,83C102.2,82.9,101.6,82.9,101.8,83z M103.2,82.7C104.1,82.6,102.4,82.7,103.2,82.7z
	 M110.2,82.4C110.9,82,109.3,81.9,110.2,82.4z M119.9,82.3C121,82.1,119.4,81.9,119.9,82.3z M81.4,82.1
	C81.9,81.5,80.4,81.7,81.4,82.1z M81.8,82C82.3,81.7,81.2,82,81.8,82z M72.2,81.8C72.9,80.9,71.1,81.8,72.2,81.8z M84.1,81.8
	C84.4,81.6,84.1,81.8,84.1,81.8z M96.5,81.1C97.2,80.9,95.8,80.9,96.5,81.1z M98.9,81.1C99.6,81,98.5,81,98.9,81.1z M90.2,79.1
	C91,78.9,89.6,78.8,90.2,79.1z M92.6,78.7C93.4,78.2,92,78.4,92.6,78.7L92.6,78.7z M114.2,78C114.4,77.5,113.4,78.1,114.2,78z
	 M114.4,77.6C115.2,77.1,114.7,77.3,114.4,77.6z M85.6,77.4C86.1,76.7,84.6,77.7,85.6,77.4z M113.6,76.2
	C114.1,75.9,113.2,76.2,113.6,76.2z M117.2,75.8C118,75.5,116.7,75.7,117.2,75.8z M101.7,75.7C102.6,75,100.9,75,101.7,75.7z
	 M102.4,75C102.7,74.7,102.2,74.8,102.4,75z M94.9,74.3C95.2,74,94.5,74.3,94.9,74.3z M100.3,73.6C100.4,73.2,99.9,73.6,100.3,73.6z
	 M81.2,72.7C81.7,72.2,80.3,72.7,81.2,72.7L81.2,72.7z M94.2,71.9C94.5,71.3,93.3,71.9,94.2,71.9L94.2,71.9L94.2,71.9z M125.2,71.9
	C125.5,71.5,124.4,71.9,125.2,71.9z M83.6,70.9C84.3,70.2,82.5,71,83.6,70.9z M97.8,70.2C98.4,69.6,96.8,70.2,97.8,70.2z M184.7,95
	C184.9,94.7,184.7,94.9,184.7,95z M185.1,94.9C185.1,94.9,184.9,95,185.1,94.9z M186.1,94.7C186.3,94.6,186,94.7,186.1,94.7z
	 M185.5,94.7C185.9,94.3,184.8,94.7,185.5,94.7z M192.4,93.1C193.1,92.6,191.6,93.1,192.4,93.1z M191.4,88.6
	C192.1,88.4,190.7,88.4,191.4,88.6z M193.8,88.6C194.5,88.5,193.4,88.4,193.8,88.6z M185,86.6C185.9,86.4,184.5,86.3,185,86.6z
	 M187.5,86.1C188.3,85.6,186.9,85.9,187.5,86.1L187.5,86.1z M189.9,81.9C190.1,81.5,189.4,81.9,189.9,81.9z M195.3,81.1
	C195.4,80.8,194.8,81.1,195.3,81.1z M189.1,79.4C189.5,78.9,188.3,79.4,189.1,79.4L189.1,79.4L189.1,79.4z M192.7,77.7
	C193.4,77.1,191.8,77.7,192.7,77.7z M78.4,69C79.4,69,77.8,68.7,78.4,69z M115.2,62.4C115.8,62.1,115,62.4,115.2,62.4z M84.9,61.9
	C85.2,61.4,84.2,61.9,84.9,61.9z M84.3,61.7C84.8,60.9,83.3,61,84.3,61.7z M83.8,61.7L83.8,61.7L83.8,61.7z M85.1,61.3
	C85.3,61,84.6,61.4,85.1,61.3z M28.6,87.7C29.2,87.5,28.7,87.9,28.6,87.7z M107.8,58.2C108.2,57.4,107.3,58.1,107.8,58.2z
	 M108.3,57.7C108.9,57.6,107.8,57.7,108.3,57.7z M90.1,57.2C90.9,57.1,89.3,56.9,90.1,57.2L90.1,57.2z M91.8,56
	C92.5,55.8,91.4,55.9,91.8,56z M92.3,55.5C92.7,55.4,92,55.2,92.3,55.5z M129.6,54C130.8,53.3,128.8,53.9,129.6,54z"/>
<path id="_Compound_Path_4" fill="#FFFFFF" d="M173.8,43.3C173.5,42.8,173.8,43.8,173.8,43.3z M170.2,43.3c-0.7-0.2-1-0.3-0.1,0
	C170.1,43.3,170.2,43.3,170.2,43.3z M169.6,31.9C169.5,31.8,169.6,32,169.6,31.9z M167.8,34.5C167.5,34.2,167.8,35.1,167.8,34.5
	L167.8,34.5z M167.2,34.7C167.1,34.5,167.2,34.8,167.2,34.7z M161.1,30.9C160.9,30,161,31.4,161.1,30.9z M160.9,13.2
	C160.8,13,160.9,13.3,160.9,13.2z M160.9,13.4C160.7,13.2,161,13.7,160.9,13.4z M160.9,7.3C160.5,7,161,7.9,160.9,7.3z M160.7,29.9
	C160.6,29.6,160.6,30.1,160.7,29.9L160.7,29.9z M160.6,30.1C160.3,29.9,160.6,30.4,160.6,30.1z M159.3,16
	C159,15.7,159.4,16.5,159.3,16z M158.7,11.2C158.5,10.6,158.6,11.2,158.7,11.2z M158.6,15.3C158.3,15.2,158.8,15.7,158.6,15.3z
	 M157.2,40.2C157.1,39.9,157.2,40.5,157.2,40.2z M157.1,39.8C156.4,39.4,157,40.5,157.1,39.8z M155.2,14
	C154.9,13.6,155.1,14.4,155.2,14z M152.6,13.4C152,13.1,152.6,14.1,152.6,13.4z M98.2,54.4C97.8,54,98.2,55.1,98.2,54.4z M98,53.6
	C97.7,53.4,98.1,53.9,98,53.6z M98,54C97.4,54,98.3,54.7,98,54z M98,55.4C97.9,55.6,98,55.8,98,55.4z M98,55.1
	c-0.1-0.6-0.4-1-0.1-0.1C97.9,55,98.1,55.3,98,55.1z M97.7,53.5C97.4,53.3,97.7,53.7,97.7,53.5z M151.1,15.2
	C150.7,14.5,150.8,16.1,151.1,15.2z M150.8,15.3C150.8,15.3,150.8,15.3,150.8,15.3z M151,27.8C150.6,27.2,150.9,28.4,151,27.8z
	 M150.6,28.1C150.3,27.9,150.6,28.1,150.6,28.1z M150.5,27.8C150.5,27.8,150.6,27.9,150.5,27.8z M150.3,26.8
	C150.2,26.6,150.3,26.9,150.3,26.8z M150.3,27.4C149.9,27,150.3,28,150.3,27.4z M94.7,10.3C94.2,10,94.7,10.9,94.7,10.3z
	 M148.6,20.6C148.2,19.9,148.6,21.3,148.6,20.6z M94.2,10.2C94,9.7,94,10.5,94.2,10.2z M147.1,39.3C146.9,39,147.1,39.7,147.1,39.3z
	 M92.9,9.6C92.7,9.1,92.8,10,92.9,9.6z M146.8,39C146.6,38.4,146.8,39.5,146.8,39z M92.6,9.7C92.1,9.3,92.5,10.5,92.6,9.7L92.6,9.7z
	 M91.9,10.1C91.8,9.6,91.8,10.2,91.9,10.1z M91.6,8.6C91.5,7.7,91.5,9.4,91.6,8.6L91.6,8.6z M145.5,7.9C145,7.1,144.9,8.7,145.5,7.9
	L145.5,7.9z M145.1,36.7C144.5,36.2,144.7,37.6,145.1,36.7z M145,36.3C144.7,35.8,145,36.8,145,36.3z M144.8,34
	C144.7,33.7,144.8,34,144.8,34z M144.2,21.5C143.9,20.8,144,22.3,144.2,21.5z M144.2,19.2C144.1,18.5,144,19.5,144.2,19.2
	L144.2,19.2z M173.8,71.7C173.4,71,173.7,72.3,173.8,71.7z M173.5,72C173.1,71.8,173.4,72,173.5,72z M173.4,71.1
	C173.4,71,173.4,71,173.4,71.1z M173.4,71.7C173.4,71.7,173.4,71.8,173.4,71.7z M173.2,70.7C173,70.5,173.2,70.8,173.2,70.7z
	 M173.2,71.3C172.7,70.9,173.2,72,173.2,71.3z M171.5,64.4C171.1,63.7,171.5,65.1,171.5,64.4z M167,65.4
	C166.8,64.7,166.8,66.1,167,65.4L167,65.4z M167,63C166.9,62.3,166.9,63.4,167,63L167,63z M141,3.9C140.5,3.6,141.1,4.7,141,3.9z
	 M139.3,4.4C139,3.8,139.3,4.8,139.3,4.4z M138.1,15.6C137.8,15.3,137.9,15.8,138.1,15.6z M136.7,17.7
	C136.4,17.5,136.7,18.1,136.7,17.7z M135.9,36.8C135.3,36.2,135.9,37.7,135.9,36.8L135.9,36.8z M135,23.8
	C134.4,23.4,135,24.6,135,23.8L135,23.8L135,23.8z M133.9,34.4C133.2,33.6,134.1,35.5,133.9,34.4z M133.2,20.2
	C132.6,19.5,133.2,21.1,133.2,20.2z M132.1,39.5C132.1,38.5,131.8,40.1,132.1,39.5z M125,33C124.5,32.8,125,33.8,125,33z
	 M124.7,34.2L124.7,34.2L124.7,34.2z M124.4,32.9C124,32.7,124.5,33.4,124.4,32.9z M123.9,45.1C123.8,44.7,124.1,45,123.9,45.1
	L123.9,45.1z M121.2,10.2C120.5,9.7,121.1,10.6,121.2,10.2z M120.8,9.7C120.6,9,120.7,10.2,120.8,9.7z M120.2,27.8
	C120.1,27.1,120,28.6,120.2,27.8L120.2,27.8z M119.1,26.2C118.8,25.5,118.9,26.6,119.1,26.2z M118.6,25.7
	C118.5,25.3,118.3,26,118.6,25.7z M92.5,32.2C92.2,31.4,92.2,32.8,92.5,32.2z M92,29.7C91.5,28.9,91.7,30.4,92,29.7L92,29.7z
	 M90.7,36.7C90,36.2,91,37.7,90.7,36.7z M88,26.7C87.3,26.3,88.2,27.7,88,26.7z M87.7,27.2C87.4,27,87.7,27.7,87.7,27.2z"/>
</svg>
