<?xml version="1.0" encoding="utf-8"?>
<!-- Generator: Adobe Illustrator 22.1.0, SVG Export Plug-In . SVG Version: 6.00 Build 0)  -->
<svg version="1.1" id="Layer_1" xmlns="http://www.w3.org/2000/svg" xmlns:xlink="http://www.w3.org/1999/xlink" x="0px" y="0px"
	 viewBox="0 0 151.5 59" style="enable-background:new 0 0 151.5 59;" xml:space="preserve">
<style type="text/css">
	.st0{fill:url(#SVGID_1_);}
	.st1{fill:url(#SVGID_2_);}
	.st2{fill:url(#SVGID_3_);}
	.st3{fill:#005581;}
	.st4{fill:url(#SVGID_4_);}
</style>
<linearGradient id="SVGID_1_" gradientUnits="userSpaceOnUse" x1="75.75" y1="16.2058" x2="75.75" y2="107.7968" gradientTransform="matrix(1 0 0 -1 0 113)">
	<stop  offset="0" style="stop-color:#00AEEF"/>
	<stop  offset="1" style="stop-color:#005581"/>
</linearGradient>
<path class="st0" d="M118.5,59H8.5C3.8,59,0,55.2,0,50.5V31.9c0-4.7,3.8-8.5,8.5-8.5H143c4.7,0,8.5,3.8,8.5,8.5v6.2L118.5,59z"/>
<g>
	<g>
		
			<linearGradient id="SVGID_2_" gradientUnits="userSpaceOnUse" x1="95.8979" y1="49.4969" x2="100.6856" y2="44.305" gradientTransform="matrix(1 0 0 -1 0 113)">
			<stop  offset="0" style="stop-color:#FFFFFF"/>
			<stop  offset="1" style="stop-color:#C7C7C7"/>
		</linearGradient>
		<path class="st1" d="M132,32.6l-2.5,8.6l-2.9-8.7h-5.2l-2.9,8.7l-2.5-8.6h-6.3l5.9,18.1h5.2l3.2-8.9l1.1,3.1
			c2.2-2.5,5.6-4.2,8.3-4.2c0.9,0,1.6,0,2.3,0l2.6-8H132V32.6z M21.2,32.6h-8.1v17.9h6v-4.9H21c4.8,0,8.1-2.3,8.1-6.6l0,0
			C29.2,34.7,25.9,32.6,21.2,32.6z M23.3,39.4c0,1.3-1,2-2.6,2h-1.6v-4h1.6C22.3,37.4,23.3,38.1,23.3,39.4L23.3,39.4z M99.6,43.7
			h8.8v-4.3h-8.8v-1.9h9.4v-4.9H93.7v17.9h15.4v-4.9h-9.5V43.7z M47.3,39L47.3,39c0-1.9-0.6-3.2-1.6-4.3c-1.3-1.3-3.3-2-6.5-2h-8.8
			v17.8h6v-5.1h1.3l3.4,5.1h6.8l-4.2-6.1C46,43.4,47.3,41.6,47.3,39z M41.3,39.4c0,1.1-0.9,1.7-2.3,1.7h-2.6v-3.5H39
			C40.4,37.6,41.3,38.2,41.3,39.4L41.3,39.4z M85.6,50.5h6V32.6h-6V50.5z M74.7,42.7l-3.5-10.1h-6.7l7.3,18.1h5.7l7.3-18.1h-6.6
			L74.7,42.7z M54.7,43.7h8.8v-4.3h-8.8v-1.9h9.4v-4.9H48.8v17.9h15.4v-4.9h-9.5V43.7z"/>
	</g>
</g>
<linearGradient id="SVGID_3_" gradientUnits="userSpaceOnUse" x1="132.257" y1="68.6206" x2="137.5873" y2="60.2096" gradientTransform="matrix(1 0 0 -1 0 113)">
	<stop  offset="0" style="stop-color:#00AEEF"/>
	<stop  offset="0.1472" style="stop-color:#00BBF2"/>
	<stop  offset="1" style="stop-color:#005581"/>
</linearGradient>
<path class="st2" d="M118.4,59c2.7-3.1,5.8-4.1,6-8.5c0.3-5,6.2-9.3,10.5-9.3c7.6-0.1,6.8,0,16.5-3.1
	C151.4,39.8,123.9,58.5,118.4,59z"/>
<g>
	<path class="st3" d="M21.3,8.6c-4.1-0.9-5.1-1.9-5.1-3.6V4.9c0-1.7,1.6-3,4-3c1.9,0,3.7,0.6,5.4,2l1.2-1.6C24.9,0.8,22.9,0,20.2,0
		C16.6,0,14,2.2,14,5.1v0.1c0,3.1,2,4.5,6.3,5.4c3.9,0.8,4.9,1.8,4.9,3.6v0.1c0,1.8-1.7,3.2-4.2,3.2c-2.6,0-4.5-0.9-6.4-2.6
		l-1.3,1.6c2.2,2,4.7,3,7.7,3c3.7,0,6.4-2.1,6.4-5.3v-0.1C27.4,11,25.5,9.5,21.3,8.6z"/>
	<rect x="31.6" y="1.8" class="st3" width="1.9" height="17.1"/>
	<path class="st3" d="M52.2,7L52.2,7c0-1.4-0.5-2.6-1.3-3.4c-1.1-1.1-2.8-1.7-4.9-1.7h-7.4V19h1.9v-6.7h4.8l0,0l5,6.7h2.4l-5.3-7
		C50.2,11.5,52.2,9.8,52.2,7z M40.5,10.6v-7h5.3c2.8,0,4.4,1.3,4.4,3.4l0,0c0,2.2-1.8,3.5-4.4,3.5h-5.3V10.6z"/>
	<rect x="56.5" y="1.8" class="st3" width="1.9" height="17.1"/>
	<path class="st3" d="M75.5,11.8c0,3.7-2,5.7-5.2,5.7c-3.3,0-5.2-2.1-5.2-5.8V1.9h-1.9v10c0,4.8,2.9,7.4,7.1,7.4
		c4.3,0,7.1-2.6,7.1-7.6V1.9h-1.9V11.8z"/>
	<path class="st3" d="M88.1,9.4c-3.8-0.8-4.7-1.7-4.7-3.3l0,0c0-1.5,1.4-2.8,3.6-2.8c1.8,0,3.4,0.6,4.9,1.9L93,3.7
		c-1.7-1.4-3.5-2.1-6-2.1c-3.3,0-5.6,2-5.6,4.7l0,0c0,2.8,1.8,4.1,5.8,4.9c3.6,0.8,4.5,1.7,4.5,3.3l0,0c0,1.7-1.5,2.9-3.8,2.9
		c-2.4,0-4.1-0.8-5.9-2.4l-1.2,1.4c2.1,1.8,4.3,2.7,7,2.7c3.4,0,5.8-1.9,5.8-4.8v-0.1C93.7,11.7,92,10.3,88.1,9.4z"/>
	<polygon class="st3" points="113.1,0.2 110.7,0.2 105,7.9 99.2,0.2 96.7,0.2 103.7,9.4 96.5,18.9 98.9,18.9 104.9,10.9 110.9,18.9 
		113.4,18.9 106.2,9.4 	"/>
	<polygon class="st3" points="133.1,0.2 126.3,10.4 119.4,0.2 117.3,0.2 117.3,18.9 119.4,18.9 119.4,3.8 126.2,13.8 126.3,13.8 
		133.1,3.8 133.1,18.9 135.2,18.9 135.2,0.2 	"/>
</g>
<linearGradient id="SVGID_4_" gradientUnits="userSpaceOnUse" x1="151.5" y1="74.9" x2="151.5" y2="74.9" gradientTransform="matrix(1 0 0 -1 0 113)">
	<stop  offset="0" style="stop-color:#00AEEF"/>
	<stop  offset="0.1472" style="stop-color:#00BBF2"/>
	<stop  offset="1" style="stop-color:#005581"/>
</linearGradient>
<path class="st4" d="M151.5,38.1"/>
</svg>
