<?xml version="1.0" encoding="UTF-8"?>
<svg id="Layer_1" data-name="Layer 1" xmlns="http://www.w3.org/2000/svg" xmlns:xlink="http://www.w3.org/1999/xlink" viewBox="0 0 500 400">
  <defs>
    <style>
      .cls-1 {
        fill: url(#linear-gradient);
      }

      .cls-2 {
        fill: #ffff43;
      }
    </style>
    <linearGradient id="linear-gradient" x1="250" y1="294.07" x2="250" y2="145.56" gradientUnits="userSpaceOnUse">
      <stop offset="0" stop-color="#14015f"/>
      <stop offset="1" stop-color="#787bad"/>
    </linearGradient>
  </defs>
  <path class="cls-1" d="M131.92,204.73c-3.96-1.7-6.97-4.12-9.03-7.25-1.83-2.79-2.91-6.06-3.25-9.81-.07-.75.52-1.4,1.27-1.4h14.37c.63,0,1.17.47,1.26,1.1.22,1.55.69,2.8,1.39,3.76.86,1.18,2.03,2,3.5,2.48,1.47.47,3.26.71,5.38.71s3.7-.19,5.01-.57c1.3-.38,2.27-.95,2.92-1.71.64-.76.96-1.72.96-2.87,0-1.06-.29-1.94-.88-2.64-.59-.7-1.55-1.31-2.91-1.81-1.35-.5-3.21-.93-5.56-1.3l-7-1.05c-3.66-.56-6.86-1.59-9.59-3.09-2.73-1.5-4.87-3.54-6.41-6.11-1.54-2.57-2.31-5.67-2.31-9.29s.76-6.59,2.28-9.41c1.52-2.81,4.1-5.1,7.75-6.85s8.49-2.62,14.53-2.62c5.32,0,9.84.71,13.54,2.13,3.71,1.42,6.58,3.58,8.62,6.47,1.81,2.57,2.94,5.72,3.39,9.44.09.76-.5,1.44-1.27,1.44h-13.4c-.6,0-1.12-.43-1.24-1.02-.21-1.02-.55-1.9-1.03-2.64-.63-.98-1.59-1.72-2.88-2.24s-3.02-.77-5.16-.77c-1.85,0-3.38.18-4.58.55-1.2.37-2.08.9-2.63,1.6-.56.7-.84,1.53-.84,2.51s.24,1.77.73,2.42c.49.66,1.25,1.2,2.3,1.63,1.05.43,2.45.79,4.22,1.07l6.5.98c4.9.74,8.91,1.88,12.01,3.42,3.1,1.54,5.39,3.52,6.88,5.95,1.48,2.42,2.23,5.36,2.23,8.82,0,4.19-1.01,7.83-3.03,10.9-2.02,3.07-5.01,5.45-8.96,7.12-3.95,1.67-8.77,2.51-14.45,2.51s-10.66-.85-14.62-2.55ZM219.95,191.13h-23.8c-.68,0-1.23-.55-1.23-1.23v-42.33c0-.68-.55-1.23-1.23-1.23h-14.64c-.68,0-1.23.55-1.23,1.23v57.07c0,.68.55,1.23,1.23,1.23h40.89c.68,0,1.23-.55,1.23-1.23v-12.28c0-.68-.55-1.23-1.23-1.23ZM272.17,191.13h-28.08c-.46,0-.84-.38-.84-.84v-6.33c0-.46.38-.84.84-.84h25.7c.89,0,1.61-.72,1.61-1.61v-11.01c0-.89-.72-1.61-1.61-1.61h-25.7c-.46,0-.84-.38-.84-.84v-6.12c0-.46.38-.84.84-.84h28.15c.89,0,1.61-.72,1.61-1.61v-11.53c0-.89-.72-1.61-1.61-1.61h-44.47c-.89,0-1.61.72-1.61,1.61v56.3c0,.89.72,1.61,1.61,1.61h44.41c.89,0,1.61-.72,1.61-1.61v-11.51c0-.89-.72-1.61-1.61-1.61ZM325.64,191.13h-28.08c-.46,0-.84-.38-.84-.84v-6.33c0-.46.38-.84.84-.84h25.7c.89,0,1.61-.72,1.61-1.61v-11.01c0-.89-.72-1.61-1.61-1.61h-25.7c-.46,0-.84-.38-.84-.84v-6.12c0-.46.38-.84.84-.84h28.15c.89,0,1.61-.72,1.61-1.61v-11.53c0-.89-.72-1.61-1.61-1.61h-44.47c-.89,0-1.61.72-1.61,1.61v56.3c0,.89.72,1.61,1.61,1.61h44.41c.89,0,1.61-.72,1.61-1.61v-11.51c0-.89-.72-1.61-1.61-1.61ZM26.92,247.41c1.83-1.2,3.99-1.81,6.48-1.81,1.87,0,3.54.32,5.01.96,1.47.64,2.72,1.63,3.76,2.96.85,1.08,1.51,2.41,1.99,3.97.2.65.81,1.1,1.5,1.1h14.45c1.02,0,1.77-.95,1.54-1.94-.94-4.06-2.47-7.62-4.58-10.67-2.44-3.53-5.62-6.25-9.54-8.14-3.92-1.89-8.51-2.84-13.76-2.84-6.1,0-11.44,1.26-16,3.79-4.56,2.53-8.08,6.13-10.56,10.81-2.47,4.68-3.71,10.15-3.71,16.44s1.24,11.74,3.73,16.46c2.49,4.72,5.95,8.36,10.39,10.92,4.44,2.56,9.49,3.85,15.16,3.85,5.06,0,9.67-1,13.83-3,4.16-2,7.58-4.8,10.27-8.41,2.32-3.11,3.91-6.62,4.77-10.53.21-.98-.54-1.9-1.54-1.9h-14.29c-.71,0-1.33.47-1.51,1.15-.43,1.58-1.07,2.93-1.92,4.05-1.05,1.38-2.33,2.4-3.82,3.06-1.5.66-3.15.99-4.94.99-2.48,0-4.65-.61-6.5-1.84-1.85-1.23-3.3-3.09-4.35-5.58-1.05-2.49-1.57-5.57-1.57-9.24s.5-6.66,1.49-9.11c1-2.45,2.41-4.28,4.23-5.49ZM101.99,254.17h-16.07c-.97,0-1.75-.78-1.75-1.75v-18.35c0-.97-.78-1.75-1.75-1.75h-13.6c-.97,0-1.75.78-1.75,1.75v56.03c0,.97.78,1.75,1.75,1.75h13.6c.97,0,1.75-.78,1.75-1.75v-19.47c0-.97.78-1.75,1.75-1.75h16.07c.97,0,1.75.78,1.75,1.75v19.47c0,.97.78,1.75,1.75,1.75h13.6c.97,0,1.75-.78,1.75-1.75v-56.03c0-.97-.78-1.75-1.75-1.75h-13.6c-.97,0-1.75.78-1.75,1.75v18.35c0,.97-.78,1.75-1.75,1.75ZM180.04,290.22s0,.01,0,.02c.27.79-.28,1.62-1.11,1.62h-14.84c-.49,0-.94-.3-1.12-.76s-.33-.93-.44-1.45c-.19-.81-.32-1.75-.41-2.81-.01-.21-.03-.42-.04-.63-.01-.21-.03-.43-.04-.67l-.25-6.02c-.08-2.06-.39-3.66-.92-4.81s-1.36-1.96-2.49-2.45c-1.13-.49-2.68-.73-4.66-.73h-7.25c-.66,0-1.19.53-1.19,1.19v17.93c0,.66-.53,1.19-1.19,1.19h-14.71c-.66,0-1.19-.53-1.19-1.19v-57.14c0-.66.53-1.19,1.19-1.19h27.52c5.41,0,9.78.76,13.12,2.27,3.34,1.51,5.73,3.55,7.19,6.12,1.46,2.57,2.18,5.54,2.18,8.91s-.7,6.28-2.11,8.61c-1.41,2.33-3.5,4.09-6.29,5.28-.27.12-.56.23-.85.33.2.07.41.14.61.22,2.54,1.02,4.43,2.54,5.66,4.58,1.23,2.03,1.98,4.72,2.23,8.05l.65,8.88c.08,1.07.18,1.97.29,2.69.11.72.26,1.37.46,1.94ZM161.03,256c.58-1,.87-2.25.87-3.77s-.29-2.73-.87-3.71c-.58-.98-1.42-1.71-2.53-2.17-1.11-.47-2.47-.7-4.09-.7h-7.94c-.66,0-1.19.53-1.19,1.19v10.92c0,.66.53,1.19,1.19,1.19h8.04c1.59,0,2.93-.24,4.01-.73,1.09-.49,1.92-1.23,2.5-2.23ZM251.83,257.99c-3.1-1.54-7.1-2.68-12.01-3.42l-6.5-.98c-1.77-.28-3.18-.63-4.22-1.07s-1.81-.98-2.3-1.63c-.49-.65-.73-1.46-.73-2.42s.28-1.81.84-2.51c.56-.7,1.44-1.23,2.63-1.6,1.2-.37,2.72-.55,4.58-.55,2.15,0,3.87.26,5.16.77,1.3.52,2.26,1.26,2.88,2.24.48.74.82,1.62,1.03,2.64.12.59.64,1.02,1.24,1.02h13.4c.77,0,1.36-.67,1.27-1.44-.44-3.73-1.57-6.88-3.39-9.44-2.04-2.89-4.92-5.05-8.62-6.47-3.71-1.42-8.22-2.13-13.54-2.13-6.03,0-10.88.87-14.53,2.62s-6.24,4.03-7.75,6.85c-1.52,2.81-2.28,5.95-2.28,9.41s.77,6.72,2.31,9.29c1.54,2.57,3.68,4.61,6.41,6.11,2.73,1.51,5.93,2.54,9.59,3.09l7,1.05c2.35.36,4.21.79,5.56,1.3,1.35.5,2.32,1.1,2.91,1.81.59.7.88,1.59.88,2.64,0,1.16-.32,2.11-.96,2.87-.64.76-1.61,1.33-2.92,1.71-1.3.38-2.97.57-5.01.57s-3.91-.24-5.38-.71-2.64-1.3-3.5-2.48c-.7-.96-1.17-2.21-1.39-3.76-.09-.63-.62-1.1-1.26-1.1h-14.37c-.75,0-1.34.65-1.27,1.4.33,3.74,1.41,7.01,3.25,9.81,2.06,3.14,5.07,5.55,9.03,7.25,3.96,1.7,8.84,2.55,14.62,2.55s10.5-.84,14.45-2.51c3.95-1.67,6.94-4.04,8.96-7.12,2.02-3.07,3.03-6.71,3.03-10.9,0-3.46-.74-6.4-2.23-8.82-1.48-2.42-3.78-4.41-6.88-5.95ZM263.04,247.06h14.03c.83,0,1.5.67,1.5,1.5v41.79c0,.83.67,1.5,1.5,1.5h14.13c.83,0,1.5-.67,1.5-1.5v-41.79c0-.83.67-1.5,1.5-1.5h14.05c.83,0,1.5-.67,1.5-1.5v-11.73c0-.83-.67-1.5-1.5-1.5h-48.23c-.83,0-1.5.67-1.5,1.5v11.73c0,.83.67,1.5,1.5,1.5ZM354.97,253.23c-.93,4.19-1.83,8.47-2.68,12.83-.06.32-.12.65-.18.98-.33-1.72-.67-3.39-1.01-4.99-.54-2.55-1.19-5.48-1.94-8.78l-5.17-19.63c-.2-.77-.9-1.31-1.7-1.31h-22.75c-.97,0-1.76.79-1.76,1.76v56c0,.97.79,1.76,1.76,1.76h12.76c.97,0,1.76-.79,1.76-1.76v-22.63c0-2.26-.03-4.8-.1-7.63-.07-2.83-.18-5.89-.33-9.2-.05-.86-.09-1.75-.14-2.64.26,1.18.51,2.32.75,3.39.42,1.8.84,3.54,1.25,5.24.42,1.69.86,3.42,1.32,5.19.46,1.77.95,3.65,1.48,5.64l6.43,23.1c.21.76.91,1.29,1.7,1.29h11.3c.79,0,1.49-.53,1.7-1.3l6.35-23.1c.93-3.6,1.69-6.56,2.28-8.89.59-2.33,1.18-4.86,1.79-7.57.22-.99.46-2.06.7-3.19-.15,2.75-.26,5.33-.34,7.73-.14,4.4-.21,8.37-.21,11.92v22.63c0,.97.79,1.76,1.76,1.76h12.76c.97,0,1.76-.79,1.76-1.76v-56c0-.97-.79-1.76-1.76-1.76h-22.75c-.8,0-1.51.54-1.71,1.32l-5.07,19.58ZM494.28,263.93c-1.48-2.42-3.78-4.41-6.88-5.95-3.1-1.54-7.1-2.68-12.01-3.42l-6.5-.98c-1.77-.28-3.18-.63-4.22-1.07-1.05-.43-1.81-.98-2.3-1.63-.49-.65-.73-1.46-.73-2.42s.28-1.81.84-2.51c.56-.7,1.44-1.23,2.63-1.6,1.2-.37,2.72-.55,4.58-.55,2.15,0,3.87.26,5.16.77,1.3.52,2.26,1.26,2.88,2.24.48.74.82,1.62,1.03,2.64.12.59.64,1.02,1.24,1.02h13.4c.77,0,1.36-.67,1.27-1.44-.44-3.73-1.57-6.88-3.39-9.44-2.04-2.89-4.92-5.05-8.62-6.47-3.71-1.42-8.22-2.13-13.54-2.13-6.03,0-10.88.87-14.53,2.62-3.65,1.75-6.24,4.03-7.75,6.85-1.52,2.81-2.28,5.95-2.28,9.41s.77,6.72,2.31,9.29c1.54,2.57,3.67,4.61,6.41,6.11,2.73,1.51,5.93,2.54,9.59,3.09l7,1.05c2.35.36,4.21.79,5.56,1.3s2.32,1.1,2.91,1.81c.59.7.88,1.59.88,2.64,0,1.16-.32,2.11-.96,2.87-.64.76-1.61,1.33-2.92,1.71-1.3.38-2.97.57-5.01.57s-3.91-.24-5.38-.71c-1.47-.47-2.64-1.3-3.5-2.48-.7-.96-1.17-2.21-1.39-3.76-.09-.63-.62-1.1-1.26-1.1h-14.37c-.75,0-1.34.65-1.27,1.4.33,3.74,1.41,7.01,3.24,9.81,2.06,3.14,5.07,5.55,9.03,7.25,3.96,1.7,8.84,2.55,14.62,2.55s10.5-.84,14.45-2.51c3.95-1.67,6.94-4.04,8.96-7.12,2.02-3.07,3.03-6.71,3.03-10.9,0-3.46-.74-6.4-2.23-8.82ZM420.55,284.99c6.27-.14,12.5-.39,18.59-.76-.95-2.46-1.9-4.94-2.83-7.44-.11-.28-.21-.57-.32-.86-1.53-4.09-3.06-8.23-4.6-12.45-.15-.41-.3-.82-.45-1.24-.28-.77-.56-1.54-.85-2.32-.13-.35-.26-.71-.39-1.06-.24-.66-.48-1.32-.72-1.98-.1-.28-.21-.57-.31-.85-.46-1.26-.92-2.54-1.39-3.81-.12-.32-.23-.64-.35-.96-1.09-2.99-2.21-6.02-3.35-9.09-.1-.27-.2-.54-.3-.81-.51-1.36-1.02-2.73-1.54-4.11-.13-.35-.26-.7-.4-1.05-.17-.45-.34-.89-.51-1.34-.1-.28-.21-.56-.32-.84-.37-.97-.74-1.95-1.12-2.93-.08-.2-.15-.4-.23-.6-.94-2.46-1.91-4.94-2.9-7.46-.1-.26-.21-.52-.31-.79-.03-.08-.06-.15-.09-.23-.13-.32-.25-.64-.38-.97-.79-1.99-1.6-4.01-2.42-6.04-.03.09-.06.18-.09.27-1.4,4.24-2.69,8.24-3.89,12.05-.15.47-.3.94-.44,1.41-.04.13-.08.27-.12.4-.1.31-.19.62-.29.93-.28.89-.55,1.77-.82,2.64-.09.29-.18.58-.27.87-.87,2.81-1.69,5.53-2.49,8.19-.08.26-.15.51-.23.76-.58,1.93-1.14,3.82-1.7,5.7-.09.32-.19.64-.28.96-.23.78-.46,1.56-.69,2.33-.12.41-.24.83-.37,1.24-.1.34-.2.69-.31,1.03-.08.27-.16.55-.24.82-1.15,3.86-2.29,7.7-3.48,11.61-.09.3-.18.6-.28.91-.19.63-.38,1.25-.58,1.88-.09.29-.18.57-.26.86-.06.18-.11.36-.17.54-.1.34-.21.68-.31,1.02-.95,3.05-1.93,6.16-2.98,9.39-.13.39-.25.78-.38,1.18-.3.92-.6,1.85-.92,2.79,4.4.17,8.88.28,13.4.32,1.73.02,3.47.02,5.2.02.04.73.07,1.46.08,2.18.03,1.64,0,3.28-.1,4.92,1.28,1.21,5.56,1.29,8.37.73.91-.18,1.67-.43,2.11-.73-.14-2.4-.15-4.82-.01-7.22ZM187.61,291.86h12.9c1.16,0,2.1-.94,2.1-2.1v-55.33c0-1.16-.94-2.1-2.1-2.1h-12.9c-1.16,0-2.1.94-2.1,2.1v55.33c0,1.16.94,2.1,2.1,2.1ZM384.9,166.9c0,4.29-.92,8.04-2.77,11.25-1.84,3.21-4.52,5.69-8.03,7.45-3.51,1.76-7.7,2.64-12.58,2.64h-10.33c-.68,0-1.23.55-1.23,1.23v15.95c0,.68-.55,1.23-1.23,1.23h-15.09c-.68,0-1.23-.55-1.23-1.23v-58.63c0-.68.55-1.23,1.23-1.23h27.86c4.88,0,9.07.88,12.59,2.63,3.52,1.75,6.2,4.23,8.04,7.44,1.84,3.21,2.77,6.97,2.77,11.27ZM366.54,167.89c1.33-1.37,2.32-3.09,2.81-5.04l-2.28-.58c-.99,3.91-4.49,6.63-8.53,6.63s-7.58-2.75-8.54-6.7l-2.29.56c.45,1.83,1.33,3.45,2.51,4.78l-2.85,2.79,1.65,1.68,2.96-2.89c.73.53,1.52.97,2.37,1.31l-1.8,3.94,2.14.98,1.95-4.26c.62.11,1.26.16,1.91.16.45,0,.9-.03,1.33-.08l1.52,4.18,2.21-.81-1.42-3.91c.9-.31,1.75-.73,2.54-1.26l2.55,3.38,1.88-1.42-2.61-3.46ZM414.7,212.37l4.02-.98-4.02-.98,2.24-2.75-2.75,2.24-.98-4.02-.98,4.02-2.75-2.24,2.24,2.75-4.02.98,4.02.98-2.24,2.75,2.75-2.24.98,4.02.98-4.02,2.75,2.24-2.24-2.75ZM191.97,220.65c-.14,1.24-.6,3.13-1.03,4.3-.55,1.49-.46,3.13.35,4.05,1.05,1.19,4.62,1.54,5.75-.94.27-.59.54-1.79.49-2.72-.17-3.15-2.58-7.44-5.02-8.99-2.52-1.6-.3,2.09-.55,4.29Z"/>
  <polygon class="cls-2" points="330.03 118.54 337.34 116.75 330.03 114.96 334.1 109.97 329.1 114.03 327.31 106.72 325.53 114.03 320.53 109.97 324.59 114.96 317.29 116.75 324.59 118.54 320.53 123.53 325.53 119.47 327.31 126.78 329.1 119.47 334.1 123.53 330.03 118.54"/>
  <path class="cls-2" d="M93.95,180.29c-1.59,7.64-2.88,8.93-10.52,10.52,7.64,1.59,8.93,2.88,10.52,10.52,1.59-7.64,2.88-8.93,10.52-10.52-7.64-1.59-8.93-2.88-10.52-10.52Z"/>
</svg>