<?xml version="1.0" encoding="UTF-8"?>
<svg xmlns="http://www.w3.org/2000/svg" xmlns:xlink="http://www.w3.org/1999/xlink" viewBox="0 0 500 400">
  <defs>
    <style>
      .cls-1 {
        fill: none;
      }

      .cls-2 {
        mask: url(#mask);
      }

      .cls-3 {
        fill: url(#radial-gradient-7);
      }

      .cls-4 {
        fill: url(#radial-gradient-6);
      }

      .cls-5 {
        fill: url(#radial-gradient-5);
      }

      .cls-6 {
        fill: url(#radial-gradient-4);
      }

      .cls-7 {
        fill: url(#radial-gradient-9);
      }

      .cls-8 {
        fill: url(#radial-gradient-8);
      }

      .cls-9 {
        fill: url(#radial-gradient-3);
      }

      .cls-10 {
        fill: url(#radial-gradient-2);
      }

      .cls-11 {
        fill: #231f20;
      }

      .cls-12 {
        fill: url(#radial-gradient);
      }

      .cls-13 {
        isolation: isolate;
      }

      .cls-14 {
        mask: url(#mask-2);
      }

      .cls-15 {
        mask: url(#mask-3);
      }

      .cls-16 {
        mask: url(#mask-4);
      }

      .cls-17 {
        mask: url(#mask-5);
      }

      .cls-18 {
        mask: url(#mask-1);
      }

      .cls-19 {
        mix-blend-mode: multiply;
      }

      .cls-20 {
        clip-path: url(#clippath-1);
      }

      .cls-21 {
        clip-path: url(#clippath-3);
      }

      .cls-22 {
        clip-path: url(#clippath-4);
      }

      .cls-23 {
        clip-path: url(#clippath-2);
      }

      .cls-24 {
        clip-path: url(#clippath-5);
      }

      .cls-25 {
        fill: #008ed3;
      }

      .cls-26 {
        fill: url(#radial-gradient-12);
      }

      .cls-27 {
        fill: url(#radial-gradient-10);
      }

      .cls-28 {
        fill: url(#radial-gradient-11);
      }

      .cls-29 {
        clip-path: url(#clippath);
      }
    </style>
    <clipPath id="clippath">
      <path class="cls-1" d="M323.35,28.01h-30.71c2.03,43.11,23.85,81.13,56.55,105.16l9.61-31.67c-20.35-18.39-33.68-44.4-35.44-73.49"/>
    </clipPath>
    <radialGradient id="radial-gradient" cx="-146" cy="505.87" fx="-146" fy="505.87" r=".87" gradientTransform="translate(-51351.02 -179369.79) rotate(-180) scale(354.75 -354.75)" gradientUnits="userSpaceOnUse">
      <stop offset="0" stop-color="#000"/>
      <stop offset=".35" stop-color="#000"/>
      <stop offset=".9" stop-color="#fff"/>
      <stop offset="1" stop-color="#fff"/>
    </radialGradient>
    <mask id="mask" x="244.49" y="-2.28" width="162.45" height="165.74" maskUnits="userSpaceOnUse">
      <rect class="cls-12" x="269.27" y="18.48" width="112.89" height="124.22" transform="translate(8.95 191.25) rotate(-33.15)"/>
    </mask>
    <radialGradient id="radial-gradient-2" cx="-146" cy="505.87" fx="-146" fy="505.87" r=".87" gradientTransform="translate(-51351.02 -179369.79) rotate(-180) scale(354.75 -354.75)" gradientUnits="userSpaceOnUse">
      <stop offset="0" stop-color="#fff"/>
      <stop offset=".35" stop-color="#fff"/>
      <stop offset=".9" stop-color="#231f20"/>
      <stop offset="1" stop-color="#231f20"/>
    </radialGradient>
    <clipPath id="clippath-1">
      <path class="cls-1" d="M279.63,28.01h-30.69c2.25,62.92,36.53,117.81,87.01,148.82l9.27-30.55c-37.98-26.2-63.47-69.25-65.58-118.27"/>
    </clipPath>
    <radialGradient id="radial-gradient-3" cx="-146" cy="505.87" fx="-146" fy="505.87" r=".87" gradientTransform="translate(-51345.73 -179349.92) rotate(-180) scale(354.75 -354.75)" xlink:href="#radial-gradient"/>
    <mask id="mask-1" x="180.79" y="-16.07" width="232.55" height="236.99" maskUnits="userSpaceOnUse">
      <rect class="cls-9" x="216.08" y="13.8" width="161.99" height="177.25" transform="translate(-7.65 179.13) rotate(-33.15)"/>
    </mask>
    <radialGradient id="radial-gradient-4" cx="-146" cy="505.87" fx="-146" fy="505.87" r=".87" gradientTransform="translate(-51345.73 -179349.92) rotate(-180) scale(354.75 -354.75)" xlink:href="#radial-gradient-2"/>
    <clipPath id="clippath-2">
      <path class="cls-1" d="M235.93,28.01h-30.7c1.85,64.09,30.51,121.57,75.15,161.61h51.61c-55.74-32.96-93.77-92.84-96.06-161.61"/>
    </clipPath>
    <radialGradient id="radial-gradient-5" cx="-146" cy="505.87" fx="-146" fy="505.87" r=".87" gradientTransform="translate(-51349.71 -179331.94) rotate(180) scale(354.75 -354.75)" xlink:href="#radial-gradient"/>
    <mask id="mask-2" x="131.24" y="-30.03" width="274.74" height="277.68" maskUnits="userSpaceOnUse">
      <rect class="cls-5" x="171.36" y="6.5" width="194.5" height="204.62" transform="translate(-15.78 164.61) rotate(-33.15)"/>
    </mask>
    <radialGradient id="radial-gradient-6" cx="-146" cy="505.87" fx="-146" fy="505.87" r=".87" gradientTransform="translate(-51349.81 -179332.01) rotate(180) scale(354.75 -354.75)" xlink:href="#radial-gradient-2"/>
    <clipPath id="clippath-3">
      <path class="cls-1" d="M117.86,28.01c1.23,59.36,19.05,114.71,49.01,161.61h37.24c-33.72-45.39-54.17-101.18-55.56-161.61h-30.68Z"/>
    </clipPath>
    <radialGradient id="radial-gradient-7" cx="-146" cy="505.87" fx="-146" fy="505.87" r=".87" gradientTransform="translate(-51368.93 -179272.27) rotate(180) scale(354.75 -354.75)" xlink:href="#radial-gradient"/>
    <mask id="mask-3" x="43.87" y="-11.48" width="234.22" height="240.58" maskUnits="userSpaceOnUse">
      <rect class="cls-3" x="80.69" y="17.58" width="160.58" height="182.46" transform="translate(-33.3 105.75) rotate(-33.15)"/>
    </mask>
    <radialGradient id="radial-gradient-8" cx="-146" cy="505.87" fx="-146" fy="505.87" r=".87" gradientTransform="translate(-51368.93 -179272.27) rotate(180) scale(354.75 -354.75)" xlink:href="#radial-gradient-2"/>
    <clipPath id="clippath-4">
      <path class="cls-1" d="M161.54,28.01c1.47,61.01,23.32,117.06,58.97,161.6l13.91-32.62c-25.49-36.85-40.9-81.18-42.2-128.98h-30.68Z"/>
    </clipPath>
    <radialGradient id="radial-gradient-9" cx="-146" cy="505.87" fx="-146" fy="505.87" r=".87" gradientTransform="translate(-51362.05 -179293.37) rotate(180) scale(354.75 -354.75)" xlink:href="#radial-gradient"/>
    <mask id="mask-4" x="87.56" y="-5.36" width="220.86" height="228.34" maskUnits="userSpaceOnUse">
      <rect class="cls-7" x="123.29" y="21.23" width="149.39" height="175.15" transform="translate(-27.27 125.98) rotate(-33.15)"/>
    </mask>
    <radialGradient id="radial-gradient-10" cx="-146" cy="505.87" fx="-146" fy="505.87" r=".87" gradientTransform="translate(-51361.77 -179293.79) rotate(180) scale(354.75 -354.75)" xlink:href="#radial-gradient-2"/>
    <clipPath id="clippath-5">
      <path class="cls-1" d="M336.38,28.01c1.59,23.07,11.46,43.89,26.65,59.53l18.06-59.53h-44.7Z"/>
    </clipPath>
    <radialGradient id="radial-gradient-11" cx="-146" cy="505.87" fx="-146" fy="505.87" r=".87" gradientTransform="translate(-51362.81 -179390.5) rotate(180) scale(354.75 -354.75)" xlink:href="#radial-gradient"/>
    <mask id="mask-5" x="309.12" y="7.54" width="99.22" height="100.46" maskUnits="userSpaceOnUse">
      <rect class="cls-28" x="323.74" y="20.63" width="69.98" height="74.29" transform="translate(26.8 205.58) rotate(-33.15)"/>
    </mask>
    <radialGradient id="radial-gradient-12" cx="-146" cy="505.87" fx="-146" fy="505.87" r=".87" gradientTransform="translate(-51362.81 -179390.5) rotate(180) scale(354.75 -354.75)" xlink:href="#radial-gradient-2"/>
  </defs>
  <g class="cls-13">
    <g id="Layer_1" data-name="Layer 1">
      <g>
        <g>
          <g>
            <path class="cls-25" d="M292.64,28.01c2.03,43.12,23.85,81.13,56.55,105.16l9.61-31.67c-20.35-18.39-33.68-44.4-35.44-73.49h-30.71Z"/>
            <path class="cls-25" d="M248.93,28.01c2.25,62.93,36.53,117.82,87.01,148.83l9.27-30.55c-37.98-26.2-63.47-69.25-65.58-118.28h-30.69Z"/>
            <path class="cls-25" d="M205.23,28.01c1.85,64.1,30.51,121.58,75.15,161.61h51.61c-55.74-32.96-93.77-92.84-96.06-161.61h-30.7Z"/>
            <path class="cls-25" d="M117.86,28.01c1.23,59.37,19.05,114.72,49.01,161.61h37.24c-33.72-45.39-54.17-101.18-55.56-161.61h-30.68Z"/>
            <path class="cls-25" d="M161.54,28.01c1.47,61.01,23.32,117.06,58.97,161.6l13.91-32.62c-25.49-36.85-40.9-81.18-42.2-128.98h-30.68Z"/>
            <path class="cls-25" d="M336.38,28.01c1.58,23.07,11.45,43.9,26.64,59.53l18.06-59.53h-44.7Z"/>
            <g class="cls-19">
              <g>
                <g class="cls-29">
                  <g class="cls-2">
                    <rect class="cls-10" x="269.27" y="18.48" width="112.89" height="124.22" transform="translate(8.95 191.25) rotate(-33.15)"/>
                  </g>
                </g>
                <g class="cls-20">
                  <g class="cls-18">
                    <rect class="cls-6" x="216.08" y="13.8" width="161.99" height="177.25" transform="translate(-7.65 179.13) rotate(-33.15)"/>
                  </g>
                </g>
                <g class="cls-23">
                  <g class="cls-14">
                    <rect class="cls-4" x="171.36" y="6.5" width="194.5" height="204.62" transform="translate(-15.78 164.61) rotate(-33.15)"/>
                  </g>
                </g>
                <g class="cls-21">
                  <g class="cls-15">
                    <rect class="cls-8" x="80.69" y="17.58" width="160.58" height="182.46" transform="translate(-33.3 105.75) rotate(-33.15)"/>
                  </g>
                </g>
                <g class="cls-22">
                  <g class="cls-16">
                    <rect class="cls-27" x="123.29" y="21.23" width="149.39" height="175.15" transform="translate(-27.27 125.98) rotate(-33.15)"/>
                  </g>
                </g>
                <g class="cls-24">
                  <g class="cls-17">
                    <rect class="cls-26" x="323.74" y="20.63" width="69.98" height="74.29" transform="translate(26.8 205.58) rotate(-33.15)"/>
                  </g>
                </g>
              </g>
            </g>
          </g>
          <g>
            <polygon class="cls-11" points="5.1 212.8 13.68 212.8 24.46 245.92 35.55 212.68 42.27 212.68 53.37 245.92 64.14 212.8 72.47 212.8 56.72 257.78 49.88 257.78 38.78 225.68 27.68 257.78 20.84 257.78 5.1 212.8"/>
            <path class="cls-11" d="M71.62,240.75v-.13c0-9.63,6.9-17.55,16.65-17.55,10.84,0,16.33,8.43,16.33,18.12,0,.7-.06,1.4-.13,2.17h-25.04c.84,5.48,4.78,8.55,9.81,8.55,3.81,0,6.52-1.4,9.23-4.03l4.58,4.03c-3.23,3.83-7.68,6.31-13.94,6.31-9.88,0-17.49-7.08-17.49-17.48M96.85,238.26c-.52-4.98-3.49-8.87-8.65-8.87-4.77,0-8.13,3.64-8.84,8.87h17.49Z"/>
            <path class="cls-11" d="M109.37,253.07l3.48-5.24c3.68,2.75,7.68,4.15,11.16,4.15s5.29-1.41,5.29-3.64v-.13c0-2.61-3.61-3.51-7.62-4.72-5.03-1.4-10.65-3.44-10.65-9.89v-.13c0-6.38,5.36-10.28,12.13-10.28,4.26,0,8.9,1.47,12.52,3.83l-3.09,5.49c-3.29-1.98-6.78-3.19-9.62-3.19-3.03,0-4.77,1.4-4.77,3.38v.13c0,2.42,3.68,3.44,7.68,4.72,4.97,1.53,10.58,3.76,10.58,9.82v.13c0,7.08-5.55,10.59-12.65,10.59-4.84,0-10.2-1.72-14.45-5.04"/>
            <path class="cls-11" d="M145.81,248.15v-17.74h-4.32v-6.64h4.32v-9.25h7.81v9.25h9.16v6.64h-9.16v16.53c0,3,1.55,4.2,4.19,4.2,1.74,0,3.29-.38,4.84-1.15v6.32c-1.93,1.09-4.13,1.72-7.03,1.72-5.74,0-9.81-2.49-9.81-9.89"/>
            <polygon class="cls-11" points="167.49 223.77 175.5 223.77 182.34 246.87 189.89 223.65 196.53 223.65 204.15 246.87 211.12 223.77 218.93 223.77 207.76 257.72 200.79 257.72 193.18 234.69 185.5 257.72 178.53 257.72 167.49 223.77"/>
            <path class="cls-11" d="M222.1,240.81v-.13c0-9.63,7.74-17.61,18.2-17.61s18.14,7.85,18.14,17.49v.13c0,9.57-7.74,17.55-18.26,17.55s-18.07-7.85-18.07-17.42M250.62,240.81v-.13c0-5.94-4.32-10.85-10.45-10.85s-10.26,4.85-10.26,10.72v.13c0,5.87,4.32,10.84,10.39,10.84s10.33-4.91,10.33-10.71"/>
            <path class="cls-11" d="M264.17,240.81v-.13c0-9.63,7.75-17.61,18.2-17.61s18.14,7.85,18.14,17.49v.13c0,9.57-7.75,17.55-18.26,17.55s-18.07-7.85-18.07-17.42M292.7,240.81v-.13c0-5.94-4.32-10.85-10.45-10.85s-10.26,4.85-10.26,10.72v.13c0,5.87,4.32,10.84,10.39,10.84s10.32-4.91,10.32-10.71"/>
            <path class="cls-11" d="M306.38,240.69v-.13c0-11.17,7.68-17.49,15.81-17.49,5.62,0,9.17,2.81,11.62,5.94v-18.13h7.81v46.59h-7.81v-5.61c-2.52,3.51-6.06,6.31-11.62,6.31-8,0-15.81-6.31-15.81-17.48M333.93,240.69v-.13c0-6.51-4.65-10.78-9.87-10.78s-9.8,4.08-9.8,10.78v.13c0,6.5,4.52,10.79,9.8,10.79s9.87-4.34,9.87-10.79"/>
            <path class="cls-25" d="M367.42,235.26v-.13c0-12.57,9.81-23.1,23.69-23.1s23.55,10.4,23.55,22.98v.12c0,12.57-9.8,23.1-23.68,23.1s-23.56-10.4-23.56-22.97M406.33,235.26v-.13c0-8.68-6.39-15.89-15.35-15.89s-15.23,7.08-15.23,15.77v.12c0,8.68,6.39,15.89,15.36,15.89s15.23-7.08,15.23-15.76"/>
            <path class="cls-25" d="M423.05,223.77h7.81v5.24c2.2-3.19,5.36-5.94,10.65-5.94,7.68,0,12.13,5.11,12.13,12.95v21.44h-7.81v-19.14c0-5.24-2.65-8.24-7.29-8.24s-7.68,3.13-7.68,8.36v19.01h-7.81v-33.7Z"/>
            <path class="cls-25" d="M460.87,240.75v-.13c0-9.63,6.91-17.55,16.65-17.55,10.84,0,16.33,8.43,16.33,18.12,0,.7-.06,1.4-.13,2.17h-25.03c.84,5.48,4.77,8.55,9.8,8.55,3.81,0,6.52-1.4,9.22-4.03l4.59,4.03c-3.23,3.83-7.68,6.31-13.94,6.31-9.87,0-17.49-7.08-17.49-17.48M486.1,238.26c-.51-4.98-3.48-8.87-8.65-8.87-4.77,0-8.13,3.64-8.84,8.87h17.49Z"/>
          </g>
        </g>
        <g>
          <path class="cls-25" d="M40.73,371.75c-6.4,0-12.68-1.1-18.84-3.3-6.16-2.2-11.76-5.58-16.8-10.14l10.92-13.08c3.84,3.12,7.78,5.6,11.82,7.44,4.04,1.84,8.46,2.76,13.26,2.76,3.84,0,6.82-.7,8.94-2.1,2.12-1.4,3.18-3.34,3.18-5.82v-.24c0-1.2-.22-2.26-.66-3.18-.44-.92-1.28-1.78-2.53-2.58-1.24-.8-2.97-1.6-5.17-2.4-2.21-.8-5.07-1.64-8.6-2.52-4.25-1.04-8.1-2.2-11.55-3.48-3.45-1.28-6.38-2.86-8.78-4.74-2.41-1.88-4.27-4.22-5.59-7.02-1.32-2.8-1.99-6.28-1.99-10.44v-.24c0-3.84.71-7.3,2.15-10.38,1.43-3.08,3.44-5.74,6.02-7.98,2.58-2.24,5.67-3.96,9.25-5.16,3.58-1.2,7.54-1.8,11.86-1.8,6.16,0,11.82.92,16.98,2.76,5.16,1.84,9.9,4.48,14.22,7.92l-9.6,13.92c-3.76-2.56-7.44-4.58-11.04-6.06-3.6-1.48-7.2-2.22-10.8-2.22s-6.3.7-8.1,2.1c-1.8,1.4-2.7,3.14-2.7,5.22v.24c0,1.36.26,2.54.78,3.54.52,1,1.46,1.9,2.83,2.7,1.36.8,3.23,1.56,5.59,2.28,2.37.72,5.35,1.56,8.96,2.52,4.25,1.12,8.04,2.38,11.37,3.78,3.33,1.4,6.13,3.08,8.42,5.04,2.29,1.96,4.01,4.26,5.17,6.9,1.16,2.64,1.75,5.8,1.75,9.48v.24c0,4.16-.76,7.86-2.26,11.1-1.51,3.24-3.62,5.96-6.32,8.16-2.7,2.2-5.93,3.88-9.67,5.04-3.75,1.16-7.9,1.74-12.46,1.74Z"/>
          <path class="cls-25" d="M87.53,286.56h34.32c5.04,0,9.54.7,13.5,2.1,3.96,1.4,7.32,3.38,10.08,5.94,2.76,2.56,4.88,5.62,6.36,9.18,1.48,3.56,2.22,7.5,2.22,11.82v.24c0,4.88-.88,9.16-2.64,12.84-1.76,3.68-4.18,6.76-7.26,9.24-3.08,2.48-6.68,4.34-10.8,5.58-4.12,1.24-8.54,1.86-13.26,1.86h-14.04v25.2h-18.48v-83.99ZM120.65,328.91c4.64,0,8.24-1.22,10.8-3.66,2.56-2.44,3.84-5.46,3.84-9.06v-.24c0-4.16-1.34-7.32-4.02-9.48-2.68-2.16-6.34-3.24-10.98-3.24h-14.28v25.68h14.64Z"/>
          <path class="cls-25" d="M208.48,371.99c-6.48,0-12.44-1.14-17.88-3.42-5.44-2.28-10.14-5.36-14.1-9.24-3.96-3.88-7.04-8.44-9.24-13.68-2.2-5.24-3.3-10.86-3.3-16.86v-.24c0-6,1.12-11.62,3.36-16.86,2.24-5.24,5.34-9.84,9.3-13.8,3.96-3.96,8.68-7.08,14.16-9.36,5.48-2.28,11.46-3.42,17.94-3.42s12.44,1.14,17.88,3.42c5.44,2.28,10.14,5.36,14.1,9.24,3.96,3.88,7.04,8.44,9.24,13.68,2.2,5.24,3.3,10.86,3.3,16.86v.24c0,6-1.12,11.62-3.36,16.86-2.24,5.24-5.34,9.84-9.3,13.8-3.96,3.96-8.68,7.08-14.16,9.36-5.48,2.28-11.46,3.42-17.94,3.42ZM208.72,354.95c3.68,0,7.08-.68,10.2-2.04,3.12-1.36,5.78-3.24,7.98-5.64,2.2-2.4,3.92-5.18,5.16-8.34,1.24-3.16,1.86-6.54,1.86-10.14v-.24c0-3.6-.62-7-1.86-10.2-1.24-3.2-3-6-5.28-8.4-2.28-2.4-4.98-4.3-8.1-5.7-3.12-1.4-6.52-2.1-10.2-2.1s-7.18.68-10.26,2.04c-3.08,1.36-5.72,3.24-7.92,5.64-2.2,2.4-3.92,5.18-5.16,8.34-1.24,3.16-1.86,6.54-1.86,10.14v.24c0,3.6.62,7,1.86,10.2,1.24,3.2,3,6,5.28,8.4s4.96,4.3,8.04,5.7c3.08,1.4,6.5,2.1,10.26,2.1Z"/>
          <path class="cls-25" d="M269.68,286.56h38.4c10.64,0,18.8,2.84,24.48,8.52,4.8,4.8,7.2,11.2,7.2,19.2v.24c0,6.8-1.66,12.34-4.98,16.62-3.32,4.28-7.66,7.42-13.02,9.42l20.52,30h-21.6l-18-26.88h-14.52v26.88h-18.48v-83.99ZM306.88,327.36c4.56,0,8.06-1.08,10.5-3.24,2.44-2.16,3.66-5.04,3.66-8.64v-.24c0-4-1.28-7-3.84-9-2.56-2-6.12-3-10.68-3h-18.36v24.12h18.72Z"/>
          <path class="cls-25" d="M375.99,303.6h-25.56v-17.04h69.6v17.04h-25.56v66.96h-18.48v-66.96Z"/>
          <path class="cls-25" d="M464.19,371.75c-6.4,0-12.68-1.1-18.84-3.3-6.16-2.2-11.76-5.58-16.8-10.14l10.92-13.08c3.84,3.12,7.78,5.6,11.82,7.44,4.04,1.84,8.46,2.76,13.26,2.76,3.84,0,6.82-.7,8.94-2.1,2.12-1.4,3.18-3.34,3.18-5.82v-.24c0-1.2-.22-2.26-.66-3.18-.44-.92-1.28-1.78-2.53-2.58-1.24-.8-2.97-1.6-5.17-2.4-2.21-.8-5.07-1.64-8.6-2.52-4.25-1.04-8.1-2.2-11.55-3.48-3.45-1.28-6.38-2.86-8.78-4.74-2.41-1.88-4.27-4.22-5.59-7.02-1.32-2.8-1.99-6.28-1.99-10.44v-.24c0-3.84.71-7.3,2.15-10.38,1.43-3.08,3.44-5.74,6.02-7.98,2.58-2.24,5.67-3.96,9.25-5.16,3.58-1.2,7.54-1.8,11.86-1.8,6.16,0,11.82.92,16.98,2.76,5.16,1.84,9.9,4.48,14.22,7.92l-9.6,13.92c-3.76-2.56-7.44-4.58-11.04-6.06-3.6-1.48-7.2-2.22-10.8-2.22s-6.3.7-8.1,2.1c-1.8,1.4-2.7,3.14-2.7,5.22v.24c0,1.36.26,2.54.78,3.54.52,1,1.46,1.9,2.83,2.7,1.36.8,3.23,1.56,5.59,2.28,2.37.72,5.35,1.56,8.96,2.52,4.25,1.12,8.04,2.38,11.37,3.78,3.33,1.4,6.13,3.08,8.42,5.04,2.29,1.96,4.01,4.26,5.17,6.9,1.16,2.64,1.75,5.8,1.75,9.48v.24c0,4.16-.76,7.86-2.26,11.1-1.51,3.24-3.62,5.96-6.32,8.16-2.7,2.2-5.93,3.88-9.67,5.04-3.75,1.16-7.9,1.74-12.46,1.74Z"/>
        </g>
      </g>
    </g>
  </g>
</svg>